<?xml version="1.0" encoding="utf-8"?>
<!-- Generator: Adobe Illustrator 25.2.0, SVG Export Plug-In . SVG Version: 6.00 Build 0)  -->
<svg version="1.1" id="レイヤー_1" xmlns="http://www.w3.org/2000/svg" xmlns:xlink="http://www.w3.org/1999/xlink" x="0px"
	 y="0px" viewBox="0 0 692.6 1006.8" style="enable-background:new 0 0 692.6 1006.8;" xml:space="preserve">
<style type="text/css">
	.st0{fill:none;}
	.st1{fill:#FFFFFF;}
</style>
<rect class="st0" width="692.6" height="1006.8"/>
<g>
	<g>
		<path class="st1" d="M588.3,903.1H103V834h485.3V903.1z M106.9,899.2h477.5v-61.3H106.9V899.2z"/>
		<g>
			<path class="st1" d="M104.1,675.2l12.6-71.2h17.9l9.9,40.8h0.6l24.2-40.8h19.1l-12.6,71.2h-15.3l8-45.1h-0.8l-21.6,36.1h-9.4
				l-8.3-36.1h-0.9l-7.8,45.1H104.1z"/>
			<path class="st1" d="M197.4,640.7c2.6-13.7,13.3-22.2,27.5-22.2c15.8,0,26.1,9.2,26.1,23.9c0,2.7-0.2,4.8-0.5,6.7l-0.9,4.8
				c-2.8,13.7-12.9,22.3-27.8,22.3c-15.4,0-25.8-9-25.8-23.5c0-2.7,0.2-5.1,0.5-7.1L197.4,640.7z M213.4,648.5
				c-0.3,1.5-0.4,3.1-0.4,4.7c0,6.3,3.4,10.4,9.1,10.4c5.6,0,9.4-4.4,10.7-12.2l0.9-5.6c0.2-1.6,0.3-3.7,0.3-4.6c0-6-3.4-10-9-10
				c-5.4,0-9.4,3.9-10.7,12L213.4,648.5z"/>
			<path class="st1" d="M309.2,675.2h-16.1l1.5-8.6h-0.9c-2.3,4.8-7.5,9.4-15.9,9.4c-10,0-16.9-6.2-16.9-16.6c0-3.6,0.5-6.7,1-9.5
				l5.5-30.3H284l-5.3,30c-0.3,1.7-0.5,3.9-0.5,5.6c0,5.3,3.4,7.9,7.7,7.9c6.2,0,9.6-4.5,11-12.3l5.5-31.2H319L309.2,675.2z"/>
			<path class="st1" d="M334.1,619.5h16.4L349,628h0.9c2.5-5,7.5-9.3,15.8-9.3c10.7,0,16.7,7.1,16.7,16.8c0,3.6-0.7,7.6-1.2,10.4
				l-5.2,29.3h-16.7l5.2-30.1c0.3-1.6,0.5-3.9,0.5-5.4c0-5.2-3.1-8.2-7.4-8.2c-6.2,0-9.8,4.5-11.1,12.4l-5.5,31.3h-16.7L334.1,619.5
				z"/>
			<path class="st1" d="M406.5,606.6h16l-2.4,13.8h11.5l-2.2,12.5h-11.2l-3.8,21.7c-0.4,2.2-0.5,3.1-0.5,3.8c0,3.7,2.1,5.2,6.4,5.2
				c1.9,0,3.9-0.3,4.9-0.4l-2.1,11.7c-1.5,0.4-4.8,0.8-8.7,0.8c-11.7,0-17.8-3.8-17.8-12c0-1.3,0.2-3.1,0.5-5l4.6-25.8h-7.9
				l2.2-12.5h8L406.5,606.6z"/>
			<path class="st1" d="M435,660.2c0-0.3,0-0.6,0.1-0.9c0.4-11.3,9.6-16.9,22.8-16.9h12.7l0.7-3.9c0-0.4,0.1-1.1,0.1-1.7
				c0-3.4-2.5-6.3-7.5-6.3c-4.2,0-6.8,2-7.5,4.9h-15.6c1.1-8.6,8.7-16.8,24.1-16.8c13.7,0,22.5,6.5,22.5,18.6c0,1.5-0.3,3.5-0.6,5.3
				l-5.8,32.6h-15.5l1.3-7.1H466c-1.9,3.9-6.6,7.9-14.4,7.9C442.3,676,435,670.3,435,660.2z M458.5,664.5c4.4,0,8.6-2.9,9.4-7.2
				l1-5.8h-8.8c-5.6,0-8.5,2.9-8.5,6.7C451.6,661.9,454.4,664.5,458.5,664.5z"/>
			<path class="st1" d="M506,619.5h16.6l-9.9,55.7h-16.7L506,619.5z M517.1,595.3c6.2,0,9.6,3.4,9.6,8.1c0,5.2-4.2,8.5-10.4,8.5
				c-6,0-9.6-3.3-9.6-8C506.8,598.7,511,595.3,517.1,595.3z"/>
			<path class="st1" d="M538.2,619.5h16.4L553,628h0.9c2.5-5,7.5-9.3,15.8-9.3c10.7,0,16.7,7.1,16.7,16.8c0,3.6-0.7,7.6-1.2,10.4
				l-5.2,29.3h-16.7l5.2-30.1c0.3-1.6,0.5-3.9,0.5-5.4c0-5.2-3.1-8.2-7.4-8.2c-6.2,0-9.8,4.5-11.1,12.4l-5.5,31.3h-16.7L538.2,619.5
				z"/>
			<path class="st1" d="M141.5,728.5c20.3,0,28.8,12.3,28.8,22.9c0,0.4-0.1,1.7-0.2,2.1h-16.5c0-0.4,0-0.9,0-1.5
				c-0.2-3.6-3.2-9.6-12.1-9.6c-8.2,0-13.6,5.9-15.6,16.7l-1.5,8c-0.3,1.9-0.6,4.7-0.6,6.6c0,9.4,5.6,14.8,13.2,14.8
				c7.3,0,12.7-4,13.8-9.2l0.9-5h-12.9l2-11.2h28.8l-2.7,15.5c-2.6,14.3-13.5,23.7-30.8,23.7c-16.4,0-29.6-8.8-29.6-28.3
				c0-2.4,0.4-5.9,0.8-8.1l1.7-9.3C112,739.4,123,728.5,141.5,728.5z"/>
			<path class="st1" d="M229.3,800.9h-16.1l1.5-8.6h-0.9c-2.3,4.8-7.5,9.4-15.9,9.4c-10,0-16.9-6.2-16.9-16.6c0-3.6,0.5-6.7,1-9.5
				l5.5-30.3h16.6l-5.3,30c-0.3,1.7-0.5,3.9-0.5,5.6c0,5.3,3.4,7.9,7.7,7.9c6.2,0,9.6-4.5,11-12.3l5.5-31.2h16.6L229.3,800.9z"/>
			<path class="st1" d="M254.7,745.2h16.6l-9.9,55.7h-16.7L254.7,745.2z M265.8,721c6.2,0,9.6,3.4,9.6,8.1c0,5.2-4.2,8.5-10.4,8.5
				c-6,0-9.6-3.3-9.6-8C255.5,724.4,259.7,721,265.8,721z"/>
			<path class="st1" d="M318.6,756.1h0.7l5.4-30.1h16.8l-13.2,74.9h-16.7l1.6-8.9h-0.9c-1.9,5.2-7.5,9.5-15.5,9.5
				c-11.1,0-18.3-7.7-18.3-20.6c0-2.5,0.2-5.3,0.7-7.7l1-5.5c2.7-14.2,10.6-23,22.8-23C311.6,744.6,317.7,750,318.6,756.1z
				 M308.1,757.6c-5.9,0-9.6,4.6-10.9,11.8l-0.9,4.7c-0.2,0.9-0.3,2.7-0.3,4.2c0,6.4,3.4,10.2,8.8,10.2c5.8,0,9.7-4.6,11.1-12.3
				l0.8-4.6c0.2-1,0.3-2.8,0.3-3.9C316.9,761.1,312.8,757.6,308.1,757.6z"/>
			<path class="st1" d="M345.1,779.4c0-2.6,0.3-5.2,0.7-7.5l0.8-4.8c2.7-15.5,14.1-22.9,27.3-22.9c14.6,0,24,9.9,23.4,24.1
				c0,0.7-0.5,4.8-1.3,8.1h-34.5c-0.3,1.1-0.4,3-0.4,4.2c0,5,2.8,9.1,9.4,9.1c4.6,0,8-2.1,8.9-5.6H395c-1.2,9.4-10.6,17.8-25.4,17.8
				C355.8,801.9,345.1,794.7,345.1,779.4z M381.7,765.7c0.6-5.2-2.1-9.5-8-9.5c-5,0-8.6,3.1-10,9l-0.5,2.1h18.4
				C381.7,766.8,381.7,766.1,381.7,765.7z"/>
		</g>
		<rect x="103.4" y="699.6" class="st1" width="479.8" height="10"/>
		<g>
			<path class="st1" d="M138.9,871c0,0.1,0,0.1,0,0.3c0,1.5,1.6,2.3,3.2,2.3c1,0,2.8-0.3,2.8-1.7c0-1.1-1.2-1.4-2.7-1.9l-2.6-0.8
				c-2.8-0.8-5.1-2.5-5.1-6.2c0-5.1,4.3-7.8,9.6-7.8c5.8,0,9,3.2,9,6.8c0,0.4,0,0.5-0.1,0.7h-6.2c0-0.1,0-0.2,0-0.3
				c0-1.5-1.5-2.1-2.8-2.1c-1.6,0-2.5,0.8-2.5,1.7c0,0.9,0.9,1.5,2.6,2l2.7,0.8c2.5,0.7,5.1,2.2,5.1,6c0,5.1-4.6,7.8-10.1,7.8
				c-4.4,0-9.4-1.7-9.4-6.9c0-0.3,0-0.5,0.1-0.7H138.9z"/>
			<path class="st1" d="M161.5,878.2l4-22.6h7l-1.5,8.5h6.6l1.5-8.5h7l-4,22.6h-7l1.5-8.6H170l-1.5,8.6H161.5z"/>
			<path class="st1" d="M195.4,864.3c1-5.8,4.9-9.1,10.9-9.1c5.7,0,9.7,3.3,9.7,8.8c0,0.8,0,1.6-0.1,2.4l-0.6,3.1
				c-1.1,5.7-4.9,9.1-10.9,9.1c-5.7,0-9.7-3.3-9.7-8.8c0-0.8,0-1.7,0.1-2.4L195.4,864.3z M201.9,867.5c-0.1,0.7-0.2,1.4-0.2,1.9
				c0,2,0.9,3.6,3,3.6c1.8,0,3.2-1.4,3.8-4.8l0.4-2c0.1-0.7,0.2-1.4,0.2-1.9c0-2-0.9-3.6-3-3.6c-1.8,0-3.2,1.4-3.8,4.8L201.9,867.5z
				"/>
			<path class="st1" d="M242.6,870.9c-0.9,5.1-4.5,7.7-9.3,7.7c-4.7,0-8.7-2.6-8.7-7.5c0-0.7,0.1-1.3,0.2-1.6l6.6,0
				c0,0.3-0.1,0.6-0.1,0.8c0,1.2,0.6,2.3,2.1,2.3c1.6,0,2.2-1.3,2.4-2.6l2.5-14.3h7L242.6,870.9z"/>
			<path class="st1" d="M253,878.2l4-22.6h7l-4,22.6H253z"/>
			<path class="st1" d="M286.3,878.2l4-22.6h7.5l2.4,10.6h0.2l6.2-10.6h7.9l-4,22.6h-6.1l2.3-12.9h-0.3l-5.5,9.4h-3.7l-1.9-9.4h-0.3
				l-2.2,12.9H286.3z"/>
			<path class="st1" d="M331.1,855.6h8.8l2.9,22.6h-7.5l-0.2-4.3h-6l-1.7,4.3h-7L331.1,855.6z M334.2,861.3l-3.1,7.7h3.8l-0.3-7.7
				H334.2z"/>
			<path class="st1" d="M356.4,878.2l3-17.1h-5.5l1-5.6h18l-1,5.6h-5.5l-3,17.1H356.4z"/>
			<path class="st1" d="M385.5,871c0,0.1,0,0.1,0,0.3c0,1.5,1.6,2.3,3.2,2.3c1,0,2.8-0.3,2.8-1.7c0-1.1-1.2-1.4-2.7-1.9l-2.6-0.8
				c-2.8-0.8-5.1-2.5-5.1-6.2c0-5.1,4.3-7.8,9.6-7.8c5.8,0,9,3.2,9,6.8c0,0.4,0,0.5-0.1,0.7h-6.2c0-0.1,0-0.2,0-0.3
				c0-1.5-1.5-2.1-2.8-2.1c-1.6,0-2.5,0.8-2.5,1.7c0,0.9,0.9,1.5,2.6,2l2.7,0.8c2.5,0.7,5.1,2.2,5.1,6c0,5.1-4.6,7.8-10.1,7.8
				c-4.4,0-9.4-1.7-9.4-6.9c0-0.3,0-0.5,0.1-0.7H385.5z"/>
			<path class="st1" d="M416.5,869c-0.1,0.4-0.1,0.7-0.1,1.1c0,1.7,1.1,2.7,3,2.7c1.5,0,2.6-0.9,3-3.1l2.5-14h7l-2.8,15.9
				c-0.8,4.5-4.8,7.1-10.2,7.1c-4.9,0-9.5-2.3-9.5-7.6c0-0.5,0.1-1.1,0.1-1.6l2.4-13.8h7L416.5,869z"/>
			<path class="st1" d="M439.5,878.2l4-22.6h7.5l2.4,10.6h0.2l6.2-10.6h7.9l-4,22.6h-6.1l2.3-12.9h-0.3l-5.5,9.4h-3.7l-1.9-9.4h-0.3
				l-2.2,12.9H439.5z"/>
			<path class="st1" d="M476.9,864.3c1-5.8,4.9-9.1,10.9-9.1c5.7,0,9.7,3.3,9.7,8.8c0,0.8,0,1.6-0.1,2.4l-0.6,3.1
				c-1.1,5.7-4.9,9.1-10.9,9.1c-5.7,0-9.7-3.3-9.7-8.8c0-0.8,0-1.7,0.1-2.4L476.9,864.3z M483.4,867.5c-0.1,0.7-0.2,1.4-0.2,1.9
				c0,2,0.9,3.6,3,3.6c1.8,0,3.2-1.4,3.8-4.8l0.4-2c0.1-0.7,0.2-1.4,0.2-1.9c0-2-0.9-3.6-3-3.6c-1.8,0-3.2,1.4-3.8,4.8L483.4,867.5z
				"/>
			<path class="st1" d="M509.9,878.2l3-17.1h-5.5l1-5.6h18l-1,5.6h-5.5l-3,17.1H509.9z"/>
			<path class="st1" d="M534,864.3c1-5.8,4.9-9.1,10.9-9.1c5.7,0,9.7,3.3,9.7,8.8c0,0.8,0,1.6-0.2,2.4l-0.6,3.1
				c-1.1,5.7-4.9,9.1-10.9,9.1c-5.7,0-9.7-3.3-9.7-8.8c0-0.8,0-1.7,0.1-2.4L534,864.3z M540.4,867.5c-0.1,0.7-0.2,1.4-0.2,1.9
				c0,2,0.9,3.6,3,3.6c1.8,0,3.2-1.4,3.8-4.8l0.4-2c0.1-0.7,0.2-1.4,0.2-1.9c0-2-0.9-3.6-3-3.6c-1.8,0-3.2,1.4-3.8,4.8L540.4,867.5z
				"/>
		</g>
	</g>
	<g>
		<path class="st1" d="M302,348.5c-1,0-2-0.2-2.9-0.7c-2.2-1.2-5-4.5-5.9-13.2c-0.7-6.6-0.1-10.1,0.4-12.8c0.5-2.7,0.8-4.5-0.5-8
			c-1.4-3.7-5-6.5-8.4-9.2c-3.1-2.4-6.2-4.8-7.8-7.9c-3.1-6.1,1.7-10.7,4.1-13c0.3-0.3,0.5-0.5,0.7-0.7l0,0c1.3-1.4,4.5-3.2,7.3-2.3
			c2.7,0.9,4.4,3.8,5.2,8.7c0.2,5.6,1.2,9,2.8,10.4c1.4,1.1,3.1,0.8,5,0.4c0.3-0.1,0.6-0.1,0.9-0.2c1.2-0.2,2.5-0.6,3.8-1.1
			c3.1-1.1,6.3-2.2,8.9-0.2c2,1.5,1,4.3-0.2,7.6c-0.9,2.5-1.9,5.4-1.7,8.2c0.2,2.9,1.9,5.7,3.7,8.5c1.5,2.4,3,4.7,3.2,6.9
			c0.7,9.9-11.3,15.9-15.3,17.8C304.1,348.2,303.1,348.5,302,348.5z M287.3,281.5c-2,0-4.1,1.3-4.8,2.1l0,0
			c-0.2,0.2-0.5,0.4-0.7,0.7c-2.3,2.2-6.6,6.3-3.8,11.6c1.5,2.9,4.4,5.1,7.5,7.5c3.6,2.8,7.3,5.7,8.8,9.7c1.4,3.8,1,5.8,0.5,8.6
			c-0.5,2.7-1.1,6.1-0.4,12.5c0.9,8.3,3.4,11.3,5.3,12.3c1.5,0.8,3.3,0.8,5-0.1c3.8-1.9,15.3-7.6,14.6-16.7c-0.1-1.9-1.5-4.1-3-6.4
			c-1.8-2.9-3.7-5.8-3.8-9c-0.2-3,0.9-6,1.8-8.6c1.1-3.3,1.8-5.4,0.5-6.3c-2-1.6-4.8-0.6-7.8,0.4c-1.3,0.5-2.7,0.9-4,1.1
			c-0.3,0-0.6,0.1-0.9,0.2c-1.9,0.3-4.1,0.8-5.9-0.7c-2-1.6-3-5.1-3.3-11.2c-0.7-4.3-2.2-7-4.4-7.7
			C288.2,281.6,287.8,281.5,287.3,281.5z"/>
		<path class="st1" d="M288.4,370.1c-3.6,0-5-1.4-5.5-2.4c-1.2-2.3,0.1-5.7,3.4-9c4.8-4.8,4.6-6.4,4.4-9.5c0-0.5-0.1-1-0.1-1.6
			c-0.1-1.9-0.7-3.6-1.4-5.6c-0.9-2.5-2-5.4-2.3-9.6c-0.2-2.2,0.2-4.4,0.5-6.5c0.8-5.1,1.5-9.5-5.2-14c-10.1-6.8-10.2-7.7-11.1-15.2
			c-0.6-4.9-2.6-8.2-4.8-11.6c-1-1.6-2.1-3.3-3-5.2c-1.1-2.3-1.3-3.7-0.7-4.8c0.9-1.6,3.5-1.7,7.8-1.9l1.6-0.1
			c4.2-0.2,5.6-1.2,7.4-2.5c1.4-1,3-2.2,6.4-3.1c2.7-0.8,4.6-0.7,6.1,0.1c2.6,1.5,3.5,5.5,4.9,11.6l0.2,0.7
			c2.2,9.7,3.1,11.7,5.2,12.7c1.6,0.7,5.2-0.9,9-2.6c6.5-2.9,13.8-6.1,17.4-1.7c3.5,4.3,2.4,6.8,0.5,10.9c-1.2,2.7-2.9,6.3-4.1,12
			c-1.9,9.4,0.9,11.9,4.4,15c1.6,1.5,3.5,3.1,5.1,5.7c4.4,7.1,0.2,12.9-3.8,18.4c-0.6,0.9-1.3,1.7-1.9,2.6
			c-4.1,6-11.4,12.4-18.1,13.2c-3.2,0.4-5.5,0.9-8.3,1.6c-2.5,0.6-5.7,1.4-10.5,2.2C290.4,370,289.3,370.1,288.4,370.1z M289,268.2
			c-0.8,0-1.8,0.2-3,0.5c-3.1,0.9-4.7,2-6,3c-1.9,1.3-3.5,2.5-8,2.7l-1.6,0.1c-3.7,0.2-6.3,0.3-6.9,1.3c-0.4,0.6-0.1,1.8,0.8,3.7
			c0.9,1.8,1.9,3.5,2.9,5.1c2.1,3.4,4.3,6.9,4.9,12c0.9,7.2,1,8,10.6,14.4c7.3,4.9,6.5,10.1,5.7,15.1c-0.3,2-0.7,4.1-0.5,6.2
			c0.3,4,1.4,6.8,2.3,9.3c0.8,2.1,1.4,3.8,1.5,5.9c0,0.6,0.1,1.1,0.1,1.6c0.3,3.4,0.4,5.3-4.7,10.4c-2.8,2.9-4.1,5.8-3.2,7.6
			c0.9,1.6,3.5,2.2,7.4,1.5c4.7-0.8,7.8-1.5,10.4-2.2c2.9-0.7,5.1-1.2,8.4-1.6c6.4-0.7,13.3-6.9,17.3-12.7c0.6-0.9,1.2-1.7,1.9-2.6
			c4-5.5,7.8-10.6,3.8-17.1c-1.5-2.4-3.2-3.9-4.8-5.4c-3.6-3.2-6.7-6-4.7-16.1c1.1-5.8,2.9-9.5,4.1-12.2c1.9-4.1,2.8-5.9-0.3-9.7
			c-3-3.7-9.9-0.7-16.1,2c-4.2,1.9-7.9,3.5-9.9,2.6l0,0c-2.7-1.2-3.7-3.8-5.9-13.5l-0.2-0.7c-1.3-5.7-2.2-9.5-4.3-10.8
			C290.5,268.3,289.8,268.2,289,268.2z"/>
		<path class="st1" d="M286.1,382.7c-2.6,0-4.9-0.5-6.6-1.5c-2.2-1.3-3.5-3.2-4.1-5.9c-1.1-5.9,0.7-9.1,3.5-13.9
			c1.1-2,2.4-4.2,3.8-7.1c2.4-3.3,1.4-6.2,0.1-10c-0.8-2.4-1.7-5.2-1.9-8.4c-0.1-2.3,0.3-4.8,0.7-7.1c0.6-3.4,1.1-6.6,0.1-9.2
			c-1.3-3.4-4-4.9-6.7-6.4c-1.1-0.6-2.2-1.2-3.2-2c-9.7-7.3-9.8-12.1-9.9-20.1l0-1.2c-0.1-8.6-8.2-14.6-16-15.4
			c-5.5-0.6-9.4-2.6-9.6-5c-0.1-1.1,0.6-2.6,4.4-3.7c4.5-1.3,9.3-0.5,14.3,0.3c3.9,0.7,7.9,1.3,12.4,1.2c5.9-0.2,11.6-3.1,17.1-5.8
			c4.2-2.1,8.1-4,12-4.9c3.2-0.7,5.5-0.5,6.9,0.6c2,1.6,2.1,4.5,2.2,7.7c0,0.6,0,1.3,0.1,1.9c0.1,2.4-0.8,5-1.7,7.5
			c-1.4,4.1-2.8,7.9-0.1,10.7c4.4,2.7,10.4-0.6,15.3-3.3l0.8-0.4c0.9-0.5,1.8-1.1,2.8-1.7c5-3.1,11.1-7,16-1.9
			c5.5,5.7,3.8,10.2-1.5,25.1l-0.8,2.1c-4,11.1,0.1,17.8,4.1,24.3c1.8,2.9,3.4,5.6,4.3,8.5c3,10.4,5,18.8,5.1,26.5
			c0,3-0.6,5-2.1,6.4c-3,2.9-10,3.3-21.9,2.9c-13.7-0.5-18,1.7-22.9,4.1c-1.9,0.9-3.8,1.9-6.4,2.8
			C292.8,382,289.2,382.7,286.1,382.7z M246.1,266.3c-1.7,0-3.3,0.2-5,0.6c-2.3,0.7-3.6,1.6-3.6,2.5c0.1,1.4,3.5,3.4,8.6,3.9
			c8.3,0.9,16.9,7.3,17,16.6l0,1.2c0.1,7.8,0.1,12.2,9.4,19.1c0.9,0.7,1.9,1.3,3,1.9c2.8,1.6,5.7,3.2,7.2,7c1.1,2.9,0.6,6.3,0,9.9
			c-0.4,2.3-0.8,4.7-0.7,6.9c0.2,3.1,1,5.8,1.8,8.1c1.3,3.9,2.4,7.3-0.2,11c-1.3,2.8-2.6,5.1-3.7,7c-2.7,4.8-4.4,7.7-3.4,13.1
			c0.4,2.3,1.6,4,3.5,5.1c3.5,2,9.4,1.8,16.3-0.7c2.5-0.9,4.4-1.9,6.3-2.8c5.1-2.5,9.5-4.7,23.5-4.2c11.5,0.4,18.3,0.1,21-2.6
			c1.2-1.2,1.7-2.9,1.7-5.6c-0.1-7.5-2.1-15.9-5-26.2c-0.8-2.8-2.4-5.5-4.2-8.2c-3.9-6.4-8.4-13.7-4.2-25.3l0.8-2.1
			c5.3-14.8,6.8-18.7,1.8-24c-4.2-4.4-9.7-1-14.5,2.1c-1,0.6-2,1.3-2.9,1.8l-0.8,0.4c-5.1,2.8-11.5,6.4-16.5,3.2l-0.1-0.1
			c-3.2-3.3-1.7-7.7-0.2-12c0.9-2.4,1.7-4.9,1.6-7.1c0-0.7-0.1-1.3-0.1-2c-0.1-3-0.2-5.6-1.8-6.8c-1.1-0.9-3.1-1-5.9-0.4
			c-3.8,0.8-7.6,2.8-11.7,4.8c-5.7,2.8-11.5,5.7-17.6,6c-4.6,0.1-8.6-0.5-12.6-1.2C251.9,266.8,249,266.3,246.1,266.3z"/>
		<path class="st1" d="M275.9,390c-4.9,0-8.6-0.9-10.7-2.6c-1.3-1-1.9-2.4-2-4c-0.1-6.8,2.8-17.6,9.2-25.3c5.7-6.8,5.9-12.5,6-16.3
			c0-0.5,0-1,0.1-1.4c0.1-1.9-0.1-3.1-0.5-4.8c-0.3-1.7-0.7-3.7-0.9-7.1c-0.3-5.8-4-8.4-7.3-10.7c-0.4-0.3-0.8-0.5-1.2-0.8
			c-1.6-1.1-3-2.7-4.5-4.3c-1.9-2-3.8-4-6-5.3c-4.7-2.8-3.5-8.7-1.9-15c1.2-4.6-2.2-9.1-10.6-13.6c-2.1-1.2-6.7-2.4-11-3.6
			c-4.2-1.1-8.3-2.2-9.8-3.2c-1.8-1.2-6.6-5.1-6.8-9c-0.1-1.6,0.5-2.9,1.9-4c5.2-4.3,25-2.4,32.9,0.1c8,2.6,11.1,2,21.5-0.7
			c6-1.5,20.8-6.5,27.4-11.2c4-2.8,9.1-3,12-0.5c2.4,2.1,2.8,5.4,1,9.2l-1,2.3c-4.6,11-8.5,20.6-6.1,22.5
			c3.2,2.5,17.7-7.2,28.4-14.7c4.4-3.4,7.9-4.3,10.3-2.5c5.7,4.2,2.7,22.2-0.6,31.1c-4,10.5,0.2,22.5,4.2,34.1
			c0.8,2.4,1.7,4.8,2.4,7.2c1.7,5.4,2.2,9.1,2.7,12.7c0.8,5.6,1.4,10.4,6.6,20.2c4.1,8,5.1,13,3,15.4c-3.1,3.5-11.5,0.4-18.3-2.1
			c-2-0.7-3.7-1.3-5-1.7c-8.1-2.2-14.1-1.4-23,0.1c-4.2,0.7-8.8,2.1-13.7,3.5c-5.7,1.7-11.5,3.4-17.9,4.6
			C282.9,389.6,279.1,390,275.9,390z M233,257.7c-5.4,0-10.2,0.7-12.1,2.3c-1.1,0.9-1.5,1.9-1.5,3.1c0.2,3,3.9,6.6,6.2,8.1
			c1.4,0.9,5.5,2,9.4,3.1c4.4,1.2,9,2.4,11.3,3.7c3.3,1.8,13.2,7.2,11.1,14.9c-1.9,7.1-2.3,11.6,1.3,13.7c2.4,1.4,4.3,3.5,6.2,5.5
			c1.5,1.6,2.9,3,4.3,4.1c0.4,0.3,0.8,0.5,1.1,0.8c3.3,2.3,7.4,5.2,7.8,11.5c0.2,3.3,0.6,5.4,0.9,7c0.3,1.7,0.6,3.1,0.5,5.1
			c0,0.4,0,0.9-0.1,1.4c-0.1,3.9-0.3,9.8-6.3,17c-6.3,7.5-9,18-8.9,24.6c0,1.3,0.5,2.3,1.5,3.1c3.1,2.6,10.9,3,20.9,1.2
			c6.3-1.2,12.2-2.9,17.8-4.5c4.9-1.4,9.5-2.8,13.8-3.6c9-1.6,15.1-2.4,23.5-0.1c1.3,0.4,3.1,1,5.1,1.7c6.1,2.3,14.5,5.3,17,2.4
			c1.8-2,0.7-6.8-3.1-14.1c-5.2-10-5.9-15.2-6.7-20.6c-0.5-3.5-1-7.2-2.7-12.5c-0.7-2.4-1.6-4.8-2.4-7.2c-4.1-11.8-8.3-24-4.2-34.9
			c3.6-9.5,5.8-26.2,1-29.7c-1.9-1.4-4.9-0.6-8.9,2.5c-18.2,12.8-26.8,17.1-29.8,14.6c-3.1-2.5,0.4-11,5.7-23.9l1-2.4
			c1.6-3.3,1.3-6.1-0.7-7.8c-2.2-1.9-6.5-2.2-10.6,0.6c-7.4,5.2-23,10.1-27.8,11.4l0,0c-10.5,2.6-13.9,3.3-22.2,0.6
			C247.8,258.7,239.8,257.7,233,257.7z"/>
		<path class="st1" d="M377.6,399.5c-9.1,0-21-5-29.9-8.8c-2.2-0.9-4.3-1.8-6.1-2.5c-9.3-3.6-19,0.4-26.8,3.6
			c-2.5,1-4.7,1.9-6.6,2.5c-7,1.9-27.5,1.9-41.1,1.8l-4.6,0c-2.8,0-4.9-0.8-6.2-2.5c-3-3.7-1.3-10.7-0.1-15.7c0.4-1.7,0.7-3.1,0.8-4
			c0.2-2.8,4.2-7.7,8.4-12.9c3.5-4.4,7.2-8.9,8.7-12.3c3.5-7.9-0.3-19.4-1.1-21.7c-0.7-2.1-3-3.8-5.6-5.9c-2.3-1.8-4.9-3.8-7-6.5
			c-1.8-2.3-3.6-3.9-5.1-5.3c-2.1-1.9-3.8-3.4-4.1-5.9c-0.4-3.2-2.3-8.2-4.1-13l-0.8-2.1c-1.6-4.2-18.6-10.6-27.8-14.1
			c-2.1-0.8-3.9-1.5-5.3-2c-8.6-3.4-11.6-12.4-9.9-17.1l0,0c2.2-6,10-4.9,23-3.3c3.4,0.4,7.3,1,11.5,1.4c16.5,1.6,24.4,0.3,34.4-1.3
			c1.7-0.3,3.4-0.6,5.3-0.9c5.9-0.9,13.4-6,20.7-10.8c8.5-5.7,16.5-11.1,21.1-9c8.3,3.8-0.3,25-5.4,37.6l-0.3,0.8
			c-2.2,5.3-1.5,5.9-1.5,6c0.5,0.4,3.6-1.9,5.1-2.9c0.6-0.4,1.2-0.9,1.7-1.3c1.1-0.8,3-2.3,5.4-4.3c7.2-5.9,19.4-15.9,28.5-19.6
			c5.4-2.2,9-2.4,11.2-0.5c2.3,2,2.7,6.3,0.9,13.2c-0.6,2.4-1.5,5.1-2.5,8.2c-3.5,10.7-8.2,25.3-7.4,45.4c1,25.6,8,47.5,14.2,54
			c1.6,1.7,4.5,3.5,7.5,5.4c8.1,5.1,18.1,11.5,12.2,21.1C386.6,398,382.5,399.5,377.6,399.5z M333.8,385.6c2.8,0,5.5,0.4,8.3,1.5
			c1.8,0.7,3.9,1.6,6.1,2.5c13.4,5.7,33.6,14.3,40,3.9c5.3-8.7-3.8-14.4-11.9-19.5c-3.1-1.9-6-3.8-7.7-5.6
			c-6.3-6.6-13.5-28.9-14.5-54.7c-0.8-20.3,3.9-35.1,7.4-45.8c1-3.1,1.9-5.8,2.5-8.2c1.6-6.3,1.4-10.3-0.6-12
			c-1.8-1.5-5.1-1.3-10,0.7c-9,3.7-21,13.5-28.2,19.4c-2.4,2-4.3,3.6-5.5,4.4c-0.6,0.4-1.1,0.8-1.7,1.2c-3.3,2.4-5.4,3.8-6.5,2.9
			c-1-0.8-0.7-2.9,1.1-7.3l0.3-0.8c4.3-10.7,13.3-32.8,6-36.1c-3.9-1.8-11.7,3.4-20,8.9c-7.4,4.9-15,10.1-21.2,11
			c-1.9,0.3-3.6,0.6-5.3,0.9c-10.1,1.7-18.1,3-34.7,1.4c-4.2-0.4-8.1-0.9-11.6-1.4c-12.4-1.6-19.9-2.6-21.8,2.5l0,0
			c-1.6,4.3,1.2,12.5,9.2,15.7c1.4,0.6,3.2,1.2,5.3,2c13.5,5.1,26.8,10.4,28.5,14.8l0.8,2.1c1.8,4.9,3.7,9.9,4.2,13.2
			c0.3,2,1.7,3.3,3.8,5.2c1.5,1.3,3.3,3,5.2,5.4c2,2.6,4.6,4.6,6.8,6.3c2.7,2.1,5.1,4,6,6.4c0.8,2.3,4.8,14.2,1.1,22.5
			c-1.6,3.5-5.3,8.1-8.8,12.6c-3.9,4.8-7.9,9.8-8.1,12.3c-0.1,1-0.4,2.5-0.8,4.2c-1.1,4.8-2.7,11.4-0.1,14.7
			c1.1,1.4,2.8,2.1,5.3,2.1l4.6,0c12.7,0,34,0.1,40.8-1.8c1.8-0.5,4-1.4,6.5-2.4C319.8,388.4,326.7,385.6,333.8,385.6z"/>
		<path class="st1" d="M388,410.2c-0.4,0-0.8,0-1.2,0c-6.3-0.1-17.4-2.1-29.1-4.3c-15.3-2.8-31.2-5.7-37.8-4.6
			c-11.6,1.9-62.4,4.9-67.9,1.1c-5.6-3.9-4.9-7.4-0.2-25.2c2.7-10.4,7.6-16.7,12-22.3c3.1-4.1,5.9-7.6,7.1-11.8
			c2.7-9.2-3.2-13.7-8.5-17.7l-1.2-0.9c-5.7-4.4-12.4-13.2-14.5-23c-1.9-9.1-7.6-12.5-15.7-15c-2.7-0.8-5.5-1.1-8.4-1.3
			c-5.2-0.5-11-1-18.8-4.9c-13.2-6.6-14.8-20.4-13.8-26.8l0,0c0.8-4.9,2.8-8.4,5.9-10.4c6.8-4.3,17.5-1.2,27,1.5
			c1,0.3,1.9,0.5,2.8,0.8c13.1,3.6,31.3,2.3,48.7,0.6c13-1.3,17.4-7.5,24-16.9c1.3-1.8,2.6-3.7,4.1-5.7c11.5-15.4,22.7-12.6,27-10.7
			c8.2,3.6-6.5,39.6-9.5,46.8c-2.7,6.4-2.5,7.6-2.4,7.8c0,0,0,0,0,0c0.1,0,0.9-0.2,3.4-2.3c5.2-4.2,28.7-21.8,41.9-27.2
			c5.9-2.4,9.4-2.7,11.5-1.1c2.6,2.1,2.3,7.1,0.8,15.6c-1.5,8.7-4.4,20.7-7.2,32.2c-1.7,6.9-3.4,14.1-4.8,20.4
			c-3.9,17.5,2,42,5.8,50.7c2.9,6.6,19.9,15.6,50.5,26.9c6.9,2.5,11,7.4,10.8,13c-0.1,3.9-2.3,7.3-5.6,8.3
			C421.6,404.7,403.5,410.2,388,410.2z M323.3,399.8c8,0,21.5,2.5,34.6,4.9c11.7,2.1,22.7,4.2,28.9,4.3c15.6,0.3,34.3-5.3,37.9-6.5
			c2.7-0.9,4.7-3.8,4.8-7.2c0.1-5.1-3.6-9.5-10.1-11.9c-31.4-11.5-48.1-20.5-51.2-27.5c-4.7-10.6-9.5-35-5.9-51.4
			c1.4-6.3,3.1-13.5,4.8-20.4c2.8-11.5,5.7-23.4,7.2-32.1c1.3-7.7,1.7-12.8-0.4-14.5c-1.6-1.3-4.9-0.9-10.3,1.3
			c-13,5.3-36.4,22.8-41.6,27c-2.5,2-4,3-4.9,2.3c-0.9-0.6-0.8-2.4,2-9.1c8.5-20.2,15.3-43,10.1-45.2c-8.5-3.8-17.9,0-25.6,10.3
			c-1.5,2-2.8,3.9-4.1,5.7c-6.8,9.7-11.3,16-24.9,17.4c-17.6,1.7-35.8,3.1-49.1-0.6c-0.9-0.3-1.9-0.5-2.9-0.8
			c-9.3-2.6-19.8-5.6-26.1-1.6c-2.9,1.8-4.7,5-5.4,9.6l0,0c-1,6.1,0.5,19.3,13.1,25.5c7.5,3.7,13.3,4.3,18.4,4.7
			c3,0.3,5.8,0.5,8.6,1.4c7.3,2.2,14.4,5.6,16.5,15.8c1.9,9.5,8.6,18.2,14,22.3l1.2,0.9c5.3,4,11.9,8.9,8.9,18.9
			c-1.3,4.5-4.1,8.1-7.3,12.2c-4.3,5.5-9.1,11.7-11.8,21.9c-4.6,17.8-5,20.6-0.2,23.9c4.8,3.3,54.4,0.7,67-1.3
			C320.7,399.9,321.9,399.8,323.3,399.8z"/>
		<path class="st1" d="M397.6,418.5c-6.8,0-15-1.4-23.1-2.8c-6.4-1.1-12.5-2.2-17.3-2.4c-6.5-0.3-10.6-0.9-13.6-1.3
			c-5.7-0.9-8.1-1.2-17.9,1.8c-6.4,1.9-18.9,0.7-32.3-0.7c-7.2-0.7-14.7-1.5-20.9-1.6c-3.9-0.1-7.4-0.1-10.5-0.1
			c-10.7,0.1-16.6,0.1-18.4-4.8c-2.3-6,2.2-27.3,7.3-44.6c3.1-10.5,8.5-14.2,12.1-16.6c2.3-1.6,3.9-2.6,3.9-4.7
			c0.1-5.4-6.2-8.6-11.6-11.4l-0.7-0.4c-6.4-3.3-9.9-9.1-10.5-17.3c-0.6-8.1-4-13-9.4-18.2c-3.2-3.1-7-1.6-11.3,0.1
			c-2.6,1-5.4,2.1-8.3,2.3c-8,0.6-23.5-8.6-28.6-14.4l0,0c-3.2-3.6-3.1-9.7-3.1-18.9l0-2.1c0-4.9-1.3-7.5-2.9-10.6
			c-1.7-3.4-3.7-7.2-4.5-14.8c-0.3-3.2,0.5-5.6,2.4-7c5-3.5,17.3-0.5,37.5,9.2c14.7,7,22.7,5.6,42.2,2.2c3.5-0.6,7.4-1.3,11.8-2
			c16.9-2.8,22.4-13.3,26.8-21.8c3-5.8,5.4-10.3,10.5-10.4c8,0,12.6-1.3,16.2-2.4c4.1-1.1,7-2,11.9-0.3c1.2,0.4,2.1,1.3,2.7,2.6
			c3.5,7.4-4.3,28.1-9,40.5c-0.5,1.3-1,2.6-1.4,3.6c-2.1,5.8-1.5,6.5-1.4,6.5c0.4,0.4,3-1.4,4.3-2.4c0.9-0.6,1.8-1.3,2.6-1.8
			c1-0.6,3-2,5.5-3.6c10.1-6.8,29-19.6,39.2-23.8c4.1-1.7,7-1.8,8.9-0.4c3,2.4,2,8.3,1.2,12.6l-0.1,0.8c-0.5,2.7-2.9,9.5-5.7,17.4
			c-3.6,9.9-7.6,21.2-8.9,27.6c-1.6,8.3-2,11.7-3,20.1c-0.4,3.2-0.8,7-1.4,12.1c-2.2,18,0.2,34.3,6,41.4c5.7,6.9,26,12.2,42.3,13.3
			c4.7,0.3,10.1,3.3,15.8,6.5c4.5,2.5,9.1,5,13.7,6.6c3.1,1,6.4,1.5,9.3,2c6.4,1,11.9,1.8,12.2,8.1c0.4,9-11.6,20.7-24.1,23.7
			c-5.7,1.3-11.2,0.8-17.2,0.3c-6.8-0.6-13.9-1.2-21,1.2C403.7,418.2,400.8,418.5,397.6,418.5z M337.8,410.2c2,0,3.8,0.3,6.1,0.6
			c3.1,0.5,7,1,13.5,1.3c4.9,0.2,11,1.3,17.5,2.4c11.7,2,23.9,4.1,30.9,1.8c7.4-2.5,14.6-1.9,21.5-1.3c5.8,0.5,11.3,1,16.8-0.3
			c12.1-2.8,23.6-13.9,23.2-22.5c-0.2-5.3-4.8-6-11.2-7c-2.9-0.4-6.3-0.9-9.5-2c-4.8-1.6-9.4-4.2-13.9-6.7c-5.6-3.1-10.9-6-15.3-6.3
			c-16.6-1.1-37.2-6.6-43.1-13.7c-6.1-7.5-8.6-23.7-6.3-42.3c0.6-5.1,1.1-9,1.4-12.1c1-8.4,1.3-11.8,3-20.2
			c1.3-6.4,5.3-17.8,8.9-27.7c2.8-7.8,5.2-14.5,5.7-17.2l0.1-0.8c0.7-3.8,1.6-9.5-0.8-11.5c-1.4-1.1-4-1-7.7,0.6
			c-10.1,4.2-28.9,16.8-39,23.7c-2.5,1.7-4.5,3-5.5,3.7c-0.8,0.5-1.7,1.2-2.6,1.8c-2.6,1.8-4.6,3.2-5.7,2.4
			c-0.7-0.6-1.1-1.9,1.1-7.8c0.4-1.1,0.9-2.3,1.4-3.6c4.3-11.4,12.3-32.6,9-39.6c-0.5-1-1.1-1.6-2.1-2c-4.6-1.6-7.2-0.8-11.2,0.3
			c-3.7,1.1-8.4,2.4-16.6,2.4c-4.4,0-6.7,4.3-9.5,9.7c-4.3,8.2-10.2,19.5-27.7,22.4c-4.4,0.7-8.3,1.4-11.8,2
			c-19.7,3.5-27.9,4.9-42.9-2.3c-19.5-9.4-31.8-12.5-36.4-9.3c-1.6,1.1-2.3,3.1-2,5.9c0.8,7.4,2.7,11.1,4.3,14.4c1.6,3.2,3,6,3,11.1
			l0,2.1c0,9-0.1,14.9,2.8,18.1l0,0c5,5.6,19.9,14.5,27.7,14c2.7-0.2,5.4-1.2,7.9-2.2c4.6-1.8,8.9-3.4,12.6,0.1
			c5.4,5.3,9.2,10.5,9.8,19c0.5,7.7,3.9,13.2,9.9,16.3l0.7,0.4c5.8,3,12.3,6.3,12.3,12.5c0,2.7-2,4-4.4,5.7
			c-3.6,2.5-8.6,5.8-11.6,15.9c-5.2,17.6-9.5,38.3-7.4,43.8c1.6,4.1,7.2,4.1,17.3,4c3.1,0,6.6,0,10.6,0.1c6.2,0.2,13.7,0.9,21,1.6
			c12.6,1.3,25.7,2.6,31.8,0.7C331.5,410.8,334.8,410.2,337.8,410.2z"/>
		<path class="st1" d="M225.8,432.2c-3.5,0-6-0.9-7.5-2.6c-2.1-2.5-1.9-6.6,0.4-12.4c1.3-3.4,6.4-7.5,11.3-11.5
			c4.3-3.5,8.7-7.1,9.4-9.4c0.6-1.8,1.2-6.3,1.9-11.5c1.2-9.2,2.6-20.6,5.3-27c2.1-5,5.3-7.4,8.1-9.4c2.9-2.1,5.2-3.8,5.3-7.8
			c0.2-4.5-1.8-5.4-4.9-6.7c-2.1-0.9-4.7-2-7.1-4.6l-0.1-0.2c0-0.1-2.8-6.6-6.8-11.8c-1.5-1.9-2.5-4.2-3.6-6.7
			c-2.1-4.6-4.2-9.4-9.1-11.2c-2.6-1-4.2-0.3-6.3,0.7c-3.9,1.8-9.2,4.3-24.5-0.6c-9.6-3.1-29-16-23.6-34.6c4.2-14.4,0-22.3-4.1-29.9
			c-1.1-2.1-2.3-4.3-3.2-6.6c-1.5-3.5-1.7-5.6-0.8-7c1.4-2,5-1.9,10.9-1.8c2.4,0.1,5,0.1,8.1,0.1c0.1,0,0.3,0,0.4,0
			c7.5,0,13.6,3,20.2,6.3c6.9,3.4,14.8,7.3,25.5,8.2c21.7,1.7,51-5.9,59.8-20.2c7.9-12.8,17.4-16,26.6-19.1c1.6-0.6,3.3-1.1,4.9-1.7
			c9.5-3.5,16.6-5.3,20-4.9c0.5,0.1,1,0.5,1.5,1.4c2.7,5.2,5.1,27-5.2,44.8c-5.6,9.7-5.2,11.2-5.1,11.4c0.1,0,1.3,0.2,7.6-5.7
			c3-2.8,10.4-7.6,18.3-12.7c3.5-2.3,7.2-4.6,10.6-6.9c11.8-7.9,21.7-10.6,35.3-9.8c8.5,0.5,13.5,6.1,13.9,11.2
			c0.3,3.8-1.9,6.7-5.8,7.5c-6.5,1.4-7.6,3.4-11.3,9.8c-1.5,2.7-3.5,6.1-6.4,10.6c-10.7,16.2-17.3,37.3-20.3,64.4
			c-2.6,24,1.7,37.4,13.8,43.3c6.2,3,30.7,4.6,72.8,4.6c0.6,0,1.2,0,1.9,0c0,0,0,0,0.1,0c13.5,0,26,4.9,33.4,13.2
			c3.9,4.4,5.8,9.2,5.3,13.6c-1.4,12.3-35.8,35.9-47.7,40c-7.8,2.7-26.8,0.8-50.8-1.6c-15-1.5-32-3.2-48.9-4
			c-25.9-1.2-35.8-2.1-45.5-3c-6.5-0.6-13.2-1.2-24.8-1.9c-18.3-1.1-27.8,3.1-37,7.1c-5.2,2.3-10.1,4.5-16.4,5.7
			C229.5,432,227.5,432.2,225.8,432.2z M248.9,328.6c2.2,2.3,4.5,3.3,6.6,4.2c3.1,1.3,5.8,2.4,5.6,7.8c-0.2,4.6-2.8,6.5-5.8,8.7
			c-2.7,2-5.7,4.2-7.7,8.9c-2.6,6.2-4.1,17.6-5.2,26.7c-0.7,5.5-1.3,9.8-1.9,11.7c-0.9,2.6-5.2,6.1-9.8,9.9c-4.8,3.9-9.8,8-11,11.1
			c-2.1,5.3-2.3,9.1-0.6,11.2c1.9,2.3,6,2.8,12.4,1.6c6.2-1.2,11.1-3.3,16.2-5.6c9.3-4.1,18.9-8.3,37.5-7.2
			c11.6,0.7,18.3,1.3,24.9,1.9c9.6,0.8,19.6,1.7,45.4,3c16.9,0.8,34,2.5,49,4c23.8,2.4,42.7,4.3,50.3,1.7
			c12.8-4.5,45.7-28,46.9-39.1c0.5-4.1-1.3-8.6-5-12.7c-7.2-8-19.3-12.8-32.6-12.8c-0.6,0-1.3,0-2,0c-42.9,0-66.9-1.5-73.3-4.7
			c-12.7-6.2-17.1-19.9-14.5-44.5c3-27.3,9.7-48.5,20.5-64.9c2.9-4.4,4.8-7.8,6.4-10.5c3.7-6.6,5-8.8,12-10.4
			c3.3-0.7,5.1-3.1,4.9-6.3c-0.4-4.5-5-9.6-12.8-10.1c-13.3-0.8-23,1.9-34.5,9.6c-3.5,2.3-7.1,4.7-10.7,6.9
			c-7.8,5-15.2,9.8-18.1,12.5c-6.6,6.2-8.3,6.5-9.1,5.8c-0.9-0.7-1-2.8,4.8-12.9c10.1-17.4,7.6-37.5,5.5-42.9c-0.6-1.5-1-1.7-1-1.7
			c-1.5-0.1-6.4,0-19.5,4.9c-1.6,0.6-3.3,1.2-5,1.7c-9,3-18.3,6.1-26,18.6c-9.1,14.7-38.8,22.6-60.9,20.8c-11-0.9-18.9-4.8-25.9-8.3
			c-6.7-3.3-12.5-6.1-19.6-6.1c-0.1,0-0.3,0-0.4,0c-3.1,0-5.8,0-8.1-0.1c-5.4-0.1-9-0.2-10,1.2c-0.7,1-0.4,2.8,0.9,5.9
			c0.9,2.2,2,4.3,3.2,6.5c4.2,7.8,8.5,15.9,4.2,30.7c-2.9,9.9,1.9,17.6,6.4,22.4c5.1,5.4,12.1,9.3,16.4,10.7
			c14.8,4.7,19.9,2.3,23.6,0.6c2.2-1,4.1-1.9,7.2-0.8c5.3,2,7.6,7,9.7,11.8c1.1,2.4,2.1,4.7,3.5,6.5
			C245.8,321.6,248.6,327.8,248.9,328.6z"/>
		<path class="st1" d="M448.9,455.4c-4.2,0-8.9-1.2-14.6-3.7c-16.7-7.6-26.8-7-40.9-6.1c-4.2,0.3-8.6,0.6-13.7,0.7
			c-9.5,0.2-19.6-2.3-30.3-5c-14.1-3.5-30.1-7.5-49.2-6.6c-17.8,0.9-24.9,6.4-30.5,10.9c-5.1,4-9.1,7.2-18.5,5.4
			c-8.7-1.6-17.5-0.4-25.3,0.7c-9.5,1.3-16.9,2.4-19.1-3.1l0,0c-2.7-6.8,3.8-28.2,5.9-34.6c2.4-7.4,9.7-10.4,15.5-12.8
			c3-1.2,5.6-2.3,6.8-3.7c2.5-2.9,3.4-16.3,3.9-25.1c0.2-3.9,0.4-7.2,0.7-9.1c0.5-3.2,3.7-7,6.9-10.7c3.3-3.9,6.7-7.8,6.6-10.8
			c-0.1-2.6-4.3-5.9-8.1-8.8c-1.3-1-2.6-2-3.6-2.9c-2.5-2.2-3.1-4.6-3.9-8c-0.6-2.4-1.3-5.4-3-9.3c-3-7.1-14.5-5.8-24.6-4.6
			c-2.7,0.3-5.2,0.6-7.5,0.7c-0.2,0-0.4,0-0.6,0c-7.7,0-15.2-7.4-22.4-14.6c-3-3-6.1-6.1-9.2-8.5c-10.7-8.7-10.3-13.3-5.5-19.4
			c4.2-5.3,4.8-11.9,2-22.9c-1.4-5.4-5.2-10.9-8.6-15.7c-3.1-4.4-5.7-8.1-6.4-11.3c-0.2-0.8-0.1-2,1.3-3.2c2.8-2.4,10-3.7,19.2-3.4
			c10.2,0.3,21,2.5,30.4,6.1c24.6,9.3,34.9,10.2,55.1,4.9c18.8-5,24.1-12.5,29.8-20.4c0.6-0.8,1.1-1.6,1.7-2.4
			c5.4-7.4,18.2-8.6,28.6-9.5c2.4-0.2,4.7-0.4,6.8-0.7c10.8-1.5,14.5-3.6,20.7-15.6c1.1-2,2.2-2.7,3.3-2.4c2.6,0.9,2.8,8.8,2.1,13.9
			c-0.2,1.8,0,5.2,0.4,9c0.8,9.3,1.8,22.1-2.6,29.2c-7.6,12.3-8.6,15.3-8.6,16.1c0.8-0.2,3.7-2.3,13.7-12.8
			c5.6-5.9,9.6-7.7,18.4-11.4c1.6-0.7,3.4-1.4,5.3-2.3c4.4-1.9,9.6-4.3,14.6-6.7c9.7-4.5,18.9-8.8,22.5-9.7c1.8-0.5,3.1-0.4,3.9,0.2
			c1.2,0.9,1.5,2.6,1.8,5c0.1,1.1,0.3,2.4,0.6,3.9c0.9,4.1,2.4,5.2,3.8,6.2c1.8,1.2,3.6,2.4,4,8.4c0.7,11.6-9.2,19-18.7,20.9
			c-7.3,1.5-11.8,18.8-17,38.7c-1.6,6-3.2,12.3-5,18.4c-6.6,22.7-7.3,35.6-2.1,43.1c6.4,9.4,22.2,10.8,46.1,13
			c16.7,1.5,37.5,3.4,62.4,8.5c4.1,0.8,10.3,0.4,16.8,0c10.6-0.7,21.7-1.4,26.3,2.9c1.5,1.4,2.2,3.1,2.2,5.3
			c0.1,14.9-31.4,47.5-53.2,63.4c-4.2,3-7.9,6-11.1,8.5C465.2,449.8,458.2,455.4,448.9,455.4z M405.4,443.9c8.9,0,17.7,1.3,29.4,6.7
			c17.5,8,25.5,1.7,39.9-9.8c3.3-2.6,7-5.5,11.1-8.6c24-17.5,52.8-49.3,52.7-62.4c0-1.9-0.6-3.3-1.9-4.5c-4.3-4-15.5-3.2-25.4-2.6
			c-6.6,0.4-12.9,0.8-17.1,0c-24.8-5.1-45.5-7-62.2-8.5c-24.2-2.2-40.3-3.6-46.9-13.5c-5.4-7.8-4.8-21,2-44.1
			c1.8-6.1,3.4-12.4,5-18.4c5.3-20.3,9.8-37.9,17.8-39.5c9-1.9,18.5-8.9,17.7-19.7c-0.3-5.4-1.8-6.4-3.5-7.5
			c-1.6-1.1-3.4-2.3-4.3-6.9c-0.3-1.5-0.5-2.8-0.6-3.9c-0.3-2.1-0.5-3.7-1.3-4.2c-0.6-0.4-1.5-0.4-3,0c-3.5,0.9-13.1,5.3-22.3,9.6
			c-5,2.3-10.3,4.8-14.7,6.7c-2,0.9-3.7,1.6-5.4,2.3c-8.7,3.7-12.6,5.4-18,11.2c-12.5,13.3-14.3,13.8-15.3,13
			c-0.7-0.5-1.8-1.4,8.3-17.7c4.2-6.8,3.2-19.4,2.4-28.5c-0.3-4.1-0.6-7.4-0.3-9.3c0.8-6.3,0-12.2-1.3-12.6c-0.3-0.1-1,0.3-1.8,1.8
			c-6.3,12.4-10.5,14.7-21.6,16.2c-2.1,0.3-4.4,0.5-6.8,0.7c-10.1,0.9-22.7,2.1-27.7,9.1c-0.6,0.8-1.1,1.6-1.7,2.4
			c-5.8,8.1-11.2,15.8-30.4,20.9c-20.5,5.4-30.9,4.5-55.8-4.9c-20.8-7.9-43.3-7.2-48.4-2.9c-0.8,0.6-1.1,1.3-0.9,2
			c0.6,3,3.3,6.8,6.2,10.9c3.4,4.9,7.4,10.4,8.8,16.1c2.8,11.2,2.1,18.4-2.3,23.9c-4.5,5.7-4.8,9.6,5.3,17.8
			c3.1,2.5,6.2,5.6,9.3,8.6c7.2,7.2,14.8,14.6,22.2,14.2c2.2-0.1,4.7-0.4,7.4-0.7c10.5-1.2,22.5-2.6,25.8,5.3c1.7,4,2.4,7.1,3,9.5
			c0.8,3.3,1.3,5.5,3.6,7.4c1,0.9,2.2,1.8,3.5,2.9c4.1,3.2,8.4,6.6,8.5,9.7c0.1,3.4-3.3,7.4-6.9,11.6c-3,3.6-6.2,7.2-6.6,10.1
			c-0.3,1.8-0.5,5.1-0.7,8.9c-0.6,10.1-1.4,22.6-4.2,25.8c-1.4,1.6-4.1,2.7-7.2,4c-5.6,2.3-12.6,5.2-14.9,12.1
			c-4.2,13-8,28.7-5.9,33.8c1.9,4.6,8.9,3.6,17.9,2.4c7.5-1,16.8-2.4,25.7-0.7c8.9,1.7,12.6-1.2,17.6-5.2c5.8-4.6,13-10.3,31.2-11.2
			c19.3-0.9,35.3,3.1,49.5,6.6c10.6,2.6,20.6,5.2,30,4.9c5-0.1,9.4-0.4,13.6-0.7C397.5,444.1,401.5,443.9,405.4,443.9z"/>
		<path class="st1" d="M200.1,504.9c-1.1,0-1.8-0.3-2.2-0.9c-1.3-1.8,1.2-5.4,4.9-10.9c0.9-1.3,1.8-2.6,2.7-4
			c2.4-3.7,3.2-6.5,2.6-8.9c-0.9-3.4-4.9-6.1-10.7-9.1c-5.6-2.9-8.9-6.2-9.6-9.9c-0.5-2.6,0.3-5.3,2.4-7.8l0,0
			c14.5-17,15.5-29.5,16.2-38.6c0.2-2.5,0.4-4.7,0.8-6.6c1.4-6.4,8.2-8,14.8-9.5c2.9-0.7,5.6-1.3,7.9-2.3c4.7-2.1,4.7-13.9,4.8-23.3
			c0-5.2,0-9.7,0.8-12.2c1.2-4.5,5-8.7,8-12.1c2-2.3,3.8-4.2,4.3-5.7c0.5-1.4-1.5-2.5-5-4.2c-3.1-1.5-6.5-3.1-8.2-5.8
			c-1.6-2.6-1.4-5.5-1.2-8.6c0.2-3.5,0.4-7.1-2.1-10.4c-2.9-3.7-6-3.2-11.5-2.2c-3.3,0.6-7.4,1.3-12.8,1.4c-0.3,0-0.5,0-0.8,0
			c-12.3,0-16.5-3.6-22.2-8.6c-0.9-0.7-1.7-1.5-2.7-2.3c-0.9-0.7-2-1.6-3.2-2.5c-9.3-7.3-24.9-19.5-19.5-31.8
			c5.1-11.4,2.1-18.6-2.9-30.4c-0.8-1.8-1.6-3.8-2.4-5.9c-4.8-11.8-15-19.8-21.7-25.1c-2.2-1.7-3.9-3.1-5-4.2
			c-1.9-2-2.4-4.6-1.2-6.4c1-1.5,4.8-4.5,17.2,0.4c3,1.2,5.6,2.3,7.8,3.2c9.6,4,12.6,5.2,23.3,5.2c0.2,0,0.4,0,0.6,0
			c7.2,0,10.7,1.5,15.2,3.4c4,1.7,8.9,3.8,18.3,5.6c21.2,4.1,48,0.5,62.6-5c8.4-3.1,10.4-9.4,12.4-15.4c1.6-4.9,3.1-9.6,8.2-11.4
			c5.5-2,7.6-1.4,10.5-0.5c2.8,0.8,6.2,1.9,14.3,1c12.5-1.3,27-18.8,35.7-29.2c2.9-3.5,5.2-6.2,6.7-7.6c5.5-5,9-7.3,11.1-6.8
			c0.7,0.1,1.3,0.6,1.7,1.3c1.5,2.9-1.7,15.5-7,24.9c-5.2,9.2-9.5,27.6-9.5,34.8c0,5.9-0.8,10.5-1.4,13.9c-0.8,4.4-1,6.2,0.5,6.8
			c1,0.4,2.5-0.7,5-2.7c4-3.2,10.8-8.6,23.5-12.2c10.1-2.9,14.9-7.1,19.5-11.2c1.8-1.6,3.5-3.1,5.4-4.5c4.9-3.5,26.3-15.1,31.5-11.2
			c1.3,1,1.5,2.7,0.7,5.2c-4.3,12.4-1.1,20.7,4.8,35.8l0.7,1.8c5.7,14.7,1.8,17.8-4.2,22.6c-0.8,0.6-1.6,1.3-2.4,2
			c-3.8,3.2-7.9,3.9-12.3,4.6c-4.1,0.7-8.3,1.4-12.6,4.2c-9.7,6.4-14.7,39.2-15.6,45.7c-4.5,32.7,24.5,39.2,30.4,40.2
			c14.4,2.4,56.6,5.7,70.6-0.9c9.2-4.3,30.3,0.5,46.3,7.6c4.4,1.9,14.9,7,16.2,11.3c2.5,8.1-6.9,18.6-17.8,30.8l-2.5,2.8
			c-5.1,5.8-10.6,14.2-15.9,22.4c-6.5,10.1-12.7,19.6-17.7,23.3c-8.5,6.3-37.1,21.8-50.3,24.7c-9.1,2.1-39.6-2.2-61.9-5.2
			c-9-1.2-16.8-2.3-21.5-2.8c-7.9-0.7-15.6,1-22.9,2.7c-8,1.9-15.5,3.6-22.9,2.2c-9.9-1.9-19,2.5-28.6,7.2c-3.9,1.9-7.9,3.9-12,5.4
			c-10.4,3.9-23.3,3.4-32.6,3c-3.7-0.2-6.9-0.3-9.3-0.1c-4.4,0.3-13.1,7.6-21.6,14.7c-8.1,6.8-15.8,13.3-20.5,14.4
			C201.9,504.8,200.9,504.9,200.1,504.9z M225.4,309.8c2.6,0,4.7,0.8,6.7,3.4c2.8,3.6,2.6,7.7,2.4,11.2c-0.2,2.9-0.3,5.6,1.1,7.9
			c1.5,2.4,4.8,4,7.7,5.4c3.5,1.7,6.5,3.1,5.6,5.6c-0.6,1.7-2.4,3.7-4.5,6c-2.9,3.3-6.6,7.4-7.8,11.7c-0.7,2.4-0.7,7-0.7,11.9
			c-0.1,10.3-0.1,22-5.4,24.4c-2.4,1.1-5.3,1.8-8.1,2.4c-6.2,1.4-12.6,2.9-13.9,8.6c-0.4,1.9-0.6,4-0.8,6.5
			c-0.7,8.7-1.7,22-16.5,39.3l0,0c-1.9,2.2-2.6,4.5-2.2,6.8c0.6,3.2,3.7,6.4,9,9.1c6.2,3.2,10.2,5.9,11.3,9.8
			c0.7,2.7-0.1,5.9-2.7,9.8c-0.9,1.4-1.8,2.7-2.7,4c-2.8,4.2-5.7,8.5-4.9,9.6c0.2,0.2,0.9,0.7,4,0c4.4-1.1,12.3-7.8,20-14.2
			c9-7.6,17.4-14.7,22.2-15c2.5-0.1,5.7,0,9.4,0.1c9.3,0.4,22,0.9,32.2-2.9c4.1-1.6,8.1-3.5,11.9-5.4c9.8-4.8,19.1-9.3,29.3-7.3
			c7.1,1.4,14.5-0.3,22.4-2.1c7.5-1.7,15.2-3.5,23.3-2.8c4.7,0.4,12.5,1.5,21.6,2.8c22.2,3.1,52.5,7.3,61.5,5.3
			c13-2.9,41.4-18.2,49.8-24.5c4.8-3.6,10.9-13,17.4-23c5.3-8.2,10.8-16.7,16-22.5l2.5-2.8c10.2-11.4,19.9-22.2,17.5-29.7
			c-0.8-2.7-6.8-6.7-15.6-10.6c-15.4-6.8-36.5-11.8-45.4-7.6c-15.2,7.1-60.4,2.8-71.2,1c-6.1-1-36-7.8-31.4-41.5
			c1.3-9.3,6.2-40,16.1-46.5c4.5-3,8.9-3.7,13.1-4.4c4.2-0.7,8.2-1.3,11.8-4.3c0.8-0.7,1.7-1.4,2.4-2c5.8-4.6,9.3-7.4,3.8-21.3
			l-0.7-1.8c-6-15.3-9.3-23.7-4.8-36.6c0.7-2,0.6-3.3-0.3-3.9c-4.1-3.1-23.4,6.5-30.1,11.3c-1.9,1.3-3.6,2.8-5.3,4.4
			c-4.5,4-9.6,8.6-19.9,11.5c-12.4,3.5-19.1,8.8-23.1,12c-2.8,2.2-4.4,3.5-6.1,2.8c-2.4-1-2-3.7-1.2-8.1c0.6-3.3,1.4-7.8,1.4-13.7
			c0-7.3,4.3-26,9.6-35.3c5.4-9.4,8.1-21.5,7-23.9c-0.2-0.4-0.5-0.6-0.9-0.7c-1.6-0.3-5.1,1.9-10.1,6.6c-1.5,1.4-3.8,4.1-6.6,7.5
			c-9.4,11.2-23.6,28.2-36.5,29.6c-8.4,0.9-11.9-0.2-14.8-1.1c-2.8-0.9-4.6-1.4-9.8,0.5c-4.5,1.7-5.9,5.8-7.5,10.7
			c-2,6-4.2,12.8-13.1,16.1c-14.7,5.5-41.8,9.1-63.2,5c-9.5-1.8-14.5-4-18.6-5.7c-4.5-1.9-7.7-3.3-14.7-3.3c-0.2,0-0.4,0-0.6,0
			c-10.9,0-14-1.3-23.8-5.3c-2.2-0.9-4.7-2-7.8-3.2c-9.5-3.8-14.4-2.9-15.8-0.8c-0.9,1.3-0.5,3.3,1.1,4.9c1,1,2.7,2.4,4.8,4.1
			c6.8,5.4,17.2,13.5,22.1,25.6c0.8,2.1,1.7,4,2.4,5.8c5.1,12.1,8.2,19.5,2.9,31.4c-5.1,11.4,10.1,23.3,19.1,30.4
			c1.2,0.9,2.3,1.8,3.2,2.5c1,0.8,1.9,1.6,2.7,2.3c5.6,4.8,9.6,8.3,21.5,8.3c0.2,0,0.5,0,0.7,0c5.3-0.1,9.3-0.8,12.6-1.4
			C221.8,310.2,223.7,309.8,225.4,309.8z"/>
		<path class="st1" d="M204.3,529c-2.9,0-5.9-1-9.1-3.7l0,0c-6.7-5.5-10.5-12-11-18.7c-0.3-5.5,1.7-11.1,5.4-15
			c5.6-6,3.6-9.5,1.1-14l-0.4-0.6c-1.2-2.1-4.6-4.3-7.7-6.2c-4.2-2.6-7.8-4.9-6.6-7.2c0.5-0.9,1.2-1.7,2.3-2.8
			c2.7-2.9,7.8-8.3,14.8-24.5c7.1-16.6,8-24.7,8.6-30.5l0.1-1.4c0.6-5,7-5.9,13.9-6.8c2.4-0.3,4.9-0.7,7.2-1.2
			c6.4-1.5,5.8-14.8,5.4-23.5c-0.1-2.4-0.2-4.4-0.1-6c0.1-4.4,3.9-9.5,7.1-14.1c2.4-3.3,4.6-6.4,4.4-7.9c-0.4-2.2-3.2-4.5-6.1-7.1
			c-1.8-1.5-3.6-3.1-5.1-4.8c-3.3-3.7-3.6-8.4-3.9-12.5c-0.1-1-0.2-2-0.3-3c-0.4-2.9-9.7-2.6-18.7-2.4c-4.4,0.1-8.9,0.3-13.2,0.2
			c-11.4-0.3-24.8-14.4-33.7-23.7c-2.5-2.6-4.7-4.9-6.3-6.3c-4.9-4.3-3.2-11.1-1.3-18.9c1-3.9,2-7.9,2.3-12.1
			c0.9-11.5-12.6-28.8-21.4-40.2l-1.9-2.4c-4-5.2-8.6-9.6-12.3-13.2c-4.5-4.3-6.5-6.3-6.3-7.7c0-0.3,0.2-0.7,0.7-1
			c0.6-0.3,6.5-3.1,18.8-3.1c0.2,0,0.4,0,0.6,0c15,0.1,32.8,4.1,52.9,12c38.1,14.9,45.7,12.1,59.4,7.1c3.3-1.2,7-2.6,11.6-3.8
			c13.6-3.8,20.3-15.1,25.6-24.2c3.8-6.4,6.8-11.5,11.1-12.1c5.3-0.7,7.4,2.7,9.5,6c2.1,3.4,4.3,6.9,9.9,7.1c0.1,0,0.3,0,0.4,0
			c8.9,0,16.8-9.5,24.5-18.6c2-2.4,4-4.8,6-7c8-8.8,20.4-17.4,28.6-23.1c2.2-1.5,4.1-2.9,5.6-3.9c2.7-2,4.4-0.9,5.2,0
			c3.4,3.5,2.9,14.9-2.4,21.6c-20.5,26.1-20.3,51.6-16.8,57.3c0.3,0.5,0.8,1.1,1.4,1c5.2-1,27.6-11.8,42.2-22.3
			c7.9-5.7,12.7-14.5,17.5-23.1c4.1-7.4,7.9-14.4,13.4-18.7c5.3-4.1,9.3-5.4,12-4c2.8,1.5,4,5.8,3.5,12.8c-0.1,1.1-0.2,2.4-0.3,3.7
			c-1,12.8-2.7,34.1,1.4,41.2l0.8,1.3c3.9,6.7,4.1,7.1,2.2,12.9c-0.9,2.6-0.7,3.5-0.2,5.8c0.6,2.6,1.5,6.9,1.4,17.2
			c-0.1,11.3-4.3,13.8-10.5,17.5c-4.6,2.7-10.3,6.1-16.9,14.2c-24.8,30-8.2,50-1.1,58.6c7.7,9.3,31.1,9.9,55.4,9.1
			c16.6-0.5,28.7,2.3,38.4,4.5c3.1,0.7,6.1,1.4,8.8,1.8c4.1,0.7,6.9,1.5,9.4,2.2c4,1.1,6.8,1.9,11.9,1.4c0.8-0.1,1.5-0.1,2.3-0.2
			c7.7-0.8,16.5-1.7,20.3,6.9c4.3,9.8,1.2,20-8.5,27.3c-9.9,7.5-18.7,17.8-36.1,42.3c-20.4,28.7-34.2,39.5-42.3,43.5
			c-9.9,5-67.8,11.7-80.8,10.3c-53.3-6-89.4,9.1-104.9,15.5c-3.8,1.6-6.6,2.7-8.2,3c-3.3,0.6-8.1,1.1-13.6,1.7
			c-8.4,1-18.9,2.1-29.9,4.1c-10.3,1.8-12.1,5.7-14.1,9.8c-1.5,3.2-3.1,6.5-8.3,9c-3.3,1.6-6.5,3.9-9.5,6.1
			C214.7,525.4,209.7,529,204.3,529z M195.9,524.5c8.5,6.9,15.3,2,23.3-3.8c3.1-2.2,6.3-4.5,9.7-6.2c4.9-2.3,6.3-5.3,7.8-8.5
			c2-4.2,4.1-8.6,14.9-10.5c11-1.9,21.5-3.1,30-4.1c5.5-0.6,10.3-1.2,13.6-1.7c1.5-0.3,4.2-1.4,8-2.9c15.5-6.5,51.9-21.6,105.5-15.6
			c15.4,1.7,71.9-6,80.1-10.1c7.9-4,21.7-14.7,41.9-43.2c17.4-24.6,26.3-34.9,36.3-42.5c9.2-7,12.2-16.7,8.1-26
			c-3.5-7.8-11.4-7-19.1-6.2c-0.8,0.1-1.6,0.2-2.3,0.2c-5.2,0.5-8.2-0.3-12.3-1.5c-2.5-0.7-5.3-1.5-9.3-2.1
			c-2.7-0.5-5.7-1.1-8.8-1.9c-9.7-2.2-21.7-5-38.1-4.5c-22.8,0.7-47.9,0.6-56.3-9.5c-7.3-8.8-24.3-29.3,1.1-60
			c6.8-8.2,12.5-11.6,17.2-14.4c6.3-3.8,9.8-5.8,9.9-16.5c0.1-10.1-0.8-14.4-1.4-16.9c-0.5-2.3-0.8-3.5,0.2-6.4
			c1.8-5.3,1.8-5.3-2.1-11.9l-0.8-1.3c-4.3-7.4-2.6-29-1.6-41.9c0.1-1.3,0.2-2.6,0.3-3.7c0.5-6.4-0.5-10.5-2.9-11.7
			c-2.3-1.2-6,0.1-10.8,3.9c-5.3,4.1-9.1,11-13.1,18.3c-4.8,8.7-9.7,17.7-17.8,23.5c-14.7,10.6-37.3,21.4-42.6,22.5
			c-0.6,0.1-1.6,0.1-2.6-1.5c-3.6-5.9-4-32.1,16.9-58.7c5.2-6.7,5.2-17.2,2.5-20.1c-1-1-2.2-0.9-3.7,0.1c-1.5,1.1-3.4,2.4-5.6,4
			c-8.2,5.7-20.6,14.3-28.4,22.9c-2,2.2-4,4.7-6,7c-7.8,9.4-15.9,19.1-25.4,19.1c-0.1,0-0.3,0-0.4,0c-6.2-0.2-8.7-4.1-10.8-7.6
			c-2-3.3-3.8-6.1-8.3-5.5c-3.8,0.5-6.6,5.4-10.3,11.5c-5.5,9.3-12.2,20.8-26.3,24.7c-4.5,1.2-8.2,2.6-11.5,3.8
			c-14,5.1-21.7,8-60.2-7.1c-49.6-19.4-70.5-9.4-71.4-8.9c-0.2,1,2.8,3.9,5.8,6.8c3.7,3.6,8.4,8.1,12.4,13.3l1.9,2.4
			c9,11.6,22.6,29.1,21.7,41c-0.3,4.3-1.4,8.3-2.4,12.3c-1.9,7.5-3.5,13.9,0.9,17.7c1.6,1.4,3.8,3.7,6.4,6.4
			c8.8,9.2,22,23.1,32.9,23.4c4.3,0.1,8.8,0,13.1-0.1c10.9-0.3,19.5-0.6,19.9,3.4c0.1,1,0.2,2,0.3,3.1c0.3,4.1,0.6,8.4,3.7,11.8
			c1.4,1.6,3.2,3.2,5,4.7c3.1,2.6,6,5.1,6.5,7.7c0.3,1.9-1.8,5-4.6,8.8c-3.2,4.4-6.8,9.4-6.9,13.4c0,1.5,0,3.5,0.1,5.9
			c0.4,9.7,1,23-6.3,24.7c-2.3,0.5-4.9,0.9-7.3,1.2c-6.4,0.9-12.5,1.7-12.9,5.8l-0.1,1.4c-0.6,6-1.5,14.1-8.7,30.9
			c-7,16.4-12.2,21.9-15,24.8c-1,1-1.7,1.8-2.1,2.6c-0.7,1.3,3,3.6,6.2,5.7c3.3,2.1,6.8,4.3,8.1,6.6l0.3,0.6c2.6,4.5,5,8.8-1.3,15.3
			c-3.5,3.7-5.4,9-5,14.1C185.8,513,189.4,519.2,195.9,524.5L195.9,524.5z"/>
		<path class="st1" d="M228.7,565.6c-12.3,0-23.6-8-35.4-16.4l0,0c-20.5-14.6-22.4-42.6-21.5-51.3c0.4-3.4,3.1-5.1,5.8-6.7
			c3-1.9,5.9-3.6,5.8-7.7c0-3.8-3-5.8-6-8c-3.3-2.3-6.7-4.7-6.6-9.3c0.2-6.4,4.1-11.6,9.5-18.7c1.9-2.6,4.1-5.5,6.4-8.8
			c5.8-8.3,8.6-21.3,10.6-30.7c1-4.5,1.8-8,2.6-10c1.5-3.4,5.2-4.3,9.9-5.4c4-0.9,8.5-2,13.2-4.8c6.3-3.8,4.3-9.6,2.2-15.9
			c-1.2-3.4-2.3-6.7-1.9-9.6c0.6-4.9,3.4-7,6-9c1.7-1.3,3.4-2.6,4.4-4.6c1.3-2.5-0.6-3.8-3.8-5.6c-1.9-1.1-3.8-2.1-4.5-3.8
			c-0.8-2-2.3-4.5-4.2-7.6c-1.6-2.6-3.4-5.6-5.4-9.2c-2.4-4.4-8.9-4-17.2-3.5c-5.8,0.3-12.4,0.7-18.8-0.5
			c-16.4-3.3-31.7-21.5-35.6-30.8c-3.7-8.7-3.3-10.6-1.8-19.9c0.2-1.4,0.5-2.9,0.7-4.7c2.4-15.8-17.5-42.4-23.7-50.2l-2.2-2.8
			c-10.5-13.2-15.3-19.3-10.9-28.3c4.1-8.3,12-5.3,22-1.4c1.8,0.7,3.7,1.4,5.7,2.1c7,2.5,15.7,3,26.7,3.6c9.2,0.5,19.7,1.2,32.1,3.1
			c25.4,3.9,57.5,4.5,69.9-2c7.4-3.9,9.2-12.8,11-21.5c1-4.9,1.9-9.5,3.8-12.9c1.6-2.9,3.4-4.4,5.3-4.6c3.4-0.3,6.6,3.5,9.9,7.6
			c0.4,0.5,0.9,1.1,1.3,1.6c5,6,9.2,6.9,24.8,5.5c10.1-0.9,21.7-14.1,33.9-28.1c6.5-7.4,13.1-15,20-21.4c8.8-8.1,21.1-13.8,28.6-8
			c3.3,2.5,4.2,6.6,2.3,10.3c-25.1,48-33.9,76.7-29.5,79.4c2.1,1.3,11.2-1.6,49.2-56.4c3.2-4.6,6.1-9.2,8.7-13.2
			c8.4-13.3,14.5-23,22.5-19.8c10,3.9,15.1,31.5,12.9,52.5c-1.1,10.4-2.7,15.6-3.9,19.7c-1.2,3.9-2,6.7-1.9,12.1
			c0.1,4.3,0.8,7.1,1.4,9.4c0.9,3.6,1.5,6-1.5,10.6c-2.6,4.1-1.2,10.4,0.1,15.9c0.9,4,1.8,7.7,1.2,10.5c-1.8,7.9-5.3,20.8-11.6,37.6
			c-3.3,9-3.6,16.2-0.8,22c4.5,9.4,16.7,13.5,27.4,17.1c6.5,2.2,12.6,4.2,16.7,7.3c14.4,10.8,42.2,12.8,61.6,11.3
			c11.8-0.9,20.7,1.3,26.4,6.5c4.5,4.2,6.8,10.2,6.8,17.9c0,14.3-6,19.7-16,28.7c-2.8,2.6-6,5.5-9.5,8.9
			c-5.8,5.8-12.3,15.8-19.1,26.4c-11.5,17.7-24.5,37.8-39.4,46.6c-18.2,10.7-57.4,14.7-88.9,17.9c-9.5,1-18.5,1.9-25.6,2.9
			c-14.9,2.1-31.2,11-48.5,20.5c-16.5,9-33.6,18.3-50.1,21.9c-21.4,4.6-25.8,10-31.5,16.8c-3.2,3.8-6.7,8.2-13.8,13
			C240.6,563.8,234.6,565.6,228.7,565.6z M194,548.3c17,12.1,33,23.5,52.3,10.2c7-4.8,10.5-9,13.6-12.8c5.8-7,10.3-12.6,32.1-17.2
			c16.4-3.5,33.4-12.8,49.8-21.8c17.4-9.5,33.8-18.5,48.9-20.6c7.1-1,16.1-1.9,25.6-2.9c31.4-3.2,70.4-7.2,88.4-17.7
			c14.7-8.6,27.6-28.6,39-46.2c6.9-10.6,13.4-20.7,19.3-26.6c3.5-3.5,6.7-6.4,9.6-9c9.7-8.8,15.6-14.1,15.6-27.8
			c0-7.3-2.2-13.1-6.4-17c-5.4-4.9-14.2-7.1-25.5-6.2c-19.7,1.6-47.8-0.5-62.4-11.5c-3.9-2.9-9.9-4.9-16.3-7.1
			c-10.9-3.7-23.4-7.8-28.1-17.7c-2.9-6.1-2.7-13.6,0.8-22.9c6.2-16.8,9.7-29.7,11.5-37.5c0.6-2.5-0.3-6.1-1.2-9.9
			c-1.3-5.8-2.9-12.3,0-16.8c2.7-4.2,2.2-6.2,1.3-9.7c-0.6-2.3-1.3-5.2-1.4-9.6c-0.1-5.6,0.8-8.6,2-12.5c1.2-4.1,2.8-9.1,3.9-19.5
			c2.1-20.2-2.8-47.6-12.2-51.3c-7-2.8-12.9,6.5-21.1,19.4c-2.6,4.1-5.5,8.7-8.7,13.3c-28.4,40.8-45.5,59.9-50.8,56.7
			c-6.9-4.2,10.2-44.9,29.1-80.9c1.7-3.2,0.9-6.6-1.9-8.8c-5-3.9-15.4-2.9-27.1,7.9c-6.9,6.3-13.5,13.9-19.9,21.3
			c-12.4,14.2-24.1,27.5-34.7,28.5c-16,1.5-20.6,0.4-25.8-5.9c-0.4-0.5-0.9-1-1.3-1.6c-2.9-3.5-5.9-7.2-8.6-7.2c-0.1,0-0.2,0-0.3,0
			c-1.5,0.1-3,1.4-4.4,4c-1.8,3.2-2.7,7.8-3.7,12.5c-1.7,8.5-3.7,18.2-11.6,22.3c-12.6,6.6-45.1,6.1-70.7,2.1
			c-12.4-1.9-22.8-2.5-32-3c-11.1-0.6-19.9-1.2-27-3.7c-2-0.7-3.9-1.4-5.7-2.1c-9.8-3.8-16.9-6.5-20.6,0.8
			c-4.1,8.4,0.2,13.8,10.8,27.1l2.2,2.8c8,10.1,26.3,35.3,23.9,51.1c-0.3,1.8-0.5,3.3-0.8,4.7c-1.5,9.2-1.8,10.9,1.7,19.3
			c4.4,10.3,20,27.2,34.7,30.2c6.3,1.3,12.8,0.9,18.5,0.5c8.3-0.5,15.5-0.9,18.3,4.1c2,3.6,3.8,6.5,5.4,9.1c1.9,3.2,3.5,5.7,4.3,7.7
			c0.5,1.2,2.3,2.2,4,3.2c2.9,1.6,6.1,3.5,4.3,7.1c-1.1,2.2-2.9,3.6-4.7,5c-2.6,2-5,3.9-5.6,8.3c-0.3,2.6,0.7,5.7,1.9,9
			c2.1,6.1,4.4,13-2.7,17.2c-4.8,2.9-9.7,4-13.5,4.9c-4.6,1-7.9,1.8-9.1,4.7c-0.8,1.8-1.6,5.3-2.5,9.7c-2.1,9.6-4.9,22.6-10.8,31.2
			c-2.3,3.3-4.5,6.2-6.4,8.8c-5.3,6.9-9.1,12-9.2,18c-0.1,4,2.9,6.1,6.1,8.4c3.2,2.2,6.5,4.6,6.5,8.9c0,4.7-3.4,6.8-6.4,8.7
			c-2.5,1.6-4.9,3-5.2,5.9C172.3,505,173.7,533.8,194,548.3L194,548.3z"/>
	</g>
</g>
</svg>
