<?xml version="1.0" encoding="utf-8"?>
<!-- Generator: Adobe Illustrator 25.2.0, SVG Export Plug-In . SVG Version: 6.00 Build 0)  -->
<svg version="1.1" id="レイヤー_1" xmlns="http://www.w3.org/2000/svg" xmlns:xlink="http://www.w3.org/1999/xlink" x="0px"
	 y="0px" viewBox="0 0 941.6 398.6" style="enable-background:new 0 0 941.6 398.6;" xml:space="preserve">
<style type="text/css">
	.st0{fill:none;}
	.st1{fill:#FFFFFF;}
</style>
<rect class="st0" width="942.9" height="398.6"/>
<g>
	<g>
		<path class="st1" d="M871.9,272.2H373.1v-71.1h498.8V272.2z M377.1,268.1h490.7v-63H377.1V268.1z"/>
		<path class="st1" d="M373.7,175.8l7.7-43.5h11l6,25h0.4l14.8-25h11.7l-7.7,43.5h-9.4l4.9-27.6h-0.5l-13.2,22.1h-5.8l-5.1-22.1H388
			l-4.8,27.6H373.7z"/>
		<path class="st1" d="M430.8,154.7c1.6-8.4,8.2-13.6,16.8-13.6c9.7,0,15.9,5.6,15.9,14.6c0,1.7-0.1,2.9-0.3,4.1l-0.6,3
			c-1.7,8.4-7.9,13.6-17,13.6c-9.4,0-15.8-5.5-15.8-14.4c0-1.6,0.1-3.1,0.3-4.4L430.8,154.7z M440.6,159.5c-0.2,0.9-0.3,1.9-0.3,2.9
			c0,3.8,2.1,6.3,5.5,6.3c3.4,0,5.7-2.7,6.5-7.5l0.5-3.4c0.1-1,0.2-2.3,0.2-2.8c0-3.7-2.1-6.1-5.5-6.1c-3.3,0-5.7,2.4-6.5,7.3
			L440.6,159.5z"/>
		<path class="st1" d="M499.2,175.8h-9.8l0.9-5.2h-0.6c-1.4,3-4.6,5.7-9.7,5.7c-6.1,0-10.3-3.8-10.3-10.2c0-2.2,0.3-4.1,0.6-5.8
			l3.3-18.6h10.2l-3.2,18.3c-0.2,1.1-0.3,2.4-0.3,3.4c0,3.2,2.1,4.8,4.7,4.8c3.8,0,5.9-2.7,6.7-7.5l3.3-19.1h10.2L499.2,175.8z"/>
		<path class="st1" d="M514.4,141.8h10l-0.9,5.2h0.5c1.5-3.1,4.6-5.7,9.7-5.7c6.6,0,10.2,4.4,10.2,10.3c0,2.2-0.4,4.6-0.7,6.4
			l-3.2,17.9h-10.2l3.2-18.4c0.2-1,0.3-2.4,0.3-3.3c0-3.2-1.9-5-4.5-5c-3.8,0-6,2.8-6.8,7.6l-3.4,19.2h-10.2L514.4,141.8z"/>
		<path class="st1" d="M558.7,133.9h9.8l-1.5,8.4h7l-1.4,7.6h-6.9l-2.3,13.3c-0.3,1.3-0.3,1.9-0.3,2.3c0,2.3,1.3,3.2,3.9,3.2
			c1.2,0,2.4-0.2,3-0.3l-1.3,7.2c-0.9,0.2-2.9,0.5-5.3,0.5c-7.1,0-10.9-2.3-10.9-7.3c0-0.8,0.1-1.9,0.3-3l2.8-15.8H551l1.4-7.6h4.9
			L558.7,133.9z"/>
		<path class="st1" d="M576.2,166.7c0-0.2,0-0.4,0-0.5c0.2-6.9,5.9-10.3,14-10.3h7.7l0.4-2.4c0-0.3,0.1-0.7,0.1-1
			c0-2.1-1.5-3.9-4.6-3.9c-2.6,0-4.1,1.2-4.6,3h-9.5c0.7-5.2,5.3-10.3,14.8-10.3c8.4,0,13.7,4,13.7,11.4c0,0.9-0.2,2.1-0.3,3.3
			l-3.5,20h-9.5l0.8-4.3h-0.5c-1.2,2.4-4,4.8-8.8,4.8C580.6,176.4,576.2,172.8,576.2,166.7z M590.5,169.3c2.7,0,5.3-1.8,5.7-4.4
			l0.6-3.5h-5.4c-3.4,0-5.2,1.8-5.2,4.1C586.3,167.7,588,169.3,590.5,169.3z"/>
		<path class="st1" d="M619.6,141.8h10.2l-6,34.1h-10.2L619.6,141.8z M626.4,127c3.8,0,5.9,2.1,5.9,4.9c0,3.2-2.6,5.2-6.3,5.2
			c-3.7,0-5.9-2-5.9-4.9C620.1,129.1,622.7,127,626.4,127z"/>
		<path class="st1" d="M639.3,141.8h10l-0.9,5.2h0.5c1.5-3.1,4.6-5.7,9.7-5.7c6.6,0,10.2,4.4,10.2,10.3c0,2.2-0.4,4.6-0.7,6.4
			l-3.2,17.9h-10.2l3.2-18.4c0.2-1,0.3-2.4,0.3-3.3c0-3.2-1.9-5-4.5-5c-3.8,0-6,2.8-6.8,7.6l-3.4,19.2h-10.2L639.3,141.8z"/>
		<path class="st1" d="M715.3,131.6c12.4,0,17.6,7.5,17.6,14c0,0.2,0,1.1-0.1,1.3h-10.1c0-0.2,0-0.6,0-0.9c-0.1-2.2-1.9-5.9-7.4-5.9
			c-5,0-8.3,3.6-9.5,10.2l-0.9,4.9c-0.2,1.1-0.4,2.9-0.4,4c0,5.8,3.4,9,8.1,9c4.5,0,7.8-2.4,8.4-5.6l0.6-3h-7.9l1.2-6.9h17.6
			l-1.7,9.5c-1.6,8.7-8.2,14.5-18.8,14.5c-10,0-18.1-5.4-18.1-17.3c0-1.5,0.2-3.6,0.5-4.9l1-5.7C697.3,138.2,704,131.6,715.3,131.6z
			"/>
		<path class="st1" d="M769,175.8h-9.8l0.9-5.2h-0.6c-1.4,3-4.6,5.7-9.7,5.7c-6.1,0-10.3-3.8-10.3-10.2c0-2.2,0.3-4.1,0.6-5.8
			l3.4-18.6h10.2l-3.2,18.3c-0.2,1.1-0.3,2.4-0.3,3.4c0,3.2,2.1,4.8,4.7,4.8c3.8,0,5.9-2.7,6.7-7.5l3.4-19.1H775L769,175.8z"/>
		<path class="st1" d="M784.6,141.8h10.2l-6,34.1h-10.2L784.6,141.8z M791.3,127c3.8,0,5.9,2.1,5.9,4.9c0,3.2-2.6,5.2-6.3,5.2
			c-3.7,0-5.9-2-5.9-4.9C785,129.1,787.6,127,791.3,127z"/>
		<path class="st1" d="M823.6,148.5h0.4l3.3-18.4h10.3l-8.1,45.8h-10.2l1-5.5h-0.5c-1.2,3.2-4.6,5.8-9.5,5.8
			c-6.8,0-11.2-4.7-11.2-12.6c0-1.5,0.1-3.3,0.4-4.7l0.6-3.4c1.6-8.7,6.5-14.1,14-14.1C819.4,141.4,823.1,144.7,823.6,148.5z
			 M817.2,149.4c-3.6,0-5.9,2.8-6.7,7.2l-0.5,2.9c-0.1,0.6-0.2,1.7-0.2,2.6c0,3.9,2.1,6.3,5.4,6.3c3.6,0,5.9-2.8,6.8-7.5l0.5-2.8
			c0.1-0.6,0.2-1.7,0.2-2.4C822.6,151.5,820.1,149.4,817.2,149.4z"/>
		<path class="st1" d="M839.9,162.7c0-1.6,0.2-3.2,0.4-4.6l0.5-3c1.7-9.5,8.6-14,16.7-14c9,0,14.7,6,14.3,14.8c0,0.4-0.3,2.9-0.8,5
			H850c-0.2,0.7-0.3,1.8-0.3,2.6c0,3,1.7,5.5,5.7,5.5c2.8,0,4.9-1.3,5.4-3.4h9.5c-0.7,5.8-6.5,10.9-15.5,10.9
			C846.4,176.5,839.9,172.1,839.9,162.7z M862.3,154.3c0.4-3.2-1.3-5.8-4.9-5.8c-3,0-5.3,1.9-6.1,5.5l-0.3,1.3h11.2
			C862.2,155,862.3,154.6,862.3,154.3z"/>
		<g>
			<path class="st1" d="M409.9,239.2c0,0.1,0,0.1,0,0.3c0,1.5,1.7,2.3,3.3,2.3c1.1,0,2.9-0.3,2.9-1.7c0-1.1-1.2-1.5-2.8-1.9
				l-2.7-0.8c-2.9-0.9-5.2-2.5-5.2-6.3c0-5.2,4.4-8,9.9-8c5.9,0,9.3,3.3,9.3,6.9c0,0.4,0,0.5-0.1,0.7h-6.4c0-0.1,0-0.2,0-0.3
				c0-1.5-1.5-2.1-2.9-2.1c-1.6,0-2.5,0.8-2.5,1.8c0,1,1,1.6,2.6,2l2.8,0.8c2.6,0.7,5.2,2.2,5.2,6.1c0,5.2-4.7,8-10.4,8
				c-4.5,0-9.7-1.8-9.7-7.1c0-0.3,0-0.5,0.1-0.7H409.9z"/>
			<path class="st1" d="M433.3,246.6l4.1-23.3h7.1l-1.5,8.8h6.8l1.5-8.8h7.2l-4.1,23.3h-7.2l1.6-8.8H442l-1.6,8.8H433.3z"/>
			<path class="st1" d="M468.1,232.3c1.1-5.9,5.1-9.3,11.2-9.3c5.9,0,9.9,3.4,9.9,9c0,0.8,0,1.6-0.2,2.5l-0.6,3.1
				c-1.1,5.9-5,9.3-11.2,9.3c-5.8,0-9.9-3.4-9.9-9c0-0.8,0-1.7,0.1-2.5L468.1,232.3z M474.7,235.5c-0.1,0.7-0.2,1.4-0.2,1.9
				c0,2.1,1,3.7,3.1,3.7c1.8,0,3.3-1.4,3.9-4.9l0.4-2.1c0.1-0.7,0.2-1.4,0.2-1.9c0-2.1-1-3.7-3.1-3.7c-1.8,0-3.3,1.5-3.9,4.9
				L474.7,235.5z"/>
			<path class="st1" d="M516.6,239c-0.9,5.3-4.7,7.9-9.6,7.9c-4.9,0-9-2.6-9-7.7c0-0.8,0.1-1.4,0.2-1.7l6.8,0
				c-0.1,0.3-0.1,0.6-0.1,0.8c0,1.3,0.6,2.3,2.1,2.3c1.7,0,2.2-1.3,2.5-2.7l2.6-14.7h7.2L516.6,239z"/>
			<path class="st1" d="M527.2,246.6l4.1-23.3h7.1l-4.1,23.3H527.2z"/>
			<path class="st1" d="M561.5,246.6l4.1-23.3h7.7l2.4,10.9h0.2l6.4-10.9h8.1l-4.1,23.3H580l2.4-13.2H582l-5.6,9.7h-3.8l-2-9.7h-0.3
				l-2.3,13.2H561.5z"/>
			<path class="st1" d="M607.5,223.3h9.1l3,23.3h-7.7l-0.2-4.4h-6.2l-1.8,4.4h-7.2L607.5,223.3z M610.7,229.2l-3.2,7.9h3.9l-0.3-7.9
				H610.7z"/>
			<path class="st1" d="M633.6,246.6l3.1-17.5H631l1-5.8h18.5l-1,5.8h-5.7l-3.1,17.5H633.6z"/>
			<path class="st1" d="M663.4,239.2c0,0.1,0,0.1,0,0.3c0,1.5,1.7,2.3,3.3,2.3c1.1,0,2.9-0.3,2.9-1.7c0-1.1-1.2-1.5-2.8-1.9
				l-2.7-0.8c-2.9-0.9-5.2-2.5-5.2-6.3c0-5.2,4.4-8,9.9-8c5.9,0,9.3,3.3,9.3,6.9c0,0.4,0,0.5-0.1,0.7h-6.4c0-0.1,0-0.2,0-0.3
				c0-1.5-1.5-2.1-2.9-2.1c-1.6,0-2.5,0.8-2.5,1.8c0,1,1,1.6,2.6,2l2.8,0.8c2.6,0.7,5.2,2.2,5.2,6.1c0,5.2-4.7,8-10.4,8
				c-4.5,0-9.7-1.8-9.7-7.1c0-0.3,0-0.5,0.1-0.7H663.4z"/>
			<path class="st1" d="M695.3,237.1c-0.1,0.4-0.1,0.8-0.1,1.1c0,1.7,1.1,2.8,3.1,2.8c1.6,0,2.7-0.9,3.1-3.2l2.6-14.4h7.2l-2.8,16.3
				c-0.8,4.6-4.9,7.3-10.5,7.3c-5.1,0-9.8-2.4-9.8-7.8c0-0.5,0.1-1.1,0.1-1.7l2.5-14.2h7.2L695.3,237.1z"/>
			<path class="st1" d="M718.9,246.6l4.1-23.3h7.7l2.4,10.9h0.2l6.4-10.9h8.1l-4.1,23.3h-6.3l2.4-13.2h-0.3l-5.6,9.7h-3.8l-2-9.7
				h-0.3l-2.3,13.2H718.9z"/>
			<path class="st1" d="M757.4,232.3c1.1-5.9,5.1-9.3,11.2-9.3c5.9,0,9.9,3.4,9.9,9c0,0.8,0,1.6-0.2,2.5l-0.6,3.1
				c-1.1,5.9-5,9.3-11.2,9.3c-5.8,0-9.9-3.4-9.9-9c0-0.8,0-1.7,0.1-2.5L757.4,232.3z M764,235.5c-0.1,0.7-0.2,1.4-0.2,1.9
				c0,2.1,1,3.7,3.1,3.7c1.8,0,3.3-1.4,3.9-4.9l0.4-2.1c0.1-0.7,0.2-1.4,0.2-1.9c0-2.1-1-3.7-3.1-3.7c-1.8,0-3.3,1.5-3.9,4.9
				L764,235.5z"/>
			<path class="st1" d="M791.3,246.6l3.1-17.5h-5.7l1-5.8h18.5l-1,5.8h-5.7l-3.1,17.5H791.3z"/>
			<path class="st1" d="M816,232.3c1.1-5.9,5.1-9.3,11.2-9.3c5.9,0,10,3.4,10,9c0,0.8,0,1.6-0.2,2.5l-0.6,3.1
				c-1.1,5.9-5,9.3-11.2,9.3c-5.8,0-9.9-3.4-9.9-9c0-0.8,0-1.7,0.2-2.5L816,232.3z M822.7,235.5c-0.1,0.7-0.2,1.4-0.2,1.9
				c0,2.1,1,3.7,3.1,3.7c1.8,0,3.3-1.4,3.9-4.9l0.4-2.1c0.1-0.7,0.2-1.4,0.2-1.9c0-2.1-1-3.7-3.1-3.7c-1.8,0-3.3,1.5-3.9,4.9
				L822.7,235.5z"/>
		</g>
	</g>
	<g>
		<path class="st1" d="M181.6,207.4c-0.6,0-1.1-0.1-1.6-0.4c-1.2-0.7-2.8-2.5-3.3-7.4c-0.4-3.7,0-5.6,0.2-7.1
			c0.3-1.5,0.5-2.5-0.3-4.5c-0.8-2.1-2.8-3.6-4.7-5.1c-1.7-1.3-3.5-2.7-4.4-4.4c-1.7-3.4,1-6,2.3-7.2c0.2-0.1,0.3-0.3,0.4-0.4l0,0
			c0.7-0.8,2.5-1.8,4.1-1.3c1.5,0.5,2.4,2.1,2.9,4.8c0.1,3.1,0.6,5,1.6,5.8c0.8,0.6,1.7,0.4,2.8,0.2c0.2,0,0.3-0.1,0.5-0.1
			c0.7-0.1,1.4-0.4,2.1-0.6c1.7-0.6,3.5-1.2,4.9-0.1c1.1,0.8,0.5,2.4-0.1,4.2c-0.5,1.4-1,3-1,4.5c0.1,1.6,1.1,3.2,2,4.7
			c0.9,1.4,1.7,2.6,1.8,3.9c0.4,5.5-6.3,8.8-8.5,9.9C182.8,207.3,182.2,207.4,181.6,207.4z M173.4,170.2c-1.1,0-2.3,0.7-2.7,1.2l0,0
			c-0.1,0.1-0.3,0.2-0.4,0.4c-1.3,1.2-3.7,3.5-2.1,6.4c0.8,1.6,2.4,2.9,4.2,4.2c2,1.6,4.1,3.2,4.9,5.4c0.8,2.1,0.6,3.2,0.3,4.8
			c-0.3,1.5-0.6,3.4-0.2,7c0.5,4.6,1.9,6.3,3,6.9c0.8,0.5,1.8,0.4,2.8,0c2.1-1,8.5-4.2,8.1-9.3c-0.1-1.1-0.8-2.3-1.7-3.6
			c-1-1.6-2-3.2-2.1-5c-0.1-1.7,0.5-3.3,1-4.8c0.6-1.8,1-3,0.3-3.5c-1.1-0.9-2.7-0.3-4.3,0.2c-0.7,0.3-1.5,0.5-2.2,0.6
			c-0.2,0-0.3,0.1-0.5,0.1c-1.1,0.2-2.3,0.4-3.3-0.4c-1.1-0.9-1.7-2.9-1.8-6.2c-0.4-2.4-1.2-3.9-2.4-4.3
			C173.9,170.2,173.7,170.2,173.4,170.2z"/>
		<path class="st1" d="M174,219.5c-2,0-2.8-0.8-3.1-1.3c-0.7-1.3,0.1-3.2,1.9-5c2.6-2.7,2.6-3.5,2.4-5.3c0-0.3,0-0.6-0.1-0.9
			c0-1.1-0.4-2-0.8-3.1c-0.5-1.4-1.1-3-1.3-5.3c-0.1-1.2,0.1-2.5,0.3-3.6c0.5-2.8,0.8-5.3-2.9-7.8c-5.6-3.8-5.7-4.3-6.2-8.4
			c-0.3-2.7-1.5-4.5-2.7-6.5c-0.6-0.9-1.2-1.9-1.7-2.9c-0.6-1.3-0.7-2.1-0.4-2.7c0.5-0.9,2-0.9,4.4-1.1l0.9,0
			c2.4-0.1,3.1-0.7,4.1-1.4c0.8-0.6,1.7-1.2,3.5-1.8c1.5-0.4,2.6-0.4,3.4,0.1c1.4,0.8,2,3.1,2.7,6.4l0.1,0.4c1.2,5.4,1.7,6.5,2.9,7
			c0.9,0.4,2.9-0.5,5-1.4c3.6-1.6,7.7-3.4,9.7-0.9c2,2.4,1.3,3.8,0.3,6.1c-0.7,1.5-1.6,3.5-2.3,6.6c-1,5.2,0.5,6.6,2.4,8.4
			c0.9,0.8,1.9,1.7,2.8,3.2c2.4,4,0.1,7.2-2.1,10.2c-0.4,0.5-0.7,1-1,1.4c-2.3,3.3-6.3,6.9-10.1,7.3c-1.8,0.2-3,0.5-4.6,0.9
			c-1.4,0.3-3.2,0.8-5.8,1.2C175.1,219.4,174.5,219.5,174,219.5z M174.3,162.7c-0.5,0-1,0.1-1.7,0.3c-1.7,0.5-2.6,1.1-3.3,1.7
			c-1,0.7-1.9,1.4-4.5,1.5l-0.9,0c-2,0.1-3.5,0.2-3.8,0.7c-0.2,0.3-0.1,1,0.4,2c0.5,1,1.1,2,1.6,2.8c1.2,1.9,2.4,3.9,2.8,6.7
			c0.5,4,0.5,4.4,5.9,8c4.1,2.7,3.6,5.6,3.2,8.4c-0.2,1.1-0.4,2.3-0.3,3.5c0.2,2.3,0.8,3.8,1.3,5.2c0.4,1.1,0.8,2.1,0.8,3.3
			c0,0.3,0,0.6,0.1,0.9c0.1,1.9,0.2,2.9-2.6,5.8c-1.6,1.6-2.3,3.3-1.8,4.2c0.5,0.9,1.9,1.2,4.1,0.8c2.6-0.5,4.3-0.9,5.8-1.2
			c1.6-0.4,2.9-0.7,4.7-0.9c3.6-0.4,7.4-3.8,9.6-7c0.3-0.5,0.7-1,1-1.5c2.2-3,4.3-5.9,2.1-9.5c-0.8-1.3-1.8-2.2-2.7-3
			c-2-1.8-3.7-3.4-2.6-9c0.6-3.2,1.6-5.3,2.3-6.8c1.1-2.3,1.5-3.3-0.2-5.4c-1.7-2.1-5.5-0.4-8.9,1.1c-2.4,1-4.4,1.9-5.5,1.5l0,0
			c-1.5-0.7-2-2.1-3.3-7.5l-0.1-0.4c-0.7-3.2-1.2-5.3-2.4-6C175.2,162.8,174.8,162.7,174.3,162.7z"/>
		<path class="st1" d="M172.7,226.5c-1.5,0-2.7-0.3-3.7-0.8c-1.2-0.7-2-1.8-2.3-3.3c-0.6-3.3,0.4-5,2-7.7c0.6-1.1,1.3-2.3,2.1-3.9
			c1.3-1.8,0.8-3.5,0.1-5.6c-0.4-1.4-0.9-2.9-1-4.7c-0.1-1.3,0.2-2.6,0.4-4c0.3-1.9,0.6-3.7,0.1-5.1c-0.7-1.9-2.3-2.7-3.7-3.5
			c-0.6-0.3-1.2-0.7-1.8-1.1c-5.4-4.1-5.4-6.7-5.5-11.2l0-0.7c-0.1-4.8-4.6-8.1-8.9-8.6c-3-0.3-5.2-1.5-5.4-2.8
			c-0.1-0.6,0.3-1.5,2.4-2.1c2.5-0.7,5.2-0.3,7.9,0.2c2.2,0.4,4.4,0.7,6.9,0.7c3.3-0.1,6.4-1.7,9.5-3.2c2.3-1.2,4.5-2.3,6.7-2.7
			c1.8-0.4,3-0.3,3.8,0.3c1.1,0.9,1.2,2.5,1.2,4.3c0,0.4,0,0.7,0,1.1c0.1,1.3-0.4,2.8-0.9,4.2c-0.8,2.3-1.5,4.4-0.1,6
			c2.5,1.5,5.8-0.3,8.5-1.8l0.4-0.2c0.5-0.3,1-0.6,1.6-1c2.8-1.7,6.2-3.9,8.9-1.1c3,3.2,2.1,5.7-0.9,14l-0.4,1.2
			c-2.2,6.2,0.1,9.9,2.3,13.5c1,1.6,1.9,3.1,2.4,4.7c1.7,5.8,2.8,10.5,2.8,14.7c0,1.7-0.3,2.8-1.1,3.6c-1.7,1.6-5.6,1.8-12.2,1.6
			c-7.6-0.3-10,0.9-12.8,2.3c-1,0.5-2.1,1.1-3.6,1.6C176.5,226.1,174.5,226.5,172.7,226.5z M150.5,161.7c-0.9,0-1.9,0.1-2.8,0.4
			c-1.3,0.4-2,0.9-2,1.4c0.1,0.8,1.9,1.9,4.8,2.2c4.6,0.5,9.4,4.1,9.5,9.2l0,0.7c0,4.4,0.1,6.8,5.2,10.6c0.5,0.4,1.1,0.7,1.7,1
			c1.6,0.9,3.2,1.8,4,3.9c0.6,1.6,0.3,3.5,0,5.5c-0.2,1.3-0.4,2.6-0.4,3.8c0.1,1.7,0.6,3.2,1,4.5c0.7,2.2,1.3,4.1-0.1,6.1
			c-0.7,1.6-1.4,2.8-2.1,3.9c-1.5,2.7-2.4,4.3-1.9,7.3c0.2,1.3,0.9,2.2,1.9,2.8c2,1.1,5.3,1,9.1-0.4c1.4-0.5,2.5-1,3.5-1.5
			c2.8-1.4,5.3-2.6,13.1-2.4c6.4,0.2,10.2,0,11.7-1.4c0.7-0.6,1-1.6,0.9-3.1c0-4.2-1.1-8.8-2.8-14.6c-0.5-1.6-1.4-3-2.3-4.6
			c-2.2-3.6-4.7-7.6-2.3-14.1l0.4-1.2c3-8.2,3.8-10.4,1-13.3c-2.3-2.5-5.4-0.5-8.1,1.2c-0.6,0.4-1.1,0.7-1.6,1l-0.4,0.2
			c-2.9,1.6-6.4,3.6-9.2,1.8l-0.1,0c-1.8-1.9-0.9-4.3-0.1-6.7c0.5-1.3,1-2.7,0.9-3.9c0-0.4,0-0.7,0-1.1c-0.1-1.7-0.1-3.1-1-3.8
			c-0.6-0.5-1.7-0.6-3.3-0.2c-2.1,0.5-4.2,1.5-6.5,2.7c-3.1,1.6-6.4,3.2-9.8,3.3c-2.5,0.1-4.8-0.3-7-0.7
			C153.7,162,152.1,161.7,150.5,161.7z"/>
		<path class="st1" d="M167,230.5c-2.7,0-4.8-0.5-5.9-1.4c-0.7-0.6-1.1-1.3-1.1-2.2c0-3.8,1.5-9.8,5.1-14.1c3.2-3.8,3.3-7,3.4-9
			c0-0.3,0-0.5,0-0.8c0.1-1-0.1-1.7-0.3-2.7c-0.2-0.9-0.4-2.1-0.5-4c-0.2-3.2-2.2-4.7-4.1-5.9c-0.2-0.2-0.4-0.3-0.6-0.5
			c-0.9-0.6-1.7-1.5-2.5-2.4c-1-1.1-2.1-2.2-3.3-3c-2.6-1.6-2-4.8-1-8.4c0.7-2.6-1.2-5-5.9-7.6c-1.2-0.7-3.7-1.3-6.1-2
			c-2.4-0.6-4.6-1.2-5.4-1.8c-1-0.7-3.6-2.8-3.8-5c0-0.9,0.3-1.6,1.1-2.2c2.9-2.4,13.9-1.3,18.3,0.1c4.5,1.4,6.2,1.1,12-0.4
			c3.4-0.8,11.5-3.6,15.3-6.2c2.2-1.6,5-1.7,6.7-0.3c1.4,1.1,1.6,3,0.6,5.1l-0.5,1.3c-2.5,6.1-4.7,11.5-3.4,12.5
			c1.8,1.4,9.9-4,15.8-8.2c2.5-1.9,4.4-2.4,5.7-1.4c3.2,2.4,1.5,12.4-0.4,17.3c-2.2,5.9,0.1,12.5,2.3,19c0.5,1.3,0.9,2.7,1.3,4
			c1,3,1.2,5.1,1.5,7.1c0.4,3.1,0.8,5.8,3.6,11.3c2.3,4.4,2.8,7.2,1.7,8.6c-1.7,2-6.4,0.2-10.2-1.2c-1.1-0.4-2-0.8-2.8-0.9
			c-4.5-1.2-7.8-0.8-12.8,0.1c-2.3,0.4-4.9,1.2-7.6,2c-3.2,0.9-6.4,1.9-10,2.5C170.9,230.3,168.8,230.5,167,230.5z M143.2,156.9
			c-3,0-5.7,0.4-6.8,1.3c-0.6,0.5-0.9,1-0.8,1.7c0.1,1.7,2.2,3.6,3.5,4.5c0.8,0.5,3,1.1,5.3,1.7c2.5,0.7,5,1.4,6.3,2
			c1.8,1,7.3,4,6.2,8.3c-1.1,3.9-1.3,6.4,0.7,7.6c1.3,0.8,2.4,1.9,3.5,3.1c0.8,0.9,1.6,1.7,2.4,2.3c0.2,0.1,0.4,0.3,0.6,0.5
			c1.8,1.3,4.1,2.9,4.3,6.4c0.1,1.9,0.3,3,0.5,3.9c0.2,1,0.3,1.7,0.3,2.8c0,0.2,0,0.5,0,0.8c-0.1,2.2-0.2,5.5-3.5,9.4
			c-3.5,4.2-5,10-5,13.7c0,0.7,0.3,1.3,0.9,1.7c1.7,1.4,6.1,1.7,11.6,0.7c3.5-0.6,6.8-1.6,9.9-2.5c2.7-0.8,5.3-1.6,7.7-2
			c5-0.9,8.4-1.3,13.1-0.1c0.7,0.2,1.7,0.6,2.8,1c3.4,1.3,8.1,3,9.5,1.3c1-1.1,0.4-3.8-1.7-7.9c-2.9-5.6-3.3-8.4-3.7-11.5
			c-0.3-2-0.6-4-1.5-7c-0.4-1.3-0.9-2.7-1.3-4c-2.3-6.6-4.6-13.4-2.3-19.4c2-5.3,3.2-14.6,0.6-16.5c-1.1-0.8-2.7-0.3-5,1.4
			c-10.1,7.1-14.9,9.5-16.6,8.2c-1.7-1.4,0.2-6.1,3.2-13.3l0.5-1.3c0.9-1.8,0.7-3.4-0.4-4.3c-1.2-1-3.6-1.2-5.9,0.3
			c-4.1,2.9-12.8,5.6-15.5,6.3l0,0c-5.8,1.5-7.7,1.8-12.3,0.4C151.4,157.5,147,156.9,143.2,156.9z"/>
		<path class="st1" d="M223.6,235.8c-5.1,0-11.7-2.8-16.7-4.9c-1.2-0.5-2.4-1-3.4-1.4c-5.2-2-10.6,0.2-14.9,2
			c-1.4,0.6-2.6,1.1-3.7,1.4c-3.9,1.1-15.3,1-22.8,1l-2.6,0c-1.6,0-2.7-0.5-3.5-1.4c-1.6-2.1-0.7-5.9-0.1-8.8
			c0.2-0.9,0.4-1.7,0.5-2.2c0.1-1.6,2.3-4.3,4.7-7.2c2-2.4,4-5,4.8-6.8c1.9-4.4-0.2-10.8-0.6-12.1c-0.4-1.2-1.7-2.1-3.1-3.3
			c-1.3-1-2.7-2.1-3.9-3.6c-1-1.3-2-2.2-2.8-2.9c-1.2-1.1-2.1-1.9-2.3-3.3c-0.2-1.8-1.3-4.6-2.3-7.2l-0.4-1.2
			c-0.9-2.4-10.4-5.9-15.5-7.8c-1.2-0.4-2.2-0.8-2.9-1.1c-4.8-1.9-6.4-6.9-5.5-9.5l0,0c1.2-3.3,5.6-2.7,12.8-1.8
			c1.9,0.2,4.1,0.5,6.4,0.8c9.2,0.9,13.6,0.2,19.2-0.8c0.9-0.2,1.9-0.3,2.9-0.5c3.3-0.5,7.5-3.3,11.5-6c4.7-3.2,9.2-6.2,11.7-5
			c4.6,2.1-0.2,13.9-3,20.9l-0.2,0.4c-1.2,3-0.8,3.3-0.8,3.3c0.3,0.2,2-1,2.9-1.6c0.3-0.2,0.6-0.5,1-0.7c0.6-0.4,1.7-1.3,3-2.4
			c4-3.3,10.8-8.8,15.8-10.9c3-1.2,5-1.3,6.2-0.3c1.3,1.1,1.5,3.5,0.5,7.3c-0.3,1.4-0.8,2.8-1.4,4.6c-1.9,5.9-4.6,14.1-4.1,25.3
			c0.6,14.2,4.5,26.5,7.9,30c0.9,1,2.5,2,4.2,3c4.5,2.8,10.1,6.4,6.8,11.7C228.7,235,226.4,235.8,223.6,235.8z M199.3,228.1
			c1.5,0,3.1,0.2,4.6,0.8c1,0.4,2.2,0.9,3.4,1.4c7.5,3.2,18.7,7.9,22.2,2.2c2.9-4.8-2.1-8-6.6-10.9c-1.7-1.1-3.3-2.1-4.3-3.1
			c-3.5-3.7-7.5-16.1-8.1-30.4c-0.5-11.3,2.2-19.5,4.1-25.5c0.6-1.7,1-3.2,1.4-4.5c0.9-3.5,0.8-5.7-0.3-6.7c-1-0.8-2.8-0.7-5.6,0.4
			c-5,2-11.7,7.5-15.7,10.8c-1.3,1.1-2.4,2-3.1,2.4c-0.3,0.2-0.6,0.5-0.9,0.7c-1.8,1.3-3,2.1-3.6,1.6c-0.6-0.4-0.4-1.6,0.6-4.1
			l0.2-0.4c2.4-5.9,7.4-18.3,3.3-20.1c-2.2-1-6.5,1.9-11.1,5c-4.1,2.7-8.4,5.6-11.8,6.1c-1,0.2-2,0.3-2.9,0.5
			c-5.6,0.9-10.1,1.7-19.3,0.8c-2.3-0.2-4.5-0.5-6.4-0.8c-6.9-0.9-11.1-1.4-12.1,1.4l0,0c-0.9,2.4,0.7,6.9,5.1,8.7
			c0.8,0.3,1.8,0.7,2.9,1.1c7.5,2.8,14.9,5.8,15.8,8.2l0.4,1.2c1,2.7,2.1,5.5,2.3,7.4c0.2,1.1,0.9,1.8,2.1,2.9
			c0.8,0.7,1.9,1.7,2.9,3c1.1,1.4,2.5,2.5,3.8,3.5c1.5,1.2,2.8,2.2,3.3,3.6c0.5,1.3,2.7,7.9,0.6,12.5c-0.9,1.9-2.9,4.5-4.9,7
			c-2.2,2.7-4.4,5.5-4.5,6.8c0,0.6-0.2,1.4-0.5,2.3c-0.6,2.7-1.5,6.4-0.1,8.2c0.6,0.8,1.6,1.1,3,1.1l2.6,0c7.1,0,18.9,0.1,22.7-1
			c1-0.3,2.2-0.8,3.6-1.3C191.5,229.6,195.3,228.1,199.3,228.1z"/>
		<path class="st1" d="M229.4,241.7c-0.2,0-0.4,0-0.7,0c-3.5-0.1-9.7-1.2-16.2-2.4c-8.5-1.6-17.3-3.2-21-2.6
			c-6.5,1-34.7,2.7-37.8,0.6c-3.1-2.2-2.7-4.1-0.1-14c1.5-5.8,4.2-9.3,6.7-12.4c1.8-2.3,3.3-4.2,4-6.6c1.5-5.1-1.8-7.6-4.7-9.8
			l-0.7-0.5c-3.2-2.4-6.9-7.4-8-12.8c-1-5-4.2-7-8.7-8.3c-1.5-0.5-3.1-0.6-4.7-0.7c-2.9-0.3-6.1-0.6-10.4-2.7
			c-7.4-3.7-8.2-11.3-7.7-14.9l0,0c0.4-2.7,1.5-4.7,3.3-5.8c3.8-2.4,9.7-0.7,15,0.8c0.5,0.2,1.1,0.3,1.6,0.4
			c7.3,2,17.4,1.3,27.1,0.3c7.3-0.7,9.7-4.2,13.4-9.4c0.7-1,1.4-2,2.3-3.2c6.4-8.6,12.6-7,15-5.9c4.5,2-3.6,22-5.3,26
			c-1.5,3.6-1.4,4.2-1.3,4.3c0,0,0,0,0,0c0.1,0,0.5-0.1,1.9-1.3c2.9-2.4,16-12.2,23.3-15.1c3.3-1.3,5.3-1.5,6.4-0.6
			c1.4,1.2,1.3,3.9,0.5,8.7c-0.8,4.9-2.4,11.5-4,17.9c-0.9,3.9-1.9,7.8-2.7,11.3c-2.1,9.7,1.1,23.4,3.3,28.2
			c1.6,3.6,11.1,8.7,28.1,14.9c3.9,1.4,6.1,4.1,6,7.3c-0.1,2.2-1.3,4.1-3.1,4.6C248.1,238.7,238.1,241.7,229.4,241.7z M193.4,236
			c4.4,0,11.9,1.4,19.2,2.7c6.5,1.2,12.6,2.3,16.1,2.4c8.7,0.1,19.1-3,21.1-3.6c1.5-0.5,2.6-2.1,2.6-4c0.1-2.8-2-5.3-5.6-6.6
			c-17.4-6.4-26.8-11.4-28.5-15.3c-2.6-5.9-5.3-19.5-3.3-28.6c0.8-3.5,1.7-7.5,2.7-11.4c1.5-6.4,3.1-13,4-17.9
			c0.7-4.3,1-7.1-0.2-8.1c-0.9-0.7-2.7-0.5-5.7,0.7c-7.2,2.9-20.3,12.7-23.1,15c-1.4,1.1-2.2,1.7-2.7,1.3c-0.5-0.4-0.5-1.3,1.1-5.1
			c4.7-11.2,8.5-23.9,5.6-25.2c-4.7-2.1-9.9,0-14.2,5.7c-0.8,1.1-1.6,2.2-2.3,3.1c-3.8,5.4-6.3,8.9-13.8,9.7
			c-9.8,1-19.9,1.7-27.3-0.3c-0.5-0.1-1-0.3-1.6-0.4c-5.2-1.5-11-3.1-14.5-0.9c-1.6,1-2.6,2.8-3,5.3l0,0c-0.5,3.4,0.3,10.7,7.3,14.2
			c4.2,2.1,7.4,2.4,10.2,2.6c1.7,0.2,3.2,0.3,4.8,0.8c4.1,1.2,8,3.1,9.2,8.8c1.1,5.3,4.8,10.1,7.8,12.4l0.7,0.5
			c2.9,2.2,6.6,5,5,10.5c-0.7,2.5-2.3,4.5-4.1,6.8c-2.4,3.1-5.1,6.5-6.5,12.2c-2.6,9.9-2.8,11.5-0.1,13.3c2.7,1.9,30.3,0.4,37.3-0.7
			C192,236,192.7,236,193.4,236z"/>
		<path class="st1" d="M234.8,246.4c-3.8,0-8.4-0.8-12.8-1.6c-3.6-0.6-7-1.2-9.6-1.3c-3.6-0.2-5.9-0.5-7.6-0.7
			c-3.2-0.5-4.5-0.7-9.9,1c-3.5,1.1-10.5,0.4-18-0.4c-4-0.4-8.2-0.8-11.6-0.9c-2.2-0.1-4.1,0-5.9,0c-5.9,0-9.2,0-10.2-2.7
			c-1.3-3.3,1.2-15.2,4.1-24.8c1.7-5.9,4.7-7.9,6.7-9.2c1.3-0.9,2.2-1.5,2.2-2.6c0-3-3.4-4.8-6.5-6.4l-0.4-0.2
			c-3.6-1.8-5.5-5.1-5.8-9.6c-0.3-4.5-2.2-7.2-5.2-10.1c-1.8-1.7-3.9-0.9-6.3,0.1c-1.5,0.6-3,1.2-4.6,1.3c-4.5,0.3-13.1-4.8-15.9-8
			l0,0c-1.8-2-1.7-5.4-1.7-10.5l0-1.2c0-2.7-0.7-4.2-1.6-5.9c-1-1.9-2-4-2.5-8.2c-0.2-1.8,0.3-3.1,1.4-3.9c2.8-2,9.6-0.3,20.9,5.1
			c8.2,3.9,12.6,3.1,23.5,1.2c2-0.3,4.1-0.7,6.6-1.1c9.4-1.5,12.5-7.4,14.9-12.1c1.7-3.2,3-5.8,5.9-5.8c4.4,0,7-0.7,9-1.3
			c2.3-0.6,3.9-1.1,6.6-0.2c0.7,0.2,1.2,0.7,1.5,1.4c1.9,4.1-2.4,15.7-5,22.5c-0.3,0.7-0.5,1.4-0.8,2c-1.2,3.2-0.8,3.6-0.8,3.6
			c0.2,0.2,1.7-0.8,2.4-1.3c0.5-0.3,1-0.7,1.5-1c0.6-0.3,1.7-1.1,3-2c5.6-3.8,16.1-10.9,21.8-13.2c2.3-0.9,3.9-1,4.9-0.2
			c1.7,1.3,1.1,4.6,0.7,7l-0.1,0.5c-0.3,1.5-1.6,5.3-3.2,9.7c-2,5.5-4.2,11.8-4.9,15.3c-0.9,4.6-1.1,6.5-1.7,11.2
			c-0.2,1.8-0.4,3.9-0.8,6.8c-1.2,10,0.1,19.1,3.4,23c3.2,3.8,14.4,6.8,23.5,7.4c2.6,0.2,5.6,1.8,8.8,3.6c2.5,1.4,5,2.8,7.6,3.7
			c1.7,0.6,3.6,0.9,5.2,1.1c3.6,0.5,6.6,1,6.8,4.5c0.2,5-6.4,11.5-13.4,13.2c-3.1,0.7-6.3,0.5-9.5,0.2c-3.8-0.3-7.7-0.7-11.7,0.7
			C238.2,246.2,236.6,246.4,234.8,246.4z M201.5,241.7c1.1,0,2.1,0.1,3.4,0.3c1.7,0.3,3.9,0.6,7.5,0.7c2.7,0.1,6.1,0.7,9.7,1.3
			c6.5,1.1,13.3,2.3,17.2,1c4.1-1.4,8.1-1,12-0.7c3.2,0.3,6.3,0.5,9.3-0.2c6.7-1.6,13.1-7.8,12.9-12.5c-0.1-2.9-2.7-3.3-6.2-3.9
			c-1.6-0.2-3.5-0.5-5.3-1.1c-2.7-0.9-5.3-2.3-7.8-3.7c-3.1-1.7-6.1-3.4-8.5-3.5c-9.2-0.6-20.7-3.7-24-7.6
			c-3.4-4.2-4.8-13.2-3.5-23.5c0.3-2.8,0.6-5,0.8-6.8c0.5-4.7,0.7-6.6,1.7-11.2c0.7-3.6,3-9.9,5-15.4c1.6-4.3,2.9-8.1,3.2-9.5
			l0.1-0.5c0.4-2.1,0.9-5.3-0.4-6.4c-0.8-0.6-2.2-0.5-4.3,0.3c-5.6,2.3-16.1,9.4-21.7,13.2c-1.4,0.9-2.5,1.7-3.1,2
			c-0.5,0.3-1,0.6-1.4,1c-1.4,1-2.5,1.8-3.2,1.3c-0.4-0.3-0.6-1.1,0.6-4.4c0.2-0.6,0.5-1.3,0.8-2c2.4-6.3,6.9-18.2,5-22
			c-0.3-0.6-0.6-0.9-1.1-1.1c-2.5-0.9-4-0.5-6.2,0.2c-2.1,0.6-4.7,1.3-9.2,1.3c-2.5,0-3.7,2.4-5.3,5.4c-2.4,4.6-5.6,10.9-15.4,12.4
			c-2.4,0.4-4.6,0.8-6.6,1.1c-11,1.9-15.5,2.7-23.9-1.3c-10.9-5.2-17.7-7-20.2-5.2c-0.9,0.6-1.3,1.7-1.1,3.3c0.4,4.1,1.5,6.2,2.4,8
			c0.9,1.8,1.7,3.3,1.7,6.2l0,1.2c0,5,0,8.3,1.6,10.1l0,0c2.8,3.1,11.1,8,15.4,7.8c1.5-0.1,3-0.7,4.4-1.2c2.5-1,4.9-1.9,7,0.1
			c3,2.9,5.1,5.9,5.4,10.6c0.3,4.3,2.1,7.4,5.5,9.1l0.4,0.2c3.2,1.7,6.9,3.5,6.8,6.9c0,1.5-1.1,2.2-2.4,3.1c-2,1.4-4.8,3.2-6.5,8.9
			c-2.9,9.8-5.3,21.3-4.1,24.4c0.9,2.3,4,2.3,9.6,2.3c1.7,0,3.7,0,5.9,0c3.5,0.1,7.6,0.5,11.7,0.9c7,0.7,14.3,1.4,17.7,0.4
			C198,242.1,199.8,241.7,201.5,241.7z"/>
		<path class="st1" d="M139.2,254c-2,0-3.4-0.5-4.2-1.5c-1.2-1.4-1.1-3.6,0.2-6.9c0.7-1.9,3.6-4.2,6.3-6.4c2.4-1.9,4.8-4,5.2-5.2
			c0.3-1,0.7-3.5,1-6.4c0.7-5.1,1.5-11.5,3-15c1.2-2.8,2.9-4.1,4.5-5.2c1.6-1.2,2.9-2.1,3-4.3c0.1-2.5-1-3-2.7-3.7
			c-1.2-0.5-2.6-1.1-3.9-2.5l-0.1-0.1c0,0-1.6-3.7-3.8-6.6c-0.8-1-1.4-2.4-2-3.7c-1.1-2.6-2.3-5.2-5-6.2c-1.5-0.5-2.3-0.1-3.5,0.4
			c-2.2,1-5.1,2.4-13.6-0.3c-5.4-1.7-16.1-8.9-13.1-19.2c2.3-8,0-12.4-2.3-16.6c-0.6-1.2-1.3-2.4-1.8-3.6c-0.8-2-1-3.1-0.4-3.9
			c0.8-1.1,2.8-1.1,6.1-1c1.3,0,2.8,0.1,4.5,0c0.1,0,0.2,0,0.2,0c4.2,0,7.6,1.7,11.2,3.5c3.8,1.9,8.2,4,14.2,4.5
			c12.1,1,28.4-3.3,33.3-11.2c4.4-7.1,9.7-8.9,14.8-10.6c0.9-0.3,1.8-0.6,2.7-1c5.3-2,9.2-2.9,11.1-2.7c0.3,0,0.6,0.3,0.8,0.8
			c1.5,2.9,2.9,15-2.9,24.9c-3.1,5.4-2.9,6.2-2.8,6.3c0,0,0.7,0.1,4.2-3.2c1.7-1.6,5.8-4.2,10.2-7c2-1.3,4-2.6,5.9-3.8
			c6.6-4.4,12.1-5.9,19.6-5.5c4.7,0.3,7.5,3.4,7.7,6.2c0.2,2.1-1.1,3.7-3.2,4.2c-3.6,0.8-4.3,1.9-6.3,5.5c-0.9,1.5-1.9,3.4-3.6,5.9
			c-5.9,9-9.6,20.7-11.3,35.8c-1.5,13.4,0.9,20.8,7.7,24.1c3.4,1.7,17.1,2.5,40.5,2.5c0.3,0,0.7,0,1,0c0,0,0,0,0,0
			c7.5,0,14.5,2.7,18.6,7.3c2.2,2.4,3.2,5.1,3,7.6c-0.8,6.8-19.9,20-26.5,22.3c-4.4,1.5-14.9,0.5-28.3-0.9
			c-8.4-0.8-17.8-1.8-27.2-2.2c-14.4-0.7-19.9-1.2-25.3-1.6c-3.6-0.3-7.4-0.6-13.8-1c-10.2-0.6-15.5,1.7-20.6,4
			c-2.9,1.3-5.6,2.5-9.1,3.2C141.3,253.9,140.2,254,139.2,254z M152.1,196.4c1.2,1.3,2.5,1.9,3.7,2.3c1.7,0.7,3.2,1.4,3.1,4.3
			c-0.1,2.5-1.6,3.6-3.2,4.8c-1.5,1.1-3.2,2.3-4.3,5c-1.4,3.5-2.3,9.8-2.9,14.9c-0.4,3.1-0.7,5.5-1.1,6.5c-0.5,1.4-2.9,3.4-5.4,5.5
			c-2.7,2.2-5.4,4.5-6.1,6.2c-1.2,3-1.3,5.1-0.3,6.2c1,1.3,3.4,1.6,6.9,0.9c3.5-0.7,6.1-1.9,9-3.1c5.2-2.3,10.5-4.6,20.9-4
			c6.5,0.4,10.2,0.7,13.8,1c5.4,0.5,10.9,1,25.3,1.6c9.4,0.5,18.9,1.4,27.3,2.3c13.3,1.3,23.7,2.4,28,0.9
			c7.1-2.5,25.4-15.6,26.1-21.7c0.3-2.3-0.7-4.8-2.8-7.1c-4-4.5-10.8-7.1-18.1-7.1c-0.3,0-0.7,0-1.1,0c-23.9,0-37.2-0.9-40.8-2.6
			c-7.1-3.5-9.5-11.1-8-24.8c1.7-15.2,5.4-27,11.4-36.1c1.6-2.5,2.7-4.3,3.5-5.9c2.1-3.7,2.8-4.9,6.7-5.8c1.8-0.4,2.9-1.7,2.7-3.5
			c-0.2-2.5-2.8-5.3-7.1-5.6c-7.4-0.5-12.8,1.1-19.2,5.3c-1.9,1.3-4,2.6-5.9,3.9c-4.4,2.8-8.5,5.4-10.1,7c-3.7,3.5-4.6,3.6-5.1,3.2
			c-0.5-0.4-0.6-1.6,2.7-7.2c5.6-9.7,4.2-20.9,3.1-23.8c-0.3-0.8-0.5-0.9-0.5-0.9c-0.8-0.1-3.5,0-10.8,2.7c-0.9,0.3-1.8,0.6-2.8,1
			c-5,1.7-10.2,3.4-14.5,10.3c-5.1,8.2-21.6,12.6-33.9,11.5c-6.1-0.5-10.5-2.7-14.4-4.6c-3.7-1.8-6.9-3.4-10.9-3.4
			c-0.1,0-0.2,0-0.2,0c-1.7,0-3.2,0-4.5,0c-3-0.1-5-0.1-5.5,0.7c-0.4,0.5-0.2,1.6,0.5,3.3c0.5,1.2,1.1,2.4,1.8,3.6
			c2.3,4.3,4.7,8.8,2.3,17.1c-1.6,5.5,1.1,9.8,3.6,12.5c2.8,3,6.7,5.2,9.1,6c8.2,2.6,11.1,1.3,13.1,0.3c1.2-0.6,2.3-1.1,4-0.4
			c3,1.1,4.2,3.9,5.4,6.6c0.6,1.4,1.2,2.6,1.9,3.6C150.3,192.5,151.9,195.9,152.1,196.4z"/>
		<path class="st1" d="M263.3,266.9c-2.4,0-5-0.6-8.1-2.1c-9.3-4.3-14.9-3.9-22.8-3.4c-2.4,0.2-4.8,0.3-7.6,0.4
			c-5.3,0.1-10.9-1.3-16.8-2.8c-7.8-2-16.8-4.2-27.4-3.6c-9.9,0.5-13.8,3.6-17,6.1c-2.8,2.2-5.1,4-10.3,3c-4.9-0.9-9.8-0.2-14.1,0.4
			c-5.3,0.7-9.4,1.3-10.6-1.7l0,0c-1.5-3.8,2.1-15.7,3.3-19.3c1.3-4.1,5.4-5.8,8.6-7.1c1.7-0.7,3.1-1.3,3.8-2.1
			c1.4-1.6,1.9-9.1,2.2-14c0.1-2.1,0.2-4,0.4-5c0.3-1.8,2.1-3.9,3.8-5.9c1.8-2.1,3.7-4.4,3.7-6c0-1.4-2.4-3.3-4.5-4.9
			c-0.7-0.6-1.4-1.1-2-1.6c-1.4-1.2-1.7-2.6-2.2-4.5c-0.3-1.3-0.7-3-1.7-5.2c-1.7-4-8-3.2-13.7-2.6c-1.5,0.2-2.9,0.3-4.2,0.4
			c-0.1,0-0.2,0-0.4,0c-4.3,0-8.4-4.1-12.5-8.1c-1.7-1.7-3.4-3.4-5.1-4.8c-6-4.8-5.7-7.4-3.1-10.8c2.3-2.9,2.7-6.6,1.1-12.7
			c-0.8-3-2.9-6-4.8-8.7c-1.7-2.4-3.2-4.5-3.5-6.3c-0.1-0.4,0-1.1,0.7-1.8c1.6-1.3,5.6-2,10.7-1.9c5.7,0.2,11.7,1.4,16.9,3.4
			c13.7,5.2,19.4,5.7,30.7,2.7c10.5-2.8,13.4-6.9,16.6-11.4c0.3-0.4,0.6-0.9,0.9-1.3c3-4.1,10.1-4.8,15.9-5.3
			c1.3-0.1,2.6-0.2,3.8-0.4c6-0.8,8.1-2,11.5-8.7c0.6-1.1,1.2-1.5,1.8-1.3c1.4,0.5,1.5,4.9,1.2,7.7c-0.1,1,0,2.9,0.2,5
			c0.4,5.2,1,12.3-1.4,16.3c-4.2,6.8-4.8,8.5-4.8,9c0.5-0.1,2.1-1.3,7.6-7.1c3.1-3.3,5.3-4.3,10.3-6.4c0.9-0.4,1.9-0.8,3-1.3
			c2.4-1.1,5.3-2.4,8.1-3.7c5.4-2.5,10.5-4.9,12.5-5.4c1-0.3,1.7-0.2,2.2,0.1c0.7,0.5,0.8,1.4,1,2.8c0.1,0.6,0.2,1.4,0.3,2.1
			c0.5,2.3,1.3,2.9,2.1,3.4c1,0.7,2,1.4,2.2,4.7c0.4,6.4-5.1,10.5-10.4,11.7c-4.1,0.8-6.5,10.4-9.4,21.5c-0.9,3.4-1.8,6.8-2.8,10.3
			c-3.7,12.6-4,19.8-1.2,24c3.6,5.2,12.3,6,25.6,7.2c9.3,0.8,20.9,1.9,34.7,4.8c2.3,0.5,5.7,0.2,9.4,0c5.9-0.4,12-0.8,14.6,1.6
			c0.8,0.8,1.2,1.8,1.2,3c0.1,8.3-17.5,26.4-29.6,35.3c-2.3,1.7-4.4,3.3-6.2,4.8C272.4,263.8,268.5,266.9,263.3,266.9z M239.1,260.5
			c4.9,0,9.8,0.7,16.4,3.7c9.7,4.5,14.2,0.9,22.2-5.4c1.8-1.4,3.9-3.1,6.2-4.8c13.3-9.7,29.4-27.4,29.3-34.7c0-1-0.3-1.9-1-2.5
			c-2.4-2.2-8.6-1.8-14.1-1.5c-3.7,0.2-7.2,0.5-9.5,0c-13.8-2.9-25.3-3.9-34.6-4.7c-13.5-1.2-22.4-2-26.1-7.5
			c-3-4.4-2.7-11.7,1.1-24.5c1-3.4,1.9-6.9,2.8-10.2c2.9-11.3,5.5-21.1,9.9-22c5-1.1,10.3-4.9,9.9-11c-0.2-3-1-3.5-1.9-4.2
			c-0.9-0.6-1.9-1.3-2.4-3.8c-0.2-0.8-0.3-1.5-0.4-2.2c-0.2-1.2-0.3-2-0.7-2.3c-0.3-0.2-0.9-0.2-1.7,0c-2,0.5-7.3,3-12.4,5.4
			c-2.8,1.3-5.7,2.7-8.2,3.7c-1.1,0.5-2.1,0.9-3,1.3c-4.8,2.1-7,3-10,6.2c-7,7.4-8,7.7-8.5,7.3c-0.4-0.3-1-0.8,4.6-9.8
			c2.3-3.8,1.8-10.8,1.3-15.9c-0.2-2.3-0.3-4.1-0.2-5.2c0.5-3.5,0-6.8-0.7-7c-0.2-0.1-0.5,0.2-1,1c-3.5,6.9-5.9,8.2-12,9
			c-1.1,0.2-2.4,0.3-3.8,0.4c-5.6,0.5-12.6,1.2-15.4,5c-0.3,0.4-0.6,0.9-0.9,1.3c-3.2,4.5-6.2,8.8-16.9,11.6
			c-11.4,3-17.2,2.5-31-2.7c-11.5-4.4-24.1-4-26.9-1.6c-0.4,0.4-0.6,0.7-0.5,1.1c0.3,1.7,1.8,3.8,3.4,6.1c1.9,2.7,4.1,5.8,4.9,8.9
			c1.6,6.2,1.2,10.2-1.3,13.3c-2.5,3.2-2.7,5.3,3,9.9c1.7,1.4,3.5,3.1,5.2,4.8c4,4,8.2,8.1,12.3,7.9c1.2-0.1,2.6-0.2,4.1-0.4
			c5.9-0.7,12.5-1.4,14.3,3c0.9,2.2,1.4,3.9,1.7,5.3c0.4,1.8,0.7,3,2,4.1c0.6,0.5,1.2,1,2,1.6c2.3,1.8,4.7,3.7,4.7,5.4
			c0.1,1.9-1.8,4.1-3.9,6.4c-1.7,2-3.4,4-3.7,5.6c-0.2,1-0.3,2.8-0.4,5c-0.4,5.6-0.8,12.6-2.3,14.4c-0.8,0.9-2.3,1.5-4,2.2
			c-3.1,1.3-7,2.9-8.3,6.7c-2.3,7.2-4.4,16-3.3,18.8c1,2.6,5,2,10,1.3c4.2-0.6,9.3-1.3,14.3-0.4c5,0.9,7-0.7,9.8-2.9
			c3.2-2.6,7.2-5.7,17.3-6.2c10.7-0.5,19.7,1.7,27.6,3.7c5.9,1.5,11.5,2.9,16.7,2.7c2.8-0.1,5.2-0.2,7.6-0.4
			C234.7,260.6,236.9,260.5,239.1,260.5z"/>
		<path class="st1" d="M124.9,294.5c-0.6,0-1-0.2-1.2-0.5c-0.7-1,0.7-3,2.7-6.1c0.5-0.7,1-1.5,1.5-2.2c1.3-2.1,1.8-3.6,1.4-5
			c-0.5-1.9-2.7-3.4-5.9-5c-3.1-1.6-4.9-3.5-5.3-5.5c-0.3-1.5,0.2-2.9,1.4-4.3l0,0c8.1-9.5,8.6-16.4,9-21.5c0.1-1.4,0.2-2.6,0.4-3.7
			c0.8-3.6,4.6-4.4,8.2-5.3c1.6-0.4,3.1-0.7,4.4-1.3c2.6-1.2,2.6-7.7,2.7-13c0-2.9,0-5.4,0.4-6.8c0.7-2.5,2.8-4.9,4.5-6.7
			c1.1-1.3,2.1-2.3,2.4-3.2c0.3-0.8-0.9-1.4-2.8-2.3c-1.7-0.8-3.6-1.7-4.6-3.3c-0.9-1.4-0.8-3.1-0.7-4.8c0.1-2,0.2-4-1.2-5.8
			c-1.6-2.1-3.3-1.8-6.4-1.2c-1.8,0.3-4.1,0.7-7.1,0.8c-0.1,0-0.3,0-0.4,0c-6.8,0-9.2-2-12.4-4.8c-0.5-0.4-1-0.8-1.5-1.3
			c-0.5-0.4-1.1-0.9-1.8-1.4c-5.2-4.1-13.9-10.9-10.8-17.7c2.8-6.4,1.1-10.3-1.6-16.9c-0.4-1-0.9-2.1-1.4-3.3
			c-2.7-6.6-8.3-11-12.1-14c-1.2-0.9-2.2-1.7-2.8-2.3c-1.1-1.1-1.3-2.5-0.7-3.5c0.6-0.8,2.7-2.5,9.6,0.2c1.7,0.7,3.1,1.3,4.3,1.8
			c5.4,2.2,7,2.9,13,2.9c0.1,0,0.2,0,0.3,0c4,0,6,0.8,8.4,1.9c2.2,0.9,5,2.1,10.2,3.1c11.8,2.3,26.7,0.3,34.8-2.8
			c4.7-1.7,5.8-5.2,6.9-8.6c0.9-2.7,1.8-5.3,4.6-6.4c3.1-1.1,4.2-0.8,5.8-0.3c1.5,0.5,3.4,1,8,0.6c6.9-0.7,15-10.5,19.9-16.2
			c1.6-1.9,2.9-3.4,3.7-4.2c3.1-2.8,5-4,6.2-3.8c0.4,0.1,0.7,0.3,0.9,0.7c0.8,1.6-0.9,8.6-3.9,13.9c-2.9,5.1-5.3,15.4-5.3,19.3
			c0,3.3-0.4,5.9-0.8,7.7c-0.4,2.4-0.6,3.4,0.3,3.8c0.6,0.2,1.4-0.4,2.8-1.5c2.3-1.8,6-4.8,13.1-6.8c5.6-1.6,8.3-4,10.8-6.3
			c1-0.9,1.9-1.7,3-2.5c2.7-1.9,14.7-8.4,17.5-6.3c0.7,0.5,0.8,1.5,0.4,2.9c-2.4,6.9-0.6,11.5,2.7,19.9l0.4,1
			c3.2,8.2,1,9.9-2.3,12.6c-0.4,0.3-0.9,0.7-1.3,1.1c-2.1,1.8-4.4,2.2-6.9,2.6c-2.3,0.4-4.6,0.8-7,2.3c-5.4,3.6-8.2,21.8-8.7,25.4
			c-2.5,18.2,13.7,21.8,16.9,22.4c8,1.3,31.5,3.2,39.3-0.5c5.1-2.4,16.9,0.3,25.8,4.2c2.5,1.1,8.3,3.9,9,6.3
			c1.4,4.5-3.8,10.4-9.9,17.1l-1.4,1.5c-2.9,3.2-5.9,7.9-8.9,12.5c-3.6,5.6-7.1,10.9-9.8,12.9c-4.7,3.5-20.7,12.1-28,13.8
			c-5.1,1.1-22.1-1.2-34.4-2.9c-5-0.7-9.3-1.3-12-1.5c-4.4-0.4-8.7,0.6-12.8,1.5c-4.4,1-8.6,2-12.7,1.2c-5.5-1.1-10.6,1.4-15.9,4
			c-2.2,1.1-4.4,2.1-6.7,3c-5.8,2.2-13,1.9-18.2,1.7c-2-0.1-3.8-0.2-5.2-0.1c-2.4,0.1-7.3,4.2-12,8.2c-4.5,3.8-8.8,7.4-11.4,8
			C125.9,294.4,125.3,294.5,124.9,294.5z M139,185.9c1.4,0,2.6,0.4,3.7,1.9c1.6,2,1.4,4.3,1.3,6.2c-0.1,1.6-0.2,3.1,0.6,4.4
			c0.8,1.3,2.7,2.2,4.3,3c1.9,0.9,3.6,1.7,3.1,3.1c-0.3,0.9-1.3,2.1-2.5,3.4c-1.6,1.8-3.7,4.1-4.3,6.5c-0.4,1.3-0.4,3.9-0.4,6.6
			c0,5.7-0.1,12.2-3,13.6c-1.3,0.6-3,1-4.5,1.3c-3.5,0.8-7,1.6-7.7,4.8c-0.2,1-0.3,2.2-0.4,3.6c-0.4,4.9-0.9,12.2-9.2,21.9l0,0
			c-1,1.2-1.5,2.5-1.2,3.8c0.4,1.8,2.1,3.5,5,5c3.4,1.8,5.7,3.3,6.3,5.5c0.4,1.5-0.1,3.3-1.5,5.5c-0.5,0.8-1,1.5-1.5,2.2
			c-1.6,2.3-3.2,4.7-2.7,5.4c0.1,0.1,0.5,0.4,2.2,0c2.5-0.6,6.9-4.3,11.1-7.9c5-4.2,9.7-8.2,12.4-8.4c1.4-0.1,3.2,0,5.2,0.1
			c5.2,0.2,12.2,0.5,17.9-1.6c2.3-0.9,4.5-1.9,6.6-3c5.5-2.7,10.6-5.2,16.3-4.1c4,0.8,8.1-0.2,12.4-1.2c4.2-1,8.4-2,13-1.5
			c2.6,0.2,7,0.8,12,1.5c12.3,1.7,29.2,4,34.2,2.9c7.2-1.6,23-10.2,27.7-13.7c2.7-2,6.1-7.2,9.7-12.8c3-4.6,6-9.3,8.9-12.5l1.4-1.6
			c5.7-6.4,11.1-12.4,9.8-16.5c-0.5-1.5-3.8-3.7-8.7-5.9c-8.6-3.8-20.3-6.5-25.2-4.2c-8.4,4-33.6,1.5-39.6,0.5
			c-3.4-0.6-20-4.3-17.5-23.1c0.7-5.2,3.5-22.2,9-25.9c2.5-1.6,4.9-2,7.3-2.4c2.3-0.4,4.6-0.7,6.5-2.4c0.5-0.4,0.9-0.8,1.4-1.1
			c3.2-2.6,5.2-4.1,2.1-11.8l-0.4-1c-3.3-8.5-5.2-13.2-2.7-20.3c0.4-1.1,0.3-1.8-0.2-2.2c-2.3-1.7-13,3.6-16.8,6.3
			c-1.1,0.7-2,1.6-3,2.4c-2.5,2.2-5.3,4.8-11.1,6.4c-6.9,2-10.6,4.9-12.8,6.7c-1.5,1.2-2.5,2-3.4,1.6c-1.3-0.6-1.1-2-0.7-4.5
			c0.3-1.8,0.8-4.3,0.8-7.6c0-4,2.4-14.4,5.4-19.7c3-5.3,4.5-12,3.9-13.3c-0.1-0.2-0.3-0.3-0.5-0.4c-0.9-0.2-2.8,1.1-5.6,3.6
			c-0.8,0.8-2.1,2.3-3.7,4.2c-5.2,6.3-13.1,15.7-20.3,16.5c-4.7,0.5-6.6-0.1-8.2-0.6c-1.5-0.5-2.6-0.8-5.4,0.3
			c-2.5,0.9-3.3,3.3-4.2,6c-1.1,3.3-2.3,7.1-7.3,9c-8.2,3.1-23.3,5.1-35.2,2.8c-5.3-1-8.1-2.2-10.3-3.2c-2.5-1.1-4.3-1.8-8.2-1.8
			c-0.1,0-0.2,0-0.3,0c-6.1,0-7.8-0.7-13.2-3c-1.2-0.5-2.6-1.1-4.3-1.8c-5.3-2.1-8-1.6-8.8-0.5c-0.5,0.7-0.3,1.8,0.6,2.7
			c0.6,0.6,1.5,1.3,2.7,2.3c3.8,3,9.6,7.5,12.3,14.2c0.5,1.2,0.9,2.2,1.3,3.3c2.8,6.8,4.6,10.8,1.6,17.4c-2.8,6.4,5.6,13,10.6,16.9
			c0.7,0.5,1.3,1,1.8,1.4c0.5,0.4,1,0.9,1.5,1.3c3.1,2.7,5.4,4.6,11.9,4.6c0.1,0,0.3,0,0.4,0c2.9,0,5.2-0.4,7-0.8
			C136.9,186.1,138,185.9,139,185.9z"/>
		<path class="st1" d="M127.2,307.9c-1.6,0-3.3-0.6-5.1-2l0,0c-3.8-3.1-5.9-6.7-6.1-10.4c-0.2-3,0.9-6.2,3-8.3
			c3.1-3.3,2-5.3,0.6-7.8l-0.2-0.3c-0.6-1.2-2.6-2.4-4.3-3.5c-2.3-1.5-4.3-2.7-3.7-4c0.3-0.5,0.7-1,1.3-1.6
			c1.5-1.6,4.4-4.6,8.2-13.6c4-9.2,4.4-13.7,4.8-17l0.1-0.8c0.3-2.8,3.9-3.3,7.7-3.8c1.3-0.2,2.7-0.4,4-0.7c3.6-0.8,3.2-8.2,3-13.1
			c-0.1-1.3-0.1-2.4-0.1-3.3c0.1-2.4,2.1-5.3,4-7.8c1.3-1.8,2.6-3.6,2.4-4.4c-0.2-1.2-1.8-2.5-3.4-3.9c-1-0.8-2-1.7-2.9-2.7
			c-1.8-2.1-2-4.7-2.2-7c0-0.6-0.1-1.1-0.2-1.7c-0.2-1.6-5.4-1.5-10.4-1.3c-2.4,0.1-4.9,0.2-7.3,0.1c-6.3-0.2-13.8-8-18.8-13.2
			c-1.4-1.5-2.6-2.7-3.5-3.5c-2.7-2.4-1.8-6.2-0.7-10.5c0.5-2.2,1.1-4.4,1.3-6.7c0.5-6.4-7-16-11.9-22.4l-1.1-1.4
			c-2.2-2.9-4.8-5.3-6.8-7.3c-2.5-2.4-3.6-3.5-3.5-4.3c0-0.2,0.1-0.4,0.4-0.5c0.4-0.2,3.6-1.7,10.5-1.7c0.1,0,0.2,0,0.3,0
			c8.3,0.1,18.2,2.3,29.4,6.7c21.2,8.3,25.4,6.8,33,4c1.8-0.7,3.9-1.4,6.4-2.1c7.6-2.1,11.3-8.4,14.2-13.5c2.1-3.6,3.8-6.4,6.2-6.7
			c3-0.4,4.1,1.5,5.3,3.4c1.2,1.9,2.4,3.8,5.5,3.9c0.1,0,0.1,0,0.2,0c5,0,9.4-5.3,13.6-10.4c1.1-1.3,2.2-2.7,3.4-3.9
			c4.4-4.9,11.3-9.7,15.9-12.9c1.2-0.8,2.3-1.6,3.1-2.2c1.5-1.1,2.5-0.5,2.9,0c1.9,2,1.6,8.3-1.3,12c-11.4,14.5-11.3,28.7-9.3,31.9
			c0.2,0.3,0.5,0.6,0.8,0.6c2.9-0.6,15.3-6.6,23.5-12.4c4.4-3.2,7.1-8.1,9.7-12.9c2.3-4.1,4.4-8,7.5-10.4c2.9-2.3,5.2-3,6.7-2.2
			c1.6,0.8,2.2,3.2,1.9,7.1c0,0.6-0.1,1.3-0.2,2.1c-0.6,7.1-1.5,19,0.8,22.9l0.4,0.7c2.2,3.7,2.3,3.9,1.2,7.2
			c-0.5,1.4-0.4,1.9-0.1,3.2c0.3,1.4,0.8,3.9,0.8,9.5c-0.1,6.3-2.4,7.7-5.8,9.7c-2.5,1.5-5.7,3.4-9.4,7.9
			c-13.8,16.7-4.5,27.8-0.6,32.6c4.3,5.2,17.3,5.5,30.8,5.1c9.2-0.3,16,1.3,21.4,2.5c1.7,0.4,3.4,0.8,4.9,1c2.3,0.4,3.8,0.8,5.2,1.2
			c2.2,0.6,3.8,1,6.6,0.8c0.4,0,0.9-0.1,1.3-0.1c4.3-0.4,9.2-0.9,11.3,3.8c2.4,5.5,0.6,11.1-4.7,15.2c-5.5,4.2-10.4,9.9-20.1,23.5
			c-11.3,16-19,22-23.5,24.2c-5.5,2.8-37.7,6.5-44.9,5.7c-29.7-3.3-49.8,5-58.4,8.6c-2.1,0.9-3.7,1.5-4.6,1.7
			c-1.8,0.3-4.5,0.6-7.6,1c-4.7,0.5-10.5,1.2-16.6,2.3c-5.7,1-6.7,3.2-7.8,5.5c-0.8,1.8-1.7,3.6-4.6,5c-1.8,0.9-3.6,2.2-5.3,3.4
			C133,305.8,130.2,307.9,127.2,307.9z M122.5,305.3c4.7,3.9,8.5,1.1,12.9-2.1c1.7-1.2,3.5-2.5,5.4-3.4c2.7-1.3,3.5-3,4.3-4.7
			c1.1-2.4,2.3-4.8,8.3-5.8c6.1-1.1,12-1.7,16.7-2.3c3.1-0.3,5.7-0.7,7.6-1c0.8-0.1,2.3-0.8,4.4-1.6c8.6-3.6,28.9-12,58.7-8.7
			c8.6,1,40-3.4,44.6-5.6c4.4-2.2,12-8.2,23.3-24c9.7-13.7,14.6-19.4,20.2-23.7c5.1-3.9,6.8-9.3,4.5-14.4c-1.9-4.4-6.3-3.9-10.6-3.5
			c-0.4,0-0.9,0.1-1.3,0.1c-2.9,0.3-4.5-0.2-6.8-0.8c-1.4-0.4-2.9-0.8-5.2-1.2c-1.5-0.3-3.2-0.6-4.9-1c-5.4-1.2-12.1-2.8-21.2-2.5
			c-12.7,0.4-26.6,0.3-31.3-5.3c-4-4.9-13.5-16.3,0.6-33.4c3.8-4.5,7-6.5,9.6-8c3.5-2.1,5.5-3.3,5.5-9.2c0.1-5.6-0.4-8-0.8-9.4
			c-0.3-1.3-0.4-2,0.1-3.6c1-2.9,1-2.9-1.2-6.6l-0.4-0.7c-2.4-4.1-1.4-16.1-0.9-23.3c0.1-0.7,0.1-1.4,0.2-2.1
			c0.3-3.6-0.3-5.8-1.6-6.5c-1.3-0.7-3.3,0.1-6,2.2c-2.9,2.3-5.1,6.1-7.3,10.2c-2.7,4.8-5.4,9.8-9.9,13.1
			c-8.2,5.9-20.7,11.9-23.7,12.5c-0.3,0.1-0.9,0-1.4-0.9c-2-3.3-2.2-17.8,9.4-32.6c2.9-3.7,2.9-9.6,1.4-11.2
			c-0.5-0.6-1.2-0.5-2.1,0.1c-0.8,0.6-1.9,1.4-3.1,2.2c-4.6,3.2-11.4,7.9-15.8,12.8c-1.1,1.2-2.3,2.6-3.3,3.9
			c-4.4,5.2-8.9,10.6-14.1,10.6c-0.1,0-0.2,0-0.2,0c-3.5-0.1-4.8-2.3-6-4.2c-1.1-1.8-2.1-3.4-4.6-3.1c-2.1,0.3-3.7,3-5.7,6.4
			c-3,5.2-6.8,11.6-14.6,13.8c-2.5,0.7-4.6,1.4-6.4,2.1c-7.8,2.9-12.1,4.4-33.5-4c-27.6-10.8-39.2-5.2-39.7-5
			c-0.1,0.5,1.6,2.2,3.2,3.8c2.1,2,4.7,4.5,6.9,7.4l1,1.4c5,6.4,12.6,16.2,12.1,22.8c-0.2,2.4-0.8,4.6-1.3,6.8
			c-1,4.1-1.9,7.7,0.5,9.9c0.9,0.8,2.1,2.1,3.5,3.5c4.9,5.1,12.2,12.8,18.3,13c2.4,0.1,4.9,0,7.3-0.1c6.1-0.2,10.8-0.3,11.1,1.9
			c0.1,0.6,0.1,1.1,0.2,1.7c0.2,2.3,0.3,4.7,2,6.6c0.8,0.9,1.8,1.8,2.8,2.6c1.7,1.5,3.4,2.9,3.6,4.3c0.2,1.1-1,2.8-2.6,4.9
			c-1.8,2.5-3.8,5.2-3.8,7.5c0,0.8,0,2,0.1,3.3c0.2,5.4,0.6,12.8-3.5,13.8c-1.3,0.3-2.7,0.5-4.1,0.7c-3.6,0.5-6.9,0.9-7.2,3.2
			l-0.1,0.8c-0.4,3.3-0.8,7.9-4.8,17.2c-3.9,9.1-6.8,12.2-8.4,13.8c-0.5,0.6-0.9,1-1.2,1.4c-0.4,0.7,1.7,2,3.4,3.1
			c1.9,1.2,3.8,2.4,4.5,3.7l0.2,0.3c1.4,2.5,2.8,4.9-0.7,8.5c-1.9,2-3,5-2.8,7.9C116.9,299,118.9,302.4,122.5,305.3L122.5,305.3z"/>
		<path class="st1" d="M140.8,328.2c-6.9,0-13.1-4.5-19.7-9.1l0,0c-11.4-8.1-12.5-23.7-12-28.5c0.2-1.9,1.7-2.8,3.2-3.7
			c1.7-1,3.3-2,3.3-4.3c0-2.1-1.6-3.2-3.4-4.5c-1.8-1.3-3.7-2.6-3.7-5.2c0.1-3.6,2.3-6.4,5.3-10.4c1.1-1.4,2.3-3,3.6-4.9
			c3.2-4.6,4.8-11.8,5.9-17.1c0.5-2.5,1-4.5,1.4-5.5c0.8-1.9,2.9-2.4,5.5-3c2.2-0.5,4.7-1.1,7.3-2.7c3.5-2.1,2.4-5.4,1.2-8.8
			c-0.7-1.9-1.3-3.7-1.1-5.3c0.4-2.7,1.9-3.9,3.4-5c1-0.7,1.9-1.4,2.4-2.6c0.7-1.4-0.3-2.1-2.1-3.1c-1-0.6-2.1-1.2-2.5-2.1
			c-0.5-1.1-1.3-2.5-2.4-4.2c-0.9-1.5-1.9-3.1-3-5.1c-1.4-2.5-5-2.2-9.6-2c-3.2,0.2-6.9,0.4-10.5-0.3c-9.1-1.8-17.6-12-19.8-17.2
			c-2-4.8-1.9-5.9-1-11.1c0.1-0.8,0.3-1.6,0.4-2.6c1.3-8.8-9.7-23.6-13.2-27.9l-1.2-1.5c-5.9-7.4-8.5-10.7-6.1-15.7
			c2.3-4.6,6.7-2.9,12.3-0.8c1,0.4,2.1,0.8,3.2,1.2c3.9,1.4,8.7,1.7,14.8,2c5.1,0.3,11,0.6,17.9,1.7c14.1,2.2,32,2.5,38.9-1.1
			c4.1-2.1,5.1-7.1,6.1-12c0.5-2.7,1.1-5.3,2.1-7.2c0.9-1.6,1.9-2.5,3-2.6c1.9-0.1,3.6,2,5.5,4.2c0.2,0.3,0.5,0.6,0.7,0.9
			c2.8,3.3,5.1,3.9,13.8,3c5.6-0.5,12.1-7.9,18.9-15.6c3.6-4.1,7.3-8.3,11.1-11.9c4.9-4.5,11.7-7.7,15.9-4.5
			c1.8,1.4,2.3,3.6,1.3,5.7c-14,26.7-18.9,42.7-16.4,44.1c1.2,0.7,6.2-0.9,27.4-31.4c1.8-2.6,3.4-5.1,4.8-7.4
			c4.7-7.4,8.1-12.8,12.5-11c5.6,2.2,8.4,17.5,7.2,29.2c-0.6,5.8-1.5,8.7-2.2,11c-0.7,2.2-1.1,3.7-1.1,6.7c0.1,2.4,0.4,4,0.8,5.2
			c0.5,2,0.8,3.3-0.8,5.9c-1.5,2.3-0.6,5.8,0.1,8.8c0.5,2.2,1,4.3,0.7,5.8c-1,4.4-3,11.6-6.4,20.9c-1.9,5-2,9-0.5,12.2
			c2.5,5.2,9.3,7.5,15.2,9.5c3.6,1.2,7,2.4,9.3,4c8,6,23.5,7.1,34.3,6.3c6.6-0.5,11.5,0.7,14.7,3.6c2.5,2.3,3.8,5.7,3.8,9.9
			c0,7.9-3.3,11-8.9,16c-1.6,1.4-3.4,3-5.3,5c-3.2,3.2-6.8,8.8-10.7,14.7c-6.4,9.9-13.6,21-21.9,25.9c-10.1,5.9-31.9,8.2-49.5,9.9
			c-5.3,0.5-10.3,1-14.2,1.6c-8.3,1.2-17.4,6.1-27,11.4c-9.2,5-18.7,10.2-27.9,12.2c-11.9,2.6-14.4,5.6-17.5,9.4
			c-1.8,2.1-3.7,4.6-7.7,7.3C147.4,327.2,144.1,328.2,140.8,328.2z M121.5,318.6c9.4,6.7,18.3,13.1,29.1,5.7c3.9-2.7,5.8-5,7.6-7.1
			c3.2-3.9,5.7-7,17.9-9.6c9.1-2,18.6-7.1,27.7-12.1c9.7-5.3,18.8-10.3,27.2-11.5c3.9-0.6,8.9-1.1,14.2-1.6
			c17.5-1.8,39.2-4,49.2-9.9c8.2-4.8,15.4-15.9,21.7-25.7c3.8-5.9,7.4-11.5,10.7-14.8c1.9-1.9,3.7-3.6,5.3-5
			c5.4-4.9,8.7-7.8,8.7-15.5c0-4.1-1.2-7.3-3.6-9.5c-3-2.8-7.9-3.9-14.2-3.4c-10.9,0.9-26.6-0.3-34.7-6.4c-2.2-1.6-5.5-2.7-9.1-3.9
			c-6.1-2-13-4.4-15.6-9.9c-1.6-3.4-1.5-7.6,0.4-12.7c3.5-9.3,5.4-16.5,6.4-20.9c0.3-1.4-0.2-3.4-0.7-5.5c-0.7-3.2-1.6-6.8,0-9.3
			c1.5-2.3,1.2-3.4,0.7-5.4c-0.3-1.3-0.7-2.9-0.8-5.4c-0.1-3.1,0.4-4.8,1.1-6.9c0.7-2.3,1.5-5.1,2.2-10.8
			c1.2-11.2-1.6-26.5-6.8-28.5c-3.9-1.5-7.2,3.6-11.7,10.8c-1.4,2.3-3,4.8-4.8,7.4c-15.8,22.7-25.3,33.3-28.3,31.5
			c-3.8-2.3,5.7-25,16.2-45c0.9-1.8,0.5-3.7-1.1-4.9c-2.8-2.1-8.6-1.6-15.1,4.4c-3.8,3.5-7.5,7.7-11.1,11.8
			c-6.9,7.9-13.4,15.3-19.3,15.9c-8.9,0.8-11.4,0.2-14.4-3.3c-0.2-0.3-0.5-0.6-0.7-0.9c-1.6-2-3.3-4-4.8-4c-0.1,0-0.1,0-0.1,0
			c-0.9,0.1-1.7,0.8-2.4,2.2c-1,1.8-1.5,4.3-2,7c-1,4.7-2,10.1-6.4,12.4c-7,3.7-25.1,3.4-39.3,1.2c-6.9-1.1-12.7-1.4-17.8-1.7
			c-6.2-0.4-11.1-0.6-15-2.1c-1.1-0.4-2.2-0.8-3.2-1.2c-5.5-2.1-9.4-3.6-11.4,0.5c-2.3,4.7,0.1,7.7,6,15.1l1.2,1.5
			c4.4,5.6,14.6,19.6,13.3,28.4c-0.2,1-0.3,1.8-0.4,2.6c-0.8,5.1-1,6.1,1,10.7c2.4,5.8,11.2,15.1,19.3,16.8
			c3.5,0.7,7.1,0.5,10.3,0.3c4.6-0.3,8.6-0.5,10.2,2.3c1.1,2,2.1,3.6,3,5.1c1.1,1.8,1.9,3.2,2.4,4.3c0.3,0.7,1.3,1.2,2.2,1.8
			c1.6,0.9,3.4,1.9,2.4,4c-0.6,1.2-1.6,2-2.6,2.8c-1.4,1.1-2.8,2.2-3.1,4.6c-0.2,1.4,0.4,3.2,1,5c1.2,3.4,2.5,7.2-1.5,9.6
			c-2.7,1.6-5.4,2.2-7.5,2.7c-2.5,0.6-4.4,1-5.1,2.6c-0.4,1-0.9,3-1.4,5.4c-1.2,5.3-2.8,12.6-6,17.3c-1.3,1.9-2.5,3.5-3.6,4.9
			c-2.9,3.9-5,6.7-5.1,10c-0.1,2.2,1.6,3.4,3.4,4.7c1.8,1.2,3.6,2.5,3.6,5c0,2.6-1.9,3.8-3.6,4.8c-1.4,0.9-2.7,1.7-2.9,3.3
			C109.4,294.5,110.2,310.5,121.5,318.6L121.5,318.6z"/>
	</g>
</g>
</svg>
