<?xml version="1.0" encoding="utf-8"?>
<!-- Generator: Adobe Illustrator 25.2.0, SVG Export Plug-In . SVG Version: 6.00 Build 0)  -->
<svg version="1.1" id="レイヤー_1" xmlns="http://www.w3.org/2000/svg" xmlns:xlink="http://www.w3.org/1999/xlink" x="0px"
	 y="0px" viewBox="0 0 878.8 1060.2" style="enable-background:new 0 0 878.8 1060.2;" xml:space="preserve">
<style type="text/css">
	.st0{fill:none;}
	.st1{fill:#FFFFFF;}
</style>
<rect class="st0" width="878.8" height="1063"/>
<g>
	<g>
		<path class="st1" d="M747.2,931.4h-616v-87.7h616V931.4z M136.2,926.4h606v-77.8h-606V926.4z"/>
		<path class="st1" d="M132.1,812.4l9.5-53.8h13.5l7.4,30.8h0.5l18.3-30.8h14.5l-9.5,53.8h-11.6l6-34.1h-0.6l-16.3,27.3h-7.1
			l-6.3-27.3h-0.7l-5.9,34.1H132.1z"/>
		<path class="st1" d="M202.6,786.3c1.9-10.3,10.1-16.7,20.8-16.7c11.9,0,19.7,7,19.7,18c0,2-0.1,3.6-0.4,5.1l-0.7,3.7
			c-2.1,10.4-9.8,16.8-21,16.8c-11.6,0-19.5-6.8-19.5-17.8c0-2,0.1-3.8,0.4-5.4L202.6,786.3z M214.7,792.3c-0.2,1.1-0.3,2.3-0.3,3.6
			c0,4.7,2.6,7.8,6.9,7.8c4.3,0,7.1-3.3,8.1-9.2l0.7-4.3c0.2-1.2,0.2-2.8,0.2-3.5c0-4.6-2.6-7.6-6.8-7.6c-4.1,0-7.1,3-8.1,9.1
			L214.7,792.3z"/>
		<path class="st1" d="M287,812.4h-12.1l1.1-6.5h-0.7c-1.8,3.7-5.7,7.1-12,7.1c-7.6,0-12.8-4.6-12.8-12.6c0-2.8,0.4-5.1,0.7-7.2
			l4.1-22.9H268l-4,22.6c-0.2,1.3-0.4,3-0.4,4.3c0,4,2.6,6,5.8,6c4.6,0,7.3-3.4,8.3-9.3l4.1-23.6h12.6L287,812.4z"/>
		<path class="st1" d="M305.8,770.4h12.4l-1.1,6.4h0.7c1.9-3.8,5.6-7,11.9-7c8.1,0,12.6,5.4,12.6,12.7c0,2.7-0.5,5.7-0.9,7.9
			l-3.9,22.1h-12.6l3.9-22.7c0.2-1.2,0.4-3,0.4-4.1c0-3.9-2.3-6.2-5.6-6.2c-4.6,0-7.4,3.4-8.4,9.3l-4.1,23.7h-12.6L305.8,770.4z"/>
		<path class="st1" d="M360.5,760.6h12.1l-1.8,10.4h8.7l-1.7,9.4h-8.5l-2.9,16.4c-0.3,1.7-0.4,2.3-0.4,2.8c0,2.8,1.6,3.9,4.8,3.9
			c1.5,0,3-0.2,3.7-0.3l-1.6,8.9c-1.1,0.3-3.6,0.6-6.5,0.6c-8.8,0-13.4-2.8-13.4-9.1c0-1,0.2-2.3,0.4-3.7l3.5-19.5h-5.9l1.7-9.4h6
			L360.5,760.6z"/>
		<path class="st1" d="M382,801.1c0-0.2,0-0.4,0-0.7c0.3-8.5,7.3-12.8,17.3-12.8h9.6l0.5-2.9c0-0.3,0.1-0.8,0.1-1.3
			c0-2.6-1.9-4.8-5.6-4.8c-3.2,0-5.1,1.5-5.7,3.7h-11.8c0.9-6.5,6.5-12.7,18.2-12.7c10.4,0,17,4.9,17,14c0,1.1-0.2,2.6-0.4,4
			l-4.4,24.7h-11.7l1-5.4h-0.6c-1.5,2.9-5,6-10.9,6C387.6,813,382,808.7,382,801.1z M399.8,804.3c3.3,0,6.5-2.2,7.1-5.4l0.8-4.4H401
			c-4.2,0-6.5,2.2-6.5,5C394.6,802.4,396.7,804.3,399.8,804.3z"/>
		<path class="st1" d="M435.7,770.4h12.6l-7.4,42.1h-12.6L435.7,770.4z M444.1,752c4.6,0,7.3,2.6,7.3,6.1c0,3.9-3.2,6.5-7.8,6.5
			c-4.5,0-7.2-2.5-7.2-6.1C436.3,754.6,439.5,752,444.1,752z"/>
		<path class="st1" d="M460,770.4h12.4l-1.1,6.4h0.7c1.9-3.8,5.6-7,11.9-7c8.1,0,12.6,5.4,12.6,12.7c0,2.7-0.5,5.7-0.9,7.9
			l-3.9,22.1H479l3.9-22.7c0.2-1.2,0.4-3,0.4-4.1c0-3.9-2.3-6.2-5.6-6.2c-4.6,0-7.4,3.4-8.4,9.3l-4.1,23.7h-12.6L460,770.4z"/>
		<path class="st1" d="M553.9,757.7c15.4,0,21.7,9.3,21.7,17.3c0,0.3,0,1.3-0.1,1.6H563c0-0.3,0-0.7,0-1.1c-0.1-2.7-2.4-7.3-9.1-7.3
			c-6.2,0-10.3,4.5-11.8,12.6l-1.1,6c-0.2,1.4-0.5,3.5-0.5,5c0,7.1,4.3,11.1,10,11.1c5.5,0,9.6-3,10.4-7l0.7-3.7h-9.7l1.5-8.5h21.7
			l-2,11.7c-1.9,10.8-10.2,17.9-23.3,17.9c-12.4,0-22.4-6.6-22.4-21.4c0-1.8,0.3-4.5,0.6-6.1l1.3-7
			C531.6,766,539.9,757.7,553.9,757.7z"/>
		<path class="st1" d="M620.2,812.4h-12.1l1.1-6.5h-0.7c-1.8,3.7-5.7,7.1-12,7.1c-7.6,0-12.8-4.6-12.8-12.6c0-2.8,0.4-5.1,0.7-7.2
			l4.1-22.9h12.6l-4,22.6c-0.2,1.3-0.4,3-0.4,4.3c0,4,2.6,6,5.8,6c4.6,0,7.3-3.4,8.3-9.3l4.1-23.6h12.6L620.2,812.4z"/>
		<path class="st1" d="M639.4,770.4H652l-7.4,42.1h-12.6L639.4,770.4z M647.8,752c4.6,0,7.3,2.6,7.3,6.1c0,3.9-3.2,6.5-7.8,6.5
			c-4.5,0-7.2-2.5-7.2-6.1C640,754.6,643.2,752,647.8,752z"/>
		<path class="st1" d="M687.7,778.6h0.6l4.1-22.8h12.7l-10,56.6h-12.6l1.2-6.7h-0.7c-1.5,3.9-5.7,7.2-11.7,7.2
			c-8.4,0-13.8-5.8-13.8-15.6c0-1.9,0.2-4,0.5-5.8l0.8-4.1c2-10.7,8-17.4,17.2-17.4C682.4,769.9,687,774,687.7,778.6z M679.7,779.7
			c-4.4,0-7.3,3.5-8.3,8.9l-0.7,3.5c-0.1,0.7-0.2,2-0.2,3.2c0,4.8,2.6,7.7,6.7,7.7c4.4,0,7.3-3.5,8.3-9.3l0.6-3.5
			c0.1-0.7,0.2-2.1,0.2-3C686.4,782.4,683.3,779.7,679.7,779.7z"/>
		<path class="st1" d="M707.7,796.2c0-1.9,0.2-3.9,0.6-5.6l0.6-3.7c2-11.7,10.6-17.3,20.6-17.3c11.1,0,18.2,7.4,17.7,18.2
			c0,0.5-0.4,3.6-1,6.1h-26.1c-0.2,0.9-0.3,2.2-0.3,3.2c0,3.7,2.1,6.9,7.1,6.9c3.5,0,6.1-1.6,6.7-4.3h11.7
			c-0.9,7.1-8,13.5-19.2,13.5C715.8,813.2,707.7,807.7,707.7,796.2z M735.4,785.8c0.4-3.9-1.6-7.2-6.1-7.2c-3.7,0-6.5,2.3-7.6,6.8
			l-0.4,1.6h13.9C735.3,786.7,735.4,786.1,735.4,785.8z"/>
		<g>
			<path class="st1" d="M176.8,890.6c0,0.1,0,0.2,0,0.4c0,1.9,2,2.9,4,2.9c1.3,0,3.5-0.4,3.5-2.1c0-1.4-1.5-1.8-3.5-2.4l-3.3-1
				c-3.6-1.1-6.5-3.1-6.5-7.8c0-6.4,5.4-9.9,12.2-9.9c7.3,0,11.5,4,11.5,8.6c0,0.4,0,0.7-0.1,0.9h-7.9c0-0.1,0-0.2,0-0.3
				c0-1.9-1.9-2.7-3.6-2.7c-2,0-3.1,1-3.1,2.2c0,1.2,1.2,1.9,3.3,2.5l3.4,1c3.2,0.9,6.5,2.7,6.5,7.6c0,6.4-5.8,9.9-12.8,9.9
				c-5.5,0-12-2.2-12-8.7c0-0.4,0-0.6,0.1-0.9H176.8z"/>
			<path class="st1" d="M205.6,899.8l5.1-28.7h8.8l-1.9,10.8h8.3l1.9-10.8h8.9l-5.1,28.7h-8.9l2-10.9h-8.3l-2,10.9H205.6z"/>
			<path class="st1" d="M248.6,882.1c1.3-7.3,6.3-11.5,13.9-11.5c7.2,0,12.3,4.2,12.3,11.2c0,1,0,2-0.2,3.1l-0.7,3.9
				c-1.4,7.3-6.2,11.5-13.9,11.5c-7.2,0-12.3-4.2-12.3-11.2c0-1,0-2.1,0.2-3.1L248.6,882.1z M256.8,886.1c-0.1,0.9-0.2,1.8-0.2,2.4
				c0,2.6,1.2,4.6,3.8,4.6c2.2,0,4-1.8,4.8-6l0.5-2.6c0.1-0.9,0.2-1.8,0.2-2.4c0-2.6-1.2-4.6-3.8-4.6c-2.2,0-4,1.8-4.8,6
				L256.8,886.1z"/>
			<path class="st1" d="M308.5,890.5c-1.1,6.5-5.8,9.8-11.8,9.8c-6,0-11.1-3.2-11.1-9.5c0-0.9,0.1-1.7,0.2-2.1l8.4,0
				c-0.1,0.4-0.1,0.8-0.1,1c0,1.6,0.8,2.9,2.6,2.9c2.1,0,2.8-1.6,3.1-3.3L303,871h8.9L308.5,890.5z"/>
			<path class="st1" d="M321.6,899.8l5.1-28.7h8.8l-5.1,28.7H321.6z"/>
			<path class="st1" d="M364,899.8L369,871h9.5l3,13.5h0.3l7.9-13.5h10l-5.1,28.7h-7.8l2.9-16.3h-0.4l-7,11.9h-4.7l-2.5-11.9h-0.4
				l-2.8,16.3H364z"/>
			<path class="st1" d="M420.7,871h11.2l3.7,28.7h-9.6l-0.3-5.4h-7.6l-2.2,5.4h-8.9L420.7,871z M424.7,878.3l-3.9,9.8h4.8l-0.4-9.8
				H424.7z"/>
			<path class="st1" d="M452.9,899.8l3.9-21.6h-7l1.3-7.1h22.8l-1.3,7.1h-7l-3.8,21.6H452.9z"/>
			<path class="st1" d="M489.8,890.6c0,0.1,0,0.2,0,0.4c0,1.9,2,2.9,4,2.9c1.3,0,3.5-0.4,3.5-2.1c0-1.4-1.5-1.8-3.5-2.4l-3.3-1
				c-3.6-1.1-6.5-3.1-6.5-7.8c0-6.4,5.4-9.9,12.2-9.9c7.3,0,11.5,4,11.5,8.6c0,0.4,0,0.7-0.1,0.9h-7.9c0-0.1,0-0.2,0-0.3
				c0-1.9-1.9-2.7-3.6-2.7c-2,0-3.1,1-3.1,2.2c0,1.2,1.2,1.9,3.3,2.5l3.4,1c3.2,0.9,6.5,2.7,6.5,7.6c0,6.4-5.8,9.9-12.8,9.9
				c-5.5,0-12-2.2-12-8.7c0-0.4,0-0.6,0.1-0.9H489.8z"/>
			<path class="st1" d="M529.2,888c-0.1,0.5-0.1,0.9-0.1,1.3c0,2.1,1.4,3.4,3.8,3.4c1.9,0,3.3-1.1,3.8-4l3.2-17.8h8.8l-3.5,20.1
				c-1,5.7-6.1,9-13,9c-6.3,0-12.1-3-12.1-9.6c0-0.6,0.1-1.3,0.2-2l3.1-17.5h8.8L529.2,888z"/>
			<path class="st1" d="M558.3,899.8l5.1-28.7h9.5l3,13.5h0.3L584,871h10l-5.1,28.7h-7.8l2.9-16.3h-0.4l-7,11.9h-4.7l-2.5-11.9h-0.4
				l-2.8,16.3H558.3z"/>
			<path class="st1" d="M605.8,882.1c1.3-7.3,6.3-11.5,13.9-11.5c7.2,0,12.3,4.2,12.3,11.2c0,1,0,2-0.2,3.1l-0.7,3.9
				c-1.4,7.3-6.2,11.5-13.9,11.5c-7.2,0-12.3-4.2-12.3-11.2c0-1,0-2.1,0.2-3.1L605.8,882.1z M614.1,886.1c-0.1,0.9-0.2,1.8-0.2,2.4
				c0,2.6,1.2,4.6,3.8,4.6c2.2,0,4-1.8,4.8-6l0.5-2.6c0.1-0.9,0.2-1.8,0.2-2.4c0-2.6-1.2-4.6-3.8-4.6c-2.2,0-4,1.8-4.8,6
				L614.1,886.1z"/>
			<path class="st1" d="M647.7,899.8l3.9-21.6h-7l1.3-7.1h22.8l-1.3,7.1h-7l-3.8,21.6H647.7z"/>
			<path class="st1" d="M678.3,882.1c1.3-7.3,6.3-11.5,13.9-11.5c7.2,0,12.3,4.2,12.3,11.2c0,1,0,2-0.2,3.1l-0.7,3.9
				c-1.4,7.3-6.2,11.5-13.9,11.5c-7.2,0-12.3-4.2-12.3-11.2c0-1,0-2.1,0.2-3.1L678.3,882.1z M686.5,886.1c-0.1,0.9-0.2,1.8-0.2,2.4
				c0,2.6,1.2,4.6,3.8,4.6c2.2,0,4-1.8,4.8-6l0.5-2.6c0.1-0.9,0.2-1.8,0.2-2.4c0-2.6-1.2-4.6-3.8-4.6c-2.2,0-4,1.8-4.8,6
				L686.5,886.1z"/>
		</g>
	</g>
	<g>
		<path class="st1" d="M382.4,442.8c-1.3,0-2.5-0.3-3.7-0.9c-2.8-1.5-6.3-5.7-7.5-16.8c-0.9-8.4-0.1-12.8,0.6-16.3
			c0.6-3.5,1.1-5.8-0.6-10.2c-1.8-4.7-6.3-8.2-10.7-11.6c-3.9-3-7.9-6.2-9.9-10.1c-4-7.7,2.2-13.6,5.2-16.4c0.3-0.3,0.7-0.6,0.9-0.9
			l0,0c1.7-1.7,5.7-4,9.3-2.9c3.4,1.1,5.6,4.8,6.5,11c0.3,7.2,1.5,11.4,3.6,13.2c1.7,1.4,4,1,6.3,0.6c0.4-0.1,0.8-0.1,1.2-0.2
			c1.5-0.2,3.1-0.8,4.9-1.4c4-1.4,8-2.8,11.3-0.3c2.5,1.9,1.2,5.5-0.2,9.7c-1.1,3.2-2.4,6.9-2.2,10.4c0.2,3.7,2.5,7.3,4.6,10.8
			c2,3.1,3.8,6,4,8.8c0.9,12.5-14.4,20.1-19.4,22.6C385.1,442.5,383.7,442.8,382.4,442.8z M363.8,357.9c-2.6,0-5.1,1.7-6.1,2.7l0,0
			c-0.3,0.3-0.6,0.6-0.9,0.9c-2.9,2.8-8.4,8-4.9,14.7c1.9,3.6,5.6,6.5,9.5,9.6c4.6,3.5,9.3,7.2,11.2,12.3c1.8,4.8,1.3,7.4,0.7,11
			c-0.6,3.4-1.4,7.7-0.5,15.9c1.1,10.5,4.3,14.3,6.7,15.7c1.9,1,4.2,1,6.4-0.1c4.8-2.4,19.4-9.7,18.6-21.2c-0.2-2.4-1.9-5.2-3.8-8.1
			c-2.3-3.6-4.7-7.4-4.9-11.5c-0.2-3.8,1.1-7.6,2.3-10.9c1.5-4.2,2.3-6.8,0.7-8c-2.6-2-6.1-0.8-9.9,0.5c-1.7,0.6-3.4,1.2-5.1,1.5
			c-0.4,0.1-0.8,0.1-1.2,0.2c-2.5,0.4-5.2,1-7.5-0.9c-2.5-2-3.9-6.5-4.2-14.2c-0.8-5.5-2.8-8.9-5.5-9.7
			C364.8,357.9,364.3,357.9,363.8,357.9z"/>
		<path class="st1" d="M365.1,470.3c-4.6,0-6.3-1.8-7-3.1c-1.5-2.9,0.1-7.2,4.3-11.4c6-6.1,5.9-8.1,5.6-12.1c0-0.6-0.1-1.3-0.1-2
			c-0.1-2.4-0.9-4.6-1.8-7.1c-1.2-3.2-2.5-6.8-3-12.2c-0.2-2.9,0.2-5.6,0.6-8.3c1-6.5,1.9-12-6.6-17.8c-12.8-8.6-13-9.8-14.1-19.3
			c-0.8-6.2-3.3-10.4-6.1-14.8c-1.3-2.1-2.6-4.2-3.8-6.6c-1.4-2.9-1.7-4.8-0.9-6.1c1.2-2,4.5-2.1,10-2.4l2-0.1
			c5.4-0.3,7.1-1.6,9.4-3.2c1.8-1.3,3.9-2.8,8.1-4c3.4-1,5.8-0.9,7.7,0.1c3.3,1.9,4.5,7,6.2,14.7l0.2,0.9
			c2.8,12.3,3.9,14.9,6.6,16.1c2,0.8,6.6-1.2,11.4-3.3c8.2-3.6,17.6-7.7,22.1-2.1c4.5,5.5,3,8.6,0.6,13.8c-1.6,3.4-3.7,8-5.1,15.2
			c-2.4,12,1.1,15.1,5.5,19.1c2.1,1.9,4.4,4,6.4,7.2c5.6,9.1,0.3,16.3-4.9,23.4c-0.8,1.1-1.6,2.2-2.4,3.3
			c-5.3,7.6-14.4,15.8-23,16.7c-4.1,0.4-6.9,1.1-10.5,2c-3.2,0.8-7.2,1.7-13.3,2.8C367.6,470.2,366.3,470.3,365.1,470.3z
			 M365.8,340.9c-1.1,0-2.3,0.2-3.8,0.6c-4,1.2-5.9,2.6-7.6,3.8c-2.4,1.7-4.4,3.1-10.2,3.5l-2,0.1c-4.6,0.2-8,0.4-8.8,1.7
			c-0.5,0.8-0.2,2.3,1,4.7c1.1,2.3,2.4,4.5,3.7,6.5c2.7,4.3,5.5,8.8,6.3,15.3c1.1,9.2,1.2,10.1,13.5,18.3c9.3,6.2,8.3,12.8,7.2,19.2
			c-0.4,2.6-0.8,5.2-0.6,7.9c0.4,5.1,1.7,8.7,2.9,11.8c1,2.6,1.8,4.9,1.9,7.5c0,0.7,0.1,1.4,0.1,2c0.3,4.3,0.5,6.7-6,13.2
			c-3.6,3.6-5.2,7.4-4,9.7c1.1,2.1,4.4,2.8,9.5,1.9c6-1,9.8-2,13.2-2.8c3.7-0.9,6.5-1.6,10.7-2c8.1-0.9,16.9-8.7,22-16.1
			c0.8-1.1,1.6-2.2,2.4-3.3c5.1-7,9.9-13.5,4.8-21.7c-1.9-3.1-4-5-6.1-6.9c-4.6-4.1-8.5-7.7-6-20.5c1.4-7.3,3.6-12,5.3-15.5
			c2.4-5.2,3.5-7.5-0.4-12.3c-3.8-4.7-12.6-0.8-20.4,2.6c-5.4,2.4-10,4.4-12.6,3.3l0,0c-3.5-1.5-4.6-4.8-7.5-17.1l-0.2-0.9
			c-1.7-7.3-2.8-12.1-5.5-13.7C367.8,341.1,366.9,340.9,365.8,340.9z"/>
		<path class="st1" d="M362.2,486.3c-3.3,0-6.2-0.6-8.4-1.9c-2.8-1.6-4.5-4.1-5.1-7.5c-1.4-7.4,0.9-11.5,4.5-17.6
			c1.4-2.5,3.1-5.4,4.8-9c3-4.1,1.7-7.9,0.2-12.7c-1-3.1-2.2-6.6-2.4-10.7c-0.1-2.9,0.4-6,0.9-9c0.7-4.3,1.4-8.4,0.1-11.7
			c-1.7-4.3-5.1-6.2-8.5-8.1c-1.4-0.8-2.8-1.6-4-2.5c-12.3-9.3-12.4-15.4-12.5-25.5l0-1.6c-0.1-10.9-10.4-18.5-20.3-19.6
			c-6.9-0.7-12-3.3-12.2-6.3c-0.1-1.4,0.7-3.3,5.6-4.7c5.8-1.7,11.8-0.7,18.1,0.4c4.9,0.8,10.1,1.7,15.7,1.5
			c7.4-0.3,14.7-3.9,21.7-7.4c5.3-2.6,10.3-5.1,15.2-6.2c4.1-0.9,6.9-0.6,8.8,0.8c2.5,2,2.7,5.8,2.8,9.8c0,0.8,0.1,1.6,0.1,2.5
			c0.2,3-1,6.3-2.1,9.5c-1.8,5.2-3.5,10-0.2,13.6c5.6,3.5,13.2-0.8,19.4-4.2l1-0.5c1.1-0.6,2.3-1.4,3.6-2.2c6.3-4,14.1-8.9,20.3-2.4
			c6.9,7.3,4.9,13-2,31.9l-1,2.7c-5.1,14.1,0.1,22.6,5.2,30.9c2.2,3.6,4.3,7.1,5.4,10.8c3.8,13.2,6.4,23.9,6.5,33.6
			c0,3.8-0.8,6.3-2.6,8.1c-3.8,3.7-12.7,4.2-27.7,3.7c-17.4-0.6-22.9,2.1-29.1,5.2c-2.4,1.2-4.8,2.4-8.1,3.6
			C370.7,485.4,366.1,486.3,362.2,486.3z M311.4,338.5c-2.2,0-4.3,0.2-6.3,0.8c-3,0.9-4.6,2-4.5,3.2c0.2,1.8,4.4,4.3,10.9,5
			c10.5,1.1,21.5,9.3,21.6,21l0,1.6c0.1,10,0.2,15.4,11.9,24.3c1.2,0.9,2.5,1.6,3.9,2.4c3.6,2,7.2,4.1,9.1,8.8
			c1.5,3.7,0.7,8-0.1,12.5c-0.5,2.9-1,5.9-0.9,8.7c0.2,3.9,1.3,7.3,2.3,10.3c1.6,5,3,9.3-0.3,13.9c-1.6,3.5-3.3,6.4-4.8,8.9
			c-3.5,6.1-5.6,9.7-4.3,16.6c0.6,2.9,2,5.1,4.4,6.5c4.5,2.6,12,2.2,20.7-0.9c3.2-1.1,5.6-2.3,8-3.5c6.5-3.2,12-6,29.8-5.4
			c14.6,0.5,23.2,0.1,26.7-3.3c1.5-1.5,2.2-3.7,2.2-7.1c-0.1-9.5-2.6-20.2-6.4-33.2c-1-3.6-3.1-6.9-5.3-10.5
			c-5-8.1-10.7-17.4-5.3-32.2l1-2.7c6.8-18.7,8.6-23.8,2.3-30.4c-5.3-5.6-12.3-1.2-18.4,2.7c-1.3,0.8-2.5,1.6-3.7,2.2l-1,0.5
			c-6.5,3.6-14.6,8.1-20.9,4.1l-0.1-0.1c-4.1-4.2-2.1-9.8-0.2-15.2c1.1-3.1,2.2-6.3,2-9c0-0.8-0.1-1.7-0.1-2.5
			c-0.1-3.8-0.2-7.1-2.2-8.7c-1.5-1.1-3.9-1.3-7.5-0.5c-4.8,1-9.7,3.5-14.9,6.1c-7.2,3.6-14.6,7.3-22.3,7.6c-5.8,0.2-11-0.7-16-1.5
			C318.8,339.1,315,338.5,311.4,338.5z"/>
		<path class="st1" d="M349.2,495.5c-6.2,0-10.9-1.1-13.6-3.2c-1.6-1.3-2.5-3-2.5-5.1c-0.1-8.6,3.5-22.4,11.7-32.2
			c7.3-8.7,7.5-15.9,7.6-20.6c0-0.6,0-1.2,0.1-1.8c0.1-2.3-0.2-3.9-0.6-6.1c-0.4-2.1-0.9-4.7-1.2-9.1c-0.4-7.4-5.1-10.6-9.2-13.5
			c-0.5-0.3-1-0.7-1.5-1c-2-1.4-3.8-3.4-5.7-5.4c-2.4-2.5-4.8-5.1-7.6-6.8c-5.9-3.6-4.5-11-2.4-19.1c1.6-5.9-2.8-11.5-13.4-17.3
			c-2.7-1.5-8.5-3-14-4.5c-5.4-1.5-10.5-2.8-12.4-4.1c-2.3-1.5-8.3-6.4-8.6-11.4c-0.1-2,0.7-3.7,2.4-5.1c6.6-5.4,31.7-3.1,41.8,0.2
			c10.2,3.3,14.1,2.5,27.3-0.8c7.7-1.9,26.3-8.3,34.8-14.2c5.1-3.6,11.5-3.9,15.3-0.7c3.1,2.6,3.6,6.9,1.3,11.6l-1.2,3
			c-5.8,14-10.8,26.1-7.7,28.6c4,3.2,22.5-9.1,36-18.6c5.6-4.3,10-5.4,13.1-3.2c7.3,5.4,3.4,28.2-0.8,39.4
			c-5,13.4,0.2,28.6,5.3,43.3c1,3,2.1,6.1,3.1,9.1c2.2,6.9,2.8,11.6,3.5,16.1c1,7.1,1.8,13.2,8.3,25.7c5.2,10.1,6.5,16.5,3.8,19.6
			c-3.9,4.5-14.6,0.5-23.3-2.7c-2.5-0.9-4.7-1.7-6.3-2.2c-10.3-2.8-17.9-1.8-29.1,0.2c-5.3,0.9-11.2,2.7-17.4,4.5
			c-7.2,2.1-14.7,4.3-22.8,5.8C358.1,495,353.3,495.5,349.2,495.5z M294.8,327.5c-6.9,0-12.9,0.8-15.4,2.9c-1.3,1.1-2,2.4-1.9,3.9
			c0.2,3.9,5,8.3,7.9,10.2c1.7,1.1,6.9,2.5,12,3.9c5.6,1.5,11.4,3.1,14.3,4.7c4.1,2.3,16.7,9.1,14.1,18.9c-2.4,9-2.9,14.7,1.7,17.4
			c3,1.8,5.5,4.4,7.9,7c1.9,2,3.6,3.9,5.5,5.2c0.5,0.3,1,0.7,1.5,1c4.2,2.9,9.4,6.6,9.9,14.6c0.3,4.2,0.8,6.8,1.2,8.9
			c0.4,2.2,0.8,3.9,0.6,6.4c0,0.5,0,1.1-0.1,1.7c-0.2,5-0.4,12.5-8,21.5c-8,9.5-11.5,22.8-11.4,31.2c0,1.6,0.7,2.9,1.9,4
			c3.9,3.2,13.9,3.8,26.6,1.5c8-1.5,15.4-3.6,22.6-5.7c6.2-1.8,12.1-3.6,17.5-4.5c11.5-2,19.2-3,29.8-0.1c1.7,0.5,3.9,1.3,6.4,2.2
			c7.8,2.9,18.4,6.8,21.6,3.1c2.2-2.5,0.9-8.6-4-18c-6.6-12.7-7.5-19.2-8.5-26.2c-0.6-4.5-1.3-9.1-3.4-15.9c-0.9-3-2-6.1-3.1-9.1
			c-5.2-15-10.5-30.5-5.3-44.3c4.5-12.1,7.4-33.2,1.3-37.7c-2.4-1.8-6.2-0.7-11.3,3.2c-23.1,16.3-34,21.7-37.8,18.6
			c-3.9-3.1,0.5-13.9,7.3-30.3l1.2-3c2-4.2,1.6-7.8-0.9-9.9c-2.8-2.4-8.3-2.8-13.5,0.8c-9.4,6.6-29.2,12.9-35.3,14.4l0,0
			c-13.3,3.4-17.6,4.2-28.2,0.8C313.6,328.9,303.5,327.5,294.8,327.5z"/>
		<path class="st1" d="M478.3,507.6c-11.6,0-26.7-6.4-38-11.2c-2.8-1.2-5.4-2.3-7.7-3.2c-11.8-4.6-24.1,0.5-34,4.5
			c-3.2,1.3-6,2.5-8.4,3.1c-8.8,2.4-34.9,2.4-52.1,2.3l-5.8,0c-3.6,0-6.2-1.1-7.9-3.2c-3.8-4.8-1.7-13.6-0.1-20
			c0.5-2.1,0.9-3.9,1-5.1c0.3-3.6,5.3-9.8,10.6-16.4c4.5-5.6,9.1-11.3,11-15.6c4.4-10-0.4-24.7-1.5-27.5c-0.9-2.6-3.8-4.9-7.1-7.5
			c-2.9-2.3-6.2-4.9-8.9-8.3c-2.3-3-4.5-4.9-6.5-6.7c-2.7-2.4-4.8-4.4-5.2-7.4c-0.6-4.1-2.9-10.4-5.2-16.5l-1-2.7
			c-2-5.4-23.7-13.5-35.3-17.9c-2.6-1-5-1.9-6.7-2.6c-10.9-4.4-14.7-15.8-12.5-21.8l0,0c2.8-7.6,12.7-6.3,29.2-4.2
			c4.4,0.6,9.3,1.2,14.6,1.7c20.9,2.1,31,0.4,43.7-1.7c2.1-0.4,4.4-0.7,6.7-1.1c7.5-1.2,17-7.6,26.3-13.7
			c10.8-7.2,21-14.1,26.8-11.4c10.5,4.8-0.4,31.7-6.9,47.8l-0.4,1c-2.7,6.8-1.9,7.6-1.8,7.6c0.7,0.5,4.6-2.4,6.5-3.7
			c0.7-0.5,1.5-1.1,2.2-1.6c1.4-1,3.8-3,6.9-5.5c9.2-7.5,24.6-20.1,36.2-24.9c6.8-2.8,11.5-3,14.2-0.6c3,2.6,3.4,8,1.2,16.7
			c-0.8,3.1-1.9,6.5-3.2,10.4c-4.4,13.5-10.4,32.1-9.3,57.6c1.3,32.5,10.2,60.3,18,68.5c2.1,2.2,5.7,4.5,9.5,6.9
			c10.2,6.5,23,14.5,15.5,26.8C489.8,505.7,484.6,507.6,478.3,507.6z M422.7,489.9c3.5,0,7,0.5,10.5,1.9c2.3,0.9,4.9,2,7.7,3.2
			c17,7.2,42.7,18.1,50.7,4.9c6.7-11-4.9-18.3-15.1-24.8c-3.9-2.5-7.6-4.8-9.8-7.1c-8-8.4-17.1-36.6-18.4-69.5
			c-1.1-25.8,5-44.5,9.4-58.2c1.3-3.9,2.4-7.3,3.1-10.3c2-8,1.8-13.1-0.7-15.2c-2.2-1.9-6.5-1.6-12.7,0.9
			c-11.4,4.7-26.7,17.2-35.8,24.7c-3.1,2.5-5.5,4.5-7,5.5c-0.7,0.5-1.4,1-2.2,1.6c-4.2,3.1-6.8,4.9-8.3,3.7c-1.3-1-0.9-3.7,1.4-9.3
			l0.4-1c5.5-13.5,16.9-41.7,7.6-45.9c-5-2.3-14.9,4.3-25.4,11.3c-9.4,6.3-19.1,12.8-26.9,14c-2.4,0.4-4.6,0.7-6.7,1.1
			c-12.8,2.1-23,3.8-44.1,1.7c-5.3-0.5-10.3-1.2-14.7-1.7c-15.8-2-25.3-3.3-27.6,3.2l0,0c-2,5.4,1.6,15.8,11.7,19.9
			c1.7,0.7,4.1,1.6,6.7,2.6c17.2,6.4,34.1,13.2,36.2,18.7l1,2.7c2.3,6.2,4.7,12.5,5.3,16.8c0.3,2.6,2.1,4.1,4.8,6.5
			c1.9,1.7,4.2,3.8,6.6,6.9c2.6,3.3,5.8,5.8,8.6,8c3.5,2.7,6.5,5.1,7.6,8.1c1.1,2.9,6.1,18.1,1.4,28.6c-2,4.4-6.7,10.3-11.2,15.9
			c-4.9,6.1-10,12.5-10.3,15.6c-0.1,1.3-0.6,3.2-1.1,5.3c-1.5,6.1-3.5,14.5-0.1,18.7c1.4,1.8,3.6,2.6,6.7,2.6l5.8,0
			c16.1,0,43.1,0.1,51.7-2.3c2.3-0.7,5.1-1.8,8.2-3.1C405,493.5,413.7,489.9,422.7,489.9z"/>
		<path class="st1" d="M491.5,521.1c-0.5,0-1,0-1.5,0c-8-0.1-22-2.7-36.9-5.5c-19.4-3.6-39.6-7.2-48-5.9
			c-14.7,2.4-79.2,6.3-86.1,1.4c-7.1-4.9-6.2-9.4-0.3-32c3.4-13.2,9.7-21.2,15.2-28.3c4-5.1,7.4-9.6,9.1-15
			c3.5-11.7-4.1-17.4-10.8-22.4l-1.5-1.2c-7.3-5.6-15.8-16.8-18.3-29.2c-2.4-11.5-9.7-15.9-19.9-19c-3.5-1-7-1.4-10.7-1.7
			c-6.6-0.6-14-1.3-23.8-6.2c-16.8-8.4-18.8-25.9-17.5-34l0,0c1-6.2,3.5-10.6,7.5-13.1c8.6-5.5,22.2-1.6,34.3,1.9
			c1.2,0.3,2.4,0.7,3.6,1c16.6,4.6,39.7,2.9,61.8,0.7c16.5-1.6,22.1-9.5,30.5-21.4c1.6-2.3,3.3-4.7,5.2-7.2
			c14.6-19.5,28.8-16,34.3-13.6c10.4,4.6-8.3,50.2-12.1,59.4c-3.4,8.2-3.2,9.6-3,9.8c0,0,0,0,0,0c0.2,0,1.1-0.2,4.4-2.9
			c6.5-5.4,36.4-27.7,53.1-34.5c7.5-3,12-3.5,14.5-1.4c3.3,2.7,2.9,9,1.1,19.8c-1.9,11.1-5.6,26.2-9.1,40.9
			c-2.1,8.8-4.3,17.9-6.1,25.9c-4.9,22.2,2.5,53.4,7.4,64.3c3.7,8.3,25.3,19.8,64.1,34.1c8.8,3.2,13.9,9.4,13.8,16.5
			c-0.1,5-3,9.3-7.1,10.5C534.1,514.2,511.3,521.1,491.5,521.1z M409.4,508c10.1,0,27.2,3.1,43.9,6.2c14.8,2.7,28.8,5.3,36.7,5.4
			c19.8,0.3,43.6-6.8,48.1-8.2c3.5-1.1,5.9-4.9,6-9.2c0.2-6.5-4.6-12.1-12.8-15.1c-39.8-14.7-61.1-26.1-65-34.9
			c-6-13.5-12.1-44.5-7.5-65.3c1.8-8,4-17.1,6.1-25.9c3.5-14.6,7.2-29.7,9.1-40.8c1.7-9.7,2.2-16.2-0.5-18.4
			c-2-1.6-6.2-1.1-13.1,1.7c-16.5,6.7-46.3,28.9-52.8,34.3c-3.1,2.6-5,3.8-6.2,2.9c-1.1-0.8-1.1-3,2.5-11.6
			c10.8-25.6,19.4-54.5,12.8-57.4c-10.8-4.8-22.7,0-32.5,13.1c-1.9,2.5-3.6,4.9-5.2,7.2c-8.7,12.3-14.4,20.4-31.6,22
			c-22.3,2.2-45.5,3.9-62.4-0.8c-1.2-0.3-2.4-0.7-3.6-1c-11.8-3.3-25.1-7.1-33.1-2c-3.7,2.3-5.9,6.3-6.9,12.1l0,0
			c-1.3,7.7,0.6,24.5,16.7,32.4c9.6,4.7,16.9,5.4,23.3,6c3.8,0.3,7.3,0.7,11,1.8c9.3,2.8,18.3,7.1,20.9,20.1
			c2.5,12,11,23.1,17.8,28.4l1.5,1.2c6.7,5,15.1,11.3,11.3,24c-1.7,5.7-5.2,10.2-9.3,15.5c-5.4,7-11.6,14.9-14.9,27.8
			c-5.9,22.6-6.3,26.1-0.3,30.4c6.1,4.2,69.1,1,85.1-1.6C406.1,508.1,407.7,508,409.4,508z"/>
		<path class="st1" d="M503.8,531.7c-8.6,0-19.1-1.8-29.3-3.6c-8.2-1.4-15.9-2.7-22-3c-8.3-0.4-13.5-1.1-17.2-1.7
			c-7.3-1.1-10.3-1.5-22.7,2.2c-8.1,2.5-24.1,0.8-41-0.9c-9.2-0.9-18.7-1.9-26.5-2.1c-5-0.1-9.4-0.1-13.4-0.1
			c-13.5,0.1-21,0.1-23.4-6.1c-2.9-7.6,2.8-34.7,9.3-56.6c4-13.4,10.8-18,15.3-21c3-2,4.9-3.3,4.9-6c0.1-6.9-7.8-10.9-14.8-14.5
			l-0.9-0.5c-8.1-4.2-12.6-11.6-13.3-21.9c-0.7-10.3-5.1-16.5-12-23.1c-4-3.9-8.8-2-14.4,0.1c-3.4,1.3-6.8,2.7-10.5,2.9
			c-10.2,0.7-29.8-10.9-36.3-18.2l0,0c-4-4.5-4-12.3-3.9-24l0-2.7c0-6.2-1.7-9.6-3.7-13.4c-2.2-4.3-4.7-9.1-5.7-18.8
			c-0.4-4.1,0.6-7.1,3.1-8.8c6.4-4.5,21.9-0.7,47.6,11.7c18.6,8.9,28.8,7.1,53.6,2.8c4.5-0.8,9.4-1.7,15-2.6
			c21.5-3.5,28.4-16.9,34-27.6c3.8-7.3,6.8-13.1,13.4-13.2c10.1,0,16-1.7,20.6-3c5.2-1.5,8.9-2.5,15.1-0.4c1.5,0.5,2.7,1.6,3.5,3.2
			c4.4,9.4-5.5,35.7-11.4,51.4c-0.6,1.7-1.2,3.2-1.7,4.6c-2.7,7.3-1.9,8.2-1.8,8.3c0.6,0.5,3.8-1.8,5.5-3c1.1-0.8,2.2-1.6,3.3-2.3
			c1.3-0.8,3.8-2.5,6.9-4.6c12.9-8.7,36.8-24.8,49.7-30.2c5.3-2.2,8.9-2.3,11.2-0.5c3.8,3,2.5,10.5,1.5,15.9l-0.2,1
			c-0.6,3.5-3.7,12.1-7.3,22c-4.5,12.6-9.7,26.9-11.3,35c-2.1,10.5-2.6,14.9-3.8,25.5c-0.5,4-1,8.9-1.8,15.4
			c-2.8,22.9,0.2,43.5,7.7,52.6c7.2,8.8,32.9,15.5,53.6,16.9c6,0.4,12.8,4.2,20.1,8.2c5.7,3.1,11.5,6.4,17.5,8.3
			c4,1.3,8.1,1.9,11.8,2.5c8.1,1.2,15.2,2.3,15.5,10.2c0.5,11.5-14.7,26.3-30.6,30c-7.2,1.7-14.3,1.1-21.8,0.4
			c-8.7-0.7-17.6-1.5-26.7,1.5C511.5,531.3,507.8,531.7,503.8,531.7z M427.7,521.1c2.5,0,4.8,0.3,7.7,0.8c4,0.6,8.9,1.3,17.1,1.7
			c6.2,0.3,13.9,1.6,22.2,3c14.9,2.6,30.3,5.3,39.3,2.2c9.4-3.2,18.5-2.4,27.3-1.6c7.4,0.6,14.4,1.2,21.3-0.4
			c15.3-3.6,29.9-17.7,29.5-28.5c-0.3-6.7-6.1-7.6-14.2-8.8c-3.7-0.6-7.9-1.2-12-2.6c-6.1-2-12-5.3-17.7-8.4
			c-7.1-3.9-13.8-7.6-19.5-8c-21-1.4-47.2-8.4-54.7-17.4c-7.8-9.5-10.9-30-8-53.7c0.8-6.5,1.3-11.4,1.8-15.4
			c1.2-10.6,1.7-15,3.8-25.6c1.6-8.2,6.8-22.5,11.3-35.2c3.6-9.9,6.6-18.4,7.2-21.8l0.2-1.1c0.8-4.8,2.1-12.1-1-14.5
			c-1.8-1.5-5.1-1.2-9.8,0.7c-12.8,5.3-36.7,21.4-49.5,30c-3.2,2.1-5.7,3.8-7,4.6c-1.1,0.7-2.2,1.5-3.3,2.2c-3.2,2.3-5.8,4.1-7.3,3
			c-0.9-0.7-1.4-2.4,1.3-10c0.5-1.4,1.1-2.9,1.7-4.6c5.5-14.5,15.6-41.4,11.5-50.3c-0.6-1.3-1.5-2.1-2.6-2.5
			c-5.8-2-9.2-1.1-14.3,0.4c-4.8,1.3-10.7,3-21,3.1c-5.6,0-8.5,5.5-12.1,12.4c-5.4,10.5-12.9,24.8-35.1,28.4
			c-5.6,0.9-10.5,1.8-15,2.6c-25.1,4.4-35.4,6.2-54.5-2.9c-24.8-11.9-40.3-15.9-46.2-11.8c-2,1.4-2.9,3.9-2.5,7.5
			c1,9.4,3.4,14.1,5.5,18.3c2.1,4.1,3.9,7.6,3.8,14.1l0,2.7c0,11.4-0.1,18.9,3.6,23l0,0c6.3,7.1,25.3,18.3,35.2,17.7
			c3.5-0.2,6.8-1.5,10.1-2.8c5.8-2.3,11.3-4.4,16,0.2c6.9,6.7,11.7,13.4,12.4,24.1c0.7,9.8,4.9,16.8,12.5,20.7l0.9,0.5
			c7.3,3.8,15.7,8,15.6,15.8c0,3.4-2.5,5.1-5.6,7.2c-4.6,3.1-10.9,7.4-14.7,20.2c-6.7,22.4-12,48.7-9.3,55.6c2,5.2,9.1,5.2,22,5.1
			c3.9,0,8.4,0,13.4,0.1c7.9,0.2,17.4,1.2,26.6,2.1c16,1.6,32.6,3.3,40.4,0.9C419.7,521.9,424,521.1,427.7,521.1z"/>
		<path class="st1" d="M285.6,549.1c-4.5,0-7.7-1.1-9.5-3.3c-2.6-3.2-2.5-8.3,0.5-15.7c1.7-4.3,8.1-9.5,14.4-14.7
			c5.4-4.4,11-9,12-11.9c0.8-2.3,1.5-8,2.3-14.6c1.5-11.6,3.4-26.2,6.7-34.3c2.6-6.4,6.7-9.3,10.2-12c3.7-2.7,6.6-4.8,6.8-9.9
			c0.3-5.8-2.3-6.8-6.2-8.5c-2.7-1.1-6-2.5-9-5.8l-0.1-0.2c0-0.1-3.6-8.4-8.7-15c-1.8-2.4-3.2-5.4-4.6-8.5
			c-2.6-5.9-5.3-11.9-11.5-14.2c-3.4-1.3-5.3-0.3-8.1,0.9c-5,2.3-11.7,5.5-31-0.7c-12.2-3.9-36.8-20.4-30-43.9
			c5.3-18.3-0.1-28.3-5.2-37.9c-1.4-2.7-2.9-5.4-4.1-8.3c-1.9-4.5-2.2-7.1-1-8.8c1.7-2.5,6.3-2.4,13.9-2.2c3,0.1,6.4,0.2,10.3,0.1
			c0.2,0,0.4,0,0.5,0c9.5,0,17.3,3.9,25.6,8c8.8,4.3,18.7,9.2,32.4,10.3c27.6,2.2,64.7-7.5,75.9-25.7c10.1-16.2,22.1-20.3,33.8-24.2
			c2.1-0.7,4.2-1.4,6.2-2.2c12.1-4.5,21.1-6.7,25.4-6.3c0.7,0.1,1.3,0.7,1.9,1.8c3.4,6.7,6.5,34.2-6.6,56.9
			c-7.2,12.4-6.6,14.2-6.5,14.5c0.1,0,1.7,0.3,9.7-7.3c3.8-3.6,13.2-9.7,23.2-16.1c4.5-2.9,9.1-5.9,13.5-8.8
			c15-10,27.6-13.5,44.8-12.4c10.8,0.7,17.1,7.8,17.6,14.2c0.4,4.8-2.4,8.5-7.3,9.6c-8.3,1.8-9.7,4.3-14.3,12.4
			c-2,3.5-4.4,7.8-8.1,13.4c-13.6,20.6-22,47.3-25.7,81.7c-3.3,30.5,2.1,47.4,17.5,55c7.8,3.8,38.9,5.8,92.5,5.8c0.8,0,1.6,0,2.4,0
			c0,0,0,0,0.1,0c17.2,0,33,6.2,42.4,16.7c5,5.6,7.4,11.7,6.8,17.3c-1.7,15.6-45.4,45.6-60.5,50.8c-10,3.5-34,1-64.5-2
			c-19.1-1.9-40.7-4.1-62.1-5.1c-32.8-1.6-45.5-2.7-57.7-3.8c-8.3-0.7-16.8-1.5-31.5-2.4c-23.3-1.4-35.3,3.9-46.9,9.1
			c-6.6,2.9-12.8,5.7-20.9,7.2C290.4,548.9,287.9,549.1,285.6,549.1z M315,417.6c2.8,3,5.8,4.2,8.4,5.3c4,1.7,7.4,3.1,7.1,9.9
			c-0.3,5.8-3.6,8.2-7.4,11c-3.4,2.5-7.3,5.3-9.8,11.3c-3.3,7.9-5.1,22.3-6.6,33.9c-0.9,7-1.6,12.5-2.4,14.9
			c-1.1,3.3-6.6,7.8-12.4,12.6c-6.1,5-12.4,10.2-13.9,14.1c-2.7,6.8-2.9,11.6-0.7,14.3c2.4,2.9,7.6,3.6,15.7,2
			c7.9-1.5,14-4.2,20.5-7.1c11.8-5.2,24-10.6,47.6-9.2c14.7,0.9,23.3,1.6,31.5,2.4c12.2,1.1,24.8,2.2,57.7,3.8
			c21.5,1,43.1,3.2,62.2,5.1c30.3,3.1,54.2,5.5,63.8,2.1c16.3-5.7,58-35.5,59.5-49.6c0.6-5.2-1.7-10.9-6.4-16.1
			c-9.1-10.2-24.5-16.2-41.3-16.2c-0.8,0-1.7,0-2.5,0c-54.4,0-84.9-1.9-93-6c-16.1-7.9-21.7-25.3-18.4-56.5
			c3.8-34.7,12.3-61.6,26-82.3c3.7-5.6,6.1-9.9,8.1-13.4c4.7-8.4,6.3-11.2,15.3-13.1c4.2-0.9,6.5-3.9,6.2-8
			c-0.5-5.8-6.3-12.2-16.2-12.8c-16.8-1-29.1,2.4-43.9,12.2c-4.4,2.9-9,5.9-13.5,8.8c-9.9,6.4-19.3,12.4-23,15.9
			c-8.4,7.9-10.5,8.2-11.6,7.3c-1.2-0.9-1.3-3.6,6.1-16.4c12.8-22,9.6-47.6,7-54.4c-0.7-1.9-1.2-2.1-1.2-2.1
			c-1.9-0.2-8.1,0-24.7,6.2c-2.1,0.8-4.2,1.5-6.3,2.2c-11.4,3.8-23.2,7.8-33,23.6c-11.5,18.6-49.3,28.7-77.3,26.3
			c-14-1.1-24-6.1-32.9-10.5c-8.5-4.2-15.8-7.8-24.9-7.8c-0.2,0-0.3,0-0.5,0c-3.9,0.1-7.3,0-10.3-0.1c-6.8-0.2-11.4-0.3-12.6,1.6
			c-0.8,1.2-0.5,3.6,1.2,7.4c1.2,2.8,2.6,5.4,4.1,8.2c5.3,9.9,10.8,20.2,5.3,39c-3.6,12.5,2.5,22.4,8.2,28.5
			c6.5,6.8,15.3,11.9,20.8,13.6c18.8,6,25.2,3,30,0.8c2.8-1.3,5.3-2.5,9.2-1c6.8,2.5,9.6,8.8,12.3,15c1.4,3.1,2.7,6,4.4,8.2
			C311.1,408.7,314.5,416.5,315,417.6z"/>
		<path class="st1" d="M568.8,578.5c-5.4,0-11.3-1.5-18.5-4.8c-21.1-9.7-34.1-8.9-52-7.7c-5.4,0.3-10.9,0.7-17.3,0.8
			c-12.1,0.3-24.9-3-38.4-6.3c-17.9-4.5-38.2-9.5-62.4-8.3c-22.6,1.1-31.6,8.2-38.7,13.9c-6.4,5.1-11.5,9.2-23.5,6.9
			c-11.1-2.1-22.3-0.5-32.1,0.9c-12,1.7-21.5,3-24.3-3.9l0,0c-3.5-8.7,4.8-35.8,7.5-43.9c3.1-9.4,12.3-13.2,19.7-16.3
			c3.8-1.6,7.1-2.9,8.6-4.7c3.2-3.7,4.3-20.7,5-31.9c0.3-4.9,0.6-9.1,0.9-11.5c0.6-4.1,4.8-8.9,8.8-13.6c4.2-4.9,8.5-10,8.4-13.7
			c-0.1-3.3-5.5-7.5-10.2-11.2c-1.7-1.3-3.2-2.5-4.5-3.7c-3.2-2.8-3.9-5.9-5-10.2c-0.8-3.1-1.7-6.9-3.8-11.9
			c-3.8-9-18.4-7.3-31.2-5.9c-3.4,0.4-6.6,0.8-9.5,0.9c-0.3,0-0.5,0-0.8,0c-9.8,0-19.3-9.4-28.4-18.5c-3.8-3.8-7.8-7.7-11.7-10.8
			c-13.6-11-13-16.9-7-24.6c5.3-6.7,6.1-15.1,2.6-29c-1.7-6.9-6.6-13.8-10.9-19.9c-3.9-5.5-7.3-10.3-8.1-14.4c-0.2-1-0.1-2.5,1.7-4
			c3.6-3,12.7-4.7,24.4-4.3c12.9,0.4,26.6,3.1,38.6,7.7c31.2,11.8,44.3,13,69.9,6.2c23.9-6.3,30.6-15.8,37.8-25.9c0.7-1,1.4-2,2.2-3
			c6.8-9.4,23.1-10.9,36.2-12.1c3.1-0.3,6-0.6,8.6-0.9c13.7-1.9,18.5-4.5,26.3-19.7c1.5-2.5,2.8-3.5,4.1-3
			c3.3,1.1,3.5,11.2,2.6,17.6c-0.3,2.3,0,6.5,0.5,11.5c1,11.8,2.3,28-3.3,37.1c-9.7,15.6-10.9,19.5-10.9,20.4
			c1.1-0.2,4.8-2.9,17.4-16.3c7.1-7.5,12.2-9.7,23.4-14.5c2-0.9,4.3-1.8,6.8-2.9c5.6-2.4,12.2-5.5,18.6-8.5
			c12.3-5.7,24-11.2,28.6-12.3c2.3-0.6,3.9-0.5,5,0.2c1.6,1.1,1.9,3.3,2.3,6.4c0.2,1.4,0.4,3.1,0.8,4.9c1.1,5.2,3,6.6,4.9,7.8
			c2.2,1.5,4.6,3.1,5.1,10.7c0.9,14.7-11.6,24.1-23.7,26.6c-9.3,1.9-14.9,23.8-21.5,49.1c-2,7.7-4.1,15.6-6.3,23.4
			c-8.4,28.8-9.2,45.2-2.7,54.8c8.1,11.9,28.2,13.7,58.5,16.4c21.2,1.9,47.7,4.3,79.2,10.8c5.2,1.1,13,0.6,21.4,0
			c13.5-0.9,27.5-1.8,33.4,3.7c1.8,1.7,2.8,4,2.8,6.8c0.1,18.9-39.9,60.2-67.5,80.4c-5.3,3.9-10,7.6-14.1,10.9
			C589.6,571.4,580.6,578.5,568.8,578.5z M513.6,563.9c11.3,0,22.4,1.7,37.3,8.5c22.2,10.2,32.3,2.1,50.7-12.4
			c4.1-3.3,8.8-7,14.1-10.9c30.4-22.2,67-62.5,66.9-79.3c0-2.4-0.8-4.2-2.3-5.7c-5.4-5-19.7-4.1-32.3-3.3c-8.4,0.5-16.4,1.1-21.8,0
			c-31.4-6.5-57.8-8.9-79-10.8c-30.8-2.8-51.1-4.6-59.6-17.1c-6.8-10-6-26.7,2.5-56c2.3-7.8,4.3-15.7,6.3-23.4
			c6.7-25.8,12.5-48.1,22.6-50.2c11.5-2.4,23.4-11.3,22.5-25.1c-0.4-6.8-2.3-8.1-4.4-9.5c-2-1.4-4.3-2.9-5.5-8.7
			c-0.4-1.9-0.6-3.5-0.8-5c-0.3-2.7-0.6-4.6-1.6-5.3c-0.7-0.5-2-0.5-3.8,0c-4.5,1.1-16.6,6.8-28.3,12.2c-6.4,3-13,6.1-18.6,8.5
			c-2.5,1.1-4.7,2.1-6.8,2.9c-11,4.7-16,6.9-22.9,14.2c-15.9,16.9-18.2,17.5-19.4,16.5c-0.9-0.7-2.3-1.7,10.6-22.5
			c5.4-8.6,4-24.6,3.1-36.2c-0.4-5.2-0.8-9.3-0.4-11.8c1.1-8,0-15.5-1.6-16c-0.4-0.1-1.2,0.4-2.3,2.3c-8.1,15.7-13.3,18.7-27.4,20.6
			c-2.6,0.4-5.5,0.6-8.6,0.9c-12.8,1.2-28.8,2.7-35.2,11.5c-0.7,1-1.4,2-2.2,3c-7.3,10.3-14.2,20-38.6,26.5
			c-26,6.9-39.3,5.7-70.8-6.3c-26.3-10-55-9.1-61.5-3.7c-1,0.8-1.3,1.7-1.2,2.6c0.7,3.8,4.2,8.7,7.8,13.8
			c4.4,6.2,9.3,13.3,11.1,20.4c3.5,14.2,2.7,23.3-2.9,30.3c-5.7,7.2-6.1,12.2,6.7,22.5c3.9,3.2,7.9,7.1,11.8,10.9
			c9.2,9.1,18.8,18.6,28.1,18c2.8-0.2,6-0.5,9.4-0.9c13.4-1.5,28.5-3.3,32.7,6.8c2.1,5.1,3.1,9,3.8,12.1c1,4.2,1.7,6.9,4.5,9.4
			c1.3,1.1,2.8,2.3,4.5,3.6c5.3,4.1,10.7,8.4,10.8,12.3c0.1,4.3-4.2,9.3-8.8,14.7c-3.9,4.5-7.9,9.2-8.4,12.8
			c-0.3,2.3-0.6,6.5-0.9,11.4c-0.8,12.8-1.8,28.7-5.3,32.8c-1.8,2-5.2,3.4-9.2,5.1c-7.1,2.9-16,6.6-18.9,15.4
			c-5.3,16.5-10.1,36.4-7.5,42.9c2.4,5.8,11.3,4.6,22.7,3c9.5-1.3,21.3-3,32.6-0.8c11.3,2.1,15.9-1.5,22.3-6.6
			c7.3-5.8,16.5-13.1,39.6-14.2c24.4-1.2,44.9,3.9,62.9,8.4c13.4,3.3,26.2,6.5,38.1,6.3c6.4-0.1,11.9-0.5,17.3-0.8
			C503.6,564.3,508.6,563.9,513.6,563.9z"/>
		<path class="st1" d="M253,641.4c-1.4,0-2.3-0.4-2.8-1.1c-1.6-2.3,1.5-6.9,6.3-13.9c1.1-1.6,2.3-3.3,3.4-5.1
			c3-4.7,4.1-8.3,3.3-11.3c-1.2-4.3-6.3-7.7-13.6-11.5c-7.2-3.7-11.2-7.9-12.1-12.5c-0.7-3.3,0.4-6.7,3.1-9.9l0,0
			c18.5-21.6,19.7-37.5,20.6-49c0.2-3.2,0.5-6,1-8.4c1.8-8.1,10.4-10.1,18.8-12.1c3.7-0.9,7.2-1.7,10.1-3c5.9-2.7,6-17.6,6.1-29.6
			c0-6.6,0.1-12.3,1-15.5c1.6-5.7,6.4-11.1,10.2-15.4c2.6-2.9,4.8-5.4,5.4-7.2c0.7-1.8-2-3.2-6.3-5.3c-3.9-1.9-8.3-4-10.4-7.4
			c-2-3.3-1.8-7-1.6-10.9c0.3-4.5,0.5-9.1-2.7-13.2c-3.7-4.7-7.6-4-14.6-2.8c-4.2,0.8-9.4,1.7-16.3,1.8c-0.3,0-0.7,0-1,0
			c-15.6,0-20.9-4.6-28.2-10.9c-1.1-0.9-2.2-1.9-3.4-2.9c-1.1-0.9-2.5-2-4-3.2c-11.8-9.3-31.6-24.8-24.7-40.3
			c6.4-14.5,2.6-23.6-3.7-38.6c-1-2.3-2-4.8-3.1-7.4c-6.1-15-19-25.1-27.5-31.9c-2.8-2.2-5-3.9-6.3-5.3c-2.4-2.6-3.1-5.8-1.5-8.1
			c1.3-1.9,6-5.8,21.9,0.5c3.9,1.5,7.1,2.9,9.9,4c12.2,5.1,16.1,6.6,29.6,6.6c0.3,0,0.5,0,0.8,0c9.2,0,13.6,1.9,19.2,4.3
			c5.1,2.2,11.4,4.8,23.3,7.1c26.9,5.2,61,0.6,79.4-6.3c10.6-4,13.2-11.9,15.7-19.5c2.1-6.2,4-12.2,10.4-14.5
			c7-2.6,9.7-1.8,13.3-0.6c3.5,1.1,7.8,2.4,18.2,1.3c15.8-1.7,34.3-23.8,45.3-37.1c3.7-4.4,6.5-7.8,8.5-9.7c7-6.4,11.4-9.2,14.1-8.7
			c0.9,0.2,1.7,0.8,2.1,1.7c1.9,3.7-2.1,19.7-8.9,31.7c-6.6,11.7-12,35.1-12,44.1c0,7.6-1,13.4-1.7,17.6c-1,5.6-1.3,7.8,0.6,8.6
			c1.3,0.5,3.2-0.9,6.3-3.4c5.1-4.1,13.7-11,29.8-15.5c12.8-3.6,18.9-9,24.7-14.3c2.3-2,4.4-3.9,6.9-5.7c6.2-4.4,33.4-19.2,40-14.3
			c1.7,1.2,1.9,3.5,0.8,6.6c-5.4,15.8-1.3,26.3,6.1,45.4l0.9,2.3c7.3,18.7,2.3,22.7-5.3,28.7c-1,0.8-2,1.6-3.1,2.5
			c-4.8,4.1-10.1,4.9-15.6,5.8c-5.2,0.8-10.5,1.7-16,5.3c-12.3,8.1-18.7,49.7-19.8,58c-5.7,41.5,31.2,49.8,38.6,51
			c18.3,3.1,71.8,7.2,89.6-1.1c11.7-5.5,38.5,0.7,58.8,9.7c5.6,2.5,18.9,8.8,20.6,14.3c3.2,10.3-8.7,23.6-22.6,39.1l-3.2,3.5
			c-6.5,7.3-13.5,18-20.2,28.4c-8.3,12.8-16.1,24.8-22.4,29.5c-10.8,8-47.1,27.7-63.8,31.4c-11.6,2.6-50.3-2.7-78.6-6.6
			c-11.4-1.6-21.3-2.9-27.3-3.5c-10.1-0.9-19.8,1.3-29.1,3.5c-10.1,2.4-19.6,4.6-29,2.7c-12.5-2.5-24.1,3.2-36.3,9.1
			c-4.9,2.4-10,4.9-15.3,6.9c-13.3,5-29.5,4.3-41.4,3.8c-4.7-0.2-8.7-0.4-11.8-0.2c-5.6,0.3-16.7,9.7-27.4,18.7
			c-10.3,8.7-20,16.9-26,18.3C255.3,641.2,254,641.4,253,641.4z M285.2,393.8c3.3,0,5.9,1,8.5,4.3c3.6,4.6,3.3,9.7,3,14.2
			c-0.2,3.7-0.4,7.1,1.4,10c1.9,3.1,6.1,5.1,9.8,6.9c4.4,2.1,8.2,4,7.1,7.1c-0.8,2.1-3.1,4.7-5.7,7.7c-3.7,4.2-8.4,9.4-9.9,14.8
			c-0.8,3.1-0.9,8.9-0.9,15.1c-0.1,13.1-0.1,27.9-6.9,31c-3,1.4-6.7,2.2-10.3,3.1c-7.9,1.8-16,3.7-17.7,11c-0.5,2.4-0.7,5.1-1,8.2
			c-0.8,11.1-2.1,27.9-20.9,49.9l0,0c-2.4,2.8-3.3,5.8-2.8,8.6c0.8,4.1,4.7,8.1,11.4,11.5c7.9,4.1,13,7.6,14.3,12.4
			c0.9,3.5-0.2,7.4-3.5,12.5c-1.1,1.8-2.3,3.5-3.4,5.1c-3.6,5.3-7.3,10.8-6.3,12.2c0.2,0.3,1.2,0.9,5.1,0c5.6-1.4,15.7-9.8,25.4-18
			c11.4-9.6,22.1-18.7,28.2-19.1c3.2-0.2,7.2,0,11.9,0.2c11.8,0.5,27.9,1.2,40.9-3.7c5.2-2,10.3-4.4,15.2-6.8
			c12.4-6.1,24.2-11.8,37.2-9.3c9.1,1.8,18.5-0.4,28.4-2.7c9.5-2.2,19.3-4.5,29.6-3.5c6,0.6,15.9,1.9,27.4,3.5
			c28.1,3.9,66.7,9.2,78.1,6.7c16.5-3.7,52.5-23.2,63.2-31.1c6.1-4.6,13.9-16.5,22.1-29.2c6.8-10.4,13.8-21.2,20.3-28.6l3.2-3.5
			c13-14.5,25.2-28.2,22.3-37.7c-1.1-3.4-8.6-8.5-19.8-13.4c-19.5-8.6-46.4-14.9-57.6-9.7c-19.3,9-76.7,3.5-90.4,1.2
			c-7.7-1.3-45.7-9.9-39.8-52.7c1.6-11.8,7.9-50.8,20.5-59c5.7-3.8,11.2-4.7,16.6-5.5c5.4-0.9,10.4-1.7,14.9-5.5
			c1.1-0.9,2.1-1.7,3.1-2.5c7.3-5.8,11.8-9.4,4.9-27l-0.9-2.3c-7.6-19.4-11.8-30.1-6.1-46.4c0.9-2.5,0.7-4.2-0.3-5
			c-5.2-3.9-29.7,8.3-38.2,14.3c-2.4,1.7-4.5,3.6-6.7,5.6c-5.7,5.1-12.2,10.9-25.3,14.6c-15.8,4.5-24.2,11.2-29.3,15.2
			c-3.5,2.8-5.6,4.5-7.8,3.6c-3.1-1.3-2.5-4.6-1.5-10.2c0.7-4.2,1.7-9.9,1.7-17.3c0-9.2,5.5-33,12.2-44.9c6.8-12,10.3-27.3,8.9-30.3
			c-0.3-0.5-0.6-0.8-1.1-0.9c-2.1-0.4-6.4,2.4-12.8,8.3c-1.9,1.8-4.8,5.2-8.4,9.5c-11.9,14.3-29.9,35.8-46.3,37.6
			c-10.6,1.1-15.1-0.2-18.8-1.3c-3.5-1.1-5.9-1.8-12.4,0.6c-5.7,2.1-7.5,7.4-9.5,13.6c-2.5,7.6-5.3,16.2-16.6,20.5
			c-18.6,7-53.1,11.6-80.2,6.4c-12.1-2.3-18.5-5-23.6-7.2c-5.7-2.4-9.8-4.2-18.7-4.2c-0.3,0-0.5,0-0.8,0c-13.8,0-17.7-1.6-30.2-6.8
			c-2.8-1.2-6-2.5-9.9-4c-12.1-4.8-18.3-3.7-20.1-1c-1.1,1.7-0.6,4.2,1.4,6.2c1.3,1.3,3.4,3,6.1,5.1c8.7,6.8,21.8,17.1,28,32.5
			c1.1,2.6,2.1,5.1,3.1,7.4c6.5,15.4,10.4,24.7,3.7,39.8c-6.4,14.5,12.8,29.6,24.3,38.6c1.5,1.2,2.9,2.3,4.1,3.2
			c1.2,1,2.4,2,3.5,2.9c7.1,6.1,12.2,10.6,27.3,10.6c0.3,0,0.6,0,0.9,0c6.7-0.1,11.9-1,16-1.8C280.5,394.2,283,393.8,285.2,393.8z"
			/>
		<path class="st1" d="M258.3,672c-3.7,0-7.5-1.3-11.5-4.6l0,0c-8.6-7-13.4-15.2-13.9-23.7c-0.4-7,2.1-14.1,6.8-19
			c7.2-7.6,4.6-12,1.4-17.7l-0.4-0.8c-1.5-2.6-5.9-5.4-9.8-7.9c-5.3-3.3-9.8-6.2-8.4-9.1c0.6-1.2,1.6-2.2,2.9-3.6
			c3.5-3.7,10-10.5,18.8-31.1c9-21,10.1-31.3,10.9-38.8l0.2-1.7c0.7-6.3,8.9-7.5,17.7-8.6c3.1-0.4,6.2-0.8,9.1-1.5
			c8.1-1.9,7.4-18.7,6.9-29.9c-0.1-3-0.2-5.6-0.2-7.6c0.2-5.5,4.9-12.1,9.1-17.9c3-4.2,5.9-8.2,5.6-10c-0.5-2.8-4-5.8-7.7-9
			c-2.3-1.9-4.6-3.9-6.5-6.1c-4.2-4.7-4.6-10.6-5-15.9c-0.1-1.3-0.2-2.6-0.3-3.8c-0.5-3.7-12.3-3.4-23.8-3
			c-5.5,0.2-11.3,0.3-16.7,0.2c-14.5-0.4-31.5-18.3-42.8-30.1c-3.2-3.4-6-6.3-8-8c-6.3-5.5-4.1-14-1.6-24c1.2-5,2.5-10.1,2.9-15.4
			c1.1-14.6-15.9-36.5-27.2-51.1l-2.4-3.1c-5.1-6.6-10.9-12.2-15.6-16.7c-5.7-5.5-8.2-8-7.9-9.8c0.1-0.4,0.3-0.9,0.9-1.2
			c0.8-0.4,8.3-4,23.9-4c0.2,0,0.5,0,0.7,0c19,0.1,41.6,5.3,67.1,15.2c48.4,18.9,58,15.4,75.4,9c4.2-1.5,8.9-3.3,14.7-4.9
			c17.3-4.8,25.7-19.2,32.5-30.7c4.8-8.2,8.6-14.6,14.1-15.3c6.7-0.9,9.4,3.4,12,7.6c2.7,4.3,5.4,8.8,12.6,9c0.2,0,0.3,0,0.5,0
			c11.3,0,21.4-12,31.1-23.7c2.5-3,5.1-6.1,7.7-8.9c10.1-11.1,25.9-22.1,36.3-29.3c2.8-1.9,5.2-3.6,7.1-5c3.4-2.5,5.6-1.1,6.6,0
			c4.4,4.5,3.7,18.9-3,27.4c-26,33.2-25.8,65.5-21.3,72.8c0.4,0.7,1,1.4,1.8,1.3c6.7-1.3,35-15,53.5-28.3
			c10-7.2,16.2-18.4,22.2-29.3c5.2-9.4,10.1-18.3,17-23.7c6.7-5.2,11.8-6.9,15.3-5.1c3.6,1.9,5.1,7.4,4.4,16.3
			c-0.1,1.4-0.2,3-0.4,4.7c-1.3,16.2-3.4,43.3,1.8,52.3l1,1.7c5,8.5,5.2,9,2.8,16.3c-1.1,3.3-0.8,4.4-0.2,7.3
			c0.7,3.3,1.9,8.8,1.8,21.8c-0.2,14.4-5.4,17.5-13.3,22.2c-5.8,3.5-13,7.8-21.5,18c-31.4,38.1-10.4,63.5-1.4,74.3
			c9.8,11.8,39.5,12.5,70.3,11.6c21-0.7,36.4,2.9,48.8,5.7c4,0.9,7.8,1.8,11.1,2.3c5.1,0.9,8.8,1.9,11.9,2.7c5,1.4,8.7,2.4,15,1.8
			c1-0.1,2-0.2,3-0.3c9.8-1,20.9-2.1,25.7,8.8c5.5,12.4,1.5,25.4-10.8,34.7c-12.6,9.6-23.7,22.6-45.8,53.7
			c-25.8,36.4-43.5,50.1-53.7,55.2c-12.6,6.3-86.1,14.9-102.5,13c-67.7-7.6-113.5,11.5-133.1,19.7c-4.9,2-8.4,3.5-10.4,3.8
			c-4.2,0.7-10.3,1.4-17.3,2.2c-10.7,1.2-24,2.7-38,5.1c-13,2.3-15.4,7.2-17.9,12.5c-1.9,4.1-3.9,8.3-10.6,11.5
			c-4.2,2-8.2,4.9-12.1,7.7C271.5,667.4,265.1,672,258.3,672z M247.7,666.2c10.8,8.8,19.5,2.5,29.5-4.8c3.9-2.8,8-5.8,12.3-7.8
			c6.2-3,8-6.8,9.9-10.8c2.5-5.4,5.2-10.9,19-13.3c14-2.4,27.3-3.9,38-5.2c7-0.8,13.1-1.5,17.2-2.2c1.9-0.3,5.4-1.8,10.1-3.7
			c19.7-8.2,65.8-27.4,133.9-19.8c19.5,2.2,91.2-7.6,101.7-12.9c10.1-5,27.5-18.6,53.1-54.8c22.1-31.2,33.3-44.3,46.1-54
			c11.7-8.8,15.5-21.2,10.3-32.9c-4.4-9.9-14.5-8.9-24.2-7.9c-1,0.1-2,0.2-3,0.3c-6.6,0.6-10.4-0.4-15.6-1.9
			c-3.2-0.9-6.7-1.9-11.8-2.7c-3.4-0.6-7.2-1.4-11.2-2.4c-12.3-2.8-27.6-6.3-48.4-5.7c-29,0.9-60.8,0.8-71.4-12.1
			c-9.2-11.1-30.8-37.2,1.4-76.2c8.6-10.4,15.9-14.8,21.8-18.3c8-4.8,12.4-7.4,12.6-21c0.2-12.8-1-18.2-1.7-21.4
			c-0.7-3-1-4.5,0.3-8.1c2.3-6.7,2.3-6.7-2.6-15.1l-1-1.7c-5.4-9.4-3.3-36.8-2-53.1c0.1-1.7,0.3-3.3,0.4-4.7
			c0.6-8.1-0.7-13.3-3.7-14.9c-2.9-1.5-7.6,0.2-13.7,4.9c-6.7,5.2-11.5,14-16.6,23.2c-6.1,11-12.4,22.4-22.6,29.8
			c-18.6,13.4-47.3,27.2-54.1,28.6c-0.7,0.1-2.1,0.1-3.3-2c-4.6-7.5-5.1-40.7,21.4-74.5c6.6-8.5,6.7-21.9,3.1-25.5
			c-1.2-1.3-2.8-1.2-4.7,0.2c-1.9,1.4-4.3,3.1-7.1,5c-10.4,7.2-26.1,18.1-36.1,29.1c-2.5,2.8-5.1,5.9-7.6,8.9
			c-10,11.9-20.2,24.2-32.2,24.2c-0.2,0-0.4,0-0.5,0c-7.9-0.2-11-5.3-13.8-9.7c-2.6-4.2-4.8-7.7-10.6-7c-4.8,0.7-8.4,6.8-13,14.6
			c-6.9,11.8-15.5,26.4-33.4,31.4c-5.7,1.6-10.4,3.3-14.6,4.8c-17.8,6.5-27.5,10.1-76.4-9c-63-24.6-89.5-11.9-90.6-11.3
			c-0.3,1.2,3.6,5,7.4,8.6c4.7,4.6,10.6,10.2,15.8,16.9l2.4,3.1c11.4,14.7,28.7,36.9,27.5,52.1c-0.4,5.4-1.7,10.6-3,15.6
			c-2.4,9.5-4.4,17.6,1.2,22.5c2,1.8,4.8,4.7,8.1,8.1c11.1,11.7,27.9,29.3,41.8,29.7c5.4,0.2,11.1,0,16.6-0.2
			c13.8-0.4,24.7-0.8,25.3,4.3c0.2,1.3,0.2,2.6,0.3,3.9c0.4,5.2,0.8,10.6,4.6,15c1.8,2.1,4.1,4,6.4,5.9c3.9,3.3,7.6,6.5,8.2,9.8
			c0.4,2.5-2.3,6.3-5.8,11.1c-4,5.6-8.6,12-8.8,17c-0.1,1.9,0.1,4.5,0.2,7.4c0.5,12.3,1.3,29.2-8,31.4c-3,0.7-6.2,1.1-9.3,1.5
			c-8.1,1.1-15.8,2.1-16.4,7.3l-0.2,1.7c-0.8,7.6-1.9,17.9-11,39.2c-8.9,20.8-15.5,27.8-19.1,31.5c-1.2,1.3-2.1,2.3-2.7,3.3
			c-0.9,1.7,3.8,4.6,7.9,7.2c4.2,2.7,8.6,5.5,10.3,8.4l0.4,0.8c3.2,5.7,6.3,11.1-1.6,19.5c-4.4,4.7-6.8,11.4-6.4,17.9
			C234.8,651.7,239.4,659.5,247.7,666.2L247.7,666.2z"/>
		<path class="st1" d="M289.4,718.5c-15.6,0-30-10.2-44.9-20.8l0,0c-26-18.5-28.5-54.1-27.3-65.1c0.5-4.3,4-6.5,7.3-8.5
			c3.8-2.3,7.5-4.6,7.4-9.8c0-4.8-3.7-7.4-7.7-10.2c-4.2-2.9-8.5-6-8.4-11.9c0.2-8.2,5.2-14.7,12-23.7c2.5-3.3,5.3-6.9,8.1-11.1
			c7.3-10.6,10.9-27,13.5-39c1.2-5.7,2.2-10.2,3.3-12.6c1.9-4.3,6.6-5.4,12.6-6.8c5.1-1.2,10.8-2.5,16.8-6c8-4.8,5.4-12.2,2.7-20.1
			c-1.5-4.4-2.9-8.5-2.4-12.2c0.8-6.2,4.3-8.9,7.7-11.5c2.2-1.7,4.3-3.3,5.5-5.8c1.6-3.2-0.8-4.8-4.8-7.1c-2.4-1.3-4.8-2.7-5.6-4.8
			c-1-2.5-3-5.6-5.4-9.6c-2-3.3-4.3-7.1-6.8-11.6c-3.1-5.6-11.3-5.1-21.8-4.5c-7.4,0.4-15.7,0.9-23.9-0.7
			c-20.8-4.2-40.2-27.3-45.2-39.2c-4.6-11-4.2-13.5-2.3-25.3c0.3-1.8,0.6-3.7,1-5.9c3.1-20-22.2-53.8-30-63.7l-2.8-3.5
			c-13.4-16.8-19.4-24.5-13.8-35.9c5.2-10.6,15.2-6.7,28-1.8c2.3,0.9,4.7,1.8,7.2,2.7c8.8,3.1,19.9,3.8,33.9,4.6
			c11.7,0.7,25,1.5,40.8,3.9c32.2,5,73,5.7,88.8-2.5c9.4-4.9,11.7-16.3,13.9-27.3c1.2-6.2,2.4-12,4.8-16.3c2.1-3.7,4.3-5.6,6.7-5.8
			c4.4-0.3,8.3,4.5,12.5,9.6c0.5,0.7,1.1,1.3,1.6,2c6.3,7.6,11.7,8.8,31.5,7c12.8-1.2,27.5-17.9,43-35.7c8.2-9.4,16.7-19,25.4-27.1
			c11.2-10.3,26.8-17.5,36.3-10.2c4.2,3.2,5.3,8.3,2.9,13c-31.8,60.9-43,97.3-37.4,100.7c2.7,1.6,14.2-2.1,62.5-71.6
			c4.1-5.9,7.8-11.7,11-16.8c10.7-16.9,18.5-29.2,28.5-25.2c12.7,5,19.2,39.9,16.4,66.6c-1.4,13.3-3.4,19.8-5,25
			c-1.5,4.9-2.6,8.5-2.4,15.4c0.1,5.5,1,9,1.8,11.9c1.2,4.6,1.9,7.6-1.9,13.4c-3.3,5.2-1.5,13.2,0.2,20.2c1.2,5.1,2.3,9.8,1.5,13.3
			c-2.3,10-6.8,26.4-14.7,47.8c-4.2,11.4-4.6,20.6-1.1,27.9c5.7,12,21.2,17.2,34.8,21.7c8.2,2.8,16,5.4,21.1,9.2
			c18.2,13.7,53.5,16.2,78.2,14.3c15-1.2,26.3,1.6,33.5,8.3c5.7,5.3,8.6,12.9,8.6,22.7c0,18.1-7.6,25-20.3,36.4
			c-3.6,3.2-7.7,6.9-12.1,11.3c-7.4,7.4-15.6,20.1-24.3,33.5c-14.6,22.5-31.1,48-50,59.1c-23.1,13.6-72.9,18.6-112.8,22.7
			c-12.1,1.2-23.5,2.4-32.5,3.6c-18.9,2.7-39.7,14-61.6,26c-21,11.4-42.6,23.3-63.7,27.8c-27.1,5.8-32.8,12.7-39.9,21.4
			c-4,4.9-8.6,10.4-17.6,16.6C304.4,716.2,296.7,718.5,289.4,718.5z M245.3,696.4c21.5,15.3,41.9,29.8,66.4,13
			c8.8-6,13.3-11.5,17.3-16.3c7.3-8.9,13.1-15.9,40.7-21.9c20.8-4.5,42.4-16.3,63.3-27.7c22.1-12.1,42.9-23.5,62.1-26.1
			c9-1.3,20.4-2.4,32.5-3.7c39.8-4.1,89.4-9.1,112.2-22.5c18.6-10.9,35-36.3,49.5-58.7c8.7-13.5,17-26.2,24.5-33.8
			c4.4-4.4,8.5-8.1,12.1-11.4c12.3-11.1,19.8-17.9,19.8-35.3c0-9.3-2.7-16.6-8.2-21.6c-6.8-6.3-18-9-32.4-7.9
			c-25,2-60.7-0.7-79.2-14.6c-4.9-3.7-12.6-6.3-20.7-9c-13.9-4.7-29.6-10-35.6-22.5c-3.7-7.7-3.4-17.2,1-29.1
			c7.9-21.3,12.3-37.6,14.6-47.6c0.7-3.1-0.3-7.7-1.5-12.6c-1.7-7.3-3.6-15.6,0-21.3c3.4-5.3,2.8-7.8,1.7-12.3
			c-0.7-2.9-1.7-6.6-1.8-12.2c-0.2-7.1,1-11,2.5-15.8c1.6-5.2,3.5-11.6,4.9-24.7c2.7-25.6-3.6-60.4-15.5-65.1
			c-8.9-3.5-16.4,8.3-26.7,24.6c-3.3,5.2-7,11-11,16.9c-36,51.8-57.7,76-64.5,72c-8.8-5.3,13-56.9,36.9-102.7
			c2.1-4,1.1-8.4-2.5-11.2c-6.4-4.9-19.5-3.7-34.4,10.1c-8.7,8-17.1,17.7-25.3,27c-15.7,18-30.6,34.9-44,36.2
			c-20.3,1.9-26.1,0.5-32.8-7.5c-0.5-0.7-1.1-1.3-1.6-2c-3.7-4.5-7.4-9.1-10.9-9.1c-0.1,0-0.2,0-0.3,0c-2,0.2-3.8,1.8-5.6,5.1
			c-2.3,4.1-3.4,9.9-4.7,15.9c-2.2,10.8-4.7,23.1-14.7,28.3c-16,8.4-57.3,7.7-89.7,2.7c-15.7-2.4-29-3.2-40.7-3.9
			c-14.1-0.8-25.2-1.5-34.3-4.7c-2.5-0.9-4.9-1.8-7.2-2.7c-12.5-4.8-21.5-8.3-26.1,1.1c-5.2,10.6,0.3,17.6,13.7,34.4l2.8,3.5
			c10.1,12.8,33.4,44.8,30.3,64.9c-0.3,2.2-0.7,4.2-1,6c-1.9,11.7-2.3,13.9,2.2,24.5c5.5,13.1,25.4,34.6,44.1,38.3
			c8,1.6,16.2,1.1,23.5,0.7c10.5-0.6,19.6-1.2,23.2,5.2c2.5,4.5,4.8,8.3,6.8,11.6c2.5,4,4.4,7.2,5.5,9.8c0.7,1.6,2.9,2.8,5,4.1
			c3.6,2.1,7.8,4.4,5.4,9.1c-1.4,2.8-3.7,4.6-5.9,6.3c-3.3,2.5-6.4,4.9-7.1,10.5c-0.4,3.3,0.9,7.3,2.4,11.5
			c2.6,7.7,5.6,16.5-3.4,21.9c-6.1,3.7-12.3,5.1-17.2,6.2c-5.8,1.3-10,2.3-11.6,6c-1,2.3-2,6.7-3.2,12.4
			c-2.7,12.1-6.3,28.7-13.7,39.5c-2.9,4.2-5.7,7.9-8.2,11.2c-6.7,8.8-11.5,15.2-11.7,22.9c-0.1,5.1,3.7,7.8,7.7,10.6
			c4.1,2.9,8.3,5.8,8.3,11.4c0,6-4.3,8.7-8.1,11c-3.2,2-6.3,3.8-6.6,7.4C217.7,641.5,219.5,678.1,245.3,696.4L245.3,696.4z"/>
	</g>
</g>
</svg>
