<?xml version="1.0" encoding="utf-8"?>
<!-- Generator: Adobe Illustrator 25.2.3, SVG Export Plug-In . SVG Version: 6.00 Build 0)  -->
<svg version="1.1" id="レイヤー_1" xmlns="http://www.w3.org/2000/svg" xmlns:xlink="http://www.w3.org/1999/xlink" x="0px"
	 y="0px" viewBox="0 0 941.6 398.6" style="enable-background:new 0 0 941.6 398.6;" xml:space="preserve">
<style type="text/css">
	.st0{fill:none;}
</style>
<rect y="0" class="st0" width="942.9" height="398.6"/>
<g>
	<g>
		<path d="M871.9,272.2H373.1v-71.1h498.8V272.2z M377.1,268.1h490.7v-63H377.1V268.1z"/>
		<path d="M373.7,175.8l7.7-43.5h11l6,25h0.4l14.8-25h11.7l-7.7,43.5h-9.4l4.9-27.6h-0.5l-13.2,22.1h-5.8l-5.1-22.1H388l-4.8,27.6
			H373.7z"/>
		<path d="M430.8,154.7c1.6-8.4,8.2-13.6,16.8-13.6c9.7,0,15.9,5.6,15.9,14.6c0,1.7-0.1,2.9-0.3,4.1l-0.6,3
			c-1.7,8.4-7.9,13.6-17,13.6c-9.4,0-15.8-5.5-15.8-14.4c0-1.6,0.1-3.1,0.3-4.4L430.8,154.7z M440.6,159.5c-0.2,0.9-0.3,1.9-0.3,2.9
			c0,3.8,2.1,6.3,5.5,6.3s5.7-2.7,6.5-7.5l0.5-3.4c0.1-1,0.2-2.3,0.2-2.8c0-3.7-2.1-6.1-5.5-6.1c-3.3,0-5.7,2.4-6.5,7.3L440.6,159.5
			z"/>
		<path d="M499.2,175.8h-9.8l0.9-5.2h-0.6c-1.4,3-4.6,5.7-9.7,5.7c-6.1,0-10.3-3.8-10.3-10.2c0-2.2,0.3-4.1,0.6-5.8l3.3-18.6h10.2
			l-3.2,18.3c-0.2,1.1-0.3,2.4-0.3,3.4c0,3.2,2.1,4.8,4.7,4.8c3.8,0,5.9-2.7,6.7-7.5l3.3-19.1h10.2L499.2,175.8z"/>
		<path d="M514.4,141.8h10l-0.9,5.2h0.5c1.5-3.1,4.6-5.7,9.7-5.7c6.6,0,10.2,4.4,10.2,10.3c0,2.2-0.4,4.6-0.7,6.4l-3.2,17.9h-10.2
			l3.2-18.4c0.2-1,0.3-2.4,0.3-3.3c0-3.2-1.9-5-4.5-5c-3.8,0-6,2.8-6.8,7.6l-3.4,19.2h-10.2L514.4,141.8z"/>
		<path d="M558.7,133.9h9.8l-1.5,8.4h7l-1.4,7.6h-6.9l-2.3,13.3c-0.3,1.3-0.3,1.9-0.3,2.3c0,2.3,1.3,3.2,3.9,3.2
			c1.2,0,2.4-0.2,3-0.3l-1.3,7.2c-0.9,0.2-2.9,0.5-5.3,0.5c-7.1,0-10.9-2.3-10.9-7.3c0-0.8,0.1-1.9,0.3-3l2.8-15.8H551l1.4-7.6h4.9
			L558.7,133.9z"/>
		<path d="M576.2,166.7c0-0.2,0-0.4,0-0.5c0.2-6.9,5.9-10.3,14-10.3h7.7l0.4-2.4c0-0.3,0.1-0.7,0.1-1c0-2.1-1.5-3.9-4.6-3.9
			c-2.6,0-4.1,1.2-4.6,3h-9.5c0.7-5.2,5.3-10.3,14.8-10.3c8.4,0,13.7,4,13.7,11.4c0,0.9-0.2,2.1-0.3,3.3l-3.5,20h-9.5l0.8-4.3h-0.5
			c-1.2,2.4-4,4.8-8.8,4.8C580.6,176.4,576.2,172.8,576.2,166.7z M590.5,169.3c2.7,0,5.3-1.8,5.7-4.4l0.6-3.5h-5.4
			c-3.4,0-5.2,1.8-5.2,4.1C586.3,167.7,588,169.3,590.5,169.3z"/>
		<path d="M619.6,141.8h10.2l-6,34.1h-10.2L619.6,141.8z M626.4,127c3.8,0,5.9,2.1,5.9,4.9c0,3.2-2.6,5.2-6.3,5.2s-5.9-2-5.9-4.9
			C620.1,129.1,622.7,127,626.4,127z"/>
		<path d="M639.3,141.8h10l-0.9,5.2h0.5c1.5-3.1,4.6-5.7,9.7-5.7c6.6,0,10.2,4.4,10.2,10.3c0,2.2-0.4,4.6-0.7,6.4l-3.2,17.9h-10.2
			l3.2-18.4c0.2-1,0.3-2.4,0.3-3.3c0-3.2-1.9-5-4.5-5c-3.8,0-6,2.8-6.8,7.6l-3.4,19.2h-10.2L639.3,141.8z"/>
		<path d="M715.3,131.6c12.4,0,17.6,7.5,17.6,14c0,0.2,0,1.1-0.1,1.3h-10.1c0-0.2,0-0.6,0-0.9c-0.1-2.2-1.9-5.9-7.4-5.9
			c-5,0-8.3,3.6-9.5,10.2l-0.9,4.9c-0.2,1.1-0.4,2.9-0.4,4c0,5.8,3.4,9,8.1,9c4.5,0,7.8-2.4,8.4-5.6l0.6-3h-7.9l1.2-6.9h17.6
			l-1.7,9.5c-1.6,8.7-8.2,14.5-18.8,14.5c-10,0-18.1-5.4-18.1-17.3c0-1.5,0.2-3.6,0.5-4.9l1-5.7C697.3,138.2,704,131.6,715.3,131.6z
			"/>
		<path d="M769,175.8h-9.8l0.9-5.2h-0.6c-1.4,3-4.6,5.7-9.7,5.7c-6.1,0-10.3-3.8-10.3-10.2c0-2.2,0.3-4.1,0.6-5.8l3.4-18.6h10.2
			l-3.2,18.3c-0.2,1.1-0.3,2.4-0.3,3.4c0,3.2,2.1,4.8,4.7,4.8c3.8,0,5.9-2.7,6.7-7.5l3.4-19.1h10L769,175.8z"/>
		<path d="M784.6,141.8h10.2l-6,34.1h-10.2L784.6,141.8z M791.3,127c3.8,0,5.9,2.1,5.9,4.9c0,3.2-2.6,5.2-6.3,5.2s-5.9-2-5.9-4.9
			C785,129.1,787.6,127,791.3,127z"/>
		<path d="M823.6,148.5h0.4l3.3-18.4h10.3l-8.1,45.8h-10.2l1-5.5h-0.5c-1.2,3.2-4.6,5.8-9.5,5.8c-6.8,0-11.2-4.7-11.2-12.6
			c0-1.5,0.1-3.3,0.4-4.7l0.6-3.4c1.6-8.7,6.5-14.1,14-14.1C819.4,141.4,823.1,144.7,823.6,148.5z M817.2,149.4
			c-3.6,0-5.9,2.8-6.7,7.2l-0.5,2.9c-0.1,0.6-0.2,1.7-0.2,2.6c0,3.9,2.1,6.3,5.4,6.3c3.6,0,5.9-2.8,6.8-7.5l0.5-2.8
			c0.1-0.6,0.2-1.7,0.2-2.4C822.6,151.5,820.1,149.4,817.2,149.4z"/>
		<path d="M839.9,162.7c0-1.6,0.2-3.2,0.4-4.6l0.5-3c1.7-9.5,8.6-14,16.7-14c9,0,14.7,6,14.3,14.8c0,0.4-0.3,2.9-0.8,5h-21
			c-0.2,0.7-0.3,1.8-0.3,2.6c0,3,1.7,5.5,5.7,5.5c2.8,0,4.9-1.3,5.4-3.4h9.5c-0.7,5.8-6.5,10.9-15.5,10.9
			C846.4,176.5,839.9,172.1,839.9,162.7z M862.3,154.3c0.4-3.2-1.3-5.8-4.9-5.8c-3,0-5.3,1.9-6.1,5.5l-0.3,1.3h11.2
			C862.2,155,862.3,154.6,862.3,154.3z"/>
		<g>
			<path d="M409.9,239.2c0,0.1,0,0.1,0,0.3c0,1.5,1.7,2.3,3.3,2.3c1.1,0,2.9-0.3,2.9-1.7c0-1.1-1.2-1.5-2.8-1.9l-2.7-0.8
				c-2.9-0.9-5.2-2.5-5.2-6.3c0-5.2,4.4-8,9.9-8c5.9,0,9.3,3.3,9.3,6.9c0,0.4,0,0.5-0.1,0.7h-6.4c0-0.1,0-0.2,0-0.3
				c0-1.5-1.5-2.1-2.9-2.1c-1.6,0-2.5,0.8-2.5,1.8s1,1.6,2.6,2l2.8,0.8c2.6,0.7,5.2,2.2,5.2,6.1c0,5.2-4.7,8-10.4,8
				c-4.5,0-9.7-1.8-9.7-7.1c0-0.3,0-0.5,0.1-0.7H409.9z"/>
			<path d="M433.3,246.6l4.1-23.3h7.1l-1.5,8.8h6.8l1.5-8.8h7.2l-4.1,23.3h-7.2l1.6-8.8H442l-1.6,8.8H433.3z"/>
			<path d="M468.1,232.3c1.1-5.9,5.1-9.3,11.2-9.3c5.9,0,9.9,3.4,9.9,9c0,0.8,0,1.6-0.2,2.5l-0.6,3.1c-1.1,5.9-5,9.3-11.2,9.3
				c-5.8,0-9.9-3.4-9.9-9c0-0.8,0-1.7,0.1-2.5L468.1,232.3z M474.7,235.5c-0.1,0.7-0.2,1.4-0.2,1.9c0,2.1,1,3.7,3.1,3.7
				c1.8,0,3.3-1.4,3.9-4.9l0.4-2.1c0.1-0.7,0.2-1.4,0.2-1.9c0-2.1-1-3.7-3.1-3.7c-1.8,0-3.3,1.5-3.9,4.9L474.7,235.5z"/>
			<path d="M516.6,239c-0.9,5.3-4.7,7.9-9.6,7.9s-9-2.6-9-7.7c0-0.8,0.1-1.4,0.2-1.7h6.8c-0.1,0.3-0.1,0.6-0.1,0.8
				c0,1.3,0.6,2.3,2.1,2.3c1.7,0,2.2-1.3,2.5-2.7l2.6-14.7h7.2L516.6,239z"/>
			<path d="M527.2,246.6l4.1-23.3h7.1l-4.1,23.3H527.2z"/>
			<path d="M561.5,246.6l4.1-23.3h7.7l2.4,10.9h0.2l6.4-10.9h8.1l-4.1,23.3H580l2.4-13.2H582l-5.6,9.7h-3.8l-2-9.7h-0.3l-2.3,13.2
				H561.5z"/>
			<path d="M607.5,223.3h9.1l3,23.3h-7.7l-0.2-4.4h-6.2l-1.8,4.4h-7.2L607.5,223.3z M610.7,229.2l-3.2,7.9h3.9l-0.3-7.9H610.7z"/>
			<path d="M633.6,246.6l3.1-17.5H631l1-5.8h18.5l-1,5.8h-5.7l-3.1,17.5H633.6z"/>
			<path d="M663.4,239.2c0,0.1,0,0.1,0,0.3c0,1.5,1.7,2.3,3.3,2.3c1.1,0,2.9-0.3,2.9-1.7c0-1.1-1.2-1.5-2.8-1.9l-2.7-0.8
				c-2.9-0.9-5.2-2.5-5.2-6.3c0-5.2,4.4-8,9.9-8c5.9,0,9.3,3.3,9.3,6.9c0,0.4,0,0.5-0.1,0.7h-6.4c0-0.1,0-0.2,0-0.3
				c0-1.5-1.5-2.1-2.9-2.1c-1.6,0-2.5,0.8-2.5,1.8s1,1.6,2.6,2l2.8,0.8c2.6,0.7,5.2,2.2,5.2,6.1c0,5.2-4.7,8-10.4,8
				c-4.5,0-9.7-1.8-9.7-7.1c0-0.3,0-0.5,0.1-0.7H663.4z"/>
			<path d="M695.3,237.1c-0.1,0.4-0.1,0.8-0.1,1.1c0,1.7,1.1,2.8,3.1,2.8c1.6,0,2.7-0.9,3.1-3.2l2.6-14.4h7.2l-2.8,16.3
				c-0.8,4.6-4.9,7.3-10.5,7.3c-5.1,0-9.8-2.4-9.8-7.8c0-0.5,0.1-1.1,0.1-1.7l2.5-14.2h7.2L695.3,237.1z"/>
			<path d="M718.9,246.6l4.1-23.3h7.7l2.4,10.9h0.2l6.4-10.9h8.1l-4.1,23.3h-6.3l2.4-13.2h-0.3l-5.6,9.7h-3.8l-2-9.7h-0.3l-2.3,13.2
				H718.9z"/>
			<path d="M757.4,232.3c1.1-5.9,5.1-9.3,11.2-9.3c5.9,0,9.9,3.4,9.9,9c0,0.8,0,1.6-0.2,2.5l-0.6,3.1c-1.1,5.9-5,9.3-11.2,9.3
				c-5.8,0-9.9-3.4-9.9-9c0-0.8,0-1.7,0.1-2.5L757.4,232.3z M764,235.5c-0.1,0.7-0.2,1.4-0.2,1.9c0,2.1,1,3.7,3.1,3.7
				c1.8,0,3.3-1.4,3.9-4.9l0.4-2.1c0.1-0.7,0.2-1.4,0.2-1.9c0-2.1-1-3.7-3.1-3.7c-1.8,0-3.3,1.5-3.9,4.9L764,235.5z"/>
			<path d="M791.3,246.6l3.1-17.5h-5.7l1-5.8h18.5l-1,5.8h-5.7l-3.1,17.5H791.3z"/>
			<path d="M816,232.3c1.1-5.9,5.1-9.3,11.2-9.3c5.9,0,10,3.4,10,9c0,0.8,0,1.6-0.2,2.5l-0.6,3.1c-1.1,5.9-5,9.3-11.2,9.3
				c-5.8,0-9.9-3.4-9.9-9c0-0.8,0-1.7,0.2-2.5L816,232.3z M822.7,235.5c-0.1,0.7-0.2,1.4-0.2,1.9c0,2.1,1,3.7,3.1,3.7
				c1.8,0,3.3-1.4,3.9-4.9l0.4-2.1c0.1-0.7,0.2-1.4,0.2-1.9c0-2.1-1-3.7-3.1-3.7c-1.8,0-3.3,1.5-3.9,4.9L822.7,235.5z"/>
		</g>
	</g>
	<g>
		<path d="M197.5,194c-1.8-1.7-2.8-2.6-1.9-7c0.6-2.8,1.4-4.7,2.2-6.3l0.1-0.2c1-2.3,1.9-4.4-0.6-7.4c-2.7-3.4-7.6-1.3-11.5,0.5
			l-0.3,0.1c-1.2,0.5-3,1.3-3.6,1.2c-0.5-0.2-0.9-1.3-2-6l-0.1-0.3c-0.8-3.6-1.5-6.3-3.4-7.4c-1.5-0.9-3.3-0.6-4.7-0.3
			c-2,0.7-3.1,1.4-3.9,2l-0.2,0.1c-0.8,0.6-1.3,0.9-3.1,1h-0.9l-0.9,0.1c-2.2,0.2-4,0.3-4.8,1.9c-0.7,1.4-0.2,2.8,0.4,4
			c0.5,1,1.1,2,1.8,3l0.3,0.5c1.1,1.8,2,3.3,2.2,5.4c0.6,4.7,1,5.5,6.8,9.5c2.9,1.9,2.7,3.6,2.3,6.3c-0.2,1.3-0.4,2.6-0.3,4
			c0.2,2.4,0.8,4.1,1.3,5.5l0.2,0.6c0.3,0.8,0.5,1.5,0.5,2.1v0.2l0.1,0.2c0,0.1,0,0.3,0,0.4l0,0.2c0.2,1.4,0.2,1.8-2,4.1
			c-2.4,2.4-3.2,4.9-2.1,6.8c0.5,0.8,1.6,2,4.4,2c0.6,0,1.3-0.1,1.9-0.2c2-0.3,3.5-0.7,4.7-0.9c0.4-0.1,0.8-0.2,1.3-0.3
			c1.6-0.4,2.7-0.7,4.4-0.9c4.5-0.5,8.8-4.6,11.1-7.9c0.1-0.2,0.3-0.4,0.4-0.6c0.2-0.2,0.3-0.5,0.6-0.8c2.2-2.9,5.1-7,2.2-11.9
			C199.6,195.8,198.4,194.8,197.5,194z M186,188.7c0.1,2.2,1.2,4,2.4,5.8c0.6,0.9,1.4,2.1,1.4,2.9c0.2,2.8-2.3,5.5-7.2,7.8
			c-0.4,0.1-1.1,0.4-1.5,0.1c-0.5-0.3-1.8-1.4-2.2-5.7c-0.4-3.3-0.1-5.1,0.2-6.6c0.3-1.7,0.6-3.1-0.4-5.6c-0.9-2.5-3-4.2-5.1-5.8
			l-0.3-0.3c-1.8-1.3-3.1-2.4-3.8-3.7c-0.9-1.6,0-2.9,1.8-4.6l0.2-0.2l0-0.1c0.1-0.1,0.1-0.1,0.2-0.2l0.1-0.1
			c0.2-0.2,0.9-0.6,1.5-0.6c0.2,0,0.3,0,0.5,0c0.4,0.2,1,1.1,1.3,3c0.1,3.7,0.9,6,2.4,7.2c1.5,1.2,3.2,0.9,4.4,0.7
			c0.2,0,0.4-0.1,0.5-0.1l0,0c0.9-0.1,1.8-0.4,2.5-0.7l0.3-0.1c0.9-0.3,1.8-0.6,2.4-0.4c-0.1,0.5-0.3,1.3-0.6,1.9l-0.1,0.4
			C186.5,185.2,185.9,186.8,186,188.7z M174.7,168.2c-2.4-0.7-4.7,0.7-5.6,1.7c-0.1,0.1-0.1,0.1-0.2,0.2l-0.2,0.2
			c-0.8,0.7-2.7,2.5-3.2,4.9c-0.6-1.7-1.5-3.1-2.2-4.2c-0.6-1-1.1-1.9-1.5-2.7c-0.1-0.1-0.1-0.3-0.2-0.4c0.7-0.1,1.7-0.1,2.2-0.2
			l1,0c2.9-0.1,4.1-1,5.2-1.7l0.2-0.2c0.5-0.5,1.3-1,2.7-1.4c0.6-0.2,1-0.2,1.3-0.2c0.2,0,0.3,0,0.4,0c0.6,0.5,1.2,2.8,1.6,4.8
			C175.9,168.7,175.4,168.4,174.7,168.2z M171,184.1l0.3,0.2c1.7,1.4,3.3,2.6,4,4.3c0.4,1,0.5,1.6,0.4,2.2c-0.3-1.9-1.3-3.9-4-5.6
			c-3.9-2.6-4.6-3.1-5-5.2C167.8,181.6,169.5,183,171,184.1z M177.4,207.6l0-0.2l-0.1-0.2c0-0.1,0-0.3,0-0.4c0-0.1,0-0.3,0-0.4
			c0.6,0.8,1.2,1.4,2,1.9c0.7,0.4,1.5,0.6,2.4,0.6c0.4,0,1.6,0,2.6-0.9c2.5-1.3,9.6-4.9,9.1-11.3c-0.1-1.6-1-3-1.9-4.4l-0.2-0.3
			c-0.8-1.3-1.6-2.7-1.7-3.7c0-1.3,0.5-2.7,0.9-4l0.1-0.2c0.6-1.9,1.4-4.2-0.5-5.6c-2.1-1.6-4.5-0.8-6.2-0.2
			c-0.3,0.1-0.5,0.2-0.8,0.2c-0.4,0.1-0.8,0.3-1.1,0.3c-0.2,0-0.4,0.1-0.5,0.1l-0.3,0c-0.9,0.2-1.3,0.2-1.4,0.1
			c-0.2-0.2-0.6-0.7-0.8-2.2c0.4,0.6,1,1,1.7,1.3l0.1,0.1c1.6,0.6,3.6-0.3,6.1-1.3l0.6-0.3c2.6-1.1,6.1-2.7,7-1.5
			c1.2,1.4,1,1.7,0,3.8l0,0.1c-0.7,1.5-1.7,3.7-2.4,7c-1.2,6,0.6,8.2,3.1,10.4c0.8,0.7,1.7,1.5,2.4,2.7c1.6,2.6,0.3,4.7-2,7.8
			l-0.1,0.1c-0.1,0.2-0.3,0.4-0.4,0.7c-0.2,0.3-0.4,0.6-0.5,0.8c-1.9,2.8-5.4,6-8.5,6.4c-1.9,0.2-3.3,0.5-4.8,0.9
			c-0.6,0.1-1.2,0.2-1.9,0.4c-1.1,0.2-2.3,0.5-3.9,0.8c-1.8,0.3-2.4,0-2.5,0c0-0.2,0.3-1.2,1.5-2.5
			C177.4,211.4,177.5,210,177.4,207.6z"/>
		<path d="M215.1,144.3c-6.5,2.6-17.1,10.2-21.9,13.9c8.8-20.7,7.3-26.5,4.5-27.8c-2.7-1.2-9.8-3.1-16.8,6.4
			c-0.9,1.2-1.6,2.2-2.3,3.2l-0.1,0.2c-3.5,5-5.7,7.9-12.2,8.6c-9.7,1-19.6,1.7-26.5-0.3l-0.3-0.1c-0.4-0.1-0.8-0.2-1.1-0.3
			l-0.3-0.1c-5.5-1.6-11.7-3.3-16.1-0.6c-2.1,1.3-3.5,3.7-4,6.9c-0.6,4.2,0.5,12.5,8.5,16.5c4.5,2.2,7.8,2.5,10.7,2.8l0.2,0
			c1.5,0.1,3,0.2,4.4,0.6c4.8,1.4,6.9,3.3,7.6,7.2c1.2,5.9,5.2,11.2,8.6,13.7l0.7,0.5c3.3,2.5,5.3,4.3,4.2,8.2
			c-0.6,2.1-2,3.8-3.7,6.1c-2.3,2.8-5.3,6.6-7,13c-2.6,9.8-3.3,12.7,0.7,15.6c3.9,2.6,33.7,0.4,38.9-0.4c3.6-0.6,13.4,1.3,20.5,2.6
			c6.6,1.2,12.8,2.3,16.5,2.4h0.7c9.8,0,20.8-3.6,21.2-3.8c2.4-0.7,4.1-3.1,4.2-6c0.1-3.9-2.5-7.1-7-8.8
			c-22.6-8.2-26.6-12.6-27.2-14.1c-2.2-4.8-5.2-18.1-3.2-27.2c0.4-1.8,0.9-3.6,1.3-5.5c0.5-1.9,0.9-3.8,1.4-5.7c1.5-6,3.2-12.9,4-18
			c0.9-5.4,1-8.4-1-10.1C221.1,142.3,217.9,143.2,215.1,144.3z M216.2,171.2c-0.9,3.5-1.7,7.2-2.5,10.4l-0.2,1.1
			c-2.1,9.4,0.7,23.4,3.4,29.5c1.9,4.4,11,9.3,29.4,16.1c3,1.1,4.7,3,4.6,5.2c0,1.2-0.6,2.3-1.5,2.6c-3.6,1.1-12.9,3.6-20.6,3.5
			c-3.3-0.1-8.9-1.1-15.9-2.4l-1.5-0.3c-7.1-1.3-13.7-2.5-17.9-2.5c-0.5,0-1.2,0-1.4-0.1l-0.3-0.1l-0.3,0
			c-7.9,1.2-33.6,2.3-36.2,0.9c-1.7-1.1-1.9-1.6,0.7-11.7c1.3-5.3,3.7-8.4,6.1-11.4l0.3-0.4c1.8-2.3,3.5-4.4,4.2-7.1
			c0.4-1.2,0.5-2.4,0.4-3.4c0.1,0.6,0.2,1,0.1,1.5l0,0.1l0,0.8l0,0.1c-0.1,2-0.2,4.7-3,8c-3.8,4.5-5.5,10.8-5.5,15.1
			c0,1.3,0.5,2.4,1.6,3.4c1.8,1.4,4.7,1.7,6.9,1.7c2.1,0,4.3-0.2,6.4-0.7c3.1-0.5,5.9-1.3,8.6-2.1l2.3-0.7c2.4-0.7,4.7-1.4,6.7-1.8
			c4.7-0.8,7.8-1.3,12.1-0.1l0.2,0c0.4,0.1,1,0.3,1.7,0.5c0.2,0.1,0.5,0.2,0.7,0.3l0.3,0.1c3.7,1.4,7.8,2.9,10.5,1.5
			c0.4-0.2,0.7-0.4,1-0.8c0-0.1,0.1-0.1,0.1-0.2c1.6-2,1.1-5.2-1.5-10.2c-2.8-5.4-3.1-7.9-3.5-10.8l-0.1-0.9
			c-0.3-1.8-0.5-3.8-1.4-6.5l-0.2-0.7c-0.3-1.1-0.7-2.3-1.1-3.3l-0.1-0.3c-2.1-6.1-4.2-12.4-2.2-17.7c1.5-3.9,4.3-15.7-0.1-19
			c-1.9-1.4-4.4-1-7.5,1.4c-9.6,6.8-12.8,8-13.8,8.1c0-1.2,1-3.8,2-6.5c0,0.8,0.2,1.5,0.8,1.9c1.4,1.2,3,0,4.6-1.3
			c2.8-2.3,15.7-12,22.7-14.8c3.4-1.4,4.2-0.9,4.2-0.9c0.7,0.6,0,5-0.3,6.7c-0.8,4.1-2.1,9.6-3.3,15L216.2,171.2z M137.3,151.6
			c0.3,0,0.5,0.1,0.8,0.2c0.3,0.1,0.5,0.1,0.7,0.2c7.9,2.1,18.5,1.3,27.9,0.3c8.2-0.9,11-4.8,14.8-10.3c0.7-0.9,1.5-2,2.3-3.1
			c3.8-5.1,8.3-7,12.3-5.3c0.8,1.2-0.3,8.2-4.9,19.8c0-1.6-0.6-3-1.8-3.9c-2.3-1.9-5.8-1.8-8.5,0.2c-3.7,2.5-11.6,5.2-14.8,6
			c-5.5,1.4-7,1.7-11.2,0.4c-4.1-1.3-16.1-2.9-19.7,0.1c-1.1,0.9-1.7,2-1.7,3.4l0,0.1c0.3,3,3.5,5.4,4.4,6.1c1,0.7,2.8,1.3,5.9,2
			c0.5,0.2,1,0.3,1.6,0.4c1.7,0.5,3.4,1,4.2,1.4c5.9,3.3,5.4,5.2,5.2,5.9c-0.8,2.9-2.1,7.7,1.6,10c1.2,0.8,2.2,1.9,3,2.7
			c0.8,0.9,1.7,1.9,2.7,2.6c0.1,0.1,0.2,0.2,0.3,0.3c0,0,0.1,0.1,0.1,0.1l0.3,0.2c1.8,1.1,3.2,2.2,3.4,4.7c0.1,1.1,0.2,2,0.3,2.7
			c-1-3-3.6-5-5.6-6.5l-0.7-0.5c-2.8-2.1-6.2-6.6-7.2-11.5c-1.4-6.5-5.9-8.7-10.2-9.9c-1.5-0.5-2.8-0.6-4.2-0.8l-0.9-0.1
			c-3-0.2-5.8-0.6-9.6-2.4c-7.7-3.8-6.5-12.3-6.5-12.6c0.3-2.1,1.1-3.5,2.3-4.3c3-1.9,8.7-0.2,13.3,1.1L137.3,151.6z M215.4,226.4
			c-0.9,0.7-6-1.3-7.7-1.9l-1.5-0.5c-0.8-0.3-1.4-0.5-2-0.7c-5.1-1.3-8.9-0.8-13.7,0.1c-2.3,0.4-4.7,1.1-7.2,1.8l-1.4,0.4
			c-2.9,0.8-5.8,1.7-9,2.2c-5.6,1-9.3,0.5-10.4-0.4l-0.1-0.1c-0.1-0.1-0.2-0.2-0.2-0.5c0-3.4,1.5-8.9,4.6-12.7
			c3.6-4.2,3.7-8,3.8-10.2l0-1c0-1.2-0.1-2-0.3-3.1c-0.2-0.8-0.4-1.9-0.5-3.7c-0.2-4.2-3-6.1-4.8-7.5c-0.2-0.2-0.5-0.4-0.8-0.6
			c-0.6-0.5-1.3-1.1-2.1-2.1c-1.1-1.2-2.3-2.5-3.8-3.4c-0.9-0.5-1.2-1.7,0-5.9c1.4-5.4-4.8-8.8-6.9-10l-0.1-0.1
			c-1.4-0.7-3.9-1.3-6.5-2.1c-1.4-0.4-4.2-1.1-4.8-1.5c-1.5-1.1-2.8-2.6-2.9-3.4l0-0.2c0,0,0-0.1,0.3-0.3c0.4-0.4,2.2-1,5.9-1
			c3.6,0,7.9,0.6,10.7,1.4c5.1,1.5,7.3,1.1,13.1-0.4c2.8-0.7,11.7-3.5,15.9-6.5c1.8-1.2,3.5-0.9,4.1-0.4c0.8,0.7,0.2,2.1,0,2.5
			l-0.5,1.4c-3.3,8-5.4,12.9-2.7,15.1c2.5,1.9,6.9-0.1,18.4-8.2c1.9-1.4,2.9-1.6,3.2-1.4c1.4,1.1,1.1,8.9-1.1,14.8
			c-2.5,6.6,0,14,2.3,20.4c0.2,0.7,0.4,1.3,0.7,2c0.2,0.7,0.4,1.3,0.6,2c0.9,2.9,1.2,4.8,1.4,6.8c0.4,3,0.8,6.1,3.9,12
			C215.9,225.2,215.4,226.3,215.4,226.4z"/>
		<path d="M204.2,117.1c-2.9-0.3-7.9,1.4-11.8,2.8c-0.8,0.4-1.7,0.7-2.6,0.9c-5.1,1.7-10.9,3.6-15.6,11.2
			c-4.6,7.4-20.5,11.4-31.9,10.5c-6-0.5-10.4-2.7-13.7-4.3c-3.8-1.9-7.3-3.7-11.9-3.7l-0.3,0c-1.1,0.1-2.1,0-3.1,0
			c-0.5,0-0.9,0-1.3,0c-3.4-0.1-6-0.2-7.3,1.6c-1.2,1.6-0.5,3.5,0.2,5.4c0.4,0.9,0.8,1.7,1.2,2.5c0.2,0.4,0.4,0.8,0.6,1.2
			c2.1,3.9,4.3,7.9,2.2,15.5c-3.3,11.4,8.3,19.2,14.1,21c8.9,2.8,12.2,1.4,14.6,0.3l0.2-0.1c1-0.4,1.4-0.6,2.2-0.3
			c2,0.8,3,2.8,4.2,5.4l0.2,0.4c0.6,1.3,1.2,2.6,2,3.6c2.1,2.7,3.6,6.3,3.6,6.3l0.1,0.3l0.3,0.3c1.5,1.7,3.2,2.4,4.4,2.9
			c1.6,0.6,1.8,0.8,1.8,2.2c-0.1,1.4-0.7,1.9-2.2,3l-0.1,0.1c-1.8,1.2-3.7,2.7-5,5.8c-1.5,3.5-2.3,9.3-3,14.4l-0.1,1.1
			c-0.3,3.1-0.7,5.4-0.9,6.1c-0.1,0.2-0.6,1.2-4.7,4.5l-0.3,0.3c-2.9,2.3-5.6,4.6-6.4,6.7c-1,2.5-2,6,0,8.4c1.1,1.4,2.9,2.1,5.4,2.1
			c0.3,0,0.7,0,1.1,0c0.7,0,1.4,0,2,0l0.2,0l0.2,0c3.7-0.7,6.6-2,9.4-3.3c4.9-2.2,9.9-4.5,19.9-3.9c6.6,0.4,10.4,0.7,13.8,1l2.6,0.2
			c4.7,0.4,10.6,0.8,22.7,1.4c8,0.3,15.8,1.1,23.4,1.8l3.7,0.4c14.5,1.5,24.4,2.4,28.9,0.8c6.3-2.2,26.6-15.5,27.5-23.6
			c0.2-3-1-6.1-3.4-8.7c-4.4-4.9-11.7-7.8-19.7-7.8h-1c-29,0-37.7-1.3-39.8-2.3c-6.2-3-8.3-10-6.9-22.6c1.7-14.8,5.3-26.3,11-35.1
			c1.3-1.9,2.2-3.4,2.9-4.7c0.3-0.5,0.5-0.9,0.8-1.3c1.9-3.5,2.4-4.1,5.3-4.8c2.9-0.7,4.6-3,4.3-5.8c-0.2-3.4-3.5-7.2-9.1-7.6
			c-7.9-0.4-13.7,1.2-20.5,5.7c-1.9,1.2-3.9,2.5-5.9,3.8l-0.2,0.1c-4.2,2.7-7.8,5-9.8,6.6c0.2-0.3,0.3-0.6,0.5-0.9
			c6.1-10.5,4.6-23,3-26.3C205.8,117.8,205.1,117.1,204.2,117.1z M243.4,139.1c-4.6,1.1-5.5,2.8-7.7,6.6c-0.8,1.6-1.9,3.4-3.4,5.7
			c-6.1,9.3-9.9,21.3-11.6,36.8c-1.6,14.4,1.1,22.5,8.9,26.3c3.9,1.8,17.5,2.7,41.4,2.7h1.1c7,0,13.3,2.5,17,6.6
			c1.8,2,2.7,4.1,2.4,5.9c-0.6,5.1-17.9,17.9-25.1,20.5c-3.8,1.3-14,0.3-25.8-0.8l-1.6-0.2c-10.7-1.2-19.4-1.9-27.4-2.3
			c-14.5-0.6-20-1.1-25.2-1.6c-3.8-0.3-7.5-0.6-13.8-1c-10.8-0.6-16.6,1.9-21.6,4.1l-1.1,0.5c-2.4,1-4.7,2-7.6,2.6
			c-3.3,0.7-5,0.3-5.4-0.3l-0.1-0.1c-0.4-0.5-0.5-1.9,0.6-4.6c0.6-1.5,3.9-4.2,5.7-5.6l0.1-0.1c2.7-2.3,5.1-4.3,5.7-6
			c0.5-1.1,0.8-3.4,1.2-6.6l0-0.3c0.3-2.6,1.3-10.6,2.8-14.5c0.9-2.2,2.3-3.2,3.7-4.3l0.2-0.1c1.7-1.3,3.6-2.7,3.7-5.9
			c0.1-4-2.4-5.1-4-5.7l-0.1,0c-0.9-0.3-1.9-0.7-2.9-1.7c-0.5-1.1-2-4.1-3.6-6.6c-0.6-0.8-1.1-1.8-1.8-3.3l-0.1-0.1
			c-1.2-2.8-2.6-6-6.1-7.2c-2.4-1-4-0.2-5.2,0.4c-1.7,0.8-4.2,2.1-12-0.4c-2.3-0.8-5.9-2.8-8.5-5.6c-3.3-3.5-4.4-7.3-3.3-11.1
			c2.6-8.9-0.1-13.9-2.4-18.3c-0.7-1.1-1.2-2.3-1.7-3.4c-0.4-1-0.5-1.6-0.6-1.8c0.8-0.2,3-0.1,4.2-0.1h4.7c3.6,0,6.6,1.5,10,3.1
			l0.5,0.2c4,1.9,8.4,4.1,14.7,4.6c16.2,1.4,31-5.2,35.3-12.2c4-6.4,8.6-7.9,13.5-9.6l0.3-0.1c1-0.4,1.8-0.7,2.8-1
			c5.6-2.1,8.3-2.5,9.4-2.6c1,2.8,2.2,13.4-3,22.4c-3.3,5.7-3.9,7.9-2.3,9.1c1.7,1.3,3.6,0,7.1-3.3c1.5-1.5,5.4-4,9.6-6.7l0.2-0.2
			c0.9-0.6,1.9-1.3,2.9-1.9c1-0.7,2-1.3,3-2c6.3-4.1,11.4-5.5,18.3-5.1c3.7,0.3,5.6,2.6,5.7,4.3C245,138.5,244.2,139,243.4,139.1z"
			/>
		<path d="M338.5,200.1c-3.5-3.2-8.8-4.5-15.8-4c-10.6,0.8-25.7-0.3-33.3-6c-2.5-1.7-6-3-9.7-4.2c-5.7-1.9-12.1-4.1-14.3-8.7
			c-1.4-2.9-1.2-6.5,0.6-11c3.8-10.5,5.7-17.7,6.5-21.1c0.4-1.8-0.1-3.9-0.7-6.2l-0.1-0.6c-0.6-2.6-1.3-5.6-0.2-7.3
			c1.9-3.2,1.5-5,1-7l0-0.1c-0.4-1.2-0.6-2.8-0.7-4.7c0-2.9,0.4-4.2,1-6.3l0-0.1c0.7-2.4,1.6-5.3,2.2-11.2c1.1-10.8-1.2-28-8.1-30.7
			c-5.5-2.3-9.4,3.8-14.3,11.5l-0.1,0.1c-1.5,2.5-3.1,5-4.8,7.3c-18,25.9-23.8,30.1-25.3,30.7c-0.4-2.9,3.1-15.6,16.9-41.9
			c1.3-2.7,0.6-5.7-1.7-7.5c-5.2-3.9-12.8,0-17.8,4.6c-3.9,3.7-7.8,8.1-11.2,12l-0.1,0.2c-6.3,7.1-12.8,14.5-17.8,14.9
			c-8.8,0.9-10.3,0.2-12.5-2.4c-0.1-0.2-0.3-0.3-0.4-0.5c-0.1-0.1-0.2-0.2-0.3-0.3l-0.4-0.5c-2-2.3-3.9-4.5-6.5-4.4
			c-1.6,0.1-3,1.3-4.2,3.4c-1.1,2.2-1.8,5.1-2.3,7.7c-1,4.7-1.9,9.1-5.3,10.9c-6.6,3.4-24.5,3.1-38,0.9c-6.6-1-12.2-1.4-17.1-1.7
			l-0.9-0.1c-6.3-0.3-10.7-0.6-14.4-1.9c-1.1-0.4-2.2-0.8-3.2-1.2l-0.2-0.1c-5.5-2.1-11.1-4.2-14,1.6c-2.8,5.9,0.2,9.7,6.3,17.3
			l1.2,1.5c5.3,6.5,14,19.4,12.9,26.8c-0.1,0.5-0.1,1-0.2,1.5c-0.1,0.4-0.1,0.7-0.2,1c-0.9,5.3-1.1,6.8,1.1,11.9
			c2.2,5.1,10.8,16.1,20.9,18.1c3.9,0.8,7.9,0.5,10.9,0.3l0.7,0c4.1-0.2,6.7-0.2,7.5,1.3c0.9,1.6,1.7,3,2.4,4.2l0.6,1
			c1.1,1.6,1.8,3,2.3,4c0.6,1.3,1.8,2,2.9,2.6l0.3,0.2c0.3,0.2,1.3,0.7,1.5,1c0,0,0,0.1,0,0.1l0,0.1c-0.3,0.8-1,1.4-1.9,2
			c-1.4,1-3.5,2.6-4,6c-0.2,1.9,0.4,3.9,1.2,6c1.4,3.8,1.7,5.7-0.6,7c-2.5,1.5-4.9,2.1-6.9,2.5c-2.7,0.6-5.4,1.3-6.6,3.9
			c-0.5,1.3-1.1,3.9-1.5,5.8c-1.2,5.8-2.7,12.3-5.7,16.6c-1.1,1.6-2.3,3.2-3.6,4.8l-0.3,0.4c-2.9,3.8-5.2,6.9-5.3,10.9
			c0,3.3,2.3,5,4.2,6.3l0.3,0.2c1.7,1.3,2.6,2,2.6,3.2c0,1.4-0.8,2-2.6,3c-1.6,1-3.6,2.2-3.9,4.8c-0.5,5.1,0.7,21.4,12.6,29.9
			l0.7,0.5c6.6,4.6,12.7,8.9,19.9,8.9c4,0,7.5-1.3,10.8-4c3.7-2.5,5.7-4.9,7.4-6.8l0.6-0.7c2.9-3.6,5.2-6.4,16.7-8.9
			c9.3-2,18.8-7.2,28-12.2l0.3-0.2c8.5-4.7,18.2-10,26.5-11.2c4-0.6,9.2-1.1,14.1-1.6c19.9-1.9,40.2-4.3,50.1-10.1
			c8.6-5.1,16-16.4,22.4-26.4l0.9-1.4c3.5-5.3,6.8-10.2,9.6-13.1c1.8-1.9,3.6-3.5,5.2-4.9c5.5-4.9,9.4-8.4,9.4-17.1
			C342.8,206.5,341.3,202.7,338.5,200.1z M245.4,280.9l-0.3,0c-5,0.5-10.2,1-14.3,1.6c-8.6,1.2-17.8,6.2-27.5,11.5l-0.2,0.1
			c-9.9,5.4-18.7,10.1-27.3,11.9c-12.7,2.7-15.5,6.1-18.7,10.1l-0.2,0.3c-1.7,2-3.5,4.1-7.1,6.6c-9.9,6.8-17.9,1-27.3-5.6l-0.1-0.1
			c-10.8-7.8-11.4-23.2-11-26.6c0.1-0.8,0.8-1.3,2.1-2.2l0,0c1.6-1,4.3-2.6,4.3-6.1c0-3.4-2.6-5.1-4.3-6.3c-1.8-1.3-2.8-2.1-2.7-3.4
			c0.1-2.8,2-5.4,4.7-9.1l0-0.1c1.3-1.7,2.5-3.3,3.7-5c3.3-4.8,4.9-12.1,6.1-17.4l0.1-0.4c0.7-3.3,1.1-4.7,1.3-5.1
			c0.4-0.8,1.6-1.2,3.8-1.7l0.5-0.1c2.2-0.5,4.9-1.2,7.7-2.8c5.1-3.1,3.3-8.1,2.2-11.4c-0.5-1.6-1.1-3.3-0.9-4.3
			c0.2-1.8,1.2-2.6,2.5-3.6c1.1-0.8,2.3-1.8,3-3.3c1.6-3.3-1.4-5.1-3-5.9c-0.2-0.1-0.4-0.2-0.5-0.3c-0.4-0.2-1-0.6-1.1-0.8
			c-0.5-1.1-1.2-2.4-2.5-4.5l-0.6-1c-0.7-1.2-1.5-2.5-2.4-4.1c-0.9-1.6-2.3-2.4-4-2.8c1.7-0.2,3.1-0.4,4.2-0.6l0.2,0
			c3.2-0.6,4-0.6,4.9,0.6c1.1,1.4,1,3,0.9,4.8c-0.1,1.8-0.2,3.9,0.9,5.7c1.2,2,3.5,3,5.2,3.9c0.5,0.2,1.3,0.6,1.8,0.9
			c-0.3,0.4-0.7,1-1.2,1.5c-0.2,0.3-0.4,0.5-0.6,0.7c-2,2.1-4.1,4.6-4.9,7.3c-0.5,1.6-0.5,4.1-0.5,7.2l0,0.7
			c-0.1,3.6-0.2,10.2-1.8,11c-0.9,0.4-2.1,0.7-3.3,1l-1.3,0.3c-3.7,0.9-7.9,2-8.9,6.4c-0.2,1.2-0.3,2.5-0.4,3.9
			c-0.4,5.1-0.9,11.5-8.6,20.6c-1.5,1.8-2.1,3.7-1.7,5.6c0.5,2.5,2.6,4.7,6.1,6.5c2.2,1.1,4.7,2.5,5.1,4.1c0.2,0.9-0.1,2-1.2,3.7
			c-0.3,0.4-0.5,0.8-0.8,1.1c-0.2,0.4-0.5,0.7-0.8,1.1l-0.4,0.7c-2.1,3.2-3.5,5.4-2.3,7.1c0.3,0.4,1,1.2,2.4,1.2
			c0.8,0,1.6-0.3,2.2-0.8c2.8-0.8,6.4-3.8,11.6-8.2c3.4-2.9,9.1-7.8,11.1-7.8c1.2-0.1,2.8,0,4.7,0.1l0.5,0
			c5.3,0.2,12.6,0.5,18.7-1.8c2.2-0.9,4.4-1.9,6.8-3c5.1-2.5,9.9-4.9,15-3.9c4.3,0.8,8.5-0.1,13-1.1l0.8-0.2
			c3.9-0.9,7.9-1.7,11.9-1.4c2.7,0.2,6.9,0.8,11.9,1.5c14.9,2.1,29.8,4,34.9,2.9c7.6-1.8,23.8-10.5,28.6-14.1
			c2.9-2.1,6.3-7.3,10.2-13.3l0.6-1c2.7-4.2,5.5-8.5,8.1-11.3l1.4-1.5c6.1-6.7,11.9-13.1,10.2-18.5c-0.8-2.8-5.8-5.5-9.8-7.3
			c-9-3.9-21.2-6.9-27-4.2c-7.3,3.5-30.4,1.7-38.4,0.4c-16.3-3.1-16.4-15.5-15.7-20.7c1.4-10.4,4.5-22,8-24.3
			c2.2-1.3,4.2-1.7,6.4-2.1c2.4-0.4,5.2-0.8,7.6-2.9l0.1-0.1c0.3-0.3,0.7-0.6,1.2-1l0.1-0.1c3.3-2.7,6.2-5.1,2.7-14.2l-0.4-1
			c-3.3-8.3-4.9-12.5-2.7-18.9c0.8-2.6-0.1-3.9-0.9-4.5c-4.3-3.2-19.1,6.2-19.3,6.3c-1.1,0.8-2,1.6-3.1,2.6c-2.3,2.1-4.8,4.4-10.2,6
			c-7.2,2-11.1,5.1-13.4,6.9l-0.2,0.2c-0.3,0.2-0.6,0.5-0.9,0.7c0.1-0.4,0.1-0.9,0.2-1.4l0-0.2c0.6-2.5,0.8-5.2,0.8-8
			c0-3.7,2.3-13.7,5.1-18.6c2.8-5,5.2-12.8,3.9-15.3c-0.4-0.8-1-1.3-1.9-1.5l-0.1,0c-1.7-0.3-3.8,0.8-7.5,4.2
			c-0.7,0.7-1.9,2.1-3.8,4.3l-0.7,0.8c-4.6,5.3-12.2,14.3-18.2,14.9c-4.3,0.4-6-0.1-7.4-0.5c-1.9-0.6-3.4-0.9-6.8,0.3
			c-3.5,1.4-4.5,4.5-5.5,7.4c-1.1,3.3-2,6.1-6,7.6c-7.8,3-22.4,5-34,2.7c-4.8-0.9-7.5-2-9.6-2.9l-0.2-0.1c-2.6-1.2-4.8-2-9-2h-0.3
			c-5.6,0-7-0.6-12.1-2.7l-1.7-0.7c-0.9-0.4-1.8-0.8-2.9-1.2c-7.1-2.8-10.1-1.4-11.3,0.3l-0.1,0.1c-1,1.6-0.6,3.8,0.9,5.3
			c0.6,0.6,1.5,1.4,3,2.5c3.8,3,9,7.1,11.6,13.4c0.2,0.5,0.4,1,0.7,1.5c0.3,0.6,0.5,1.2,0.7,1.8l0.2,0.4c2.6,6.2,4,9.7,1.5,15.3
			c-3.6,7.8,5.6,15.1,11.1,19.4l0.2,0.1c0.5,0.4,1,0.8,1.4,1.1l0.2,0.2c0.5,0.5,1.1,0.9,1.5,1.3c2.4,2.1,4.6,4,8.8,4.8
			c-2.9,0.2-6.3,0.4-9.6-0.3c-7.7-1.6-16-10.6-18.2-15.9c-1.8-4.1-1.7-4.9-0.9-9.6l0-0.3c0.1-0.8,0.2-1.5,0.4-2.6
			c1.3-9-8-22.4-13.6-29.6l-1.2-1.5c-6.1-7.6-7.6-9.8-5.8-13.5c1.3-2.6,3.5-2.1,9.5,0.2c1,0.4,2.1,0.8,3.2,1.2
			c3.8,1.5,8.3,1.7,14,2.1l2.3,0.1c4.9,0.3,10.4,0.6,16.8,1.6c14,2.2,32.6,2.7,40.2-1.4c4.9-2.5,6-8.1,7.1-12.9l0.1-0.5
			c0.5-2.7,1-5,1.9-6.6c0.4-0.8,0.8-1.3,1.2-1.4c0.9,0,2.9,2.5,3.6,3.4c0.1,0.2,0.3,0.3,0.4,0.5c0.1,0.1,0.2,0.2,0.3,0.3l0.1,0.1
			c3.6,4.2,6.9,4.6,15.7,3.8c6.5-0.7,13.2-8.3,20.3-16.4c3.4-3.8,7.2-8.2,11-11.7c5.8-5.4,10.9-6,13.2-4.3c1,0.8,1.2,1.9,0.7,3
			c-5.5,10.5-10.5,21.2-13.5,29.3c-5.2,13.6-4,16.6-2.1,17.7c2.3,1.4,5.7-0.7,11.2-6.8c4.7-5.3,11.2-13.7,19.1-25.1
			c1.6-2.4,3.3-4.9,4.8-7.5c4.4-7,7.2-11.2,9.9-10.2c4,1.5,7.1,15.6,5.8,26.9c-0.7,5.4-1.4,8.1-2.1,10.5c-0.8,2.3-1.3,4.1-1.2,7.4
			c0.1,2.5,0.5,4.1,0.8,5.5l0.1,0.3c0.5,1.9,0.6,2.4-0.5,4.2c-1.9,2.9-1,6.7-0.3,10l0.2,0.7c0.4,1.8,0.9,3.6,0.6,4.6
			c-1.4,6.4-3.6,13.5-6.3,20.7c-2,5.4-2.1,10.1-0.4,13.9c3,6.2,10.8,8.8,16.5,10.7c3.4,1.1,6.7,2.2,8.7,3.7
			c8.5,6.4,24.6,7.6,35.7,6.7c5.9-0.5,10.5,0.6,13.1,3c2.1,1.9,3.1,4.7,3.1,8.4c0,6.9-2.8,9.5-8,14.2l-0.2,0.2
			c-1.6,1.4-3.4,3.1-5.4,5.1c-3.4,3.4-7,9-10.8,15l-0.1,0.1c-5.9,9.2-13.2,20.5-21.2,25.2C284,276.9,262.6,279.1,245.4,280.9z
			 M208.7,124.8c0,2.8-0.4,5-0.7,6.7l-0.1,0.6c-0.4,2.6-0.8,5,1.6,6.1c1.7,0.8,3.2-0.4,5-1.8c1.9-1.6,5.4-4.4,12.2-6.4
			c5.9-1.6,9-4.3,11.4-6.5l0.2-0.2c0.3-0.3,0.7-0.6,1-0.9c0.6-0.5,1.2-1,1.9-1.5c4.5-3.2,13.1-6.8,14.9-6.4c0,0.1-0.1,0.3-0.2,0.6
			c-2.6,7.5-0.7,12.6,2.6,21l0.5,1.4c2.6,6.6,1.4,7.6-1.5,10l0,0c-0.4,0.3-0.7,0.5-1.1,0.8c-0.1,0.1-0.3,0.2-0.5,0.4
			c-1.5,1.3-3.2,1.6-5.3,2l-0.4,0.1c-2.5,0.4-5.1,0.9-7.9,2.6c-6.1,4.1-8.9,21.7-9.6,26.9c-1.4,10.6,3.1,16.6,7.1,19.8
			c4.2,3.3,9.1,4.6,11.6,5c6.4,1.1,31.8,3.5,40.5-0.6c4.4-2.1,15.6,0.5,23.9,4.2c6,2.7,7.7,4.5,7.9,5c1,3.2-4.2,9.1-9.3,14.8
			l-1.6,1.8c-2.8,3.1-5.6,7.5-8.4,11.7l-0.6,1c-3,4.7-6.7,10.5-9.3,12.4c-4.7,3.5-20.2,11.9-27.1,13.4c-4.8,1.1-22.9-1.4-33.7-2.9
			c-4.8-0.7-9.4-1.3-12-1.5c-4.9-0.5-9.3,0.5-13.5,1.5l-0.3,0.1c-4,0.9-7.9,1.8-11.4,1.1c-6.2-1.2-11.6,1.4-17.3,4.2
			c-2,1.1-4.2,2.1-6.4,2.9c-5.3,2-12.2,1.7-17.1,1.5l-0.5,0c-2-0.1-3.6-0.2-5.1-0.1c-3.1,0.2-7.6,4-12.9,8.4l-0.4,0.3
			c-3.2,2.8-8.1,6.9-10.4,7.6c0.6-1.1,1.6-2.5,2-3c0.5-0.7,1-1.4,1.5-2.3c1.6-2.6,2.2-4.8,1.7-6.7c-0.8-2.9-3.8-4.7-7.1-6.4
			c-2.4-1.3-3.9-2.7-4.2-4c-0.2-0.7,0.1-1.6,0.9-2.5c8.5-9.9,9.1-17.5,9.5-22.6l0-0.2c0.1-1.3,0.2-2.5,0.4-3.4
			c0.5-2.1,2.8-2.8,6.5-3.7c1.5-0.3,3.3-0.7,4.9-1.4c3.6-1.7,3.8-7.8,3.8-15c0-2.4,0-5.1,0.4-6.2c0.5-2,2.3-4,3.8-5.7l0.1-0.2
			c1.4-1.5,2.4-2.8,2.8-3.9c1-2.7-1.8-4-3.8-4.9l-0.2-0.1c-1.3-0.6-2.9-1.5-3.5-2.3c-0.5-0.9-0.5-2-0.4-3.5l0-0.2
			c0.1-1.9,0.3-4.6-1.6-6.9c-1.3-1.7-2.8-2.5-4.9-2.5c-0.7,0-1.4,0.1-2.2,0.2c-0.4,0-0.8,0.1-1.3,0.1l-0.2,0
			c-1.6,0.4-3.8,0.8-6.7,0.8h-0.4c-6.1,0-8-1.7-11-4.3c-0.2-0.2-0.5-0.4-0.7-0.6c-0.3-0.2-0.5-0.5-0.8-0.7l-0.3-0.2
			c-0.5-0.4-1-0.8-1.5-1.2c-4.4-3.4-12.5-9.7-10.2-15.1c3.2-7,1.4-11.4-1.4-18.1l-0.2-0.5c-0.4-1-0.8-2-1.3-3.3
			c-2.8-7-8.7-11.6-12.6-14.7l-1.1-0.9c-0.7-0.6-1.3-1.1-1.7-1.5c-0.4-0.4-0.4-0.7-0.4-0.8c0.2-0.3,2.1-0.9,7,1
			c1.1,0.4,2,0.8,2.9,1.2l1.4,0.6c5.3,2.3,7.3,3.1,13.8,3.1h0.3c3.6,0,5.2,0.6,7.6,1.7c2.5,1.1,5.3,2.3,10.6,3.3
			c12.2,2.4,27.7,0.3,36-2.9c5.6-2.1,7-6.4,8.1-9.8l0-0.1c0.9-2.8,1.6-4.4,3.3-5.1c2.4-0.9,3.1-0.7,4.4-0.3c1.7,0.5,3.8,1.2,8.8,0.7
			c8-0.9,16.3-11,21.3-17c1.1-1.3,2.7-3.2,3.6-4c1.9-1.7,3.1-2.5,3.7-2.9c-0.2,2.1-1.4,7-3.8,11.2
			C211.1,110,208.7,120.6,208.7,124.8z"/>
	</g>
</g>
</svg>
