<?xml version="1.0" encoding="utf-8"?>
<!-- Generator: Adobe Illustrator 25.2.0, SVG Export Plug-In . SVG Version: 6.00 Build 0)  -->
<svg version="1.1" id="レイヤー_1" xmlns="http://www.w3.org/2000/svg" xmlns:xlink="http://www.w3.org/1999/xlink" x="0px"
	 y="0px" viewBox="0 0 982.7 509.1" style="enable-background:new 0 0 982.7 509.1;" xml:space="preserve">
<style type="text/css">
	.st0{fill:none;}
</style>
<rect class="st0" width="982.7" height="509.1"/>
<g>
	<g>
		<path d="M890.9,386.9H474.9v-59.3h416.1V386.9z M478.2,383.6h409.3V331H478.2V383.6z"/>
		<g>
			<path d="M475.8,191.5l10.8-61h15.4l8.4,35h0.5l20.8-35h16.4l-10.8,61h-13.1l6.8-38.7h-0.7l-18.5,30.9h-8.1l-7.2-30.9h-0.8
				l-6.7,38.7H475.8z"/>
			<path d="M555.8,161.9c2.2-11.7,11.4-19,23.6-19c13.5,0,22.3,7.9,22.3,20.5c0,2.3-0.1,4.1-0.4,5.8l-0.8,4.2
				c-2.4,11.8-11.1,19.1-23.8,19.1c-13.2,0-22.1-7.7-22.1-20.2c0-2.3,0.1-4.3,0.4-6.1L555.8,161.9z M569.5,168.6
				c-0.2,1.3-0.4,2.6-0.4,4.1c0,5.4,2.9,8.9,7.8,8.9c4.8,0,8-3.8,9.2-10.5l0.8-4.8c0.2-1.4,0.3-3.2,0.3-4c0-5.2-2.9-8.6-7.7-8.6
				c-4.7,0-8,3.4-9.2,10.3L569.5,168.6z"/>
			<path d="M651.7,191.5h-13.8l1.3-7.3h-0.8c-2,4.2-6.4,8-13.6,8c-8.6,0-14.5-5.3-14.5-14.3c0-3.1,0.4-5.8,0.8-8.2l4.7-26h14.3
				l-4.5,25.7c-0.2,1.5-0.4,3.4-0.4,4.8c0,4.5,2.9,6.8,6.6,6.8c5.3,0,8.3-3.8,9.4-10.5l4.7-26.8h14.3L651.7,191.5z"/>
			<path d="M673,143.8h14l-1.3,7.2h0.8c2.1-4.3,6.4-8,13.5-8c9.2,0,14.3,6.1,14.3,14.4c0,3.1-0.6,6.5-1,8.9l-4.4,25.1h-14.3
				l4.5-25.8c0.2-1.3,0.4-3.4,0.4-4.6c0-4.4-2.6-7-6.3-7c-5.3,0-8.4,3.9-9.5,10.6l-4.7,26.9h-14.3L673,143.8z"/>
			<path d="M735,132.7h13.7l-2.1,11.8h9.8l-1.9,10.7H745l-3.3,18.6c-0.4,1.9-0.4,2.6-0.4,3.2c0,3.2,1.8,4.4,5.5,4.4
				c1.7,0,3.4-0.2,4.2-0.4l-1.8,10.1c-1.3,0.3-4.1,0.7-7.4,0.7c-10,0-15.2-3.2-15.2-10.3c0-1.1,0.2-2.6,0.4-4.2l3.9-22.1h-6.8
				l1.9-10.7h6.8L735,132.7z"/>
			<path d="M759.5,178.7c0-0.2,0-0.5,0-0.8c0.3-9.7,8.3-14.5,19.6-14.5H790l0.6-3.3c0-0.4,0.1-0.9,0.1-1.4c0-2.9-2.1-5.4-6.4-5.4
				c-3.6,0-5.8,1.7-6.4,4.2h-13.4c1-7.3,7.4-14.4,20.7-14.4c11.8,0,19.3,5.6,19.3,15.9c0,1.3-0.2,3-0.5,4.6l-5,28h-13.3l1.1-6.1
				h-0.7c-1.7,3.3-5.7,6.8-12.4,6.8C765.8,192.2,759.5,187.3,759.5,178.7z M779.7,182.3c3.8,0,7.4-2.5,8-6.2l0.9-5h-7.6
				c-4.8,0-7.3,2.5-7.3,5.7C773.7,180.1,776.1,182.3,779.7,182.3z"/>
			<path d="M820.4,143.8h14.3l-8.4,47.7h-14.3L820.4,143.8z M829.9,123c5.3,0,8.3,2.9,8.3,6.9c0,4.4-3.6,7.3-8.9,7.3
				c-5.1,0-8.2-2.8-8.2-6.9C821.1,126,824.7,123,829.9,123z"/>
			<path d="M848,143.8h14l-1.3,7.2h0.8c2.1-4.3,6.4-8,13.5-8c9.2,0,14.3,6.1,14.3,14.4c0,3.1-0.6,6.5-1,8.9l-4.4,25.1h-14.3
				l4.5-25.8c0.2-1.3,0.4-3.4,0.4-4.6c0-4.4-2.6-7-6.3-7c-5.3,0-8.4,3.9-9.5,10.6l-4.7,26.9h-14.3L848,143.8z"/>
			<path d="M507.8,237.2c17.4,0,24.7,10.5,24.7,19.6c0,0.3,0,1.5-0.1,1.8h-14.2c0-0.3,0-0.8,0-1.3c-0.1-3.1-2.7-8.3-10.4-8.3
				c-7,0-11.7,5.1-13.4,14.3l-1.3,6.8c-0.3,1.6-0.5,4-0.5,5.6c0,8.1,4.8,12.6,11.4,12.6c6.3,0,10.9-3.4,11.8-7.9l0.8-4.2h-11
				l1.7-9.6h24.7l-2.3,13.3c-2.2,12.2-11.5,20.3-26.4,20.3c-14,0-25.4-7.5-25.4-24.3c0-2.1,0.3-5.1,0.7-6.9l1.4-8
				C482.5,246.6,492,237.2,507.8,237.2z"/>
			<path d="M583.1,299.3h-13.8l1.3-7.3h-0.8c-2,4.2-6.4,8-13.6,8c-8.6,0-14.5-5.3-14.5-14.3c0-3.1,0.4-5.8,0.8-8.2l4.7-26h14.3
				l-4.5,25.7c-0.2,1.5-0.5,3.4-0.5,4.8c0,4.5,2.9,6.8,6.6,6.8c5.3,0,8.3-3.8,9.4-10.5l4.7-26.8h14.3L583.1,299.3z"/>
			<path d="M604.9,251.5h14.3l-8.4,47.7h-14.3L604.9,251.5z M614.4,230.8c5.3,0,8.3,2.9,8.3,6.9c0,4.4-3.6,7.3-8.9,7.3
				c-5.1,0-8.2-2.8-8.2-6.9C605.6,233.7,609.2,230.8,614.4,230.8z"/>
			<path d="M659.7,260.9h0.6l4.6-25.8h14.4L668,299.3h-14.3l1.4-7.6h-0.8c-1.7,4.4-6.4,8.1-13.3,8.1c-9.5,0-15.7-6.6-15.7-17.7
				c0-2.1,0.2-4.6,0.6-6.6l0.9-4.7c2.3-12.2,9.1-19.8,19.6-19.8C653.7,251,658.9,255.7,659.7,260.9z M650.7,262.2
				c-5,0-8.3,4-9.4,10.1l-0.8,4c-0.1,0.8-0.3,2.3-0.3,3.6c0,5.5,2.9,8.8,7.6,8.8c5,0,8.3-4,9.5-10.5l0.7-4c0.1-0.8,0.3-2.4,0.3-3.4
				C658.3,265.2,654.7,262.2,650.7,262.2z"/>
			<path d="M682.4,280.9c0-2.2,0.3-4.4,0.6-6.4l0.7-4.2c2.3-13.3,12.1-19.6,23.4-19.6c12.6,0,20.6,8.4,20.1,20.7
				c0,0.6-0.4,4.1-1.1,7h-29.6c-0.2,1-0.4,2.5-0.4,3.6c0,4.2,2.4,7.8,8,7.8c4,0,6.9-1.8,7.6-4.8h13.3c-1,8.1-9.1,15.3-21.8,15.3
				C691.6,300.2,682.4,294,682.4,280.9z M713.8,269.1c0.5-4.5-1.8-8.1-6.9-8.1c-4.2,0-7.4,2.6-8.6,7.7l-0.4,1.8h15.7
				C713.8,270.1,713.8,269.5,713.8,269.1z"/>
		</g>
		<rect x="475.2" y="212.4" width="411.3" height="8.6"/>
		<g>
			<path d="M505.6,359.4c0,0.1,0,0.1,0,0.2c0,1.3,1.4,1.9,2.7,1.9c0.9,0,2.4-0.3,2.4-1.4c0-0.9-1-1.2-2.3-1.6l-2.2-0.7
				c-2.4-0.7-4.4-2.1-4.4-5.3c0-4.4,3.7-6.7,8.2-6.7c4.9,0,7.8,2.7,7.8,5.8c0,0.3,0,0.4-0.1,0.6h-5.3c0-0.1,0-0.1,0-0.2
				c0-1.3-1.3-1.8-2.4-1.8c-1.3,0-2.1,0.7-2.1,1.5c0,0.8,0.8,1.3,2.2,1.7l2.3,0.7c2.1,0.6,4.4,1.9,4.4,5.1c0,4.4-3.9,6.7-8.7,6.7
				c-3.7,0-8.1-1.5-8.1-5.9c0-0.3,0-0.4,0.1-0.6H505.6z"/>
			<path d="M525.1,365.6l3.4-19.4h6l-1.3,7.3h5.6l1.3-7.3h6l-3.4,19.4h-6l1.3-7.4h-5.6l-1.3,7.4H525.1z"/>
			<path d="M554.1,353.6c0.9-4.9,4.2-7.8,9.4-7.8c4.9,0,8.3,2.8,8.3,7.5c0,0.7,0,1.4-0.1,2.1l-0.5,2.6c-0.9,4.9-4.2,7.8-9.4,7.8
				c-4.9,0-8.3-2.8-8.3-7.5c0-0.7,0-1.4,0.1-2.1L554.1,353.6z M559.6,356.4c-0.1,0.6-0.1,1.2-0.1,1.6c0,1.7,0.8,3.1,2.6,3.1
				c1.5,0,2.7-1.2,3.2-4.1l0.3-1.8c0.1-0.6,0.1-1.2,0.1-1.6c0-1.7-0.8-3.1-2.6-3.1c-1.5,0-2.7,1.2-3.2,4.1L559.6,356.4z"/>
			<path d="M594.6,359.3c-0.8,4.4-3.9,6.6-8,6.6c-4.1,0-7.5-2.2-7.5-6.4c0-0.6,0.1-1.1,0.2-1.4l5.6,0c0,0.3-0.1,0.5-0.1,0.7
				c0,1.1,0.5,2,1.8,2c1.4,0,1.9-1.1,2.1-2.2l2.1-12.3h6L594.6,359.3z"/>
			<path d="M603.4,365.6l3.4-19.4h6l-3.4,19.4H603.4z"/>
			<path d="M632,365.6l3.4-19.4h6.4l2,9.1h0.2l5.3-9.1h6.7l-3.4,19.4h-5.3l2-11h-0.3l-4.7,8.1h-3.2l-1.7-8.1h-0.3l-1.9,11H632z"/>
			<path d="M670.4,346.2h7.6l2.5,19.4H674l-0.2-3.7h-5.1l-1.5,3.7h-6L670.4,346.2z M673,351.1l-2.7,6.6h3.2l-0.3-6.6H673z"/>
			<path d="M692.1,365.6l2.6-14.6H690l0.9-4.8h15.4l-0.9,4.8h-4.7l-2.6,14.6H692.1z"/>
			<path d="M717.1,359.4c0,0.1,0,0.1,0,0.2c0,1.3,1.4,1.9,2.7,1.9c0.9,0,2.4-0.3,2.4-1.4c0-0.9-1-1.2-2.3-1.6l-2.2-0.7
				c-2.4-0.7-4.4-2.1-4.4-5.3c0-4.4,3.7-6.7,8.2-6.7c4.9,0,7.8,2.7,7.8,5.8c0,0.3,0,0.4-0.1,0.6h-5.3c0-0.1,0-0.1,0-0.2
				c0-1.3-1.3-1.8-2.4-1.8c-1.3,0-2.1,0.7-2.1,1.5c0,0.8,0.8,1.3,2.2,1.7l2.3,0.7c2.1,0.6,4.4,1.9,4.4,5.1c0,4.4-3.9,6.7-8.7,6.7
				c-3.7,0-8.1-1.5-8.1-5.9c0-0.3,0-0.4,0.1-0.6H717.1z"/>
			<path d="M743.6,357.6c-0.1,0.3-0.1,0.6-0.1,0.9c0,1.4,1,2.3,2.5,2.3c1.3,0,2.2-0.7,2.6-2.7l2.1-12h6l-2.4,13.6
				c-0.7,3.8-4.1,6.1-8.8,6.1c-4.2,0-8.2-2-8.2-6.5c0-0.4,0-0.9,0.1-1.4l2.1-11.8h6L743.6,357.6z"/>
			<path d="M763.3,365.6l3.4-19.4h6.4l2,9.1h0.2l5.3-9.1h6.7l-3.4,19.4h-5.3l2-11h-0.3l-4.7,8.1h-3.2l-1.7-8.1h-0.3l-1.9,11H763.3z"
				/>
			<path d="M795.4,353.6c0.9-4.9,4.2-7.8,9.4-7.8c4.9,0,8.3,2.8,8.3,7.5c0,0.7,0,1.4-0.1,2.1l-0.5,2.6c-0.9,4.9-4.2,7.8-9.4,7.8
				c-4.9,0-8.3-2.8-8.3-7.5c0-0.7,0-1.4,0.1-2.1L795.4,353.6z M801,356.4c-0.1,0.6-0.1,1.2-0.1,1.6c0,1.7,0.8,3.1,2.6,3.1
				c1.5,0,2.7-1.2,3.2-4.1l0.3-1.8c0.1-0.6,0.1-1.2,0.1-1.6c0-1.7-0.8-3.1-2.6-3.1c-1.5,0-2.7,1.2-3.2,4.1L801,356.4z"/>
			<path d="M823.7,365.6l2.6-14.6h-4.8l0.9-4.8h15.4L837,351h-4.7l-2.6,14.6H823.7z"/>
			<path d="M844.3,353.6c0.9-4.9,4.2-7.8,9.4-7.8c4.9,0,8.3,2.8,8.3,7.5c0,0.7,0,1.4-0.1,2.1l-0.5,2.6c-0.9,4.9-4.2,7.8-9.4,7.8
				c-4.9,0-8.3-2.8-8.3-7.5c0-0.7,0-1.4,0.1-2.1L844.3,353.6z M849.9,356.4c-0.1,0.6-0.1,1.2-0.1,1.6c0,1.7,0.8,3.1,2.6,3.1
				c1.5,0,2.7-1.2,3.2-4.1l0.3-1.8c0.1-0.6,0.1-1.2,0.1-1.6c0-1.7-0.8-3.1-2.6-3.1c-1.5,0-2.7,1.2-3.2,4.1L849.9,356.4z"/>
		</g>
	</g>
	<g>
		<path d="M230.8,265c-0.7,0-1.4-0.2-2.1-0.5c-1.5-0.8-3.5-3.2-4.2-9.4c-0.5-4.7,0-7.1,0.3-9.1c0.4-1.9,0.6-3.2-0.3-5.7
			c-1-2.6-3.5-4.6-6-6.5c-2.2-1.7-4.4-3.4-5.6-5.6c-2.2-4.3,1.2-7.6,2.9-9.2c0.2-0.2,0.4-0.3,0.5-0.5l0,0c0.9-1,3.2-2.2,5.2-1.6
			c1.9,0.6,3.1,2.7,3.7,6.2c0.2,4,0.8,6.4,2,7.4c1,0.8,2.2,0.6,3.5,0.3c0.2,0,0.4-0.1,0.7-0.1c0.9-0.1,1.8-0.4,2.7-0.8
			c2.2-0.8,4.5-1.6,6.3-0.1c1.4,1.1,0.7,3.1-0.1,5.4c-0.6,1.8-1.3,3.8-1.2,5.8c0.1,2.1,1.4,4.1,2.6,6c1.1,1.7,2.1,3.4,2.2,4.9
			c0.5,7-8,11.2-10.8,12.6C232.3,264.8,231.5,265,230.8,265z M220.4,217.5c-1.4,0-2.9,1-3.4,1.5l0,0c-0.1,0.1-0.3,0.3-0.5,0.5
			c-1.6,1.6-4.7,4.4-2.7,8.2c1,2,3.1,3.6,5.3,5.4c2.6,2,5.2,4,6.3,6.9c1,2.7,0.7,4.1,0.4,6.1c-0.4,1.9-0.8,4.3-0.3,8.9
			c0.6,5.9,2.4,8,3.8,8.8c1.1,0.6,2.3,0.6,3.6-0.1c2.7-1.3,10.9-5.4,10.4-11.8c-0.1-1.4-1.1-2.9-2.1-4.5c-1.3-2-2.6-4.1-2.7-6.4
			c-0.1-2.1,0.6-4.2,1.3-6.1c0.8-2.3,1.3-3.8,0.4-4.5c-1.4-1.1-3.4-0.4-5.5,0.3c-0.9,0.3-1.9,0.7-2.8,0.8c-0.2,0-0.4,0.1-0.6,0.1
			c-1.4,0.2-2.9,0.5-4.2-0.5c-1.4-1.1-2.2-3.7-2.3-7.9c-0.5-3.1-1.5-5-3.1-5.4C221,217.5,220.7,217.5,220.4,217.5z"/>
		<path d="M221.1,280.3c-2.6,0-3.5-1-3.9-1.7c-0.8-1.6,0.1-4,2.4-6.4c3.4-3.4,3.3-4.5,3.1-6.7c0-0.3-0.1-0.7-0.1-1.1
			c-0.1-1.3-0.5-2.6-1-4c-0.7-1.8-1.4-3.8-1.7-6.8c-0.1-1.6,0.1-3.1,0.4-4.6c0.6-3.6,1.1-6.7-3.7-9.9c-7.2-4.8-7.3-5.5-7.9-10.8
			c-0.4-3.5-1.9-5.8-3.4-8.2c-0.7-1.2-1.5-2.4-2.1-3.7c-0.8-1.6-0.9-2.7-0.5-3.4c0.7-1.1,2.5-1.2,5.6-1.3l1.1-0.1
			c3-0.2,4-0.9,5.3-1.8c1-0.7,2.2-1.5,4.5-2.2c1.9-0.6,3.3-0.5,4.3,0.1c1.8,1.1,2.5,3.9,3.5,8.2l0.1,0.5c1.6,6.9,2.2,8.3,3.7,9
			c1.1,0.5,3.7-0.7,6.4-1.8c4.6-2,9.8-4.3,12.4-1.2c2.5,3,1.7,4.8,0.3,7.7c-0.9,1.9-2.1,4.5-2.9,8.5c-1.3,6.7,0.6,8.4,3.1,10.7
			c1.2,1,2.5,2.2,3.6,4c3.1,5.1,0.1,9.1-2.7,13.1c-0.4,0.6-0.9,1.2-1.3,1.8c-2.9,4.3-8.1,8.8-12.9,9.3c-2.3,0.3-3.9,0.6-5.9,1.1
			c-1.8,0.4-4,1-7.4,1.6C222.5,280.3,221.8,280.3,221.1,280.3z M221.5,208c-0.6,0-1.3,0.1-2.1,0.4c-2.2,0.6-3.3,1.4-4.3,2.1
			c-1.3,0.9-2.5,1.8-5.7,1.9l-1.1,0.1c-2.6,0.1-4.5,0.2-4.9,0.9c-0.3,0.4-0.1,1.3,0.5,2.6c0.6,1.3,1.4,2.5,2.1,3.6
			c1.5,2.4,3.1,4.9,3.5,8.5c0.6,5.1,0.7,5.6,7.5,10.2c5.2,3.5,4.6,7.2,4,10.7c-0.2,1.4-0.5,2.9-0.3,4.4c0.2,2.9,1,4.8,1.6,6.6
			c0.5,1.5,1,2.7,1.1,4.2c0,0.4,0,0.8,0.1,1.1c0.2,2.4,0.3,3.7-3.4,7.4c-2,2-2.9,4.1-2.2,5.4c0.6,1.2,2.5,1.5,5.3,1.1
			c3.4-0.6,5.5-1.1,7.4-1.6c2-0.5,3.6-0.9,6-1.1c4.5-0.5,9.4-4.9,12.3-9c0.4-0.6,0.9-1.2,1.3-1.9c2.8-3.9,5.5-7.5,2.7-12.1
			c-1.1-1.7-2.3-2.8-3.4-3.9c-2.6-2.3-4.8-4.3-3.3-11.4c0.8-4.1,2-6.7,2.9-8.7c1.3-2.9,2-4.2-0.2-6.9c-2.1-2.6-7.1-0.5-11.4,1.4
			c-3,1.3-5.6,2.5-7,1.9l0,0c-1.9-0.8-2.6-2.7-4.2-9.5l-0.1-0.5c-0.9-4.1-1.5-6.8-3.1-7.7C222.6,208.1,222.1,208,221.5,208z"/>
		<path d="M219.5,289.3c-1.9,0-3.5-0.4-4.7-1.1c-1.6-0.9-2.5-2.3-2.9-4.2c-0.8-4.2,0.5-6.4,2.5-9.9c0.8-1.4,1.7-3,2.7-5
			c1.7-2.3,1-4.4,0.1-7.1c-0.6-1.7-1.2-3.7-1.3-6c-0.1-1.6,0.2-3.4,0.5-5c0.4-2.4,0.8-4.7,0.1-6.6c-0.9-2.4-2.9-3.5-4.7-4.5
			c-0.8-0.4-1.5-0.9-2.2-1.4c-6.9-5.2-6.9-8.6-7-14.2l0-0.9c-0.1-6.1-5.8-10.4-11.3-10.9c-3.9-0.4-6.7-1.9-6.8-3.5
			c-0.1-0.8,0.4-1.9,3.1-2.7c3.2-0.9,6.6-0.4,10.1,0.2c2.8,0.5,5.6,0.9,8.8,0.8c4.1-0.1,8.2-2.2,12.1-4.1c3-1.5,5.7-2.9,8.5-3.5
			c2.3-0.5,3.9-0.4,4.9,0.4c1.4,1.1,1.5,3.2,1.6,5.5c0,0.5,0,0.9,0.1,1.4c0.1,1.7-0.6,3.5-1.2,5.3c-1,2.9-2,5.6-0.1,7.6
			c3.1,1.9,7.4-0.4,10.8-2.3l0.5-0.3c0.6-0.3,1.3-0.8,2-1.2c3.5-2.2,7.9-5,11.3-1.4c3.9,4.1,2.7,7.3-1.1,17.8l-0.5,1.5
			c-2.8,7.9,0.1,12.7,2.9,17.3c1.2,2,2.4,3.9,3,6c2.1,7.4,3.6,13.4,3.6,18.8c0,2.1-0.4,3.5-1.5,4.5c-2.1,2.1-7.1,2.3-15.5,2.1
			c-9.7-0.3-12.8,1.2-16.3,2.9c-1.3,0.7-2.7,1.3-4.5,2C224.3,288.8,221.7,289.3,219.5,289.3z M191.1,206.7c-1.2,0-2.4,0.1-3.5,0.5
			c-1.7,0.5-2.6,1.1-2.5,1.8c0.1,1,2.4,2.4,6.1,2.8c5.9,0.6,12,5.2,12.1,11.8l0,0.9c0.1,5.6,0.1,8.6,6.7,13.6
			c0.7,0.5,1.4,0.9,2.2,1.3c2,1.1,4,2.3,5.1,4.9c0.8,2.1,0.4,4.5,0,7c-0.3,1.6-0.6,3.3-0.5,4.9c0.1,2.2,0.7,4.1,1.3,5.8
			c0.9,2.8,1.7,5.2-0.2,7.8c-0.9,2-1.8,3.6-2.7,5c-1.9,3.4-3.1,5.4-2.4,9.3c0.3,1.6,1.1,2.9,2.5,3.6c2.5,1.4,6.7,1.2,11.6-0.5
			c1.8-0.6,3.1-1.3,4.5-2c3.6-1.8,6.7-3.3,16.7-3c8.2,0.3,13,0.1,14.9-1.8c0.8-0.8,1.2-2,1.2-3.9c0-5.3-1.5-11.3-3.6-18.6
			c-0.6-2-1.7-3.9-2.9-5.8c-2.8-4.5-6-9.7-3-18l0.5-1.5c3.8-10.5,4.8-13.3,1.3-17c-3-3.1-6.9-0.7-10.3,1.5c-0.7,0.5-1.4,0.9-2.1,1.2
			l-0.5,0.3c-3.6,2-8.2,4.5-11.7,2.3l-0.1-0.1c-2.3-2.4-1.2-5.5-0.1-8.5c0.6-1.7,1.2-3.5,1.1-5c0-0.5,0-0.9-0.1-1.4
			c-0.1-2.1-0.1-4-1.2-4.8c-0.8-0.6-2.2-0.7-4.2-0.3c-2.7,0.6-5.4,2-8.3,3.4c-4,2-8.2,4.1-12.5,4.2c-3.2,0.1-6.1-0.4-8.9-0.9
			C195.2,207,193.1,206.7,191.1,206.7z"/>
		<path d="M212.2,294.4c-3.5,0-6.1-0.6-7.6-1.8c-0.9-0.7-1.4-1.7-1.4-2.8c-0.1-4.8,2-12.5,6.5-18c4.1-4.8,4.2-8.9,4.3-11.5
			c0-0.4,0-0.7,0-1c0.1-1.3-0.1-2.2-0.3-3.4c-0.2-1.2-0.5-2.6-0.7-5.1c-0.2-4.1-2.9-5.9-5.2-7.6c-0.3-0.2-0.6-0.4-0.8-0.6
			c-1.1-0.8-2.1-1.9-3.2-3c-1.3-1.4-2.7-2.8-4.2-3.8c-3.3-2-2.5-6.2-1.3-10.6c0.9-3.3-1.6-6.4-7.5-9.7c-1.5-0.8-4.7-1.7-7.8-2.5
			c-3-0.8-5.9-1.6-6.9-2.3c-1.3-0.8-4.6-3.6-4.8-6.4c-0.1-1.1,0.4-2.1,1.3-2.9c3.7-3,17.7-1.7,23.4,0.1c5.7,1.8,7.9,1.4,15.3-0.5
			c4.3-1.1,14.7-4.6,19.4-7.9c2.8-2,6.4-2.2,8.5-0.4c1.7,1.5,2,3.8,0.7,6.5l-0.7,1.7c-3.2,7.8-6,14.6-4.3,16
			c2.3,1.8,12.6-5.1,20.1-10.4c3.1-2.4,5.6-3,7.3-1.8c4.1,3,1.9,15.7-0.5,22c-2.8,7.5,0.1,16,3,24.2c0.6,1.7,1.2,3.4,1.7,5.1
			c1.2,3.8,1.6,6.5,1.9,9c0.6,4,1,7.4,4.6,14.4c2.9,5.7,3.6,9.2,2.1,11c-2.2,2.5-8.2,0.3-13-1.5c-1.4-0.5-2.6-1-3.5-1.2
			c-5.8-1.6-10-1-16.3,0.1c-3,0.5-6.3,1.5-9.7,2.5c-4,1.2-8.2,2.4-12.7,3.2C217.2,294.1,214.5,294.4,212.2,294.4z M181.8,200.6
			c-3.9,0-7.2,0.5-8.6,1.6c-0.8,0.6-1.1,1.3-1,2.2c0.1,2.2,2.8,4.6,4.4,5.7c1,0.6,3.9,1.4,6.7,2.2c3.1,0.9,6.4,1.7,8,2.6
			c2.3,1.3,9.4,5.1,7.9,10.6c-1.3,5-1.6,8.2,0.9,9.7c1.7,1,3.1,2.5,4.4,3.9c1,1.1,2,2.2,3.1,2.9c0.3,0.2,0.5,0.4,0.8,0.6
			c2.3,1.6,5.2,3.7,5.5,8.2c0.1,2.4,0.4,3.8,0.6,5c0.2,1.2,0.4,2.2,0.3,3.6c0,0.3,0,0.6,0,1c-0.1,2.8-0.2,7-4.5,12
			c-4.4,5.3-6.4,12.8-6.3,17.4c0,0.9,0.4,1.6,1.1,2.2c2.2,1.8,7.7,2.1,14.8,0.8c4.5-0.8,8.6-2,12.6-3.2c3.5-1,6.8-2,9.8-2.5
			c6.4-1.1,10.7-1.7,16.6-0.1c1,0.3,2.2,0.7,3.6,1.2c4.3,1.6,10.3,3.8,12.1,1.7c1.2-1.4,0.5-4.8-2.2-10c-3.7-7.1-4.2-10.8-4.7-14.6
			c-0.3-2.5-0.7-5.1-1.9-8.9c-0.5-1.7-1.1-3.4-1.7-5.1c-2.9-8.4-5.9-17-3-24.8c2.5-6.7,4.1-18.6,0.7-21.1c-1.4-1-3.5-0.4-6.3,1.8
			c-12.9,9.1-19,12.1-21.1,10.4c-2.2-1.8,0.3-7.8,4.1-16.9l0.7-1.7c1.1-2.3,0.9-4.3-0.5-5.5c-1.6-1.3-4.6-1.6-7.5,0.4
			c-5.3,3.7-16.3,7.2-19.7,8.1l0,0c-7.4,1.9-9.9,2.3-15.7,0.4C192.3,201.3,186.7,200.6,181.8,200.6z"/>
		<path d="M284.4,301.2c-6.5,0-14.9-3.6-21.2-6.3c-1.6-0.7-3-1.3-4.3-1.8c-6.6-2.6-13.5,0.3-19,2.5c-1.8,0.7-3.3,1.4-4.7,1.7
			c-4.9,1.4-19.5,1.3-29.1,1.3l-3.3,0c-2,0-3.5-0.6-4.4-1.8c-2.1-2.7-0.9-7.6-0.1-11.2c0.3-1.2,0.5-2.2,0.6-2.9c0.2-2,3-5.5,5.9-9.2
			c2.5-3.1,5.1-6.3,6.2-8.7c2.5-5.6-0.2-13.8-0.8-15.4c-0.5-1.5-2.1-2.7-4-4.2c-1.6-1.3-3.5-2.7-5-4.6c-1.3-1.7-2.5-2.8-3.6-3.7
			c-1.5-1.4-2.7-2.4-2.9-4.2c-0.3-2.3-1.6-5.8-2.9-9.2l-0.6-1.5c-1.1-3-13.2-7.5-19.7-10c-1.5-0.6-2.8-1-3.8-1.4
			c-6.1-2.4-8.2-8.8-7-12.2l0,0c1.5-4.2,7.1-3.5,16.3-2.3c2.4,0.3,5.2,0.7,8.2,1c11.7,1.2,17.3,0.2,24.4-1c1.2-0.2,2.4-0.4,3.8-0.6
			c4.2-0.6,9.5-4.2,14.7-7.7c6-4,11.7-7.9,15-6.4c5.9,2.7-0.2,17.7-3.8,26.7l-0.2,0.5c-1.5,3.8-1.1,4.2-1,4.2
			c0.4,0.3,2.6-1.3,3.6-2.1c0.4-0.3,0.8-0.6,1.2-0.9c0.8-0.6,2.1-1.7,3.8-3.1c5.1-4.2,13.7-11.2,20.2-13.9c3.8-1.6,6.4-1.7,7.9-0.4
			c1.7,1.4,1.9,4.5,0.7,9.3c-0.4,1.7-1.1,3.6-1.8,5.8c-2.5,7.6-5.8,17.9-5.2,32.2c0.7,18.2,5.7,33.7,10.1,38.3
			c1.2,1.2,3.2,2.5,5.3,3.8c5.7,3.6,12.8,8.1,8.7,15C290.8,300.1,287.9,301.2,284.4,301.2z M253.3,291.3c2,0,3.9,0.3,5.9,1.1
			c1.3,0.5,2.7,1.1,4.3,1.8c9.5,4,23.8,10.1,28.3,2.7c3.7-6.1-2.7-10.2-8.4-13.8c-2.2-1.4-4.2-2.7-5.5-4
			c-4.5-4.7-9.5-20.5-10.3-38.8c-0.6-14.4,2.8-24.9,5.3-32.5c0.7-2.2,1.3-4.1,1.7-5.8c1.1-4.4,1-7.3-0.4-8.5
			c-1.2-1.1-3.6-0.9-7.1,0.5c-6.4,2.6-14.9,9.6-20,13.8c-1.7,1.4-3.1,2.5-3.9,3.1c-0.4,0.3-0.8,0.6-1.2,0.9
			c-2.3,1.7-3.8,2.7-4.6,2.1c-0.7-0.6-0.5-2.1,0.8-5.2l0.2-0.5c3.1-7.6,9.4-23.3,4.3-25.6c-2.8-1.3-8.3,2.4-14.2,6.3
			c-5.2,3.5-10.6,7.1-15,7.8c-1.3,0.2-2.6,0.4-3.7,0.6c-7.2,1.2-12.8,2.1-24.6,1c-3-0.3-5.8-0.7-8.2-1c-8.8-1.1-14.1-1.8-15.4,1.8
			l0,0c-1.1,3,0.9,8.9,6.5,11.1c1,0.4,2.3,0.9,3.7,1.4c9.6,3.6,19,7.4,20.2,10.5l0.6,1.5c1.3,3.4,2.6,7,3,9.4
			c0.2,1.4,1.2,2.3,2.7,3.7c1.1,0.9,2.4,2.1,3.7,3.8c1.4,1.8,3.2,3.2,4.8,4.5c1.9,1.5,3.6,2.8,4.2,4.5c0.6,1.6,3.4,10.1,0.8,16
			c-1.1,2.5-3.7,5.7-6.3,8.9c-2.8,3.4-5.6,7-5.8,8.7c-0.1,0.7-0.3,1.8-0.6,3c-0.8,3.4-1.9,8.1-0.1,10.5c0.8,1,2,1.5,3.8,1.5l3.3,0
			c9,0,24.1,0.1,28.9-1.3c1.3-0.4,2.8-1,4.6-1.7C243.4,293.3,248.3,291.3,253.3,291.3z"/>
		<path d="M291.7,308.7c-0.3,0-0.6,0-0.8,0c-4.5-0.1-12.3-1.5-20.6-3c-10.9-2-22.1-4-26.8-3.3c-8.2,1.3-44.2,3.5-48.1,0.8
			c-4-2.8-3.5-5.2-0.2-17.9c1.9-7.4,5.4-11.9,8.5-15.8c2.2-2.9,4.2-5.4,5.1-8.4c1.9-6.5-2.3-9.7-6-12.5l-0.9-0.7
			c-4.1-3.1-8.8-9.4-10.3-16.3c-1.3-6.4-5.4-8.9-11.1-10.6c-1.9-0.6-3.9-0.8-6-1c-3.7-0.3-7.8-0.7-13.3-3.4
			c-9.4-4.7-10.5-14.5-9.8-19l0,0c0.6-3.5,2-5.9,4.2-7.3c4.8-3,12.4-0.9,19.2,1c0.7,0.2,1.4,0.4,2,0.6c9.3,2.6,22.2,1.6,34.6,0.4
			c9.2-0.9,12.3-5.3,17.1-12c0.9-1.3,1.8-2.6,2.9-4c8.1-10.9,16.1-8.9,19.1-7.6c5.8,2.6-4.6,28.1-6.8,33.2c-1.9,4.6-1.8,5.4-1.7,5.5
			c0,0,0,0,0,0c0.1,0,0.6-0.1,2.4-1.6c3.7-3,20.4-15.5,29.7-19.3c4.2-1.7,6.7-1.9,8.1-0.8c1.8,1.5,1.6,5,0.6,11.1
			c-1.1,6.2-3.1,14.7-5.1,22.8c-1.2,4.9-2.4,10-3.4,14.5c-2.7,12.4,1.4,29.8,4.1,35.9c2.1,4.6,14.1,11.1,35.8,19
			c4.9,1.8,7.8,5.3,7.7,9.2c-0.1,2.8-1.7,5.2-4,5.9C315.6,304.9,302.8,308.7,291.7,308.7z M245.9,301.4c5.6,0,15.2,1.8,24.5,3.5
			c8.3,1.5,16.1,3,20.5,3c11.1,0.2,24.4-3.8,26.9-4.6c1.9-0.6,3.3-2.7,3.4-5.1c0.1-3.6-2.6-6.8-7.2-8.5
			c-22.2-8.2-34.1-14.6-36.3-19.5c-3.3-7.5-6.8-24.8-4.2-36.5c1-4.5,2.2-9.6,3.4-14.5c2-8.2,4-16.6,5.1-22.8
			c0.9-5.4,1.2-9.1-0.3-10.3c-1.1-0.9-3.5-0.6-7.3,0.9c-9.2,3.7-25.8,16.1-29.5,19.1c-1.7,1.4-2.8,2.1-3.5,1.6
			c-0.6-0.5-0.6-1.7,1.4-6.5c6-14.3,10.8-30.5,7.2-32.1c-6.1-2.7-12.7,0-18.2,7.3c-1.1,1.4-2,2.7-2.9,4c-4.8,6.8-8,11.4-17.6,12.3
			c-12.5,1.2-25.4,2.2-34.9-0.4c-0.7-0.2-1.3-0.4-2-0.6c-6.6-1.9-14-4-18.5-1.1c-2.1,1.3-3.3,3.5-3.8,6.8l0,0
			c-0.7,4.3,0.3,13.7,9.3,18.1c5.3,2.7,9.4,3,13,3.4c2.1,0.2,4.1,0.4,6.1,1c5.2,1.6,10.2,4,11.7,11.2c1.4,6.7,6.1,12.9,9.9,15.8
			l0.9,0.6c3.8,2.8,8.4,6.3,6.3,13.4c-0.9,3.2-2.9,5.7-5.2,8.7c-3,3.9-6.5,8.3-8.3,15.5c-3.3,12.6-3.5,14.6-0.2,17
			c3.4,2.4,38.6,0.5,47.5-0.9C244,301.4,244.9,301.4,245.9,301.4z"/>
		<path d="M298.6,314.6c-4.8,0-10.6-1-16.4-2c-4.6-0.8-8.9-1.5-12.3-1.7c-4.6-0.2-7.5-0.6-9.6-0.9c-4.1-0.6-5.8-0.8-12.7,1.3
			c-4.5,1.4-13.4,0.5-22.9-0.5c-5.1-0.5-10.4-1.1-14.8-1.2c-2.8-0.1-5.3-0.1-7.5,0c-7.6,0.1-11.7,0.1-13.1-3.4
			c-1.6-4.3,1.6-19.4,5.2-31.6c2.2-7.5,6-10,8.6-11.7c1.7-1.1,2.7-1.9,2.8-3.3c0-3.8-4.4-6.1-8.3-8.1l-0.5-0.3
			c-4.5-2.3-7.1-6.5-7.4-12.3c-0.4-5.7-2.8-9.2-6.7-12.9c-2.2-2.2-4.9-1.1-8,0.1c-1.9,0.7-3.8,1.5-5.9,1.6
			c-5.7,0.4-16.7-6.1-20.3-10.2l0,0c-2.2-2.5-2.2-6.9-2.2-13.4l0-1.5c0-3.5-0.9-5.3-2.1-7.5c-1.2-2.4-2.6-5.1-3.2-10.5
			c-0.2-2.3,0.3-4,1.7-4.9c3.6-2.5,12.3-0.4,26.6,6.5c10.4,5,16.1,4,29.9,1.6c2.5-0.4,5.3-0.9,8.4-1.4c12-2,15.9-9.4,19-15.4
			c2.1-4.1,3.8-7.3,7.5-7.4c5.7,0,8.9-0.9,11.5-1.7c2.9-0.8,5-1.4,8.5-0.2c0.9,0.3,1.5,0.9,1.9,1.8c2.5,5.3-3.1,20-6.4,28.7
			c-0.4,0.9-0.7,1.8-1,2.6c-1.5,4.1-1.1,4.6-1,4.6c0.3,0.3,2.1-1,3.1-1.7c0.6-0.4,1.2-0.9,1.9-1.3c0.7-0.4,2.1-1.4,3.9-2.6
			c7.2-4.9,20.6-13.9,27.8-16.9c2.9-1.2,5-1.3,6.3-0.3c2.1,1.7,1.4,5.9,0.9,8.9l-0.1,0.6c-0.3,1.9-2.1,6.7-4.1,12.3
			c-2.5,7-5.4,15-6.3,19.5c-1.2,5.9-1.4,8.3-2.1,14.2c-0.3,2.2-0.6,5-1,8.6c-1.5,12.8,0.1,24.3,4.3,29.4c4,4.9,18.4,8.6,30,9.4
			c3.3,0.2,7.2,2.3,11.2,4.6c3.2,1.7,6.4,3.6,9.8,4.7c2.2,0.7,4.5,1.1,6.6,1.4c4.5,0.7,8.5,1.3,8.7,5.7c0.3,6.4-8.2,14.7-17.1,16.8
			c-4,0.9-8,0.6-12.2,0.2c-4.8-0.4-9.8-0.8-14.9,0.9C302.9,314.4,300.9,314.6,298.6,314.6z M256.1,308.7c1.4,0,2.7,0.2,4.3,0.4
			c2.2,0.3,5,0.7,9.5,0.9c3.5,0.2,7.8,0.9,12.4,1.7c8.3,1.4,16.9,2.9,21.9,1.3c5.2-1.8,10.3-1.3,15.3-0.9c4.1,0.4,8,0.7,11.9-0.2
			c8.6-2,16.7-9.9,16.5-15.9c-0.2-3.8-3.4-4.2-8-4.9c-2.1-0.3-4.4-0.7-6.7-1.4c-3.4-1.1-6.7-3-9.9-4.7c-4-2.2-7.7-4.3-10.9-4.5
			c-11.7-0.8-26.4-4.7-30.5-9.7c-4.4-5.3-6.1-16.8-4.5-30c0.4-3.6,0.7-6.4,1-8.6c0.7-5.9,1-8.4,2.1-14.3c0.9-4.6,3.8-12.6,6.3-19.7
			c2-5.5,3.7-10.3,4-12.2l0.1-0.6c0.5-2.7,1.2-6.7-0.6-8.1c-1-0.8-2.9-0.7-5.5,0.4c-7.1,2.9-20.5,11.9-27.6,16.8
			c-1.8,1.2-3.2,2.1-3.9,2.6c-0.6,0.4-1.2,0.8-1.8,1.2c-1.8,1.3-3.2,2.3-4.1,1.7c-0.5-0.4-0.8-1.4,0.7-5.6c0.3-0.8,0.6-1.6,1-2.6
			c3.1-8.1,8.7-23.2,6.4-28.1c-0.3-0.7-0.8-1.2-1.5-1.4c-3.2-1.1-5.1-0.6-8,0.2c-2.7,0.8-6,1.7-11.7,1.7c-3.1,0-4.7,3.1-6.7,6.9
			c-3,5.8-7.2,13.8-19.6,15.9c-3.1,0.5-5.9,1-8.4,1.4c-14,2.5-19.8,3.5-30.4-1.6c-13.9-6.7-22.5-8.9-25.8-6.6
			c-1.1,0.8-1.6,2.2-1.4,4.2c0.5,5.2,1.9,7.9,3.1,10.2c1.2,2.3,2.2,4.2,2.1,7.9l0,1.5c0,6.4,0,10.6,2,12.9l0,0
			c3.5,4,14.1,10.2,19.6,9.9c1.9-0.1,3.8-0.9,5.6-1.6c3.2-1.3,6.3-2.4,8.9,0.1c3.9,3.7,6.5,7.5,6.9,13.5c0.4,5.5,2.7,9.4,7,11.6
			l0.5,0.3c4.1,2.1,8.8,4.5,8.7,8.9c0,1.9-1.4,2.8-3.1,4c-2.6,1.7-6.1,4.1-8.2,11.3c-3.7,12.5-6.7,27.2-5.2,31.1
			c1.1,2.9,5.1,2.9,12.3,2.9c2.2,0,4.7,0,7.5,0c4.4,0.1,9.7,0.6,14.9,1.2c8.9,0.9,18.2,1.8,22.6,0.5
			C251.6,309.1,254,308.7,256.1,308.7z"/>
		<path d="M176.7,324.4c-2.5,0-4.3-0.6-5.3-1.9c-1.5-1.8-1.4-4.7,0.3-8.8c0.9-2.4,4.5-5.3,8-8.2c3-2.5,6.1-5,6.7-6.7
			c0.4-1.3,0.8-4.5,1.3-8.2c0.8-6.5,1.9-14.6,3.8-19.1c1.5-3.6,3.7-5.2,5.7-6.7c2-1.5,3.7-2.7,3.8-5.5c0.1-3.2-1.3-3.8-3.5-4.7
			c-1.5-0.6-3.3-1.4-5-3.2l-0.1-0.1c0,0-2-4.7-4.9-8.4c-1-1.3-1.8-3-2.6-4.8c-1.5-3.3-3-6.6-6.4-7.9c-1.9-0.7-3-0.2-4.5,0.5
			c-2.8,1.3-6.6,3-17.3-0.4c-6.8-2.2-20.5-11.4-16.8-24.5c3-10.2,0-15.8-2.9-21.2c-0.8-1.5-1.6-3-2.3-4.6c-1-2.5-1.2-4-0.6-4.9
			c1-1.4,3.5-1.3,7.8-1.2c1.7,0,3.6,0.1,5.7,0.1c0.1,0,0.2,0,0.3,0c5.3,0,9.7,2.2,14.3,4.4c4.9,2.4,10.5,5.2,18.1,5.8
			c15.4,1.2,36.2-4.2,42.4-14.3c5.6-9.1,12.4-11.3,18.9-13.5c1.2-0.4,2.3-0.8,3.5-1.2c6.8-2.5,11.8-3.7,14.2-3.5
			c0.4,0,0.7,0.4,1.1,1c1.9,3.7,3.7,19.1-3.7,31.8c-4,6.9-3.7,8-3.6,8.1c0.1,0,0.9,0.2,5.4-4.1c2.1-2,7.4-5.4,13-9
			c2.5-1.6,5.1-3.3,7.5-4.9c8.4-5.6,15.4-7.5,25-7c6,0.4,9.6,4.3,9.8,7.9c0.2,2.7-1.4,4.7-4.1,5.4c-4.6,1-5.4,2.4-8,6.9
			c-1.1,1.9-2.5,4.3-4.5,7.5c-7.6,11.5-12.3,26.4-14.4,45.6c-1.9,17,1.2,26.5,9.8,30.7c4.4,2.1,21.8,3.2,51.7,3.2c0.4,0,0.9,0,1.3,0
			c0,0,0,0,0,0c9.6,0,18.5,3.5,23.7,9.3c2.8,3.1,4.1,6.5,3.8,9.7c-1,8.7-25.4,25.5-33.8,28.4c-5.6,1.9-19,0.6-36-1.1
			c-10.6-1.1-22.7-2.3-34.7-2.9c-18.3-0.9-25.4-1.5-32.2-2.1c-4.6-0.4-9.4-0.8-17.6-1.3c-13-0.8-19.7,2.2-26.2,5.1
			c-3.7,1.6-7.2,3.2-11.7,4C179.4,324.2,178,324.4,176.7,324.4z M193.1,250.9c1.6,1.7,3.2,2.4,4.7,3c2.2,0.9,4.1,1.7,4,5.5
			c-0.1,3.2-2,4.6-4.1,6.2c-1.9,1.4-4.1,3-5.5,6.3c-1.8,4.4-2.9,12.5-3.7,18.9c-0.5,3.9-0.9,7-1.3,8.3c-0.6,1.8-3.7,4.4-6.9,7
			c-3.4,2.8-6.9,5.7-7.8,7.9c-1.5,3.8-1.6,6.5-0.4,8c1.3,1.6,4.3,2,8.8,1.1c4.4-0.8,7.8-2.4,11.5-4c6.6-2.9,13.4-5.9,26.6-5.1
			c8.2,0.5,13,0.9,17.6,1.3c6.8,0.6,13.9,1.2,32.2,2.1c12,0.6,24.1,1.8,34.8,2.9c16.9,1.7,30.3,3.1,35.7,1.2
			c9.1-3.2,32.4-19.9,33.3-27.7c0.3-2.9-1-6.1-3.6-9c-5.1-5.7-13.7-9.1-23.1-9.1c-0.4,0-1,0-1.4,0c-30.4,0-47.4-1.1-52-3.3
			c-9-4.4-12.2-14.1-10.3-31.6c2.1-19.4,6.9-34.4,14.5-46c2.1-3.1,3.4-5.5,4.5-7.5c2.6-4.7,3.5-6.2,8.5-7.3c2.3-0.5,3.6-2.2,3.5-4.5
			c-0.3-3.2-3.5-6.8-9.1-7.1c-9.4-0.6-16.3,1.3-24.5,6.8c-2.5,1.6-5.1,3.3-7.6,4.9c-5.5,3.6-10.8,6.9-12.9,8.9
			c-4.7,4.4-5.9,4.6-6.5,4.1c-0.7-0.5-0.7-2,3.4-9.1c7.1-12.3,5.4-26.6,3.9-30.4c-0.4-1.1-0.7-1.2-0.7-1.2c-1.1-0.1-4.5,0-13.8,3.5
			c-1.2,0.4-2.3,0.8-3.5,1.2c-6.4,2.1-13,4.4-18.5,13.2c-6.4,10.4-27.5,16-43.2,14.7c-7.8-0.6-13.4-3.4-18.4-5.9
			c-4.7-2.3-8.8-4.4-13.9-4.4c-0.1,0-0.2,0-0.3,0c-2.2,0-4.1,0-5.8-0.1c-3.8-0.1-6.3-0.2-7.1,0.9c-0.5,0.7-0.3,2,0.6,4.2
			c0.7,1.6,1.4,3,2.3,4.6c3,5.5,6,11.3,3,21.8c-2,7,1.4,12.5,4.6,15.9c3.6,3.8,8.6,6.6,11.6,7.6c10.5,3.3,14.1,1.7,16.7,0.4
			c1.6-0.7,2.9-1.4,5.1-0.6c3.8,1.4,5.4,4.9,6.9,8.4c0.8,1.7,1.5,3.3,2.5,4.6C190.9,245.9,192.9,250.3,193.1,250.9z"/>
		<path d="M334.9,340.8c-3,0-6.3-0.8-10.3-2.7c-11.8-5.4-19-4.9-29-4.3c-3,0.2-6.1,0.4-9.7,0.5c-6.8,0.2-13.9-1.7-21.5-3.5
			c-10-2.5-21.4-5.3-34.9-4.6c-12.7,0.6-17.6,4.6-21.6,7.7c-3.6,2.9-6.4,5.1-13.1,3.9c-6.2-1.2-12.4-0.3-18,0.5
			c-6.7,0.9-12,1.7-13.6-2.2l0,0c-1.9-4.8,2.7-20,4.2-24.6c1.7-5.3,6.9-7.4,11-9.1c2.1-0.9,4-1.6,4.8-2.6c1.8-2,2.4-11.5,2.8-17.8
			c0.2-2.7,0.3-5.1,0.5-6.4c0.3-2.3,2.7-5,4.9-7.6c2.3-2.7,4.8-5.6,4.7-7.6c-0.1-1.8-3.1-4.2-5.7-6.3c-0.9-0.7-1.8-1.4-2.5-2.1
			c-1.8-1.6-2.2-3.3-2.8-5.7c-0.4-1.7-0.9-3.8-2.1-6.6c-2.1-5.1-10.3-4.1-17.4-3.3c-1.9,0.2-3.7,0.4-5.3,0.5c-0.2,0-0.3,0-0.5,0
			c-5.5,0-10.8-5.3-15.9-10.3c-2.1-2.1-4.3-4.3-6.5-6.1c-7.6-6.1-7.3-9.4-3.9-13.7c3-3.8,3.4-8.5,1.4-16.2c-1-3.8-3.7-7.7-6.1-11.1
			c-2.2-3.1-4.1-5.7-4.5-8c-0.1-0.6,0-1.4,0.9-2.2c2-1.7,7.1-2.6,13.6-2.4c7.2,0.2,14.9,1.8,21.6,4.3c17.4,6.6,24.8,7.3,39.1,3.5
			c13.3-3.5,17.1-8.9,21.1-14.5c0.4-0.6,0.8-1.1,1.2-1.7c3.8-5.2,12.9-6.1,20.2-6.8c1.7-0.2,3.3-0.3,4.8-0.5c7.6-1,10.3-2.5,14.7-11
			c0.8-1.4,1.6-1.9,2.3-1.7c1.8,0.6,2,6.2,1.5,9.9c-0.2,1.3,0,3.7,0.3,6.4c0.5,6.6,1.3,15.7-1.8,20.7c-5.4,8.7-6.1,10.9-6.1,11.4
			c0.6-0.1,2.7-1.6,9.7-9.1c4-4.2,6.8-5.4,13.1-8.1c1.1-0.5,2.4-1,3.8-1.6c3.1-1.4,6.8-3.1,10.4-4.7c6.9-3.2,13.4-6.2,16-6.9
			c1.3-0.3,2.2-0.3,2.8,0.1c0.9,0.6,1,1.8,1.3,3.6c0.1,0.8,0.2,1.7,0.4,2.7c0.6,2.9,1.7,3.7,2.7,4.4c1.3,0.9,2.6,1.7,2.8,6
			c0.5,8.2-6.5,13.4-13.2,14.9c-5.2,1.1-8.3,13.3-12,27.4c-1.1,4.3-2.3,8.7-3.5,13.1c-4.7,16.1-5.1,25.3-1.5,30.6
			c4.5,6.6,15.7,7.7,32.7,9.2c11.9,1.1,26.6,2.4,44.2,6.1c2.9,0.6,7.3,0.3,11.9,0c7.5-0.5,15.4-1,18.6,2.1c1,1,1.6,2.2,1.6,3.8
			c0.1,10.5-22.3,33.7-37.7,44.9c-3,2.2-5.6,4.2-7.9,6.1C346.5,336.8,341.5,340.8,334.9,340.8z M304.1,332.6
			c6.3,0,12.5,0.9,20.9,4.7c12.4,5.7,18,1.2,28.3-6.9c2.3-1.8,4.9-3.9,7.9-6.1c17-12.4,37.5-34.9,37.4-44.3c0-1.3-0.4-2.4-1.3-3.2
			c-3-2.8-11-2.3-18-1.8c-4.7,0.3-9.2,0.6-12.2,0c-17.6-3.6-32.3-5-44.1-6c-17.2-1.6-28.5-2.6-33.3-9.5c-3.8-5.6-3.4-14.9,1.4-31.3
			c1.3-4.4,2.4-8.8,3.5-13.1c3.7-14.4,7-26.9,12.7-28c6.4-1.3,13.1-6.3,12.6-14c-0.2-3.8-1.3-4.5-2.5-5.3c-1.1-0.8-2.4-1.6-3.1-4.9
			c-0.2-1-0.3-2-0.4-2.8c-0.2-1.5-0.3-2.6-0.9-3c-0.4-0.3-1.1-0.3-2.1,0c-2.5,0.6-9.3,3.8-15.8,6.8c-3.6,1.7-7.3,3.4-10.4,4.8
			c-1.4,0.6-2.7,1.1-3.8,1.6c-6.2,2.6-9,3.8-12.8,7.9c-8.9,9.4-10.1,9.8-10.8,9.2c-0.5-0.4-1.3-1,5.9-12.5c3-4.8,2.3-13.7,1.7-20.2
			c-0.2-2.9-0.4-5.2-0.2-6.6c0.6-4.5,0-8.7-0.9-9c-0.2-0.1-0.7,0.2-1.3,1.3c-4.5,8.8-7.5,10.4-15.3,11.5c-1.5,0.2-3.1,0.4-4.8,0.5
			c-7.2,0.7-16.1,1.5-19.7,6.4c-0.4,0.6-0.8,1.1-1.2,1.7c-4.1,5.8-7.9,11.2-21.6,14.8c-14.5,3.9-21.9,3.2-39.6-3.5
			c-14.7-5.6-30.7-5.1-34.3-2c-0.5,0.5-0.8,0.9-0.7,1.5c0.4,2.1,2.3,4.8,4.4,7.7c2.4,3.5,5.2,7.4,6.2,11.4c2,7.9,1.5,13-1.6,16.9
			c-3.2,4-3.4,6.8,3.8,12.6c2.2,1.8,4.4,4,6.6,6.1c5.1,5.1,10.5,10.4,15.7,10.1c1.6-0.1,3.4-0.3,5.2-0.5c7.5-0.9,15.9-1.8,18.3,3.8
			c1.2,2.8,1.7,5,2.1,6.7c0.6,2.3,0.9,3.9,2.5,5.3c0.7,0.6,1.6,1.3,2.5,2c2.9,2.3,6,4.7,6,6.9c0.1,2.4-2.3,5.2-4.9,8.2
			c-2.2,2.5-4.4,5.1-4.7,7.2c-0.2,1.3-0.3,3.6-0.5,6.3c-0.4,7.2-1,16.1-3,18.3c-1,1.1-2.9,1.9-5.1,2.8c-4,1.6-8.9,3.7-10.5,8.6
			c-3,9.2-5.7,20.4-4.2,24c1.3,3.3,6.3,2.6,12.7,1.7c5.3-0.7,11.9-1.7,18.2-0.5c6.3,1.2,8.9-0.9,12.5-3.7c4.1-3.3,9.2-7.3,22.1-7.9
			c13.7-0.7,25.1,2.2,35.1,4.7c7.5,1.9,14.6,3.7,21.3,3.5c3.6-0.1,6.7-0.3,9.6-0.5C298.5,332.8,301.3,332.6,304.1,332.6z"/>
		<path d="M158.5,375.9c-0.8,0-1.3-0.2-1.6-0.6c-0.9-1.3,0.9-3.9,3.5-7.8c0.6-0.9,1.3-1.9,1.9-2.8c1.7-2.6,2.3-4.6,1.8-6.3
			c-0.6-2.4-3.5-4.3-7.6-6.4c-4-2.1-6.3-4.4-6.8-7c-0.4-1.9,0.2-3.8,1.7-5.5l0,0c10.3-12.1,11-20.9,11.5-27.4
			c0.1-1.8,0.3-3.3,0.6-4.7c1-4.6,5.8-5.7,10.5-6.8c2.1-0.5,4-0.9,5.6-1.7c3.3-1.5,3.3-9.8,3.4-16.6c0-3.7,0-6.9,0.5-8.7
			c0.9-3.2,3.6-6.2,5.7-8.6c1.4-1.6,2.7-3,3-4c0.4-1-1.1-1.8-3.5-3c-2.2-1-4.6-2.2-5.8-4.1c-1.1-1.8-1-3.9-0.9-6.1
			c0.2-2.5,0.3-5.1-1.5-7.4c-2.1-2.6-4.2-2.3-8.2-1.5c-2.3,0.4-5.3,0.9-9.1,1c-0.2,0-0.4,0-0.5,0c-8.7,0-11.7-2.6-15.8-6.1
			c-0.6-0.5-1.2-1.1-1.9-1.6c-0.6-0.5-1.4-1.1-2.2-1.8c-6.6-5.2-17.7-13.8-13.8-22.5c3.6-8.1,1.5-13.2-2.1-21.6
			c-0.5-1.3-1.1-2.7-1.7-4.2c-3.4-8.4-10.6-14-15.4-17.8c-1.5-1.2-2.8-2.2-3.5-3c-1.4-1.4-1.7-3.2-0.9-4.5c0.7-1.1,3.4-3.2,12.2,0.3
			c2.2,0.9,4,1.6,5.5,2.2c6.8,2.8,9,3.7,16.5,3.7c0.1,0,0.3,0,0.4,0c5.1,0,7.6,1.1,10.8,2.4c2.8,1.2,6.3,2.7,13,4
			c15,2.9,34.1,0.3,44.4-3.5c5.9-2.2,7.4-6.6,8.8-10.9c1.1-3.5,2.2-6.8,5.8-8.1c3.9-1.4,5.4-1,7.4-0.4c2,0.6,4.4,1.3,10.2,0.7
			c8.8-0.9,19.2-13.3,25.3-20.7c2-2.4,3.7-4.4,4.8-5.4c3.9-3.6,6.4-5.2,7.9-4.8c0.5,0.1,0.9,0.4,1.2,0.9c1,2.1-1.2,11-5,17.7
			c-3.7,6.5-6.7,19.6-6.7,24.7c0,4.2-0.6,7.5-1,9.8c-0.5,3.1-0.7,4.4,0.3,4.8c0.7,0.3,1.8-0.5,3.5-1.9c2.9-2.3,7.7-6.1,16.6-8.7
			c7.2-2,10.5-5.1,13.8-8c1.3-1.1,2.5-2.2,3.8-3.2c3.5-2.5,18.7-10.7,22.3-8c0.9,0.7,1.1,1.9,0.5,3.7c-3,8.8-0.7,14.7,3.4,25.4
			l0.5,1.3c4.1,10.4,1.3,12.7-3,16c-0.5,0.4-1.1,0.9-1.7,1.4c-2.7,2.3-5.6,2.8-8.7,3.3c-2.9,0.5-5.9,1-8.9,3
			c-6.9,4.5-10.4,27.8-11.1,32.4c-3.2,23.2,17.4,27.8,21.6,28.5c10.2,1.7,40.1,4,50-0.6c6.5-3.1,21.5,0.4,32.9,5.4
			c3.1,1.4,10.5,4.9,11.5,8c1.8,5.7-4.9,13.2-12.6,21.9l-1.8,2c-3.6,4.1-7.5,10.1-11.3,15.9c-4.6,7.1-9,13.9-12.5,16.5
			c-6,4.5-26.3,15.5-35.6,17.5c-6.5,1.5-28.1-1.5-43.9-3.7c-6.4-0.9-11.9-1.6-15.2-2c-5.6-0.5-11,0.7-16.3,1.9
			c-5.6,1.3-11,2.6-16.2,1.5c-7-1.4-13.4,1.8-20.3,5.1c-2.8,1.3-5.6,2.7-8.5,3.8c-7.4,2.8-16.5,2.4-23.1,2.1
			c-2.6-0.1-4.9-0.2-6.6-0.1c-3.1,0.2-9.3,5.4-15.3,10.5c-5.8,4.9-11.2,9.4-14.5,10.2C159.8,375.8,159.1,375.9,158.5,375.9z
			 M176.5,237.6c1.8,0,3.3,0.6,4.7,2.4c2,2.6,1.8,5.4,1.7,7.9c-0.1,2.1-0.2,4,0.8,5.6c1.1,1.7,3.4,2.8,5.5,3.8c2.5,1.2,4.6,2.2,4,4
			c-0.4,1.2-1.7,2.6-3.2,4.3c-2.1,2.3-4.7,5.3-5.5,8.3c-0.5,1.7-0.5,5-0.5,8.5c0,7.3-0.1,15.6-3.9,17.3c-1.7,0.8-3.8,1.2-5.8,1.7
			c-4.4,1-9,2.1-9.9,6.1c-0.3,1.3-0.4,2.8-0.5,4.6c-0.5,6.2-1.2,15.6-11.7,27.9l0,0c-1.3,1.6-1.9,3.2-1.5,4.8
			c0.5,2.3,2.6,4.5,6.4,6.4c4.4,2.3,7.3,4.2,8,7c0.5,1.9-0.1,4.2-1.9,7c-0.6,1-1.3,1.9-1.9,2.9c-2,3-4.1,6-3.5,6.8
			c0.1,0.2,0.6,0.5,2.9,0c3.1-0.8,8.8-5.5,14.2-10.1c6.4-5.4,12.4-10.4,15.8-10.6c1.8-0.1,4,0,6.7,0.1c6.6,0.3,15.6,0.6,22.8-2.1
			c2.9-1.1,5.7-2.5,8.5-3.8c7-3.4,13.5-6.6,20.8-5.2c5.1,1,10.3-0.2,15.9-1.5c5.3-1.2,10.8-2.5,16.5-2c3.4,0.3,8.9,1.1,15.3,2
			c15.7,2.2,37.3,5.2,43.6,3.7c9.2-2.1,29.4-12.9,35.3-17.4c3.4-2.5,7.7-9.2,12.3-16.3c3.8-5.8,7.7-11.8,11.4-16l1.8-2
			c7.2-8.1,14.1-15.8,12.4-21.1c-0.6-1.9-4.8-4.8-11-7.5c-10.9-4.8-25.9-8.3-32.2-5.4c-10.8,5-42.9,2-50.5,0.7
			c-4.3-0.7-25.6-5.5-22.3-29.4c0.9-6.6,4.4-28.4,11.4-33c3.2-2.1,6.3-2.6,9.3-3.1c3-0.5,5.8-1,8.3-3.1c0.6-0.5,1.2-1,1.7-1.4
			c4.1-3.3,6.6-5.2,2.7-15.1l-0.5-1.3c-4.2-10.9-6.6-16.8-3.4-25.9c0.5-1.4,0.4-2.3-0.2-2.8c-2.9-2.2-16.6,4.6-21.4,8
			c-1.3,0.9-2.5,2-3.8,3.1c-3.2,2.8-6.8,6.1-14.1,8.2c-8.8,2.5-13.5,6.3-16.4,8.5c-2,1.6-3.1,2.5-4.3,2c-1.7-0.7-1.4-2.6-0.8-5.7
			c0.4-2.3,1-5.5,1-9.7c0-5.1,3.1-18.4,6.8-25.1c3.8-6.7,5.8-15.3,5-16.9c-0.1-0.3-0.3-0.4-0.6-0.5c-1.2-0.2-3.6,1.3-7.2,4.6
			c-1.1,1-2.7,2.9-4.7,5.3c-6.7,8-16.7,20-25.9,21c-5.9,0.6-8.5-0.1-10.5-0.7c-2-0.6-3.3-1-6.9,0.3c-3.2,1.2-4.2,4.1-5.3,7.6
			c-1.4,4.2-3,9.1-9.3,11.4c-10.4,3.9-29.7,6.5-44.8,3.6c-6.8-1.3-10.3-2.8-13.2-4c-3.2-1.4-5.5-2.3-10.4-2.3c-0.1,0-0.3,0-0.4,0
			c-7.7,0-9.9-0.9-16.9-3.8c-1.6-0.6-3.4-1.4-5.5-2.2c-6.8-2.7-10.2-2.1-11.2-0.6c-0.6,0.9-0.3,2.3,0.8,3.5c0.7,0.7,1.9,1.7,3.4,2.9
			c4.9,3.8,12.2,9.6,15.6,18.1c0.6,1.5,1.2,2.8,1.7,4.1c3.6,8.6,5.8,13.8,2.1,22.2c-3.6,8.1,7.2,16.5,13.6,21.5
			c0.9,0.7,1.6,1.3,2.3,1.8c0.7,0.6,1.3,1.1,1.9,1.6c4,3.4,6.8,5.9,15.2,5.9c0.2,0,0.3,0,0.5,0c3.7,0,6.6-0.6,8.9-1
			C173.9,237.8,175.2,237.6,176.5,237.6z"/>
		<path d="M161.4,393c-2,0-4.2-0.7-6.4-2.6l0,0c-4.8-3.9-7.5-8.5-7.8-13.2c-0.2-3.9,1.2-7.9,3.8-10.6c4-4.2,2.6-6.7,0.8-9.9
			l-0.2-0.4c-0.8-1.5-3.3-3-5.5-4.4c-3-1.9-5.5-3.5-4.7-5.1c0.3-0.7,0.9-1.2,1.6-2c1.9-2.1,5.6-5.9,10.5-17.4
			c5.1-11.8,5.7-17.5,6.1-21.7l0.1-1c0.4-3.5,5-4.2,9.9-4.8c1.7-0.2,3.5-0.5,5.1-0.8c4.5-1,4.1-10.5,3.9-16.7
			c-0.1-1.7-0.1-3.1-0.1-4.2c0.1-3.1,2.7-6.8,5.1-10c1.7-2.3,3.3-4.6,3.1-5.6c-0.3-1.6-2.2-3.2-4.3-5c-1.3-1.1-2.6-2.2-3.6-3.4
			c-2.3-2.6-2.6-5.9-2.8-8.9c-0.1-0.7-0.1-1.5-0.2-2.1c-0.3-2.1-6.9-1.9-13.3-1.7c-3.1,0.1-6.3,0.2-9.3,0.1
			c-8.1-0.2-17.6-10.2-23.9-16.8c-1.8-1.9-3.3-3.5-4.5-4.5c-3.5-3-2.3-7.8-0.9-13.4c0.7-2.8,1.4-5.6,1.6-8.6
			c0.6-8.1-8.9-20.4-15.2-28.5l-1.3-1.7c-2.8-3.7-6.1-6.8-8.7-9.3c-3.2-3.1-4.6-4.5-4.4-5.5c0-0.2,0.1-0.5,0.5-0.7
			c0.5-0.2,4.6-2.2,13.4-2.2c0.1,0,0.3,0,0.4,0c10.6,0.1,23.3,2.9,37.5,8.5c27,10.6,32.4,8.6,42.1,5c2.3-0.9,5-1.8,8.2-2.7
			c9.7-2.7,14.4-10.7,18.2-17.2c2.7-4.6,4.8-8.2,7.9-8.6c3.8-0.5,5.3,1.9,6.7,4.3c1.5,2.4,3,4.9,7,5c0.1,0,0.2,0,0.3,0
			c6.3,0,11.9-6.7,17.4-13.2c1.4-1.7,2.9-3.4,4.3-5c5.6-6.2,14.5-12.3,20.3-16.4c1.6-1.1,2.9-2,4-2.8c1.9-1.4,3.1-0.6,3.7,0
			c2.4,2.5,2,10.6-1.7,15.3c-14.5,18.5-14.4,36.6-11.9,40.7c0.2,0.4,0.6,0.8,1,0.7c3.7-0.7,19.6-8.4,29.9-15.8
			c5.6-4,9-10.3,12.4-16.4c2.9-5.3,5.6-10.2,9.5-13.2c3.7-2.9,6.6-3.9,8.5-2.8c2,1.1,2.8,4.1,2.5,9.1c-0.1,0.8-0.1,1.7-0.2,2.6
			c-0.7,9-1.9,24.2,1,29.2l0.5,0.9c2.8,4.7,2.9,5,1.5,9.1c-0.6,1.8-0.5,2.5-0.1,4.1c0.4,1.8,1.1,4.9,1,12.2c-0.1,8-3,9.8-7.4,12.4
			c-3.2,1.9-7.3,4.4-12,10c-17.6,21.3-5.8,35.5-0.8,41.5c5.5,6.6,22.1,7,39.3,6.5c11.7-0.4,20.4,1.6,27.3,3.2c2.2,0.5,4.3,1,6.2,1.3
			c2.9,0.5,4.9,1,6.7,1.5c2.8,0.8,4.9,1.3,8.4,1c0.5-0.1,1.1-0.1,1.6-0.2c5.5-0.6,11.7-1.2,14.4,4.9c3.1,7,0.8,14.2-6,19.4
			c-7,5.3-13.3,12.6-25.6,30c-14.4,20.3-24.3,28-30,30.9c-7.1,3.5-48.1,8.3-57.3,7.3c-37.8-4.2-63.4,6.4-74.4,11
			c-2.7,1.1-4.7,1.9-5.8,2.1c-2.3,0.4-5.7,0.8-9.7,1.2c-6,0.7-13.4,1.5-21.2,2.9c-7.3,1.3-8.6,4-10,7c-1.1,2.3-2.2,4.6-5.9,6.4
			c-2.3,1.1-4.6,2.7-6.7,4.3C168.8,390.4,165.3,393,161.4,393z M155.5,389.8c6,4.9,10.9,1.4,16.5-2.7c2.2-1.6,4.4-3.2,6.9-4.4
			c3.5-1.7,4.5-3.8,5.5-6c1.4-3,2.9-6.1,10.6-7.4c7.8-1.4,15.3-2.2,21.3-2.9c3.9-0.4,7.3-0.8,9.6-1.2c1.1-0.2,3-1,5.7-2.1
			c11-4.6,36.8-15.3,74.8-11c10.9,1.2,51-4.3,56.8-7.2c5.6-2.8,15.4-10.4,29.7-30.6c12.4-17.4,18.6-24.8,25.8-30.2
			c6.5-4.9,8.7-11.8,5.8-18.4c-2.5-5.5-8.1-5-13.5-4.4c-0.6,0.1-1.1,0.1-1.7,0.2c-3.7,0.3-5.8-0.2-8.7-1c-1.8-0.5-3.8-1-6.6-1.5
			c-1.9-0.3-4-0.8-6.3-1.3c-6.9-1.6-15.4-3.5-27.1-3.2c-16.2,0.5-34,0.4-39.9-6.8c-5.2-6.2-17.2-20.8,0.8-42.6
			c4.8-5.8,8.9-8.3,12.2-10.2c4.5-2.7,7-4.1,7-11.7c0.1-7.2-0.6-10.2-1-12c-0.4-1.7-0.5-2.5,0.1-4.5c1.3-3.7,1.3-3.7-1.5-8.4
			l-0.5-0.9c-3-5.2-1.8-20.5-1.1-29.7c0.1-1,0.1-1.8,0.2-2.6c0.3-4.5-0.4-7.4-2-8.3c-1.6-0.9-4.2,0.1-7.6,2.7
			c-3.7,2.9-6.4,7.8-9.3,13c-3.4,6.2-6.9,12.5-12.6,16.7c-10.4,7.5-26.4,15.2-30.2,16c-0.4,0.1-1.2,0-1.8-1.1
			c-2.6-4.2-2.8-22.8,12-41.6c3.7-4.7,3.7-12.2,1.8-14.3c-0.7-0.7-1.6-0.7-2.6,0.1c-1.1,0.8-2.4,1.7-4,2.8
			c-5.8,4-14.6,10.1-20.2,16.3c-1.4,1.6-2.9,3.3-4.3,5c-5.6,6.6-11.3,13.5-18,13.5c-0.1,0-0.2,0-0.3,0c-4.4-0.1-6.2-2.9-7.7-5.4
			c-1.4-2.3-2.7-4.3-5.9-3.9c-2.7,0.4-4.7,3.8-7.3,8.2c-3.9,6.6-8.7,14.8-18.7,17.5c-3.2,0.9-5.8,1.8-8.1,2.7
			c-9.9,3.6-15.4,5.6-42.7-5c-35.2-13.8-50-6.6-50.6-6.3c-0.2,0.7,2,2.8,4.1,4.8c2.6,2.5,5.9,5.7,8.8,9.4l1.3,1.7
			c6.4,8.2,16,20.6,15.4,29.1c-0.2,3-1,5.9-1.7,8.7c-1.3,5.3-2.5,9.9,0.6,12.6c1.1,1,2.7,2.6,4.5,4.5c6.2,6.5,15.6,16.4,23.4,16.6
			c3,0.1,6.2,0,9.3-0.1c7.7-0.2,13.8-0.4,14.1,2.4c0.1,0.7,0.1,1.4,0.2,2.2c0.2,2.9,0.4,5.9,2.6,8.4c1,1.1,2.3,2.2,3.6,3.3
			c2.2,1.9,4.3,3.6,4.6,5.5c0.2,1.4-1.3,3.5-3.3,6.2c-2.3,3.1-4.8,6.7-4.9,9.5c0,1.1,0,2.5,0.1,4.2c0.3,6.9,0.7,16.3-4.5,17.5
			c-1.7,0.4-3.4,0.6-5.2,0.9c-4.5,0.6-8.8,1.2-9.2,4.1l-0.1,1c-0.4,4.2-1.1,10-6.2,21.9c-5,11.6-8.7,15.5-10.6,17.6
			c-0.7,0.7-1.2,1.3-1.5,1.8c-0.5,0.9,2.1,2.6,4.4,4c2.4,1.5,4.8,3,5.7,4.7l0.2,0.4c1.8,3.2,3.5,6.2-0.9,10.9
			c-2.5,2.6-3.8,6.4-3.6,10C148.3,381.6,150.9,386,155.5,389.8L155.5,389.8z"/>
		<path d="M178.8,419c-8.7,0-16.8-5.7-25.1-11.6l0,0c-14.5-10.3-15.9-30.2-15.3-36.4c0.3-2.4,2.2-3.6,4.1-4.8
			c2.1-1.3,4.2-2.6,4.1-5.5c0-2.7-2.1-4.1-4.3-5.7c-2.3-1.6-4.8-3.3-4.7-6.6c0.1-4.6,2.9-8.2,6.7-13.3c1.4-1.8,2.9-3.9,4.6-6.2
			c4.1-5.9,6.1-15.1,7.6-21.8c0.7-3.2,1.2-5.7,1.8-7.1c1.1-2.4,3.7-3,7-3.8c2.8-0.6,6-1.4,9.4-3.4c4.5-2.7,3-6.8,1.5-11.2
			c-0.8-2.4-1.6-4.8-1.4-6.8c0.5-3.4,2.4-5,4.3-6.4c1.2-0.9,2.4-1.8,3.1-3.3c0.9-1.8-0.4-2.7-2.7-4c-1.3-0.7-2.7-1.5-3.2-2.7
			c-0.6-1.4-1.7-3.2-3-5.4c-1.1-1.9-2.4-3.9-3.8-6.5c-1.7-3.1-6.3-2.9-12.2-2.5c-4.1,0.2-8.8,0.5-13.4-0.4
			c-11.6-2.3-22.4-15.3-25.2-21.9c-2.6-6.2-2.4-7.5-1.3-14.1c0.2-1,0.3-2.1,0.5-3.3c1.7-11.2-12.4-30.1-16.8-35.6l-1.6-2
			c-7.5-9.4-10.9-13.7-7.7-20.1c2.9-5.9,8.5-3.7,15.6-1c1.3,0.5,2.6,1,4,1.5c4.9,1.8,11.1,2.1,18.9,2.6c6.6,0.4,14,0.8,22.8,2.2
			c18,2.8,40.8,3.2,49.6-1.4c5.2-2.7,6.5-9.1,7.8-15.3c0.7-3.5,1.4-6.7,2.7-9.1c1.1-2.1,2.4-3.1,3.8-3.3c2.4-0.2,4.6,2.5,7,5.4
			c0.3,0.4,0.6,0.7,0.9,1.1c3.5,4.3,6.5,4.9,17.6,3.9c7.2-0.7,15.4-10,24-19.9c4.6-5.2,9.3-10.6,14.2-15.1c6.3-5.8,15-9.8,20.3-5.7
			c2.3,1.8,3,4.7,1.6,7.3c-17.8,34-24,54.4-20.9,56.3c1.5,0.9,7.9-1.1,34.9-40c2.3-3.3,4.3-6.5,6.1-9.4c6-9.5,10.3-16.3,15.9-14.1
			c7.1,2.8,10.7,22.3,9.2,37.2c-0.8,7.4-1.9,11-2.8,14c-0.8,2.7-1.4,4.7-1.4,8.6c0.1,3.1,0.6,5.1,1,6.7c0.6,2.5,1.1,4.2-1,7.5
			c-1.9,2.9-0.8,7.3,0.1,11.3c0.7,2.8,1.3,5.5,0.8,7.4c-1.3,5.6-3.8,14.7-8.2,26.7c-2.4,6.4-2.6,11.5-0.6,15.6
			c3.2,6.7,11.8,9.6,19.4,12.1c4.6,1.5,9,3,11.8,5.2c10.2,7.6,29.9,9.1,43.7,8c8.4-0.7,14.7,0.9,18.7,4.6c3.2,3,4.8,7.2,4.8,12.7
			c0,10.1-4.3,14-11.3,20.4c-2,1.8-4.3,3.9-6.8,6.3c-4.1,4.1-8.7,11.2-13.6,18.7c-8.1,12.6-17.4,26.8-27.9,33
			c-12.9,7.6-40.7,10.4-63,12.7c-6.8,0.7-13.1,1.3-18.1,2c-10.6,1.5-22.2,7.8-34.4,14.5c-11.7,6.4-23.8,13-35.6,15.5
			c-15.2,3.3-18.3,7.1-22.3,11.9c-2.2,2.7-4.8,5.8-9.8,9.3C187.2,417.7,182.9,419,178.8,419z M154.2,406.7
			c12,8.6,23.4,16.6,37.1,7.3c4.9-3.4,7.4-6.4,9.6-9.1c4.1-5,7.3-8.9,22.8-12.2c11.6-2.5,23.7-9.1,35.3-15.5
			c12.3-6.7,24-13.1,34.7-14.6c5-0.7,11.4-1.4,18.2-2c22.3-2.3,49.9-5.1,62.7-12.6c10.4-6.1,19.6-20.3,27.7-32.8
			c4.9-7.5,9.5-14.7,13.7-18.9c2.5-2.5,4.8-4.5,6.8-6.4c6.9-6.2,11.1-10,11.1-19.7c0-5.2-1.5-9.3-4.6-12.1c-3.8-3.5-10.1-5-18.1-4.4
			c-13.9,1.1-33.9-0.4-44.3-8.1c-2.8-2.1-7-3.5-11.6-5c-7.8-2.6-16.6-5.6-19.9-12.6c-2.1-4.3-1.9-9.6,0.6-16.2
			c4.4-11.9,6.9-21,8.2-26.6c0.4-1.7-0.2-4.3-0.8-7c-1-4.1-2-8.7,0-11.9c1.9-3,1.6-4.4,0.9-6.9c-0.4-1.6-0.9-3.7-1-6.8
			c-0.1-4,0.6-6.1,1.4-8.8c0.9-2.9,2-6.5,2.7-13.8c1.5-14.3-2-33.7-8.6-36.4c-5-2-9.2,4.6-14.9,13.7c-1.8,2.9-3.9,6.1-6.2,9.4
			c-20.1,29-32.2,42.5-36,40.2c-4.9-3,7.2-31.8,20.6-57.4c1.2-2.2,0.6-4.7-1.4-6.2c-3.6-2.7-10.9-2.1-19.2,5.6
			c-4.9,4.5-9.6,9.9-14.1,15.1c-8.8,10-17.1,19.5-24.6,20.2c-11.3,1-14.6,0.3-18.3-4.2c-0.3-0.4-0.6-0.7-0.9-1.1
			c-2-2.5-4.2-5.1-6.1-5.1c-0.1,0-0.1,0-0.2,0c-1.1,0.1-2.1,1-3.1,2.8c-1.3,2.3-1.9,5.5-2.6,8.9c-1.2,6.1-2.6,12.9-8.2,15.8
			c-9,4.7-32,4.3-50.1,1.5c-8.8-1.3-16.2-1.8-22.7-2.2c-7.9-0.5-14.1-0.8-19.2-2.6c-1.4-0.5-2.7-1-4-1.5c-7-2.7-12-4.6-14.6,0.6
			c-2.9,5.9,0.2,9.8,7.6,19.2l1.6,2c5.7,7.2,18.7,25,16.9,36.2c-0.2,1.2-0.4,2.3-0.5,3.3c-1.1,6.6-1.3,7.7,1.2,13.7
			c3.1,7.3,14.2,19.3,24.6,21.4c4.5,0.9,9.1,0.6,13.1,0.4c5.9-0.4,11-0.7,12.9,2.9c1.4,2.5,2.7,4.6,3.8,6.5c1.4,2.2,2.5,4,3.1,5.5
			c0.4,0.9,1.6,1.6,2.8,2.3c2,1.2,4.3,2.5,3,5.1c-0.8,1.6-2.1,2.6-3.3,3.5c-1.8,1.4-3.6,2.8-4,5.9c-0.2,1.8,0.5,4.1,1.3,6.4
			c1.5,4.3,3.2,9.2-1.9,12.2c-3.4,2.1-6.9,2.8-9.6,3.5c-3.2,0.7-5.6,1.3-6.5,3.3c-0.6,1.3-1.1,3.8-1.8,6.9
			c-1.5,6.8-3.5,16.1-7.7,22.1c-1.6,2.4-3.2,4.4-4.6,6.2c-3.7,4.9-6.4,8.5-6.5,12.8c-0.1,2.8,2.1,4.3,4.3,5.9
			c2.3,1.6,4.6,3.2,4.6,6.3c0,3.4-2.4,4.9-4.5,6.2c-1.8,1.1-3.5,2.1-3.7,4.2C138.8,376,139.8,396.4,154.2,406.7L154.2,406.7z"/>
	</g>
</g>
</svg>
