<?xml version="1.0" encoding="utf-8"?>
<!-- Generator: Adobe Illustrator 25.2.0, SVG Export Plug-In . SVG Version: 6.00 Build 0)  -->
<svg version="1.1" id="レイヤー_1" xmlns="http://www.w3.org/2000/svg" xmlns:xlink="http://www.w3.org/1999/xlink" x="0px"
	 y="0px" viewBox="0 0 1140.5 1106.6" style="enable-background:new 0 0 1140.5 1106.6;" xml:space="preserve">
<style type="text/css">
	.st0{fill:none;}
</style>
<rect class="st0" width="1140.5" height="1154"/>
<g>
	<path d="M498.5,576.9c-1.7,0-3.3-0.4-4.8-1.2c-3.6-2-8.2-7.4-9.8-21.8c-1.2-10.9-0.1-16.6,0.7-21.2c0.8-4.5,1.4-7.5-0.8-13.2
		c-2.3-6.1-8.2-10.7-13.9-15.1c-5.1-3.9-10.3-8-12.9-13.1c-5.2-10.1,2.9-17.7,6.7-21.4c0.5-0.4,0.9-0.8,1.2-1.1l0,0
		c2.2-2.2,7.4-5.2,12-3.7c4.4,1.4,7.3,6.2,8.5,14.3c0.4,9.3,1.9,14.9,4.7,17.1c2.3,1.8,5.1,1.3,8.2,0.7c0.5-0.1,1-0.2,1.5-0.3
		c2-0.3,4.1-1,6.3-1.8c5.1-1.8,10.5-3.6,14.6-0.3c3.2,2.5,1.6,7.2-0.3,12.6c-1.5,4.2-3.1,8.9-2.9,13.5c0.3,4.8,3.2,9.5,6,14
		c2.5,4,4.9,7.8,5.2,11.5c1.2,16.3-18.7,26.2-25.2,29.4C502,576.4,500.3,576.9,498.5,576.9z M474.3,466.4c-3.4,0-6.7,2.2-8,3.5l0,0
		c-0.3,0.3-0.7,0.7-1.2,1.2c-3.8,3.6-10.9,10.3-6.3,19.1c2.4,4.7,7.3,8.5,12.4,12.5c5.9,4.6,12.1,9.4,14.6,16
		c2.3,6.2,1.7,9.6,0.9,14.3c-0.8,4.4-1.8,10-0.7,20.6c1.5,13.7,5.6,18.6,8.8,20.4c2.5,1.4,5.4,1.3,8.3-0.1
		c6.3-3.1,25.3-12.6,24.2-27.6c-0.2-3.1-2.5-6.8-4.9-10.6c-3-4.7-6.1-9.6-6.3-14.9c-0.3-5,1.5-9.9,3-14.2c1.9-5.4,3-8.8,0.9-10.4
		c-3.4-2.6-8-1-12.8,0.6c-2.2,0.8-4.5,1.5-6.6,1.9c-0.5,0.1-1,0.2-1.5,0.3c-3.2,0.6-6.8,1.2-9.8-1.1c-3.3-2.6-5-8.5-5.4-18.4
		c-1.1-7.1-3.6-11.5-7.2-12.7C475.7,466.5,475,466.4,474.3,466.4z"/>
	<path d="M476.1,612.6c-6,0-8.2-2.3-9.1-4c-1.9-3.7,0.2-9.4,5.6-14.8c7.9-7.9,7.7-10.5,7.3-15.7c-0.1-0.8-0.1-1.7-0.2-2.6
		c-0.1-3.1-1.2-5.9-2.4-9.2c-1.5-4.2-3.3-8.9-3.9-15.8c-0.3-3.7,0.3-7.3,0.8-10.7c1.3-8.4,2.5-15.7-8.6-23.1
		c-16.7-11.2-16.9-12.7-18.4-25.1c-1-8.1-4.4-13.5-7.9-19.2c-1.7-2.7-3.4-5.5-4.9-8.6c-1.8-3.8-2.2-6.2-1.2-7.9
		c1.5-2.6,5.8-2.8,13-3.1l2.6-0.1c7-0.4,9.3-2,12.2-4.1c2.4-1.7,5-3.6,10.5-5.2c4.4-1.3,7.6-1.2,10,0.2c4.3,2.5,5.8,9.1,8.1,19.1
		l0.3,1.2c3.7,16,5,19.4,8.6,20.9c2.6,1.1,8.5-1.5,14.9-4.3c10.7-4.7,22.9-10,28.8-2.8c5.8,7.1,3.9,11.2,0.7,18
		c-2,4.4-4.8,10.5-6.7,19.7c-3.1,15.6,1.4,19.7,7.2,24.8c2.7,2.4,5.7,5.2,8.3,9.4c7.2,11.8,0.3,21.2-6.3,30.4
		c-1,1.4-2.1,2.9-3.1,4.3c-6.8,9.9-18.7,20.5-29.9,21.7c-5.3,0.6-9,1.5-13.7,2.6c-4.2,1-9.4,2.3-17.3,3.6
		C479.3,612.5,477.6,612.6,476.1,612.6z M477,444.3c-1.4,0-3,0.3-5,0.8c-5.1,1.5-7.7,3.3-9.9,4.9c-3.1,2.2-5.7,4.1-13.3,4.5
		l-2.6,0.1c-6,0.3-10.4,0.5-11.4,2.2c-0.6,1-0.2,3,1.3,6.1c1.5,3,3.2,5.8,4.8,8.4c3.5,5.6,7.1,11.4,8.2,19.9
		c1.5,11.9,1.6,13.1,17.6,23.8c12.1,8.1,10.8,16.7,9.4,25c-0.5,3.3-1.1,6.8-0.8,10.3c0.6,6.7,2.3,11.3,3.7,15.3
		c1.3,3.4,2.3,6.4,2.5,9.8c0,0.9,0.1,1.8,0.2,2.6c0.4,5.6,0.7,8.7-7.8,17.2c-4.7,4.7-6.7,9.7-5.2,12.6c1.4,2.7,5.8,3.6,12.3,2.5
		c7.8-1.3,12.8-2.5,17.2-3.6c4.7-1.1,8.5-2.1,13.9-2.6c10.6-1.2,22-11.3,28.6-20.9c1-1.5,2-2.9,3.1-4.3c6.6-9,12.8-17.6,6.3-28.3
		c-2.4-4-5.3-6.5-8-9c-5.9-5.3-11.1-10-7.8-26.6c1.9-9.5,4.7-15.7,6.8-20.2c3.1-6.7,4.5-9.8-0.5-16c-5-6.1-16.4-1.1-26.5,3.3
		c-7,3.1-13.1,5.7-16.4,4.3l0,0c-4.5-1.9-6-6.2-9.7-22.2l-0.3-1.2c-2.2-9.5-3.6-15.8-7.2-17.9C479.6,444.6,478.4,444.3,477,444.3z"
		/>
	<path d="M472.3,633.4c-4.3,0-8-0.8-10.9-2.5c-3.6-2.1-5.9-5.3-6.7-9.8c-1.8-9.7,1.2-15,5.8-22.9c1.9-3.3,4-7,6.2-11.7
		c3.9-5.4,2.3-10.3,0.2-16.5c-1.3-4-2.8-8.5-3.1-13.9c-0.2-3.8,0.5-7.9,1.2-11.8c1-5.6,1.9-11,0.2-15.3c-2.2-5.6-6.7-8.1-11-10.5
		c-1.8-1-3.6-2-5.2-3.3c-16-12.1-16.1-20-16.3-33.1l0-2c-0.2-14.2-13.6-24.1-26.4-25.5c-9-1-15.6-4.3-15.9-8.2
		c-0.2-1.8,1-4.4,7.3-6.2c7.5-2.2,15.3-0.8,23.6,0.6c6.4,1.1,13.1,2.2,20.4,2c9.7-0.3,19.1-5.1,28.3-9.6c6.9-3.4,13.4-6.7,19.8-8.1
		c5.3-1.1,9-0.8,11.4,1c3.3,2.6,3.5,7.5,3.6,12.7c0,1,0.1,2.1,0.1,3.2c0.2,3.9-1.3,8.2-2.8,12.4c-2.4,6.7-4.6,13.1-0.2,17.7
		c7.3,4.5,17.2-1,25.2-5.4l1.3-0.7c1.5-0.8,3-1.8,4.7-2.8c8.2-5.2,18.4-11.6,26.4-3.2c9,9.5,6.3,16.9-2.6,41.5l-1.3,3.5
		c-6.6,18.4,0.2,29.5,6.7,40.2c2.9,4.7,5.6,9.2,7.1,14.1c5,17.1,8.3,31.1,8.4,43.7c0,5-1,8.2-3.4,10.6c-5,4.9-16.5,5.4-36.1,4.8
		c-22.7-0.8-29.7,2.7-37.9,6.8c-3.1,1.5-6.3,3.1-10.6,4.7C483.4,632.3,477.4,633.4,472.3,633.4z M406.3,441.2
		c-2.8,0-5.5,0.3-8.2,1.1c-3.9,1.1-6,2.6-5.9,4.2c0.2,2.4,5.7,5.5,14.2,6.5c13.7,1.5,27.9,12.1,28.1,27.4l0,2
		c0.1,13,0.2,20.1,15.5,31.6c1.5,1.1,3.2,2.1,5,3.1c4.6,2.6,9.4,5.3,11.8,11.5c1.9,4.8,0.9,10.4-0.1,16.3c-0.6,3.8-1.3,7.7-1.1,11.3
		c0.2,5.1,1.7,9.5,3,13.4c2.1,6.5,4,12.1-0.4,18.1c-2.1,4.6-4.3,8.3-6.2,11.6c-4.5,7.9-7.3,12.6-5.6,21.6c0.7,3.8,2.7,6.7,5.8,8.4
		c5.8,3.3,15.6,2.9,26.9-1.1c4.2-1.5,7.3-3.1,10.4-4.6c8.4-4.2,15.6-7.7,38.8-7c19,0.6,30.2,0.1,34.7-4.2c2-1.9,2.8-4.8,2.8-9.2
		c-0.1-12.4-3.4-26.2-8.3-43.2c-1.3-4.6-4-9-6.9-13.6c-6.5-10.6-13.9-22.6-6.9-41.8l1.3-3.5c8.8-24.4,11.2-30.9,3-39.5
		c-6.9-7.3-16-1.6-24,3.5c-1.7,1.1-3.3,2.1-4.8,2.9l-1.3,0.7c-8.5,4.7-19,10.5-27.2,5.3l-0.2-0.1c-5.3-5.5-2.8-12.7-0.3-19.7
		c1.4-4,2.9-8.1,2.7-11.7c-0.1-1.1-0.1-2.2-0.1-3.2c-0.2-5-0.3-9.3-2.9-11.3c-1.9-1.5-5.1-1.7-9.8-0.7c-6.2,1.4-12.6,4.5-19.4,7.9
		c-9.3,4.7-19,9.5-29.1,9.8c-7.5,0.2-14.3-0.9-20.8-2C415.8,442,411,441.2,406.3,441.2z"/>
	<path d="M455.4,645.4c-8.1,0-14.2-1.4-17.6-4.2c-2.1-1.7-3.2-4-3.2-6.6c-0.1-11.2,4.6-29.1,15.2-41.8c9.4-11.3,9.7-20.6,9.9-26.8
		c0-0.8,0.1-1.6,0.1-2.3c0.2-3.1-0.2-5.1-0.8-7.9c-0.5-2.7-1.2-6.2-1.5-11.8c-0.6-9.6-6.7-13.8-12-17.6c-0.7-0.5-1.3-0.9-1.9-1.4
		c-2.6-1.9-5-4.4-7.4-7c-3.1-3.2-6.2-6.6-9.9-8.8c-7.7-4.6-5.9-14.4-3.1-24.8c2-7.6-3.7-15-17.4-22.5c-3.5-1.9-11-4-18.2-5.9
		c-7-1.9-13.6-3.7-16.1-5.3c-3-1.9-10.8-8.4-11.2-14.8c-0.1-2.6,0.9-4.8,3.1-6.6c8.6-7,41.3-4,54.4,0.2c13.2,4.2,18.3,3.3,35.6-1.1
		c10-2.5,34.3-10.8,45.3-18.5c6.6-4.6,15-5,19.9-0.9c4,3.4,4.6,8.9,1.7,15.1l-1.6,3.8c-7.5,18.2-14,34-10,37.2
		c5.2,4.2,29.3-11.8,46.9-24.2c7.3-5.7,13.1-7.1,17-4.1c9.5,7,4.4,36.7-1.1,51.3c-6.5,17.4,0.3,37.2,6.9,56.4c1.4,3.9,2.7,8,4,11.9
		c2.8,8.9,3.7,15.1,4.5,21c1.3,9.2,2.4,17.2,10.8,33.4c6.8,13.2,8.4,21.5,4.9,25.5c-5.1,5.8-19,0.7-30.2-3.4
		c-3.3-1.2-6.1-2.2-8.2-2.8c-13.4-3.7-23.3-2.4-37.9,0.2c-6.9,1.2-14.6,3.5-22.6,5.8c-9.4,2.8-19.1,5.6-29.6,7.5
		C467,644.8,460.7,645.4,455.4,645.4z M384.6,427c-9,0-16.8,1.1-20,3.8c-1.7,1.4-2.5,3.1-2.4,5.1c0.3,5,6.5,10.8,10.3,13.3
		c2.2,1.5,9,3.3,15.6,5.1c7.3,2,14.9,4,18.6,6.1c5.4,2.9,21.8,11.9,18.4,24.6c-3.1,11.7-3.8,19.1,2.2,22.7c3.9,2.3,7.2,5.8,10.3,9.1
		c2.4,2.6,4.7,5,7.2,6.8c0.6,0.4,1.2,0.9,1.9,1.3c5.4,3.8,12.2,8.5,12.8,19c0.3,5.5,1,8.8,1.5,11.5c0.6,2.8,1,5.1,0.8,8.4
		c0,0.7-0.1,1.5-0.1,2.3c-0.2,6.5-0.5,16.2-10.4,28c-10.4,12.4-14.9,29.7-14.8,40.6c0,2.1,0.9,3.8,2.5,5.2c5.1,4.2,18,4.9,34.5,1.9
		c10.4-1.9,20.1-4.7,29.4-7.5c8.1-2.4,15.8-4.6,22.8-5.9c14.9-2.6,24.9-4,38.7-0.2c2.2,0.6,5.1,1.7,8.4,2.9
		c10.1,3.7,23.9,8.8,28.1,4c2.9-3.3,1.2-11.2-5.2-23.3c-8.6-16.5-9.8-25-11-34c-0.8-5.8-1.7-11.9-4.4-20.7c-1.2-3.9-2.6-7.9-4-11.8
		c-6.7-19.5-13.7-39.6-6.9-57.7c5.9-15.7,9.6-43.2,1.7-49.1c-3.2-2.3-8.1-1-14.7,4.1c-30,21.1-44.2,28.2-49.2,24.2
		c-5.1-4.1,0.7-18.1,9.5-39.4l1.6-3.9c2.6-5.4,2.1-10.1-1.2-12.9c-3.6-3.1-10.8-3.7-17.5,1c-12.2,8.6-37.9,16.7-45.9,18.8l0,0
		c-17.3,4.4-22.9,5.4-36.6,1C409.1,428.7,395.9,427,384.6,427z"/>
	<path d="M623.3,661.1c-15.1,0-34.7-8.3-49.4-14.6c-3.6-1.5-7.1-3-10-4.1c-15.3-6-31.4,0.6-44.3,5.9c-4.2,1.7-7.8,3.2-10.9,4.1
		c-11.5,3.2-45.4,3.1-67.8,3l-7.6,0c-4.7,0-8.1-1.4-10.3-4.1c-4.9-6.2-2.2-17.6-0.2-26c0.7-2.7,1.2-5.1,1.3-6.7
		c0.4-4.7,6.9-12.8,13.8-21.3c5.8-7.2,11.9-14.7,14.3-20.3c5.8-13-0.6-32.1-1.9-35.8c-1.2-3.4-4.9-6.3-9.2-9.7
		c-3.8-3-8.1-6.3-11.6-10.8c-3-3.8-5.9-6.4-8.4-8.7c-3.5-3.2-6.3-5.7-6.8-9.7c-0.7-5.3-3.8-13.5-6.8-21.4l-1.3-3.5
		c-2.6-7-30.8-17.6-45.9-23.3c-3.4-1.3-6.5-2.4-8.7-3.3c-14.2-5.7-19.1-20.5-16.3-28.3l0,0c3.6-9.8,16.5-8.2,38-5.4
		c5.7,0.7,12.1,1.6,19.1,2.3c27.2,2.7,40.3,0.5,56.8-2.2c2.8-0.5,5.7-0.9,8.7-1.4c9.7-1.5,22.2-9.8,34.2-17.9
		c14-9.4,27.3-18.3,34.8-14.9c13.7,6.2-0.5,41.2-8.9,62.1l-0.5,1.3c-3.6,8.8-2.4,9.8-2.4,9.9c0.9,0.7,6-3.1,8.5-4.9
		c1-0.7,1.9-1.4,2.8-2.1c1.9-1.3,5-3.9,9-7.1c12-9.8,32-26.2,47-32.4c8.9-3.6,14.9-3.9,18.4-0.8c3.9,3.4,4.4,10.5,1.5,21.7
		c-1,4-2.4,8.5-4.1,13.6c-5.7,17.6-13.5,41.7-12.1,75c1.7,42.3,13.3,78.5,23.4,89.1c2.7,2.8,7.4,5.8,12.4,8.9
		c13.3,8.4,29.9,18.9,20.2,34.8C638.2,658.7,631.4,661.1,623.3,661.1z M551,638.2c4.5,0,9.1,0.7,13.6,2.5c2.9,1.1,6.4,2.6,10,4.2
		c22.1,9.4,55.5,23.6,66,6.4c8.7-14.3-6.3-23.8-19.6-32.2c-5.1-3.2-9.8-6.2-12.7-9.2c-10.4-10.9-22.2-47.6-24-90.3
		c-1.4-33.6,6.5-57.9,12.2-75.6c1.7-5.1,3.1-9.5,4.1-13.5c2.6-10.3,2.3-17-0.9-19.8c-2.9-2.5-8.4-2.1-16.5,1.2
		c-14.8,6.1-34.7,22.3-46.5,32.1c-4,3.3-7.2,5.9-9.1,7.2c-0.9,0.6-1.9,1.3-2.8,2c-5.4,4-8.8,6.3-10.8,4.8c-1.7-1.3-1.1-4.8,1.8-12.1
		l0.5-1.3c7.1-17.6,21.9-54.2,9.9-59.7c-6.5-3-19.4,5.6-33,14.7c-12.2,8.2-24.8,16.6-34.9,18.2c-3.1,0.5-5.9,1-8.7,1.4
		c-16.7,2.8-29.9,5-57.3,2.2c-7-0.7-13.4-1.5-19.1-2.3c-20.5-2.7-32.9-4.2-35.9,4.2l0,0c-2.6,7,2.1,20.6,15.2,25.9
		c2.3,0.9,5.3,2,8.7,3.3c22.3,8.4,44.3,17.2,47,24.4l1.3,3.5c3,8,6.2,16.3,6.9,21.9c0.5,3.3,2.7,5.4,6.2,8.5c2.4,2.2,5.5,5,8.6,8.9
		c3.4,4.3,7.5,7.5,11.2,10.4c4.5,3.5,8.4,6.6,9.9,10.6c1.4,3.8,7.9,23.5,1.8,37.2c-2.6,5.8-8.7,13.4-14.6,20.7
		c-6.4,8-13.1,16.2-13.4,20.3c-0.1,1.7-0.7,4.1-1.4,6.9c-1.9,8-4.5,18.9-0.2,24.3c1.8,2.3,4.7,3.4,8.8,3.4l7.6,0
		c21,0.1,56.1,0.2,67.3-3c3-0.8,6.6-2.3,10.7-4C527.9,642.8,539.3,638.2,551,638.2z"/>
	<path d="M640.4,678.7c-0.7,0-1.3,0-1.9,0c-10.4-0.2-28.7-3.5-48-7.1c-25.3-4.6-51.5-9.4-62.4-7.7c-19.2,3.1-103,8.1-112,1.8
		c-9.2-6.4-8-12.2-0.4-41.6c4.5-17.2,12.6-27.6,19.8-36.8c5.2-6.7,9.7-12.5,11.8-19.5c4.5-15.2-5.3-22.6-14-29.2l-2-1.5
		c-9.5-7.3-20.6-21.8-23.9-38c-3.1-15-12.6-20.7-25.9-24.7c-4.5-1.4-9.1-1.8-13.9-2.2c-8.5-0.8-18.2-1.7-31-8
		c-21.9-10.9-24.4-33.7-22.7-44.2l0,0c1.3-8,4.6-13.8,9.8-17.1c11.2-7.1,28.9-2,44.6,2.4c1.6,0.5,3.2,0.9,4.7,1.3
		c21.6,6,51.6,3.8,80.4,0.9c21.5-2.1,28.7-12.4,39.7-27.9c2.1-2.9,4.3-6.1,6.8-9.4c19-25.4,37.5-20.8,44.6-17.6
		c13.5,6-10.7,65.3-15.7,77.2c-4.5,10.6-4.1,12.5-3.9,12.8c0,0,0,0,0,0c0.2,0,1.4-0.3,5.7-3.8c8.5-7,47.4-36.1,69.1-44.8
		c9.8-4,15.6-4.5,18.9-1.9c4.3,3.4,3.8,11.7,1.4,25.7c-2.5,14.4-7.2,34.1-11.8,53.2c-2.8,11.4-5.6,23.2-7.9,33.6
		c-6.4,28.9,3.3,69.4,9.7,83.7c4.8,10.8,32.9,25.7,83.4,44.3c11.4,4.2,18.1,12.2,17.9,21.5c-0.2,6.5-3.9,12-9.2,13.7
		C695.9,669.8,666.1,678.7,640.4,678.7z M533.7,661.7c13.1,0,35.4,4.1,57.1,8.1c19.3,3.5,37.5,6.9,47.7,7.1
		c25.7,0.4,56.7-8.8,62.6-10.7c4.5-1.4,7.7-6.3,7.9-11.9c0.2-8.4-6-15.8-16.6-19.7c-51.8-19.1-79.4-33.9-84.5-45.4
		c-7.8-17.5-15.7-57.8-9.8-84.9c2.3-10.4,5.2-22.3,7.9-33.7c4.6-19,9.3-38.7,11.8-53c2.2-12.7,2.8-21.1-0.7-23.9
		c-2.7-2.1-8.1-1.5-17,2.2c-21.5,8.7-60.2,37.6-68.6,44.5c-4.1,3.4-6.5,4.9-8.1,3.8c-1.4-1.1-1.4-4,3.3-15.1
		c14-33.3,25.2-70.9,16.7-74.7c-14.1-6.3-29.5-0.1-42.2,17c-2.5,3.3-4.7,6.4-6.7,9.3c-11.3,15.9-18.7,26.5-41.1,28.7
		c-29,2.8-59.2,5.1-81.1-1c-1.5-0.4-3.1-0.9-4.7-1.3c-15.3-4.4-32.6-9.3-43-2.6c-4.8,3-7.7,8.2-8.9,15.8l0,0
		c-1.6,10.1,0.8,31.8,21.7,42.2c12.4,6.2,21.9,7.1,30.3,7.8c4.9,0.4,9.5,0.9,14.3,2.3c12.1,3.6,23.8,9.3,27.2,26.1
		c3.2,15.6,14.2,30.1,23.2,36.9l2,1.5c8.7,6.6,19.6,14.7,14.7,31.3c-2.2,7.4-6.8,13.3-12.1,20.2c-7,9.1-15,19.4-19.4,36.1
		c-7.7,29.4-8.3,34-0.4,39.5c7.9,5.5,89.8,1.2,110.6-2.1C529.4,661.8,531.4,661.7,533.7,661.7z"/>
	<path d="M656.4,692.4c-11.2,0-24.8-2.4-38.1-4.7c-10.6-1.8-20.6-3.6-28.6-3.9c-10.8-0.5-17.5-1.5-22.4-2.2
		c-9.5-1.4-13.4-2-29.5,2.9c-10.5,3.2-31.3,1.1-53.3-1.1c-11.9-1.2-24.3-2.5-34.4-2.7c-6.5-0.2-12.3-0.1-17.4-0.1
		c-17.6,0.1-27.3,0.1-30.4-7.9c-3.8-9.9,3.6-45.1,12.1-73.6c5.2-17.4,14-23.4,19.9-27.3c3.8-2.6,6.4-4.3,6.4-7.8
		c0.1-9-10.2-14.2-19.2-18.9l-1.2-0.6c-10.6-5.5-16.4-15.1-17.3-28.5c-0.9-13.4-6.6-21.4-15.6-30.1c-5.2-5.1-11.5-2.6-18.7,0.2
		c-4.4,1.7-8.9,3.5-13.7,3.8c-13.2,1-38.8-14.2-47.3-23.7l0,0c-5.2-5.9-5.2-16-5.1-31.2l0-3.5c0-8.1-2.2-12.4-4.8-17.5
		c-2.8-5.6-6.1-11.9-7.4-24.4c-0.5-5.3,0.8-9.2,4-11.5c8.3-5.8,28.5-0.8,61.9,15.2c24.2,11.6,37.5,9.3,69.7,3.6
		c5.8-1,12.3-2.2,19.5-3.3c27.9-4.5,37-21.9,44.3-35.9c5-9.5,8.9-17.1,17.4-17.1c13.2-0.1,20.7-2.2,26.8-3.9
		c6.7-1.9,11.6-3.3,19.7-0.5c2,0.7,3.5,2.1,4.5,4.2c5.7,12.2-7.2,46.4-14.9,66.9c-0.8,2.2-1.6,4.2-2.2,6c-3.5,9.5-2.5,10.7-2.4,10.8
		c0.7,0.6,4.9-2.4,7.2-4c1.4-1,2.9-2.1,4.3-3c1.7-1,4.9-3.2,9-6c16.7-11.3,47.9-32.3,64.7-39.2c6.8-2.8,11.6-3,14.6-0.6
		c4.9,3.9,3.2,13.7,2,20.7l-0.2,1.4c-0.8,4.5-4.8,15.7-9.4,28.6c-5.9,16.4-12.6,35-14.6,45.5c-2.7,13.7-3.3,19.4-4.9,33.1
		c-0.6,5.2-1.3,11.6-2.3,20c-3.6,29.8,0.3,56.6,10,68.4c9.4,11.4,42.8,20.1,69.8,22c7.8,0.5,16.7,5.5,26.1,10.7
		c7.4,4.1,15,8.3,22.7,10.8c5.2,1.7,10.6,2.5,15.3,3.3c10.6,1.6,19.7,3,20.2,13.3c0.6,14.9-19.1,34.2-39.8,39.1
		c-9.3,2.2-18.6,1.4-28.3,0.5c-11.3-1-22.9-2-34.7,2C666.4,691.9,661.7,692.4,656.4,692.4z M557.5,678.7c3.3,0,6.2,0.4,10.1,1
		c5.2,0.8,11.6,1.7,22.2,2.2c8.1,0.4,18.1,2.1,28.8,4c19.4,3.4,39.4,6.8,51.1,2.9c12.2-4.1,24-3.1,35.5-2.1
		c9.6,0.8,18.7,1.6,27.7-0.5c19.9-4.6,38.9-23,38.3-37.1c-0.4-8.7-8-9.9-18.5-11.5c-4.8-0.7-10.3-1.6-15.6-3.3
		c-7.9-2.6-15.6-6.9-23-11c-9.2-5.1-18-9.9-25.3-10.5c-27.3-1.9-61.4-10.9-71.1-22.7c-10.1-12.3-14.1-39.1-10.4-69.8
		c1-8.4,1.7-14.8,2.3-20c1.6-13.8,2.2-19.6,4.9-33.3c2.1-10.6,8.8-29.3,14.7-45.8c4.6-12.9,8.6-24,9.4-28.3l0.2-1.4
		c1.1-6.2,2.7-15.7-1.3-18.9c-2.4-1.9-6.6-1.6-12.7,0.9c-16.6,6.9-47.7,27.8-64.4,39.1c-4.1,2.8-7.4,5-9.1,6
		c-1.4,0.9-2.8,1.9-4.2,2.9c-4.2,3-7.5,5.4-9.4,3.9c-1.2-0.9-1.9-3.2,1.7-12.9c0.7-1.8,1.4-3.8,2.3-6c7.1-18.8,20.3-53.9,14.9-65.4
		c-0.8-1.7-1.9-2.7-3.4-3.2c-7.5-2.6-11.9-1.4-18.5,0.5c-6.2,1.7-13.9,3.9-27.3,4c-7.3,0-11,7.1-15.7,16.1
		c-7.1,13.6-16.8,32.2-45.7,36.9c-7.2,1.2-13.7,2.3-19.5,3.3c-32.6,5.7-46.1,8.1-70.8-3.8c-32.3-15.5-52.5-20.7-60-15.4
		c-2.7,1.9-3.7,5.1-3.2,9.7c1.3,12.2,4.4,18.4,7.2,23.8c2.7,5.3,5,9.8,5,18.4l0,3.5c-0.1,14.8-0.1,24.6,4.6,29.9l0,0
		c8.2,9.3,32.9,23.9,45.7,23.1c4.5-0.3,8.9-2,13.1-3.6c7.5-2.9,14.6-5.7,20.7,0.2c9,8.7,15.2,17.4,16.1,31.3
		c0.9,12.8,6.4,21.8,16.3,27l1.2,0.6c9.5,4.9,20.4,10.5,20.3,20.6c0,4.5-3.2,6.6-7.3,9.3c-6,4-14.2,9.6-19.2,26.3
		c-8.7,29.1-15.6,63.3-12.1,72.4c2.6,6.8,11.8,6.8,28.6,6.7c5.1,0,10.9-0.1,17.4,0.1c10.2,0.3,22.6,1.5,34.6,2.7
		c20.8,2.1,42.4,4.3,52.5,1.2C547.1,679.7,552.7,678.7,557.5,678.7z"/>
	<path d="M372.7,715.2c-5.8,0-10-1.5-12.4-4.3c-3.4-4.1-3.2-10.8,0.6-20.5c2.2-5.5,10.6-12.4,18.7-19.1c7-5.8,14.3-11.7,15.5-15.5
		c1-3,2-10.4,3.1-19c1.9-15.2,4.4-34,8.8-44.6c3.4-8.3,8.7-12.1,13.3-15.5c4.8-3.5,8.5-6.3,8.8-12.9c0.3-7.5-3-8.9-8.1-11
		c-3.4-1.4-7.7-3.2-11.7-7.5l-0.2-0.3c0-0.1-4.6-10.9-11.3-19.5c-2.4-3.1-4.1-7-6-11.1c-3.4-7.6-6.9-15.5-15-18.5
		c-4.4-1.6-6.9-0.4-10.5,1.2c-6.4,3-15.2,7.1-40.4-0.9c-15.9-5.1-47.8-26.5-39-57.1c6.9-23.8-0.1-36.8-6.8-49.3
		c-1.9-3.5-3.8-7.1-5.4-10.8c-2.4-5.8-2.8-9.3-1.3-11.5c2.3-3.3,8.2-3.1,18.1-2.9c3.9,0.1,8.3,0.2,13.3,0.1c0.2,0,0.5,0,0.7,0
		c12.3,0,22.5,5,33.3,10.3c11.4,5.6,24.4,12,42.1,13.5c35.9,2.9,84.2-9.8,98.8-33.4c13.1-21.1,28.8-26.4,44-31.5
		c2.7-0.9,5.4-1.8,8.1-2.8c15.7-5.8,27.4-8.7,33-8.1c0.9,0.1,1.7,0.9,2.5,2.4c4.4,8.7,8.5,44.5-8.6,74c-9.3,16.1-8.6,18.5-8.4,18.8
		c0.1,0.1,2.2,0.4,12.6-9.4c4.9-4.7,17.2-12.6,30.2-20.9c5.8-3.7,11.8-7.6,17.6-11.4c19.5-13,35.8-17.5,58.2-16.2
		c14,0.9,22.3,10.1,22.9,18.4c0.5,6.3-3.2,11.1-9.6,12.5c-10.8,2.4-12.6,5.6-18.6,16.2c-2.6,4.5-5.7,10.1-10.6,17.5
		c-17.6,26.7-28.6,61.5-33.5,106.3c-4.3,39.6,2.7,61.7,22.8,71.6c10.2,5,50.6,7.5,120.2,7.5c1,0,2.1,0,3.1,0c0,0,0.1,0,0.1,0
		c22.4,0,43,8.1,55.2,21.7c6.5,7.2,9.6,15.2,8.8,22.5c-2.3,20.3-59.1,59.3-78.7,66.1c-12.9,4.5-44.2,1.3-83.8-2.7
		c-24.8-2.5-52.9-5.3-80.8-6.7c-42.7-2-59.2-3.5-75.1-4.9c-10.7-0.9-21.8-1.9-41-3.1c-30.3-1.8-45.9,5.1-61,11.8
		c-8.6,3.8-16.7,7.4-27.1,9.4C378.9,714.8,375.6,715.2,372.7,715.2z M410.9,544.1c3.6,3.9,7.5,5.5,10.9,6.9c5.2,2.2,9.6,4,9.3,12.9
		c-0.3,7.5-4.6,10.7-9.6,14.3c-4.4,3.3-9.5,6.9-12.7,14.7c-4.3,10.3-6.7,29-8.6,44.1c-1.2,9.1-2.1,16.2-3.1,19.4
		c-1.4,4.3-8.6,10.1-16.1,16.4c-7.9,6.5-16.1,13.2-18.1,18.3c-3.5,8.8-3.8,15-0.9,18.5c3.1,3.7,9.9,4.6,20.4,2.6
		c10.2-2,18.2-5.5,26.7-9.2c15.3-6.8,31.2-13.8,61.9-12c19.2,1.1,30.3,2.1,41,3.1c15.9,1.4,32.3,2.8,75,4.9
		c28,1.3,56.1,4.2,80.9,6.7c39.4,4,70.5,7.1,83,2.8c21.2-7.4,75.4-46.2,77.4-64.5c0.7-6.7-2.2-14.2-8.3-21
		c-11.8-13.2-31.9-21.1-53.7-21.1c-1,0-2.2,0-3.3,0c-70.8,0-110.4-2.5-121-7.7c-20.9-10.3-28.3-32.9-23.9-73.5
		c4.9-45.1,15.9-80.1,33.8-107.1c4.8-7.3,8-12.9,10.5-17.4c6.2-10.9,8.2-14.5,19.9-17.1c5.5-1.2,8.5-5.1,8.1-10.5
		c-0.6-7.5-8.2-15.9-21.1-16.6c-21.9-1.3-37.9,3.1-57,15.9c-5.7,3.8-11.8,7.7-17.6,11.4c-12.9,8.3-25.1,16.2-29.9,20.7
		c-10.9,10.3-13.7,10.7-15.1,9.5c-1.6-1.2-1.7-4.7,8-21.3c16.6-28.7,12.5-61.9,9.1-70.7c-0.9-2.5-1.6-2.7-1.6-2.8
		c-2.4-0.2-10.5,0-32.1,8c-2.7,1-5.4,1.9-8.2,2.8c-14.9,5-30.2,10.1-43,30.7c-15,24.2-64.1,37.3-100.6,34.3
		c-18.2-1.5-31.3-7.9-42.8-13.6c-11-5.4-20.6-10.1-32.4-10.1c-0.2,0-0.5,0-0.7,0c-5.1,0.1-9.5,0-13.4-0.1
		c-8.9-0.2-14.8-0.4-16.4,2.1c-1.1,1.6-0.6,4.7,1.5,9.7c1.5,3.7,3.4,7.1,5.3,10.6c6.9,12.9,14,26.2,6.9,50.7
		c-4.7,16.3,3.2,29.1,10.6,37c8.4,8.9,19.9,15.4,27.1,17.7c24.4,7.8,32.8,3.9,39,1c3.7-1.7,6.8-3.2,11.9-1.3
		c8.8,3.3,12.5,11.5,16,19.5c1.8,4,3.5,7.8,5.7,10.7C405.8,532.6,410.3,542.7,410.9,544.1z"/>
	<path d="M741,753.4c-7,0-14.7-1.9-24-6.2c-27.5-12.6-44.3-11.5-67.6-10c-7,0.5-14.2,0.9-22.5,1.1c-15.7,0.4-32.4-3.8-50-8.2
		c-23.3-5.8-49.7-12.4-81.2-10.8c-29.5,1.4-41.1,10.6-50.4,18c-8.4,6.7-15,11.9-30.6,9c-14.4-2.7-29-0.7-41.8,1.1
		c-15.6,2.2-27.9,3.9-31.6-5.1l0,0c-4.5-11.3,6.3-46.6,9.7-57.1c4-12.3,16-17.2,25.6-21.2c5-2,9.2-3.8,11.2-6.1
		c4.2-4.8,5.5-26.9,6.5-41.5c0.4-6.4,0.7-11.9,1.2-14.9c0.8-5.3,6.2-11.6,11.4-17.6c5.5-6.4,11.1-13,11-17.8
		c-0.1-4.2-7.1-9.7-13.3-14.6c-2.2-1.7-4.2-3.3-5.9-4.8c-4.1-3.7-5.1-7.7-6.5-13.2c-1-4-2.2-8.9-4.9-15.4
		c-4.9-11.8-23.9-9.6-40.6-7.6c-4.4,0.5-8.6,1-12.3,1.2c-0.4,0-0.7,0-1.1,0c-12.7,0-25.1-12.2-37-24.1c-5-4.9-10.1-10-15.2-14.1
		c-17.7-14.3-17-22-9.1-32c6.9-8.7,7.9-19.7,3.4-37.8c-2.2-8.9-8.6-17.9-14.2-25.9c-5.1-7.2-9.4-13.4-10.5-18.7
		c-0.3-1.3-0.1-3.3,2.2-5.2c4.7-4,16.6-6.1,31.7-5.6c16.8,0.5,34.6,4.1,50.2,10c40.6,15.4,57.6,16.9,91,8.1
		c31-8.2,39.8-20.6,49.1-33.7c0.9-1.3,1.9-2.6,2.8-3.9c8.9-12.2,30.1-14.2,47.1-15.8c4-0.4,7.8-0.7,11.1-1.2
		c17.8-2.4,24-5.9,34.1-25.7c1.9-3.2,3.7-4.5,5.4-3.9c4.2,1.5,4.5,14.5,3.4,22.9c-0.4,3,0.1,8.5,0.6,14.9c1.3,15.4,3,36.5-4.3,48.2
		c-12.6,20.3-14.2,25.3-14.1,26.6c1.4-0.3,6.2-3.7,22.6-21.2c9.2-9.8,15.9-12.7,30.4-18.9c2.7-1.1,5.6-2.4,8.8-3.8
		c7.2-3.2,15.8-7.2,24.1-11.1c16-7.5,31.2-14.5,37.2-16c3-0.8,5-0.7,6.5,0.3c2.1,1.4,2.4,4.3,3,8.3c0.2,1.9,0.5,4,1,6.4
		c1.4,6.8,3.9,8.5,6.3,10.2c2.9,2,6,4,6.6,13.9c1.2,19.1-15.1,31.3-30.8,34.6c-12,2.5-19.4,31-28,63.9c-2.6,10-5.3,20.3-8.2,30.4
		c-10.9,37.5-12,58.8-3.5,71.2c10.5,15.5,36.6,17.8,76.1,21.4c27.6,2.5,62,5.6,102.9,14.1c6.7,1.4,16.9,0.7,27.8,0
		c17.6-1.1,35.7-2.3,43.4,4.8c2.4,2.2,3.6,5.2,3.7,8.8c0.2,24.5-51.9,78.4-87.8,104.6c-6.9,5-13,9.9-18.3,14.1
		C768,744.1,756.4,753.4,741,753.4z M669.2,734.4c14.6,0,29.2,2.2,48.6,11c28.8,13.2,42,2.8,65.9-16.2c5.4-4.3,11.5-9.1,18.4-14.2
		c39.5-28.9,87.2-81.3,87-103.1c0-3.1-1-5.5-3.1-7.4c-7.1-6.6-25.6-5.4-42-4.3c-11,0.7-21.3,1.4-28.3-0.1
		c-40.9-8.5-75.2-11.6-102.7-14.1c-40-3.6-66.5-6-77.5-22.2c-8.8-12.9-7.9-34.7,3.2-72.8c3-10.1,5.6-20.4,8.2-30.4
		c8.7-33.5,16.2-62.5,29.4-65.3c14.9-3.1,30.5-14.7,29.3-32.6c-0.6-8.9-3-10.5-5.7-12.4c-2.6-1.8-5.5-3.8-7.1-11.3
		c-0.5-2.4-0.8-4.6-1-6.5c-0.5-3.5-0.8-6-2.1-7c-0.9-0.6-2.5-0.6-4.9,0c-5.8,1.5-21.6,8.8-36.9,15.9c-8.3,3.9-16.9,7.9-24.2,11.1
		c-3.3,1.4-6.2,2.7-8.8,3.8c-14.3,6.1-20.9,8.9-29.8,18.4c-20.6,22-23.6,22.7-25.2,21.5c-1.2-0.9-3-2.3,13.7-29.2
		c7-11.2,5.3-32,4-47.1c-0.6-6.8-1-12.2-0.6-15.3c1.4-10.4,0-20.1-2.1-20.9c-0.5-0.2-1.6,0.5-3,3c-10.5,20.5-17.4,24.3-35.6,26.7
		c-3.4,0.5-7.2,0.8-11.2,1.2c-16.7,1.6-37.4,3.5-45.8,15c-1,1.3-1.9,2.6-2.8,3.9c-9.5,13.4-18.5,26.1-50.2,34.5
		c-33.8,9-51.1,7.5-92.1-8.1c-34.3-13-71.5-11.9-80-4.7c-1.3,1.1-1.8,2.2-1.5,3.4c1,4.9,5.4,11.3,10.2,18
		c5.7,8.1,12.1,17.2,14.5,26.5c4.6,18.5,3.5,30.3-3.7,39.4c-7.4,9.4-7.9,15.9,8.8,29.3c5.1,4.1,10.3,9.3,15.3,14.2
		c12,11.9,24.4,24.2,36.6,23.5c3.7-0.2,7.8-0.7,12.2-1.2c17.4-2,37.1-4.3,42.6,8.8c2.8,6.6,4,11.7,5,15.7c1.3,5.4,2.2,9,5.9,12.3
		c1.7,1.5,3.7,3,5.8,4.7c6.8,5.3,13.9,10.9,14.1,16c0.2,5.6-5.5,12.1-11.4,19.1c-5,5.9-10.2,11.9-11,16.7c-0.5,3-0.8,8.4-1.2,14.8
		c-1,16.7-2.3,37.4-6.9,42.6c-2.3,2.6-6.8,4.5-11.9,6.6c-9.3,3.8-20.8,8.6-24.5,20c-6.9,21.4-13.2,47.4-9.7,55.8
		c3.1,7.6,14.7,6,29.5,3.9c12.3-1.7,27.7-3.9,42.4-1.1c14.7,2.8,20.7-2,29-8.6c9.5-7.6,21.4-17,51.5-18.4
		c31.8-1.5,58.3,5.1,81.8,10.9c17.5,4.3,34.1,8.5,49.5,8.2c8.3-0.2,15.5-0.6,22.5-1.1C656.2,734.8,662.7,734.4,669.2,734.4z"/>
	<path d="M330.3,835.2c-1.8,0-3-0.5-3.7-1.5c-2.1-3,2-9,8.1-18.1c1.4-2.1,2.9-4.3,4.4-6.6c4-6.1,5.3-10.8,4.3-14.7
		c-1.5-5.7-8.1-10.1-17.6-15c-9.3-4.8-14.6-10.3-15.8-16.3c-0.8-4.3,0.5-8.7,4-12.8l0,0c24-28.1,25.6-48.7,26.7-63.8
		c0.3-4.2,0.6-7.8,1.3-11c2.4-10.6,13.6-13.2,24.4-15.7c4.8-1.1,9.3-2.2,13.1-3.9c7.7-3.5,7.8-22.9,7.9-38.5c0-8.6,0.1-16,1.2-20.2
		c2.1-7.4,8.3-14.4,13.3-20c3.3-3.7,6.2-7,7.1-9.4c0.8-2.3-2.5-4.2-8.2-6.9c-5.1-2.4-10.8-5.2-13.6-9.6c-2.7-4.3-2.4-9.1-2.1-14.2
		c0.3-5.8,0.7-11.8-3.5-17.2c-4.8-6.1-9.9-5.2-19-3.6c-5.5,1-12.3,2.2-21.1,2.3c-0.4,0-0.9,0-1.3,0c-20.2,0-27.2-6-36.7-14.2
		c-1.4-1.2-2.9-2.5-4.5-3.8c-1.5-1.2-3.2-2.6-5.2-4.2c-15.4-12-41.1-32.2-32.2-52.4c8.4-18.9,3.4-30.7-4.8-50.2
		c-1.3-3-2.6-6.2-4-9.7c-7.9-19.5-24.7-32.7-35.8-41.4c-3.6-2.8-6.4-5.1-8.2-6.9c-3.2-3.3-4-7.6-2-10.5c1.7-2.5,7.9-7.5,28.4,0.7
		c5,2,9.2,3.7,12.8,5.2c15.9,6.6,20.9,8.6,38.5,8.6c0.3,0,0.7,0,1,0c11.9,0,17.7,2.5,25,5.6c6.6,2.8,14.8,6.3,30.3,9.3
		c34.9,6.7,79.3,0.8,103.3-8.2c13.8-5.2,17.2-15.5,20.5-25.4c2.7-8.1,5.2-15.8,13.5-18.9c9.1-3.3,12.6-2.3,17.3-0.8
		c4.5,1.4,10.2,3.1,23.6,1.7c20.6-2.2,44.6-31,59-48.2c4.8-5.7,8.5-10.2,11.1-12.6c9.1-8.3,14.8-12,18.3-11.3c1.2,0.2,2.2,1,2.8,2.2
		c2.4,4.8-2.8,25.6-11.6,41.2c-8.6,15.2-15.6,45.6-15.6,57.4c0,9.8-1.3,17.4-2.3,22.9c-1.2,7.2-1.7,10.2,0.8,11.2
		c1.7,0.7,4.2-1.2,8.2-4.4c6.7-5.3,17.9-14.3,38.8-20.2c16.7-4.7,24.5-11.8,32.2-18.6c3-2.6,5.7-5.1,8.9-7.4
		c8.1-5.7,43.5-25,52-18.6c2.1,1.6,2.5,4.5,1.1,8.6c-7.1,20.5-1.7,34.2,8,59.1l1.2,3c9.4,24.3,2.9,29.5-6.9,37.3
		c-1.3,1-2.6,2.1-4,3.2c-6.3,5.3-13.1,6.4-20.3,7.6c-6.7,1.1-13.7,2.2-20.8,6.9c-16.1,10.5-24.3,64.6-25.8,75.4
		c-7.4,54,40.5,64.8,50.2,66.4c23.8,4,93.4,9.4,116.5-1.4c15.2-7.2,50,0.9,76.5,12.6c7.3,3.2,24.5,11.5,26.7,18.7
		c4.2,13.4-11.4,30.7-29.4,50.9l-4.1,4.6c-8.5,9.5-17.5,23.5-26.3,37c-10.8,16.6-21,32.3-29.2,38.4c-14,10.5-61.3,36-83,40.8
		c-15.1,3.4-65.4-3.6-102.2-8.6c-14.9-2.1-27.7-3.8-35.5-4.6c-13.1-1.2-25.7,1.7-37.9,4.5c-13.1,3.1-25.5,6-37.7,3.6
		c-16.3-3.2-31.3,4.1-47.2,11.9c-6.4,3.1-13,6.4-19.9,9c-17.2,6.5-38.4,5.6-53.9,5c-6.1-0.3-11.3-0.5-15.3-0.2
		c-7.3,0.4-21.7,12.6-35.6,24.3c-13.4,11.3-26,22-33.8,23.9C333.3,834.9,331.6,835.2,330.3,835.2z M372.1,513.1
		c4.3,0,7.7,1.3,11,5.6c4.7,6,4.3,12.6,3.9,18.5c-0.3,4.8-0.6,9.3,1.8,13c2.5,4,7.9,6.6,12.8,8.9c5.7,2.8,10.7,5.1,9.2,9.3
		c-1,2.7-4,6.1-7.4,10c-4.9,5.5-10.9,12.3-12.8,19.3c-1.1,4-1.1,11.6-1.2,19.7c-0.1,17-0.2,36.3-9,40.3c-3.9,1.8-8.8,2.9-13.4,4
		c-10.3,2.4-20.9,4.9-23,14.3c-0.7,3.1-1,6.6-1.3,10.7c-1.1,14.4-2.8,36.3-27.2,64.9l0,0c-3.1,3.6-4.3,7.5-3.6,11.2
		c1,5.3,6.2,10.5,14.8,15c10.2,5.3,16.9,9.8,18.6,16.2c1.2,4.5-0.2,9.7-4.5,16.2c-1.5,2.3-3,4.5-4.4,6.7c-4.7,6.9-9.5,14-8.2,15.9
		c0.3,0.4,1.5,1.2,6.7,0c7.3-1.8,20.4-12.8,33-23.5c14.8-12.5,28.8-24.3,36.7-24.8c4.1-0.2,9.4,0,15.5,0.2
		c15.3,0.6,36.2,1.5,53.1-4.9c6.8-2.6,13.4-5.8,19.7-8.9c16.2-7.9,31.5-15.4,48.4-12.1c11.8,2.3,24-0.5,36.9-3.5
		c12.3-2.9,25-5.8,38.5-4.6c7.8,0.7,20.7,2.5,35.6,4.6c36.6,5.1,86.7,12,101.5,8.7c21.5-4.8,68.3-30.1,82.2-40.5
		c7.9-5.9,18-21.5,28.7-37.9c8.8-13.5,17.9-27.6,26.4-37.2l4.1-4.6c16.9-18.9,32.8-36.7,29-49c-1.4-4.4-11.2-11.1-25.7-17.5
		c-25.4-11.2-60.3-19.4-74.9-12.6c-25,11.8-99.8,4.6-117.6,1.6c-10-1.7-59.5-12.8-51.8-68.5c2.1-15.3,10.3-66,26.6-76.7
		c7.4-4.9,14.6-6.1,21.6-7.2c7-1.1,13.6-2.2,19.4-7.2c1.4-1.2,2.7-2.3,4-3.3c9.5-7.6,15.3-12.2,6.3-35.1l-1.2-3
		c-9.9-25.3-15.3-39.2-8-60.4c1.1-3.2,1-5.4-0.4-6.5c-6.7-5.1-38.6,10.8-49.7,18.6c-3.1,2.2-5.9,4.6-8.8,7.2
		c-7.4,6.6-15.8,14.1-32.9,19c-20.5,5.8-31.5,14.6-38.1,19.8c-4.6,3.6-7.3,5.8-10.1,4.7c-4-1.7-3.2-6-2-13.3
		c0.9-5.4,2.2-12.9,2.2-22.6c0-12,7.1-42.9,15.9-58.3c8.8-15.6,13.4-35.6,11.5-39.4c-0.3-0.7-0.8-1-1.4-1.2
		c-2.7-0.5-8.3,3.1-16.7,10.8c-2.5,2.3-6.2,6.8-10.9,12.4c-15.5,18.6-38.9,46.6-60.2,48.9c-13.8,1.5-19.7-0.3-24.4-1.7
		c-4.6-1.4-7.6-2.3-16.1,0.8c-7.5,2.7-9.7,9.7-12.4,17.7c-3.3,9.9-6.9,21.1-21.6,26.6c-24.2,9.1-69,15.1-104.3,8.3
		c-15.7-3-24-6.6-30.7-9.4c-7.4-3.2-12.8-5.4-24.3-5.4c-0.3,0-0.7,0-1,0c-18,0-23-2.1-39.2-8.8c-3.6-1.5-7.8-3.2-12.8-5.2
		c-15.7-6.2-23.8-4.8-26.1-1.4c-1.5,2.2-0.7,5.4,1.8,8.1c1.6,1.7,4.4,3.9,8,6.7c11.3,8.9,28.4,22.2,36.4,42.2c1.4,3.4,2.7,6.6,4,9.6
		c8.4,20,13.5,32.1,4.8,51.8c-8.3,18.9,16.7,38.4,31.6,50.2c2,1.6,3.8,3,5.3,4.2c1.6,1.3,3.1,2.6,4.5,3.8c9.2,8,15.9,13.7,35.5,13.7
		c0.4,0,0.8,0,1.2,0c8.7-0.1,15.4-1.3,20.8-2.3C366.1,513.7,369.3,513.1,372.1,513.1z"/>
	<path d="M337.2,874.9c-4.8,0-9.7-1.7-15-6l0,0c-11.1-9.1-17.4-19.7-18.1-30.8c-0.6-9,2.7-18.3,8.8-24.8c9.3-9.8,6-15.7,1.8-23.1
		l-0.6-1c-1.9-3.4-7.7-7.1-12.7-10.3c-6.9-4.3-12.8-8.1-10.9-11.8c0.8-1.5,2-2.9,3.8-4.7c4.5-4.8,12.9-13.7,24.4-40.4
		c11.8-27.4,13.2-40.7,14.2-50.4l0.2-2.2c0.9-8.2,11.6-9.7,23-11.2c4-0.5,8.1-1.1,11.9-2c10.6-2.4,9.6-24.4,9-38.9
		c-0.2-3.9-0.3-7.3-0.2-9.8c0.2-7.2,6.4-15.7,11.8-23.2c3.9-5.5,7.7-10.6,7.2-13c-0.6-3.6-5.2-7.5-10.1-11.6c-3-2.5-6-5.1-8.5-7.9
		c-5.4-6.2-6-13.8-6.5-20.6c-0.1-1.7-0.3-3.4-0.4-5c-0.6-4.9-16-4.4-30.9-3.9c-7.2,0.2-14.6,0.5-21.7,0.3
		c-18.8-0.6-41-23.8-55.7-39.2c-4.2-4.4-7.8-8.1-10.4-10.4c-8.2-7.1-5.4-18.3-2.1-31.2c1.6-6.4,3.3-13.1,3.8-20
		c1.5-18.9-20.7-47.5-35.4-66.4l-3.1-4c-6.6-8.5-14.2-15.8-20.3-21.7c-7.4-7.1-10.7-10.4-10.3-12.7c0.1-0.5,0.3-1.1,1.2-1.6
		c1.1-0.5,10.8-5.2,31.1-5.2c0.3,0,0.6,0,1,0c24.8,0.2,54.1,6.8,87.3,19.8c62.9,24.6,75.4,20,98.1,11.7c5.4-2,11.6-4.2,19.1-6.3
		c22.5-6.2,33.5-24.9,42.3-39.9c6.2-10.6,11.1-19,18.3-20c8.8-1.2,12.3,4.5,15.7,9.9c3.5,5.6,7.1,11.4,16.3,11.7c0.2,0,0.4,0,0.6,0
		c14.7,0,27.8-15.6,40.4-30.8c3.3-3.9,6.6-7.9,10-11.6c13.1-14.5,33.7-28.7,47.3-38.1c3.6-2.5,6.8-4.7,9.2-6.5
		c4.4-3.2,7.3-1.4,8.6,0c5.7,5.9,4.8,24.6-4,35.7c-33.8,43.1-33.5,85.2-27.7,94.7c0.5,0.9,1.4,1.9,2.3,1.7
		c8.7-1.7,45.5-19.5,69.6-36.8c13-9.4,21-24,28.8-38.1c6.7-12.2,13.1-23.8,22.1-30.8c8.7-6.8,15.4-9,19.9-6.6
		c4.7,2.5,6.6,9.6,5.8,21.2c-0.1,1.8-0.3,3.9-0.5,6.1c-1.7,21.1-4.5,56.3,2.3,68l1.3,2.2c6.4,11,6.8,11.7,3.6,21.2
		c-1.4,4.2-1.1,5.8-0.3,9.5c0.9,4.3,2.5,11.4,2.3,28.3c-0.2,18.7-7,22.8-17.3,28.9c-7.6,4.5-17,10.1-27.9,23.4
		c-40.9,49.5-13.5,82.6-1.8,96.7c12.7,15.3,51.4,16.3,91.4,15c27.3-0.9,47.4,3.7,63.5,7.4c5.2,1.2,10.1,2.3,14.4,3
		c6.7,1.1,11.4,2.4,15.5,3.6c6.6,1.8,11.3,3.1,19.6,2.4c1.3-0.1,2.5-0.2,3.8-0.4c12.7-1.3,27.2-2.8,33.5,11.4
		c7.2,16.2,1.9,33.1-14,45.1c-16.4,12.4-30.9,29.4-59.5,69.8c-33.6,47.4-56.5,65.2-69.8,71.8c-16.4,8.2-111.9,19.3-133.3,16.9
		c-88-9.9-147.7,15-173.1,25.6c-6.3,2.6-10.9,4.5-13.6,5c-5.4,0.9-13.4,1.8-22.5,2.9c-13.9,1.6-31.2,3.5-49.4,6.7
		c-17,2.9-20,9.4-23.2,16.3c-2.5,5.3-5.1,10.8-13.7,14.9c-5.5,2.6-10.7,6.4-15.7,10C354.3,868.9,346.1,874.9,337.2,874.9z
		 M323.4,867.4c14,11.4,25.3,3.2,38.4-6.2c5.1-3.7,10.3-7.5,16-10.2c8-3.9,10.4-8.8,12.8-14c3.3-7,6.7-14.2,24.6-17.3
		c18.2-3.2,35.5-5.1,49.5-6.7c9.1-1,17-1.9,22.4-2.9c2.5-0.4,7-2.3,13.2-4.9c25.6-10.7,85.6-35.6,174.1-25.7
		c25.4,2.9,118.6-9.9,132.2-16.7c13.1-6.5,35.7-24.2,69.1-71.2c28.8-40.6,43.4-57.7,60-70.2c15.2-11.5,20.2-27.5,13.4-42.8
		c-5.7-12.9-18.8-11.6-31.5-10.3c-1.3,0.1-2.6,0.3-3.9,0.4c-8.6,0.8-13.5-0.6-20.2-2.4c-4.1-1.1-8.7-2.4-15.3-3.5
		c-4.4-0.7-9.3-1.9-14.6-3.1c-16-3.7-35.9-8.3-63-7.4c-37.7,1.2-79,1-92.9-15.7c-12-14.5-40.1-48.4,1.8-99.1
		c11.1-13.5,20.7-19.2,28.4-23.8c10.4-6.2,16.2-9.7,16.4-27.3c0.2-16.7-1.3-23.7-2.2-27.9c-0.8-3.9-1.3-5.8,0.3-10.6
		c3-8.7,3-8.7-3.4-19.6l-1.3-2.2c-7.1-12.2-4.3-47.8-2.6-69.1c0.2-2.2,0.3-4.3,0.5-6.1c0.8-10.6-0.9-17.3-4.8-19.4
		c-3.7-2-9.9,0.2-17.8,6.4c-8.7,6.8-15,18.2-21.6,30.2c-7.9,14.3-16.1,29.2-29.4,38.8c-24.2,17.5-61.5,35.4-70.3,37.1
		c-0.9,0.2-2.7,0.1-4.3-2.5c-6-9.8-6.6-53,27.8-96.8c8.6-11,8.7-28.5,4.1-33.2c-1.6-1.7-3.7-1.6-6.1,0.2c-2.5,1.8-5.6,4-9.3,6.5
		c-13.5,9.4-34,23.5-46.9,37.9c-3.3,3.7-6.7,7.7-9.9,11.6C544,283,530.6,299,515.1,299c-0.2,0-0.5,0-0.7,0
		c-10.3-0.3-14.3-6.8-17.9-12.6c-3.4-5.4-6.2-10.1-13.8-9.1c-6.3,0.9-11,8.9-16.9,19c-9,15.3-20.2,34.4-43.4,40.8
		c-7.4,2.1-13.6,4.3-19,6.3c-23.1,8.5-35.8,13.1-99.4-11.8c-81.9-32-116.4-15.5-117.8-14.8c-0.4,1.6,4.7,6.5,9.6,11.2
		c6.2,5.9,13.8,13.3,20.5,21.9l3.1,4c14.9,19.1,37.3,48,35.8,67.7c-0.5,7-2.2,13.8-3.9,20.3c-3.1,12.3-5.8,22.9,1.5,29.3
		c2.7,2.3,6.3,6.1,10.5,10.5c14.5,15.2,36.3,38.1,54.4,38.6c7,0.2,14.4,0,21.6-0.2c18-0.6,32.1-1,32.9,5.6c0.2,1.7,0.3,3.4,0.5,5.1
		c0.5,6.8,1,13.8,6,19.5c2.4,2.7,5.4,5.2,8.3,7.7c5.1,4.4,9.9,8.5,10.7,12.8c0.6,3.2-3,8.2-7.6,14.5c-5.3,7.3-11.2,15.5-11.4,22.2
		c-0.1,2.5,0.1,5.8,0.2,9.7c0.7,16,1.7,38-10.5,40.8c-3.8,0.9-8,1.5-12.1,2c-10.6,1.4-20.6,2.8-21.3,9.6l-0.2,2.2
		c-1,9.8-2.5,23.3-14.3,51c-11.6,27-20.2,36.1-24.8,41c-1.6,1.7-2.8,2.9-3.4,4.2c-1.1,2.2,4.9,6,10.2,9.3
		c5.5,3.5,11.2,7.1,13.4,10.9l0.6,1c4.2,7.4,8.2,14.5-2.1,25.3c-5.8,6.1-8.9,14.8-8.3,23.3C306.6,848.5,312.6,858.7,323.4,867.4
		L323.4,867.4z"/>
	<path d="M377.6,935.4c-20.3,0-39-13.3-58.4-27.1l0,0c-33.8-24-37-70.3-35.5-84.7c0.6-5.6,5.1-8.4,9.5-11.1c5-3.1,9.7-5.9,9.7-12.7
		c0-6.2-4.9-9.6-10-13.2c-5.4-3.8-11.1-7.8-10.9-15.4c0.3-10.6,6.7-19.1,15.6-30.9c3.2-4.2,6.8-9,10.6-14.5
		c9.5-13.8,14.2-35.1,17.6-50.8c1.6-7.4,2.9-13.3,4.3-16.4c2.5-5.6,8.6-7.1,16.4-8.8c6.6-1.5,14.1-3.2,21.8-7.9
		c10.4-6.2,7.1-15.9,3.6-26.2c-2-5.7-3.8-11.1-3.2-15.8c1.1-8,5.6-11.5,10-14.9c2.9-2.2,5.5-4.3,7.2-7.6c2.1-4.1-1-6.3-6.3-9.3
		c-3.1-1.7-6.2-3.5-7.3-6.2c-1.4-3.3-3.8-7.3-7-12.5c-2.6-4.3-5.6-9.2-8.9-15.1c-4-7.3-14.7-6.6-28.3-5.8
		c-9.6,0.6-20.5,1.2-31.1-0.9c-27.1-5.4-52.3-35.6-58.7-50.9c-6-14.3-5.5-17.5-3-32.9c0.4-2.3,0.8-4.8,1.2-7.7
		c4-26-28.9-70-39.1-82.9l-3.6-4.6c-17.4-21.9-25.3-31.8-18-46.7c6.7-13.7,19.8-8.7,36.4-2.3c3,1.1,6.1,2.3,9.4,3.5
		c11.5,4.1,25.9,4.9,44.1,6c15.3,0.9,32.6,1.9,53.1,5.1c41.9,6.4,95,7.4,115.5-3.3c12.2-6.4,15.2-21.2,18.1-35.5
		c1.6-8,3.1-15.6,6.3-21.3c2.7-4.8,5.5-7.3,8.8-7.6c5.7-0.4,10.8,5.8,16.3,12.5c0.7,0.9,1.4,1.7,2.1,2.6c8.2,9.9,15.2,11.4,41,9
		c16.7-1.5,35.8-23.3,56-46.4c10.7-12.2,21.7-24.8,33.1-35.3c14.6-13.4,34.8-22.7,47.2-13.2c5.5,4.2,6.9,10.8,3.7,16.9
		c-41.4,79.2-56,126.6-48.7,131c3.5,2.1,18.4-2.7,81.3-93.1c5.3-7.6,10.1-15.2,14.3-21.9c13.9-22,24-38,37.1-32.8
		c16.5,6.5,25,51.9,21.3,86.6c-1.8,17.2-4.4,25.7-6.5,32.5c-1.9,6.4-3.4,11-3.1,20c0.2,7.1,1.3,11.8,2.3,15.5
		c1.5,5.9,2.5,9.8-2.4,17.5c-4.3,6.7-1.9,17.1,0.2,26.2c1.5,6.6,3,12.8,1.9,17.3c-3,13-8.8,34.3-19.1,62.1
		c-5.5,14.9-6,26.8-1.4,36.3c7.5,15.6,27.5,22.3,45.2,28.3c10.7,3.6,20.8,7,27.5,12c23.7,17.8,69.6,21.1,101.8,18.6
		c19.5-1.6,34.2,2.1,43.6,10.7c7.5,6.9,11.2,16.8,11.2,29.5c0,23.6-9.9,32.5-26.4,47.4c-4.7,4.2-10,9-15.7,14.7
		c-9.6,9.6-20.3,26.1-31.6,43.6c-18.9,29.3-40.4,62.4-65,76.9c-30,17.6-94.7,24.2-146.7,29.5c-15.7,1.6-30.6,3.1-42.2,4.7
		c-24.6,3.5-51.6,18.2-80.1,33.8c-27.2,14.9-55.4,30.3-82.8,36.2c-35.3,7.6-42.6,16.5-51.9,27.8c-5.2,6.3-11.1,13.5-22.8,21.5
		C397.1,932.4,387.2,935.4,377.6,935.4z M320.3,906.7c28,19.9,54.4,38.7,86.4,16.9c11.5-7.9,17.3-14.9,22.4-21.2
		c9.5-11.6,17-20.7,53-28.5c27.1-5.8,55.1-21.2,82.3-36c28.7-15.7,55.8-30.5,80.8-34c11.6-1.6,26.5-3.1,42.3-4.8
		c51.8-5.3,116.3-11.8,146-29.3c24.2-14.2,45.5-47.2,64.4-76.3c11.4-17.6,22.1-34.1,31.9-43.9c5.8-5.8,11.1-10.6,15.8-14.8
		c16.1-14.5,25.7-23.2,25.7-46c0-12.1-3.6-21.6-10.6-28.1c-8.8-8.2-23.4-11.7-42.1-10.2c-32.5,2.6-78.9-0.9-103.1-19
		c-6.4-4.8-16.4-8.2-27-11.7c-18.1-6.1-38.6-12.9-46.4-29.2c-4.8-10-4.4-22.4,1.3-37.8c10.3-27.7,16-49,19.1-61.9
		c1-4.1-0.4-10.1-1.9-16.4c-2.2-9.5-4.7-20.3,0-27.7c4.5-7,3.7-10.2,2.2-16c-1-3.8-2.2-8.6-2.3-15.9c-0.2-9.3,1.3-14.3,3.2-20.6
		c2-6.7,4.6-15.1,6.4-32.1c3.5-33.3-4.7-78.5-20.1-84.7c-11.6-4.6-21.3,10.8-34.8,32c-4.2,6.7-9,14.3-14.4,21.9
		c-46.9,67.4-75,98.9-83.8,93.6c-11.4-6.9,16.9-74.1,48-133.5c2.7-5.2,1.5-10.9-3.2-14.5c-8.3-6.4-25.4-4.8-44.8,13.1
		c-11.3,10.4-22.3,23-32.9,35.1c-20.5,23.4-39.8,45.4-57.2,47c-26.4,2.4-33.9,0.7-42.6-9.7c-0.7-0.9-1.4-1.7-2.1-2.6
		c-4.8-5.8-9.7-11.8-14.2-11.8c-0.1,0-0.3,0-0.4,0c-2.5,0.2-4.9,2.4-7.2,6.6c-3,5.4-4.5,12.8-6.1,20.7c-2.8,14.1-6.1,30.1-19.1,36.8
		c-20.8,10.9-74.5,10-116.6,3.5c-20.4-3.1-37.7-4.1-52.9-5c-18.3-1.1-32.8-1.9-44.6-6.1c-3.3-1.2-6.4-2.4-9.4-3.5
		c-16.2-6.2-28-10.8-34,1.4c-6.8,13.8,0.4,22.8,17.8,44.7l3.6,4.6c13.2,16.7,43.5,58.3,39.4,84.4c-0.4,2.9-0.9,5.5-1.2,7.7
		c-2.5,15.3-2.9,18,2.9,31.8c7.2,17.1,33.1,44.9,57.3,49.8c10.4,2.1,21.1,1.4,30.6,0.9c13.7-0.8,25.5-1.5,30.1,6.8
		c3.3,5.9,6.2,10.8,8.8,15.1c3.2,5.2,5.7,9.4,7.1,12.8c0.9,2.1,3.7,3.7,6.5,5.3c4.7,2.7,10.1,5.7,7.1,11.8c-1.8,3.7-4.8,6-7.7,8.2
		c-4.3,3.3-8.3,6.4-9.2,13.7c-0.6,4.3,1.2,9.5,3.1,14.9c3.4,10,7.3,21.4-4.4,28.4c-8,4.8-16,6.6-22.4,8.1c-7.5,1.7-13,3-15.1,7.7
		c-1.3,3-2.6,8.8-4.2,16.1c-3.4,15.8-8.2,37.4-17.9,51.4c-3.8,5.5-7.4,10.3-10.6,14.5c-8.7,11.5-15,19.8-15.2,29.8
		c-0.2,6.6,4.8,10.1,10.1,13.8c5.3,3.7,10.7,7.5,10.8,14.8c0.1,7.8-5.6,11.3-10.6,14.3c-4.2,2.6-8.2,5-8.6,9.7
		C284.3,835.2,286.7,882.8,320.3,906.7L320.3,906.7z"/>
</g>
</svg>
