<?xml version="1.0" encoding="utf-8"?>
<!-- Generator: Adobe Illustrator 25.2.0, SVG Export Plug-In . SVG Version: 6.00 Build 0)  -->
<svg version="1.1" id="レイヤー_1" xmlns="http://www.w3.org/2000/svg" xmlns:xlink="http://www.w3.org/1999/xlink" x="0px"
	 y="0px" viewBox="0 0 1141.9 845.9" style="enable-background:new 0 0 1141.9 845.9;" xml:space="preserve">
<style type="text/css">
	.st0{fill:none;}
</style>
<rect class="st0" width="1141.9" height="848.2"/>
<g>
	<path d="M970.9,677.2h-800v-114h800V677.2z M177.4,670.8h787.1v-101H177.4V670.8z"/>
	<g>
		<path d="M172.7,301.5l20.7-117.3H223l16.2,67.3h1l40-67.3h31.5l-20.7,117.3h-25.3l13.1-74.3h-1.4L242,286.7h-15.6l-13.8-59.5h-1.5
			l-12.9,74.3H172.7z"/>
		<path d="M326.6,244.7c4.2-22.5,22-36.5,45.4-36.5c26,0,43,15.2,43,39.4c0,4.5-0.3,7.9-0.9,11.1l-1.5,8
			c-4.6,22.6-21.3,36.7-45.8,36.7c-25.4,0-42.5-14.9-42.5-38.8c0-4.4,0.3-8.3,0.9-11.8L326.6,244.7z M353,257.5
			c-0.4,2.5-0.7,5.1-0.7,7.8c0,10.3,5.7,17.1,15,17.1c9.3,0,15.5-7.2,17.6-20.1l1.5-9.3c0.3-2.7,0.5-6.1,0.5-7.6
			c0-10-5.6-16.5-14.8-16.5c-8.9,0-15.5,6.4-17.6,19.8L353,257.5z"/>
		<path d="M510.9,301.5h-26.5l2.5-14.1h-1.5c-3.9,8-12.4,15.5-26.2,15.5c-16.5,0-27.8-10.1-27.8-27.4c0-6,0.8-11.1,1.6-15.7l9-50
			h27.4l-8.7,49.4c-0.4,2.8-0.9,6.4-0.9,9.3c0,8.7,5.6,13.1,12.6,13.1c10.1,0,15.9-7.4,18.1-20.3l9-51.5H527L510.9,301.5z"/>
		<path d="M551.9,209.8h27l-2.5,13.9h1.5c4.1-8.3,12.3-15.3,26-15.3c17.7,0,27.6,11.8,27.6,27.7c0,5.9-1.1,12.5-2,17.2l-8.5,48.3
			h-27.5l8.6-49.6c0.4-2.6,0.9-6.4,0.9-8.9c0-8.5-5.1-13.5-12.2-13.5c-10.1,0-16.1,7.5-18.3,20.4l-9,51.7h-27.6L551.9,209.8z"/>
		<path d="M671.2,188.4h26.4l-3.9,22.7h18.9l-3.7,20.5h-18.5l-6.3,35.8c-0.7,3.6-0.8,5.1-0.8,6.2c0,6.1,3.4,8.5,10.5,8.5
			c3.2,0,6.4-0.4,8.1-0.7l-3.4,19.3c-2.4,0.6-7.9,1.3-14.3,1.3c-19.3,0-29.3-6.2-29.3-19.8c0-2.1,0.3-5.1,0.9-8.2l7.6-42.5h-13
			l3.7-20.5h13.2L671.2,188.4z"/>
		<path d="M718.2,276.9c0-0.4,0-0.9,0.1-1.5c0.6-18.6,15.9-27.8,37.6-27.8h20.9l1.1-6.4c0.1-0.7,0.2-1.8,0.2-2.8
			c0-5.6-4.1-10.4-12.3-10.4c-6.9,0-11.2,3.4-12.4,8.1h-25.7c1.9-14.1,14.3-27.8,39.8-27.8c22.6,0,37,10.7,37,30.6
			c0,2.4-0.4,5.8-0.9,8.8l-9.5,53.8h-25.6l2.1-11.7h-1.4c-3.2,6.4-10.9,13.1-23.8,13.1C730.3,302.9,718.2,293.5,718.2,276.9z
			 M757,283.8c7.3,0,14.2-4.8,15.5-11.9l1.7-9.5h-14.5c-9.2,0-14.1,4.8-14.1,11C745.6,279.6,750.2,283.8,757,283.8z"/>
		<path d="M835.3,209.8h27.4l-16.2,91.8H819L835.3,209.8z M853.6,169.8c10.1,0,15.9,5.6,15.9,13.3c0,8.5-7,14.1-17.1,14.1
			c-9.9,0-15.8-5.4-15.8-13.2C836.6,175.5,843.6,169.8,853.6,169.8z"/>
		<path d="M888.3,209.8h27l-2.5,13.9h1.5c4.1-8.3,12.3-15.3,26-15.3c17.7,0,27.6,11.8,27.6,27.7c0,5.9-1.1,12.5-2,17.2l-8.5,48.3
			h-27.5l8.6-49.6c0.4-2.6,0.9-6.4,0.9-8.9c0-8.5-5.1-13.5-12.2-13.5c-10.1,0-16.1,7.5-18.3,20.4l-9,51.7h-27.6L888.3,209.8z"/>
		<path d="M234.3,389.4c33.5,0,47.4,20.3,47.4,37.7c0,0.6-0.1,2.8-0.3,3.4h-27.2c0.1-0.6,0.1-1.5,0-2.4c-0.3-5.9-5.2-15.9-19.9-15.9
			c-13.5,0-22.4,9.7-25.7,27.5l-2.5,13.1c-0.5,3.1-1,7.7-1,10.8c0,15.6,9.3,24.3,21.8,24.3c12,0,21-6.5,22.7-15.2l1.5-8.2H230
			l3.3-18.5h47.4l-4.5,25.6c-4.2,23.6-22.2,39-50.8,39c-27,0-48.8-14.4-48.8-46.7c0-3.9,0.6-9.7,1.3-13.3l2.8-15.3
			C185.7,407.4,203.9,389.4,234.3,389.4z"/>
		<path d="M379.1,508.7h-26.5l2.5-14.1h-1.5c-3.9,8-12.4,15.5-26.2,15.5c-16.5,0-27.8-10.1-27.8-27.4c0-6,0.8-11.1,1.6-15.7l9-50
			h27.4l-8.7,49.4c-0.4,2.8-0.9,6.4-0.9,9.3c0,8.7,5.6,13.1,12.6,13.1c10.1,0,15.9-7.4,18.1-20.3l9-51.5h27.4L379.1,508.7z"/>
		<path d="M421,417h27.4l-16.2,91.8h-27.5L421,417z M439.3,377c10.1,0,15.9,5.6,15.9,13.3c0,8.5-7,14.1-17.1,14.1
			c-9.9,0-15.8-5.4-15.8-13.2C422.3,382.7,429.2,377,439.3,377z"/>
		<path d="M526.3,434.9h1.2l8.8-49.7H564l-21.7,123.5h-27.6l2.7-14.7h-1.5c-3.2,8.5-12.4,15.6-25.5,15.6c-18.3,0-30.2-12.6-30.2-34
			c0-4.1,0.3-8.8,1.1-12.7l1.7-9c4.4-23.4,17.5-38,37.6-38C514.9,415.9,524.8,424.9,526.3,434.9z M509,437.4
			c-9.7,0-15.9,7.7-18,19.5l-1.5,7.7c-0.3,1.6-0.5,4.5-0.5,6.9c0,10.5,5.6,16.8,14.5,16.8c9.6,0,16-7.6,18.2-20.3l1.4-7.6
			c0.3-1.6,0.5-4.6,0.5-6.4C523.6,443.2,516.8,437.4,509,437.4z"/>
		<path d="M570.1,473.3c0-4.2,0.5-8.5,1.2-12.3l1.4-8c4.5-25.6,23.2-37.7,45-37.7c24.1,0,39.6,16.2,38.6,39.8
			c0,1.1-0.9,7.9-2.2,13.4h-56.9c-0.4,1.9-0.7,4.9-0.7,6.9c0,8.2,4.6,15,15.5,15c7.6,0,13.2-3.4,14.6-9.3h25.6
			c-1.9,15.6-17.4,29.4-41.9,29.4C587.7,510.5,570.1,498.5,570.1,473.3z M630.4,450.7c0.9-8.6-3.4-15.6-13.2-15.6
			c-8.2,0-14.2,5.1-16.5,14.9l-0.8,3.5h30.3C630.3,452.6,630.4,451.4,630.4,450.7z"/>
	</g>
	<rect x="171.6" y="341.8" width="790.9" height="16.5"/>
	<g>
		<path d="M230.1,624.3c0,0.1-0.1,0.2-0.1,0.5c0,2.5,2.6,3.7,5.3,3.7c1.7,0,4.6-0.5,4.6-2.8c0-1.8-1.9-2.4-4.5-3.1l-4.3-1.3
			c-4.7-1.4-8.4-4.1-8.4-10.2c0-8.4,7-12.9,15.8-12.9c9.5,0,14.9,5.2,14.9,11.1c0,0.6-0.1,0.8-0.1,1.1h-10.2c0-0.1,0-0.3,0-0.4
			c0-2.4-2.4-3.4-4.7-3.4c-2.6,0-4.1,1.3-4.1,2.9c0,1.5,1.5,2.5,4.2,3.3l4.5,1.3c4.1,1.1,8.4,3.6,8.4,9.9c0,8.4-7.6,12.9-16.6,12.9
			c-7.2,0-15.5-2.8-15.5-11.3c0-0.5,0-0.8,0.1-1.1H230.1z"/>
		<path d="M267.4,636.2l6.6-37.3h11.5l-2.4,14h10.8l2.4-14h11.5l-6.6,37.3h-11.5l2.5-14.2h-10.8l-2.5,14.2H267.4z"/>
		<path d="M323.3,613.2c1.7-9.5,8.1-15,18-15c9.4,0,16,5.5,16,14.5c0,1.3,0,2.6-0.2,4l-0.9,5c-1.8,9.4-8,15-18,15
			c-9.4,0-15.9-5.5-15.9-14.5c0-1.3,0-2.8,0.2-4L323.3,613.2z M333.9,618.5c-0.2,1.2-0.3,2.3-0.3,3.1c0,3.3,1.6,6,5,6
			c2.9,0,5.2-2.3,6.2-7.9l0.6-3.4c0.2-1.1,0.3-2.3,0.3-3.1c0-3.3-1.6-6-5-6c-2.9,0-5.2,2.3-6.2,7.9L333.9,618.5z"/>
		<path d="M401.1,624.1c-1.5,8.4-7.5,12.7-15.4,12.7c-7.8,0-14.4-4.2-14.4-12.4c0-1.2,0.2-2.2,0.3-2.7l10.9-0.1
			c-0.1,0.5-0.1,1-0.1,1.3c0,2,1,3.8,3.4,3.8c2.7,0,3.6-2.1,4-4.3l4.1-23.6h11.5L401.1,624.1z"/>
		<path d="M418.1,636.2l6.6-37.3h11.5l-6.6,37.3H418.1z"/>
		<path d="M473.2,636.2l6.6-37.3H492l3.9,17.5h0.4l10.2-17.5h12.9l-6.6,37.3h-10.1l3.8-21.2H506l-9.1,15.5h-6.1l-3.2-15.5h-0.5
			l-3.7,21.2H473.2z"/>
		<path d="M546.9,598.9h14.5l4.8,37.3h-12.4l-0.4-7.1h-9.9l-2.8,7.1h-11.6L546.9,598.9z M552,608.4l-5.1,12.7h6.2l-0.5-12.7H552z"/>
		<path d="M588.7,636.2l5-28.1h-9.1l1.6-9.2h29.7l-1.6,9.2h-9.1l-5,28.1H588.7z"/>
		<path d="M636.6,624.3c0,0.1-0.1,0.2-0.1,0.5c0,2.5,2.6,3.7,5.3,3.7c1.7,0,4.6-0.5,4.6-2.8c0-1.8-1.9-2.4-4.5-3.1l-4.3-1.3
			c-4.7-1.4-8.4-4.1-8.4-10.2c0-8.4,7-12.9,15.8-12.9c9.5,0,14.9,5.2,14.9,11.1c0,0.6-0.1,0.8-0.1,1.1h-10.2c0-0.1,0-0.3,0-0.4
			c0-2.4-2.4-3.4-4.7-3.4c-2.6,0-4.1,1.3-4.1,2.9c0,1.5,1.5,2.5,4.2,3.3l4.5,1.3c4.1,1.1,8.4,3.6,8.4,9.9c0,8.4-7.6,12.9-16.6,12.9
			c-7.2,0-15.5-2.8-15.5-11.3c0-0.5,0-0.8,0.1-1.1H636.6z"/>
		<path d="M687.7,621c-0.1,0.6-0.2,1.2-0.2,1.8c0,2.7,1.8,4.4,4.9,4.4c2.5,0,4.3-1.4,5-5.2l4.1-23.1H713l-4.5,26.2
			c-1.3,7.4-7.9,11.7-16.9,11.7c-8.2,0-15.7-3.9-15.7-12.5c0-0.8,0.1-1.8,0.2-2.7l4-22.7h11.5L687.7,621z"/>
		<path d="M725.6,636.2l6.6-37.3h12.3l3.9,17.5h0.4l10.2-17.5h12.9l-6.6,37.3h-10.1l3.8-21.2h-0.5l-9.1,15.5h-6.1l-3.2-15.5h-0.5
			l-3.7,21.2H725.6z"/>
		<path d="M787.3,613.2c1.7-9.5,8.1-15,18-15c9.4,0,16,5.5,16,14.5c0,1.3,0,2.6-0.2,4l-0.9,5c-1.8,9.4-8,15-18,15
			c-9.4,0-15.9-5.5-15.9-14.5c0-1.3,0-2.8,0.2-4L787.3,613.2z M798,618.5c-0.2,1.2-0.3,2.3-0.3,3.1c0,3.3,1.6,6,5,6
			c2.9,0,5.2-2.3,6.2-7.9l0.6-3.4c0.2-1.1,0.3-2.3,0.3-3.1c0-3.3-1.6-6-5-6c-2.9,0-5.2,2.3-6.2,7.9L798,618.5z"/>
		<path d="M841.7,636.2l5-28.1h-9.1l1.6-9.2h29.7l-1.6,9.2h-9.1l-5,28.1H841.7z"/>
		<path d="M881.4,613.2c1.7-9.5,8.1-15,18-15c9.4,0,16,5.5,16,14.5c0,1.3,0,2.6-0.3,4l-0.9,5c-1.8,9.4-8,15-18,15
			c-9.4,0-15.9-5.5-15.9-14.5c0-1.3,0-2.8,0.2-4L881.4,613.2z M892,618.5c-0.2,1.2-0.3,2.3-0.3,3.1c0,3.3,1.6,6,5,6
			c2.9,0,5.2-2.3,6.2-7.9l0.6-3.4c0.2-1.1,0.3-2.3,0.3-3.1c0-3.3-1.6-6-5-6c-2.9,0-5.2,2.3-6.2,7.9L892,618.5z"/>
	</g>
</g>
</svg>
